<svg xmlns="http://www.w3.org/2000/svg" width="1239" height="780" viewBox="0 0 1239 780">
  <g id="Grupo_145985" data-name="Grupo 145985" transform="translate(-181 -3056)">
    <rect id="Rectángulo_44524" data-name="Rectángulo 44524" width="400" height="93" transform="translate(600 3056)" fill="#483c8c"/>
    <text id="Servicios_de_estética_ornamental_cosmética_facial_y_corporal" data-name="Servicios de estética ornamental, 
cosmética facial y corporal" transform="translate(797 3097)" fill="#fff" font-size="20" font-family="Roboto-Bold, Roboto" font-weight="700"><tspan x="-152.354" y="0">Servicios de estética ornamental, </tspan><tspan x="-121.309" y="27">cosmética facial y corporal</tspan></text>
    <text id="estructurado" transform="translate(797 3219)" fill="#12263f" font-size="16" font-family="Roboto-Regular, Roboto"><tspan x="-45.281" y="0">estructurado</tspan></text>
    <text id="Temas" transform="translate(797 3328)" fill="#12263f" font-size="16" font-family="Roboto-Regular, Roboto"><tspan x="-24.5" y="0">Temas</tspan></text>
    <text id="Tales_como" data-name="Tales como" transform="translate(797 3418)" fill="#12263f" font-size="16" font-family="Roboto-Regular, Roboto"><tspan x="-41.293" y="0">Tales como</tspan></text>
    <g id="Rectángulo_44525" data-name="Rectángulo 44525" transform="translate(705 3293)" fill="none" stroke="#483c8c" stroke-width="1">
      <rect width="190" height="59" stroke="none"/>
      <rect x="0.5" y="0.5" width="189" height="58" fill="none"/>
    </g>
    <rect id="Rectángulo_44526" data-name="Rectángulo 44526" width="400" height="63" transform="translate(600 3497)" fill="#fde9e0"/>
    <text id="_2._Riesgos_laborales_y_biológicos" data-name="2. Riesgos laborales y biológicos" transform="translate(797 3537)" fill="#12263f" font-size="20" font-family="Roboto-Medium, Roboto" font-weight="500"><tspan x="-146.733" y="0">2. Riesgos laborales y biológicos</tspan></text>
    <rect id="Rectángulo_44527" data-name="Rectángulo 44527" width="400" height="63" transform="translate(181 3497)" fill="#fde9e0"/>
    <text id="_1._Marco_normativo:_estética" data-name="1. Marco normativo: estética" transform="translate(378 3537)" fill="#12263f" font-size="20" font-family="Roboto-Medium, Roboto" font-weight="500"><tspan x="-128.184" y="0">1. Marco normativo: estética</tspan></text>
    <rect id="Rectángulo_44528" data-name="Rectángulo 44528" width="400" height="63" transform="translate(1020 3497)" fill="#fde9e0"/>
    <text id="_3._Elementos_de_protección_personal" data-name="3. Elementos de protección personal" transform="translate(1217 3537)" fill="#12263f" font-size="20" font-family="Roboto-Medium, Roboto" font-weight="500"><tspan x="-163.208" y="0">3. Elementos de protección personal</tspan></text>
    <text id="Tiene_subtemas_como" data-name="Tiene subtemas como" transform="translate(378 3625)" fill="#12263f" font-size="16" font-family="Roboto-Regular, Roboto"><tspan x="-79.254" y="0">Tiene subtemas como</tspan></text>
    <rect id="Rectángulo_44529" data-name="Rectángulo 44529" width="346" height="72" transform="translate(212 3645)" fill="#defaff"/>
    <text id="Apertura_y_funcionamiento:_cosmética_ornamental_facial_y_corporal" data-name="Apertura y funcionamiento: cosmética 
ornamental, facial y corporal" transform="translate(389 3675)" fill="#12263f" font-size="16" font-family="Roboto-Regular, Roboto"><tspan x="-137.398" y="0">Apertura y funcionamiento: cosmética </tspan><tspan x="-100.805" y="24">ornamental, facial y corporal</tspan></text>
    <rect id="Rectángulo_44530" data-name="Rectángulo 44530" width="346" height="72" transform="translate(212 3764)" fill="#defaff"/>
    <text id="Aseguramiento_del_personal_de_la_estética" data-name="Aseguramiento del personal de la estética" transform="translate(389 3806)" fill="#12263f" font-size="16" font-family="Roboto-Regular, Roboto"><tspan x="-148.859" y="0">Aseguramiento del personal de la estética</tspan></text>
    <path id="Trazado_194070" data-name="Trazado 194070" d="M-1057-8275.687v-32.762h837.172v32.762" transform="translate(1438 11755)" fill="none" stroke="#707070" stroke-width="1"/>
    <path id="Trazado_194071" data-name="Trazado 194071" d="M-638-8308.449v30.246" transform="translate(1438 11755)" fill="none" stroke="#707070" stroke-width="1"/>
    <path id="Polígono_38" data-name="Polígono 38" d="M8.5,0,17,15H0Z" transform="translate(390 3487) rotate(180)" fill="#483c8c"/>
    <path id="Polígono_39" data-name="Polígono 39" d="M8.5,0,17,15H0Z" transform="translate(809 3487) rotate(180)" fill="#483c8c"/>
    <path id="Polígono_40" data-name="Polígono 40" d="M8.5,0,17,15H0Z" transform="translate(1227 3487) rotate(180)" fill="#483c8c"/>
    <path id="Trazado_194072" data-name="Trazado 194072" d="M-638-8308.449v30.246" transform="translate(1438 11457.449)" fill="none" stroke="#707070" stroke-width="1"/>
    <path id="Polígono_41" data-name="Polígono 41" d="M8.5,0,17,15H0Z" transform="translate(809 3189.449) rotate(180)" fill="#483c8c"/>
    <path id="Trazado_194073" data-name="Trazado 194073" d="M-638-8308.449v30.246" transform="translate(1438 11546)" fill="none" stroke="#707070" stroke-width="1"/>
    <path id="Polígono_42" data-name="Polígono 42" d="M8.5,0,17,15H0Z" transform="translate(809 3278) rotate(180)" fill="#483c8c"/>
    <path id="Trazado_194074" data-name="Trazado 194074" d="M-638-8308.449v30.246" transform="translate(1438 11660.449)" fill="none" stroke="#707070" stroke-width="1"/>
    <path id="Polígono_43" data-name="Polígono 43" d="M8.5,0,17,15H0Z" transform="translate(809 3392.449) rotate(180)" fill="#483c8c"/>
    <path id="Trazado_194075" data-name="Trazado 194075" d="M-638-8308.449v30.246" transform="translate(1019 11868.449)" fill="none" stroke="#707070" stroke-width="1"/>
    <path id="Polígono_44" data-name="Polígono 44" d="M8.5,0,17,15H0Z" transform="translate(390 3600.449) rotate(180)" fill="#483c8c"/>
    <path id="Trazado_194076" data-name="Trazado 194076" d="M-638-8308.449v30.246" transform="translate(1019 12025.449)" fill="none" stroke="#707070" stroke-width="1"/>
    <path id="Polígono_45" data-name="Polígono 45" d="M8.5,0,17,15H0Z" transform="translate(390 3757.449) rotate(180)" fill="#483c8c"/>
  </g>
</svg>
