<svg xmlns="http://www.w3.org/2000/svg" width="133" height="133" viewBox="0 0 133 133">
  <g id="Grupo_145982" data-name="Grupo 145982" transform="translate(-471 -1476)">
    <rect id="Rectángulo_44474" data-name="Rectángulo 44474" width="133" height="133" rx="66.5" transform="translate(471 1476)" fill="#f18385"/>
    <g id="mascarilla-medica" transform="translate(485.002 1409.523)">
      <g id="Grupo_145920" data-name="Grupo 145920" transform="translate(11.708 107.25)">
        <g id="Grupo_145919" data-name="Grupo 145919" transform="translate(0 0)">
          <g id="XMLID_857_" transform="translate(0)">
            <g id="Grupo_145918" data-name="Grupo 145918">
              <path id="Trazado_194040" data-name="Trazado 194040" d="M135.628,121.125c4.926,15.759,4.977,30.093.03,42.963a1.821,1.821,0,0,1-1.03,1.038Q98.666,179.4,62.7,165.133a1.832,1.832,0,0,1-1.042-1.07,61.221,61.221,0,0,1-.01-42.957,1.825,1.825,0,0,1,1.1-1.1q37.939-13.686,71.815-.034A1.83,1.83,0,0,1,135.628,121.125Z" transform="translate(-57.766 -113.158)" fill="#a7eedc"/>
            </g>
          </g>
          <path id="Trazado_194041" data-name="Trazado 194041" d="M111.695,184.832q-24.5,3.524-48.991-6.191a1.832,1.832,0,0,1-1.042-1.07,61.221,61.221,0,0,1-.01-42.957,1.825,1.825,0,0,1,1.1-1.1q5.548-2,11.01-3.417c-3.262,10.192-1.98,27.378-.751,37.77A13.427,13.427,0,0,0,82.65,179.2c8.467,2.426,21.346,5.7,29.045,5.635Z" transform="translate(-57.766 -126.667)" fill="#86e8d0"/>
        </g>
      </g>
      <path id="Trazado_194042" data-name="Trazado 194042" d="M103.733,117.874l-.347-.594a9.338,9.338,0,0,0-12.77-3.362,3.33,3.33,0,0,0-1.537-1.26c-2.6-1.049-5.271-1.994-7.93-2.808a1.52,1.52,0,0,0-.891,2.907c2.577.79,5.163,1.705,7.685,2.721a.309.309,0,0,1,.177.192q.553,1.77,1.019,3.516c-23.176-4.255-47.813-4.195-73.31.183q.544-1.834,1.2-3.657a.308.308,0,0,1,.185-.182,111.643,111.643,0,0,1,29-6.464,91.552,91.552,0,0,1,27.669,1.984,1.52,1.52,0,0,0,.679-2.964c-18.533-4.248-38.176-2.706-58.384,4.583A3.338,3.338,0,0,0,14.506,114a9.329,9.329,0,0,0-12.9,3.282l-.347.595a9.377,9.377,0,0,0-.527,8.352S12.883,154.8,12.9,154.835q.578,1.927,1.277,3.844a3.349,3.349,0,0,0,1.91,1.959A98.836,98.836,0,0,0,52.6,167.875h.009a98.848,98.848,0,0,0,36.523-7.245,3.35,3.35,0,0,0,1.888-1.9,55.558,55.558,0,0,0,1.819-5.619l11.421-26.88a9.376,9.376,0,0,0-.526-8.353Zm-13.468,33a194.3,194.3,0,0,1-60.235,2.362,1.52,1.52,0,1,0-.35,3.021A199.441,199.441,0,0,0,52.664,157.6a198.862,198.862,0,0,0,36.723-3.466q-.541,1.772-1.2,3.5a.305.305,0,0,1-.172.169,95.821,95.821,0,0,1-35.4,7.03H52.6a95.822,95.822,0,0,1-35.392-7.023.308.308,0,0,1-.175-.177q-.631-1.725-1.153-3.458c2.422.45,4.857.862,7.273,1.221a1.52,1.52,0,1,0,.447-3.007c-2.863-.426-5.755-.923-8.616-1.475a59.707,59.707,0,0,1-1.679-11.477H58.826a1.52,1.52,0,0,0,0-3.041H13.241c.008-1.427.064-2.854.178-4.278a1.52,1.52,0,1,0-3.031-.243,60.779,60.779,0,0,0-.037,9.2l-6.815-16.04a6.321,6.321,0,0,1,.356-5.631l.347-.595a6.293,6.293,0,0,1,9.17-1.9,68.416,68.416,0,0,0-2.129,8.322,1.52,1.52,0,1,0,2.988.563c.2-1.061.433-2.127.691-3.193,26.134-4.644,51.35-4.7,74.983-.179a70.9,70.9,0,0,1,1.79,13.97H65.853a1.52,1.52,0,1,0,0,3.041H91.726a55.9,55.9,0,0,1-1.461,11.436Zm11.2-25.837-6.745,15.875a74.079,74.079,0,0,0-3.065-24.041,6.29,6.29,0,0,1,9.108,1.94l.347.595A6.323,6.323,0,0,1,101.461,125.037Z"/>
    </g>
  </g>
</svg>
