<svg xmlns="http://www.w3.org/2000/svg" width="133" height="133" viewBox="0 0 133 133">
  <g id="Grupo_145981" data-name="Grupo 145981" transform="translate(-996 -1142)">
    <rect id="Rectángulo_44482" data-name="Rectángulo 44482" width="133" height="133" rx="66.5" transform="translate(996 1142)" fill="#f18385"/>
    <g id="Grupo_145917" data-name="Grupo 145917" transform="translate(172 -855.929)">
      <path id="Trazado_194031" data-name="Trazado 194031" d="M136.8,335.4a7.4,7.4,0,0,0-7.4-7.4h-74a7.4,7.4,0,0,0-7.4,7.4v14.8a11.1,11.1,0,0,0,11.1,11.1H70.2a22.183,22.183,0,0,0,19.073-10.83,3.663,3.663,0,0,1,6.253,0A22.183,22.183,0,0,0,114.6,361.3h11.1a11.1,11.1,0,0,0,11.1-11.1h0Zm-77.7,0a3.7,3.7,0,0,0-3.7,3.7A3.7,3.7,0,0,1,59.1,335.4Z" transform="translate(798.1 1719.85)" fill="#defaff"/>
      <g id="Grupo_145916" data-name="Grupo 145916" transform="translate(836.85 2055.25)">
        <path id="Trazado_194032" data-name="Trazado 194032" d="M432,384h9.25v9.25H432Z" transform="translate(-333.953 -378.45)" fill="#8ee5f6"/>
        <path id="Trazado_194033" data-name="Trazado 194033" d="M432,360h9.25v5.55H432Z" transform="translate(-333.953 -360)" fill="#8ee5f6"/>
        <path id="Trazado_194034" data-name="Trazado 194034" d="M8,392v9.25h9.25V392Z" transform="translate(-8 -384.6)" fill="#8ee5f6"/>
        <path id="Trazado_194035" data-name="Trazado 194035" d="M8,368h9.25v5.55H8Z" transform="translate(-8 -366.15)" fill="#8ee5f6"/>
      </g>
      <path id="Trazado_194037" data-name="Trazado 194037" d="M101.6,352H77.55A5.55,5.55,0,0,0,72,357.55v7.4a1.85,1.85,0,1,0,3.7,0v-7.4a1.85,1.85,0,0,1,1.85-1.85H101.6a1.85,1.85,0,0,0,0-3.7Z" transform="translate(779.649 1701.4)" fill="#231f20"/>
      <path id="Trazado_194038" data-name="Trazado 194038" d="M109.146,327.4h-7.585A9.266,9.266,0,0,0,92.5,320h-74a9.261,9.261,0,0,0-9.25,9.25H1.85A1.85,1.85,0,0,0,0,331.1v14.8a1.85,1.85,0,0,0,1.85,1.85H9.8A12.966,12.966,0,0,0,22.2,357H33.3a24.18,24.18,0,0,0,20.66-11.73,1.815,1.815,0,0,1,3.078,0A24.18,24.18,0,0,0,77.7,357H88.8a12.95,12.95,0,0,0,12.8-11.1h7.548a1.85,1.85,0,0,0,1.85-1.85v-14.8A1.85,1.85,0,0,0,109.146,327.4Zm-1.85,5.55h-5.55V331.1h5.55Zm-98.047,0v1.85H3.7v-1.85Zm-5.55,11.1V338.5H9.25v5.55Zm85.1,9.25H77.7a20.467,20.467,0,0,1-17.486-9.929,5.513,5.513,0,0,0-9.435,0A20.468,20.468,0,0,1,33.3,353.3H22.2a9.261,9.261,0,0,1-9.25-9.25v-14.8a5.55,5.55,0,0,1,5.55-5.55h74a5.55,5.55,0,0,1,5.55,5.55v14.8A9.261,9.261,0,0,1,88.8,353.3Zm12.95-11.1v-5.55h5.55v5.55Z" transform="translate(835 1726)" fill="#231f20"/>
      <path id="Trazado_194039" data-name="Trazado 194039" d="M229.55,352h-3.7a1.85,1.85,0,1,0,0,3.7h3.7a1.85,1.85,0,1,0,0-3.7Z" transform="translate(662.798 1701.4)" fill="#231f20"/>
    </g>
  </g>
</svg>
