<svg xmlns="http://www.w3.org/2000/svg" width="133" height="133" viewBox="0 0 133 133">
  <g id="Grupo_145983" data-name="Grupo 145983" transform="translate(-996 -1476)">
    <rect id="Rectángulo_44482" data-name="Rectángulo 44482" width="133" height="133" rx="66.5" transform="translate(996 1476)" fill="#483c8c"/>
    <g id="en-general" transform="translate(932.473 1494.752)">
      <g id="Grupo_145921" data-name="Grupo 145921" transform="translate(113.215 1.433)">
        <path id="Trazado_194043" data-name="Trazado 194043" d="M320.443,8.017h-3.056a1.528,1.528,0,0,0-1.528,1.528V29.411h6.113V9.545A1.528,1.528,0,0,0,320.443,8.017Z" transform="translate(-288.353 -8.017)" fill="#8ee5f6"/>
        <path id="Trazado_194044" data-name="Trazado 194044" d="M166.522,8.017h-3.056a1.528,1.528,0,0,0-1.528,1.528V29.411h6.113V9.545A1.528,1.528,0,0,0,166.522,8.017Z" transform="translate(-161.938 -8.017)" fill="#8ee5f6"/>
      </g>
      <path id="Trazado_194045" data-name="Trazado 194045" d="M161.059,194.969H142.531a1.528,1.528,0,0,1-1.515-1.326l-2.677-20.081a1.745,1.745,0,0,0-1.73-1.515h0a1.745,1.745,0,0,0-1.73,1.515L132.2,193.643a1.528,1.528,0,0,1-1.515,1.326H112.159a1.528,1.528,0,0,1-1.528-1.528V154.862a7.641,7.641,0,0,1,1.674-4.773l2.764-3.455a7.641,7.641,0,0,0,1.674-4.773v-12.6a1.528,1.528,0,0,1,1.528-1.528h36.675a1.528,1.528,0,0,1,1.528,1.528v12.6a7.641,7.641,0,0,0,1.674,4.773l2.764,3.455a7.641,7.641,0,0,1,1.674,4.773v38.579A1.528,1.528,0,0,1,161.059,194.969Z" transform="translate(-6.584 -104.906)" fill="#8ee5f6"/>
      <g id="Grupo_145922" data-name="Grupo 145922" transform="translate(104.047 28.939)">
        <path id="Trazado_194046" data-name="Trazado 194046" d="M112.16,286.855a6.112,6.112,0,0,0,6.113-6.113V273.1H110.73a7.619,7.619,0,0,0-.1,1.152v12.6Z" transform="translate(-110.632 -253.236)" fill="#fde9e0"/>
        <path id="Trazado_194047" data-name="Trazado 194047" d="M358.614,280.743a6.112,6.112,0,0,0,6.113,6.113h1.528v-12.6a7.622,7.622,0,0,0-.1-1.152h-7.543v7.641Z" transform="translate(-314.298 -253.236)" fill="#fde9e0"/>
        <path id="Trazado_194048" data-name="Trazado 194048" d="M112.159,475.891h18.528a1.528,1.528,0,0,0,1.515-1.326l.638-4.786H110.631v4.584A1.528,1.528,0,0,0,112.159,475.891Z" transform="translate(-110.631 -414.766)" fill="#fde9e0"/>
        <path id="Trazado_194049" data-name="Trazado 194049" d="M277.091,469.779l.638,4.786a1.528,1.528,0,0,0,1.515,1.326h18.528a1.528,1.528,0,0,0,1.528-1.528v-4.584Z" transform="translate(-247.344 -414.766)" fill="#fde9e0"/>
        <path id="Trazado_194050" data-name="Trazado 194050" d="M228.526,169.813a2.916,2.916,0,0,1-1.055,2.311,11.552,11.552,0,0,1-13.171,0,2.916,2.916,0,0,1-1.055-2.311v-7.876h15.281v7.876Z" transform="translate(-194.908 -161.937)" fill="#fde9e0"/>
      </g>
      <path id="Trazado_194051" data-name="Trazado 194051" d="M155.447,44.288l-2.764-3.455a6.23,6.23,0,0,1-1.36-3.878v-12.6a2.964,2.964,0,0,0-2.961-2.961h-.1V2.961A2.964,2.964,0,0,0,145.306,0H142.25a2.964,2.964,0,0,0-2.961,2.961V21.394H120.76V2.961A2.964,2.964,0,0,0,117.8,0h-3.056a2.964,2.964,0,0,0-2.961,2.961V21.394h-.1a2.964,2.964,0,0,0-2.961,2.961v12.6a6.229,6.229,0,0,1-1.36,3.878L104.6,44.289a9.1,9.1,0,0,0-1.988,5.668V88.536a2.964,2.964,0,0,0,2.961,2.961H124.1a2.97,2.97,0,0,0,2.935-2.569l2.678-20.081a.313.313,0,0,1,.62,0l2.677,20.081a2.97,2.97,0,0,0,2.935,2.569h18.528a2.964,2.964,0,0,0,2.961-2.961V49.956A9.105,9.105,0,0,0,155.447,44.288ZM142.154,2.961a.1.1,0,0,1,.1-.1h3.056a.1.1,0,0,1,.1.1V21.394h-3.247V2.961Zm-27.506,0a.1.1,0,0,1,.1-.1H117.8a.1.1,0,0,1,.1.1V21.394h-3.247V2.961Zm-9.169,47.276h4.775v6.208a4.685,4.685,0,0,1-4.68,4.68h-.1ZM124.2,88.548a.1.1,0,0,1-.095.083H105.575a.1.1,0,0,1-.1-.1V85.384h19.14Zm4.4-22.494a3.185,3.185,0,0,0-1.718,2.412L125,82.519H105.479V63.99h.1a7.554,7.554,0,0,0,7.545-7.545V50.237h15.472V66.055ZM106.045,47.372a6.176,6.176,0,0,1,.795-1.293l2.764-3.455a9.106,9.106,0,0,0,1.988-5.668v-12.6a.1.1,0,0,1,.1-.1h36.675a.1.1,0,0,1,.1.1v12.6a9.106,9.106,0,0,0,1.988,5.668l2.764,3.455A6.2,6.2,0,0,1,154,47.372ZM154.57,88.536a.1.1,0,0,1-.1.1H135.947a.1.1,0,0,1-.095-.083l-.422-3.164h19.14Zm0-6.017H135.048l-1.873-14.051a3.186,3.186,0,0,0-1.718-2.412V50.237H146.93v6.208a7.554,7.554,0,0,0,7.545,7.545h.1V82.519Zm-.1-21.394a4.685,4.685,0,0,1-4.68-4.68V50.237h4.775V61.125h-.1Z"/>
      <path id="Trazado_194052" data-name="Trazado 194052" d="M172.505,156.785a1.433,1.433,0,0,0,0-2.865h-.015a1.433,1.433,0,0,0,.015,2.865Z" transform="translate(-56.219 -126.414)"/>
      <path id="Trazado_194053" data-name="Trazado 194053" d="M326.426,156.785a1.433,1.433,0,1,0,0-2.865h-.015a1.433,1.433,0,0,0,.015,2.865Z" transform="translate(-182.633 -126.414)"/>
      <path id="Trazado_194054" data-name="Trazado 194054" d="M206.831,166.667a12.974,12.974,0,0,0,14.939,0,4.31,4.31,0,0,0,1.6-3.438v-7.876a1.432,1.432,0,0,0-1.433-1.433H206.66a1.432,1.432,0,0,0-1.433,1.433v7.876A4.311,4.311,0,0,0,206.831,166.667Zm1.261-9.882h12.416v6.444a1.493,1.493,0,0,1-.505,1.183,10.137,10.137,0,0,1-11.405,0,1.492,1.492,0,0,1-.506-1.183Z" transform="translate(-84.276 -126.414)"/>
    </g>
  </g>
</svg>
