<svg xmlns="http://www.w3.org/2000/svg" width="133" height="133" viewBox="0 0 133 133">
  <g id="Grupo_145984" data-name="Grupo 145984" transform="translate(-471 -1818)">
    <rect id="Rectángulo_44474" data-name="Rectángulo 44474" width="133" height="133" rx="66.5" transform="translate(471 1818)" fill="#483c8c"/>
    <g id="botas" transform="translate(508 1849.68)">
      <g id="Grupo_145923" data-name="Grupo 145923" transform="translate(16.768 2.975)">
        <path id="Trazado_194055" data-name="Trazado 194055" d="M147.076,20.207l14.276-3.772a1.314,1.314,0,0,0,.319-.044,1.157,1.157,0,0,0,.831-1.106V10.656a1.152,1.152,0,0,0-1.15-1.15H130.941a1.155,1.155,0,0,0-1.154,1.15v4.175Z" transform="translate(-129.787 -9.506)" fill="#8ee5f6" fill-rule="evenodd"/>
      </g>
      <g id="Grupo_145924" data-name="Grupo 145924" transform="translate(0.969 8.3)">
        <path id="Trazado_194056" data-name="Trazado 194056" d="M8.65,57.652l15.207,4.854,15.207-4.854a1.128,1.128,0,0,0,.315-.044,1.157,1.157,0,0,0,.835-1.106V51.873a1.154,1.154,0,0,0-1.15-1.15H8.65a1.152,1.152,0,0,0-1.15,1.15V56.5a1.158,1.158,0,0,0,1.091,1.15Z" transform="translate(-7.5 -50.723)" fill="#8ee5f6" fill-rule="evenodd"/>
      </g>
      <g id="Grupo_145925" data-name="Grupo 145925" transform="translate(2.06 15.185)">
        <path id="Trazado_194057" data-name="Trazado 194057" d="M65.636,144.54c-.007-.088.017-.187-.026-.26-8.269-14.093-18.04-39.018-18.875-40.264a1.108,1.108,0,0,1-.315.044H15.947c1.084,7.2,1.751,13.239,2.088,18.792a144.974,144.974,0,0,1,.073,16.188c4.547,7.124,7.537,8.447,12.177,10.566H65.7v-3.651C65.7,145.448,65.676,144.979,65.636,144.54Z" transform="translate(-15.947 -104.016)" fill="#defaff" fill-rule="evenodd"/>
      </g>
      <g id="Grupo_145926" data-name="Grupo 145926" transform="translate(3.437 60.774)">
        <path id="Trazado_194058" data-name="Trazado 194058" d="M26.606,460.257a2.482,2.482,0,0,0,2.424,2.52H41.606l2.71-2.04,2.75,2.04h5.966l2.047-2.04,2.051,2.04h2.051l2.051-2.04,2.051,2.04h6.837a2.482,2.482,0,0,0,2.424-2.52v-3.373H26.606Z" transform="translate(-26.606 -456.884)" fill="#fde9e0" fill-rule="evenodd"/>
      </g>
      <g id="Grupo_145927" data-name="Grupo 145927" transform="translate(3.437 50.208)">
        <path id="Trazado_194059" data-name="Trazado 194059" d="M27.39,375.1c-.165,3.384-.432,6.845-.784,10.566H39.567C38.289,380.184,33.623,375.1,27.39,375.1Z" transform="translate(-26.606 -375.101)" fill="#8ee5f6" fill-rule="evenodd"/>
      </g>
      <g id="Grupo_145928" data-name="Grupo 145928" transform="translate(49.314 55.709)">
        <path id="Trazado_194060" data-name="Trazado 194060" d="M381.765,419.092v4.479H384.2l2.051-2.04,2.051,2.04h6.837a2.482,2.482,0,0,0,2.424-2.52v-3.373H381.7C381.743,418.118,381.765,418.586,381.765,419.092Z" transform="translate(-381.703 -417.678)" fill="#fde9e0" fill-rule="evenodd"/>
      </g>
      <g id="Grupo_145929" data-name="Grupo 145929" transform="translate(30.206 9.904)">
        <path id="Trazado_194061" data-name="Trazado 194061" d="M250.914,93.13c-1.051-1.989-1.5-6.105-1.234-11.7a115.866,115.866,0,0,1,2.567-18.293,1.153,1.153,0,0,1-.319.044H237.28v4.171a1.157,1.157,0,0,1-.835,1.106,129.505,129.505,0,0,0-2.139,12.972c-.209,1.893-.348,3.67-.429,5.321-.267,5.592.183,9.709,1.234,11.7,4.289,8.112,16.612.015,17.773,10.233v0c.011.084.018.168.026.256h15.865v-3.911c0-12.734-13.36-3.387-17.861-11.9Z" transform="translate(-233.802 -63.139)" fill="#defaff" fill-rule="evenodd"/>
      </g>
      <path id="Trazado_194062" data-name="Trazado 194062" d="M350.266,462.777h1.7a2.482,2.482,0,0,0,2.424-2.52v-3.373h-4.124v5.893Z" transform="translate(-305.013 -396.11)" fill="#8ee5f6" fill-rule="evenodd"/>
      <path id="Trazado_194063" data-name="Trazado 194063" d="M466.459,417.679v5.893h2.49a2.482,2.482,0,0,0,2.424-2.52v-3.373Z" transform="translate(-406.194 -361.97)" fill="#8ee5f6" fill-rule="evenodd"/>
      <g id="Grupo_145930" data-name="Grupo 145930" transform="translate(26.083 33.497)">
        <path id="Trazado_194064" data-name="Trazado 194064" d="M201.96,245.752c-.267,5.6.183,12.042,1.234,14.034,4.289,8.119,18,3.234,17.773,10.075l.088,3.168h4.124v-3.651c0-.505-.022-.974-.062-1.414l-.026-.26c-1.161-10.225-13.484-2.124-17.773-10.244-1.051-1.992-1.5-6.113-1.234-11.708Z" transform="translate(-201.884 -245.752)" fill="#8ee5f6" fill-rule="evenodd"/>
      </g>
      <g id="Grupo_145931" data-name="Grupo 145931" transform="translate(26.158 15.185)">
        <path id="Trazado_194065" data-name="Trazado 194065" d="M205.023,104.059A130.708,130.708,0,0,0,202.9,117c-.209,1.893-.348,3.673-.429,5.325h4.124c.081-1.652.22-3.432.429-5.325a129.751,129.751,0,0,1,2.139-12.987,1.108,1.108,0,0,1-.315.044h-3.82Z" transform="translate(-202.467 -104.015)" fill="#8ee5f6" fill-rule="evenodd"/>
      </g>
      <g id="Grupo_145932" data-name="Grupo 145932" transform="translate(41.169 9.904)">
        <path id="Trazado_194066" data-name="Trazado 194066" d="M321.216,63.182a115.969,115.969,0,0,0-2.553,18.224.063.063,0,0,0,0,.026h4.915a115.871,115.871,0,0,1,2.567-18.293.014.014,0,0,0-.011,0,1.224,1.224,0,0,1-.308.04h-4.607Z" transform="translate(-318.66 -63.138)" fill="#8ee5f6" fill-rule="evenodd"/>
      </g>
      <g id="Grupo_145933" data-name="Grupo 145933" transform="translate(41.133 28.198)">
        <path id="Trazado_194067" data-name="Trazado 194067" d="M318.417,204.734c-.267,5.592,1,12.375,2.055,14.364,4.5,8.515,17.04-.011,17.04,12.727v.421h4.915v-3.915c0-12.73-13.36-3.384-17.861-11.9-.857-1.619-1.315-4.651-1.311-8.742q0-1.4.077-2.955h-4.915Z" transform="translate(-318.381 -204.734)" fill="#8ee5f6" fill-rule="evenodd"/>
      </g>
      <path id="Trazado_194068" data-name="Trazado 194068" d="M260.72,55.494h.224C260.844,55.464,260.729,55.468,260.72,55.494Z" transform="translate(-227.036 -46.559)"/>
      <path id="Trazado_194069" data-name="Trazado 194069" d="M56.707,43.194c-3.486-.231-6.78-.449-8.532-3.767-1.079-2.04-1.783-7.837-.525-17.989a.969.969,0,0,0-1.923-.238c-.263,2.126-.45,4.133-.563,6H31.79c.406-3.387,1.029-7.187,1.909-11.356a2.118,2.118,0,0,0,.953-1.768V10.873H47.448c-.395,1.912-.749,3.827-1.056,5.709a.969.969,0,1,0,1.913.312c.343-2.1.748-4.242,1.2-6.376a2.118,2.118,0,0,0,.948-1.764V4.125a2.121,2.121,0,0,0-2.119-2.119H17.921A2.123,2.123,0,0,0,15.8,4.125V7.331H2.119A2.121,2.121,0,0,0,0,9.45v4.629a2.119,2.119,0,0,0,1.193,1.9C4.026,35.068,3.847,46.056,2.473,60.674v.009c0,.013,0,.027,0,.04s0,.033,0,.051v3.373a3.446,3.446,0,0,0,3.393,3.489H18.438a.969.969,0,0,0,.583-.195l2.132-1.6,2.169,1.609a.969.969,0,0,0,.577.191h5.966a.969.969,0,0,0,.684-.283l1.364-1.359,1.367,1.36a.969.969,0,0,0,.683.282h2.051a.969.969,0,0,0,.683-.282l1.368-1.36,1.368,1.36a.969.969,0,0,0,.683.282h6.837a3.446,3.446,0,0,0,3.393-3.489V62.571h1.47a.969.969,0,0,0,.683-.282l1.368-1.36,1.368,1.36a.969.969,0,0,0,.683.282h6.837a3.446,3.446,0,0,0,3.393-3.489V51.794c0-7.975-5.016-8.307-9.441-8.6ZM17.737,4.125a.185.185,0,0,1,.185-.181H48.333a.183.183,0,0,1,.181.181V8.754a.187.187,0,0,1-.141.176l-.015,0-.025,0H34.587a2.121,2.121,0,0,0-2.053-1.6h-14.8ZM15.171,14.26H2.119a.183.183,0,0,1-.181-.181V9.45a.183.183,0,0,1,.181-.181H32.534a.186.186,0,0,1,.181.181v4.629a.186.186,0,0,1-.181.181H19.592a.969.969,0,1,0,0,1.938H31.646a118.072,118.072,0,0,0-2.273,16.33H16.808a5.738,5.738,0,0,0-3.6.74c-.983.757-1.4,2.056-1.4,4.341,0,.446-.115.7-.222.753-.174.082-.7-.021-1.44-.635L5.081,33.535c-.325-5.147-.932-10.766-1.9-17.337H15.171a.969.969,0,1,0,0-1.938ZM5.14,51.221c4.928.441,8.563,4.382,9.974,8.584H4.5c.27-2.968.489-5.8.64-8.584ZM48.408,64.147A1.507,1.507,0,0,1,46.952,65.7H40.515L38.747,63.94a.969.969,0,0,0-1.367,0L35.613,65.7H34.362L32.595,63.94a.969.969,0,0,0-1.367,0L29.464,65.7H24.218l-2.493-1.849a.969.969,0,0,0-1.16,0L18.114,65.7H5.862a1.507,1.507,0,0,1-1.456-1.551v-2.4h44v2.4Zm0-4.342H17.144a15.608,15.608,0,0,0-4.317-7.08,12.581,12.581,0,0,0-7.593-3.442c.185-4.29.2-8.538-.009-13.112l3.68,3.048a4.023,4.023,0,0,0,2.536,1.105,2.26,2.26,0,0,0,.965-.208,2.592,2.592,0,0,0,1.336-2.507c0-1.553.212-2.471.647-2.806a4.58,4.58,0,0,1,2.419-.337H29.282c-.172,5.14.277,9.111,1.377,11.192,2.26,4.277,6.435,4.553,10.119,4.8,4.429.293,7.629.505,7.629,6.668v2.682Zm15.8-.723a1.507,1.507,0,0,1-1.456,1.551H56.317L54.55,58.875a.969.969,0,0,0-1.367,0l-1.767,1.758h-1.07v-3.51c0-.151,0-.3-.006-.445H64.21Zm0-4.342H50.168c-.928-5.666-5.328-5.958-9.261-6.219-3.487-.231-6.78-.449-8.534-3.769-1.118-2.115-1.606-7.545-.8-15.612h13.5c-.175,5.2.3,9.122,1.39,11.192,2.258,4.275,6.433,4.551,10.118,4.8,4.43.293,7.631.505,7.631,6.666Z"/>
    </g>
  </g>
</svg>
