<svg xmlns="http://www.w3.org/2000/svg" width="113" height="113" viewBox="0 0 113 113">
  <g id="Grupo_145938" data-name="Grupo 145938" transform="translate(-955 -911)">
    <rect id="Rectángulo_44285" data-name="Rectángulo 44285" width="113" height="113" rx="56.5" transform="translate(955 911)" fill="#8ee5f6"/>
    <g id="virus" transform="translate(980.502 934.375)">
      <g id="Grupo_145430" data-name="Grupo 145430" transform="translate(0.967 1.43)">
        <g id="Grupo_145428" data-name="Grupo 145428">
          <path id="Trazado_193183" data-name="Trazado 193183" d="M69.513,34.821c-.853,0-2.5,1.356-3.26,3.283H64.564a24.913,24.913,0,0,0-5.757-14.216l3.2-3.2c1.9.827,4.028.623,4.631.021.8-.8-.242-3.132-2.326-5.212s-4.423-3.12-5.222-2.321c-.6.6-.807,2.723.021,4.622l-3.178,3.172a25.018,25.018,0,0,0-14.142-5.989V13.26c1.931-.758,3.289-2.4,3.289-3.253,0-1.129-2.39-2.044-5.338-2.044s-5.338.915-5.338,2.044c0,.851,1.358,2.5,3.289,3.253v1.688a25.012,25.012,0,0,0-14.243,5.746l-3.2-3.2c.828-1.9.624-4.02.021-4.622-.8-.8-3.138.241-5.222,2.321s-3.126,4.414-2.326,5.212c.6.6,2.728.806,4.631-.021l3.178,3.172a24.921,24.921,0,0,0-6,14.115H12.807c-.76-1.928-2.407-3.283-3.26-3.283-1.131,0-2.048,2.385-2.048,5.327s.917,5.327,2.048,5.327c.853,0,2.5-1.356,3.26-3.283H14.5a24.913,24.913,0,0,0,5.757,14.216l-3.2,3.2c-1.9-.827-4.028-.623-4.631-.021-.8.8.242,3.132,2.326,5.212s4.423,3.12,5.222,2.321c.6-.6.807-2.723-.021-4.622l3.178-3.172a25.018,25.018,0,0,0,14.142,5.989v1.724c-1.931.758-3.289,2.4-3.289,3.253,0,1.129,2.39,2.044,5.338,2.044s5.338-.915,5.338-2.044c0-.851-1.358-2.5-3.289-3.253V64.919a25.012,25.012,0,0,0,14.243-5.746l3.2,3.2c-.828,1.9-.624,4.02-.021,4.622.8.8,3.138-.241,5.222-2.321s3.126-4.414,2.326-5.212c-.6-.6-2.728-.806-4.631.021l-3.178-3.172a24.921,24.921,0,0,0,6-14.115h1.725c.76,1.928,2.407,3.283,3.26,3.283,1.131,0,2.048-2.385,2.048-5.327s-.916-5.327-2.048-5.327Z" transform="translate(-7.499 -7.962)" fill="#fde9e0"/>
          <ellipse id="Elipse_23" data-name="Elipse 23" cx="5.621" cy="5.606" rx="5.621" ry="5.606" transform="translate(16.568 16.635)" fill="#f18385"/>
          <path id="Trazado_193184" data-name="Trazado 193184" d="M166.575,137.018a5.626,5.626,0,0,0-1.933.34,5.6,5.6,0,0,1,0,10.53,5.609,5.609,0,1,0,1.933-10.871Z" transform="translate(-144.387 -120.383)" fill="#f18385"/>
          <ellipse id="Elipse_24" data-name="Elipse 24" cx="2.81" cy="2.803" rx="2.81" ry="2.803" transform="translate(45.154 33.853)" fill="#f18385"/>
          <path id="Trazado_193185" data-name="Trazado 193185" d="M370.9,270.594a2.8,2.8,0,0,0-1.289.312,2.8,2.8,0,0,1,0,4.981,2.8,2.8,0,1,0,1.289-5.293Z" transform="translate(-322.937 -236.741)" fill="#f18385"/>
          <path id="Trazado_193193" data-name="Trazado 193193" d="M4.165,0A4.154,4.154,0,1,1,0,4.154,4.16,4.16,0,0,1,4.165,0Z" transform="translate(34.495 41.791)" fill="#f18385"/>
          <path id="Trazado_193186" data-name="Trazado 193186" d="M294.362,332.181a4.155,4.155,0,0,0-1.933.475,4.148,4.148,0,0,1,0,7.358,4.157,4.157,0,1,0,1.933-7.833Z" transform="translate(-255.702 -290.39)" fill="#ce5457"/>
        </g>
        <g id="Grupo_145429" data-name="Grupo 145429" transform="translate(26.478)">
          <path id="Trazado_193187" data-name="Trazado 193187" d="M248.454,34.821c-.853,0-2.5,1.356-3.26,3.283h-1.689a24.913,24.913,0,0,0-5.757-14.216l3.2-3.2c1.9.827,4.028.623,4.631.021.8-.8-.242-3.132-2.326-5.212s-4.423-3.12-5.223-2.321c-.6.6-.807,2.723.021,4.622l-3.178,3.172a25.018,25.018,0,0,0-14.142-5.989V13.26c1.931-.758,3.289-2.4,3.289-3.253,0-1.129-2.39-2.044-5.338-2.044s-5.338.915-5.338,2.044c0,.851,1.358,2.5,3.289,3.253v1.688q-.549.039-1.091.1a25.119,25.119,0,0,1,.66,49.892v1.664c-1.931.758-3.289,2.4-3.289,3.254,0,1.129,2.39,2.044,5.338,2.044s5.338-.915,5.338-2.044c0-.851-1.358-2.5-3.289-3.254V64.919a25.012,25.012,0,0,0,14.243-5.746l3.2,3.2c-.828,1.9-.624,4.02-.021,4.622.8.8,3.138-.241,5.222-2.321s3.126-4.414,2.326-5.212c-.6-.6-2.728-.806-4.631.021l-3.178-3.172a24.921,24.921,0,0,0,6-14.115h1.725c.76,1.928,2.407,3.283,3.26,3.283,1.131,0,2.048-2.385,2.048-5.327S249.585,34.821,248.454,34.821Z" transform="translate(-212.918 -7.962)" fill="#f18385"/>
        </g>
      </g>
      <g id="Grupo_145431" data-name="Grupo 145431" transform="translate(0.001 0.463)">
        <path id="Trazado_193188" data-name="Trazado 193188" d="M218.841,57.145a1,1,0,0,1-.807-1.5,3.629,3.629,0,0,0,.811-2.051,4.737,4.737,0,0,0-3.542.239.967.967,0,0,1-1.068-.2l-3.178-3.172a.967.967,0,0,1-.048-1.317,23.862,23.862,0,0,0,5.769-13.569c.111-1.237,3.178-1.3,3.587-.268a4.712,4.712,0,0,0,2.337,2.667c.334-.192,1.1-1.684,1.1-4.356s-.773-4.169-1.106-4.357a4.712,4.712,0,0,0-2.336,2.668c-.409,1.037-3.462.965-3.553-.285a23.859,23.859,0,0,0-5.535-13.665.967.967,0,0,1,.059-1.3l3.2-3.2a.967.967,0,0,1,1.068-.2,4.735,4.735,0,0,0,3.543.237c.1-.374-.416-1.972-2.306-3.858s-3.5-2.4-3.872-2.3a4.7,4.7,0,0,0,.239,3.531.967.967,0,0,1-.2,1.071l-3.178,3.172a.967.967,0,0,1-1.314.048,23.956,23.956,0,0,0-13.6-5.758c-1.238-.11-1.3-3.179-.267-3.586A4.728,4.728,0,0,0,197.324,3.5c-.2-.334-1.694-1.1-4.366-1.1s-4.175.77-4.367,1.1a4.727,4.727,0,0,0,2.672,2.328c1.038.408.967,3.462-.284,3.552a24.088,24.088,0,0,0-6.327,1.324.967.967,0,0,1-.647-1.822,26.006,26.006,0,0,1,5.937-1.35V7.352c-1.837-.925-3.289-2.6-3.289-3.879,0-2.069,3.268-3.011,6.3-3.011s6.3.942,6.3,3.011c0,1.281-1.453,2.953-3.289,3.879v.229a25.847,25.847,0,0,1,13.117,5.551l2.111-2.107c-.643-1.951-.486-4.158.422-5.064,1.464-1.461,4.441.179,6.588,2.321,1.776,1.773,2.879,3.738,2.879,5.13a1.976,1.976,0,0,1-.553,1.451c-.907.905-3.119,1.062-5.072.42l-2.146,2.142a25.745,25.745,0,0,1,5.342,13.18h.181c.927-1.833,2.6-3.283,3.884-3.283,2.071,0,3.015,3.263,3.015,6.294s-.943,6.294-3.015,6.294c-1.282,0-2.957-1.45-3.884-3.283h-.232a25.746,25.746,0,0,1-5.56,13.09l2.11,2.106c1.954-.642,4.166-.486,5.072.42s.691,2.53-.583,4.466a.965.965,0,0,1-.808.436Z" transform="translate(-159.745 -0.463)" fill="#060606"/>
        <path id="Trazado_193189" data-name="Trazado 193189" d="M32.783,97.682c-3.036,0-6.3-.942-6.3-3.011,0-1.281,1.453-2.953,3.289-3.879v-.229a25.847,25.847,0,0,1-13.117-5.551L14.54,87.119c.643,1.951.486,4.158-.422,5.064a1.96,1.96,0,0,1-1.439.557c-1.545,0-3.571-1.3-5.149-2.878-1.776-1.772-2.879-3.738-2.879-5.13A1.976,1.976,0,0,1,5.2,83.281c.907-.905,3.119-1.062,5.072-.42l2.146-2.142A25.746,25.746,0,0,1,7.081,67.54H6.9c-.927,1.833-2.6,3.283-3.884,3.283C.945,70.823,0,67.56,0,64.529s.943-6.294,3.015-6.294c1.282,0,2.957,1.45,3.884,3.283h.232a25.747,25.747,0,0,1,5.56-13.09l-2.11-2.106c-1.954.642-4.165.486-5.072-.42a1.976,1.976,0,0,1-.553-1.451c0-1.392,1.1-3.358,2.879-5.13,2.147-2.143,5.124-3.783,6.588-2.321.907.906,1.065,3.113.422,5.064l2.148,2.144A26.284,26.284,0,0,1,19.478,42.5a.967.967,0,0,1,1,1.653,24.3,24.3,0,0,0-2.939,2.1.967.967,0,0,1-1.3-.059l-3.2-3.2a.967.967,0,0,1-.2-1.071,4.7,4.7,0,0,0,.238-3.532c-.373-.1-1.976.412-3.87,2.3s-2.406,3.489-2.306,3.859a4.735,4.735,0,0,0,3.542-.239.967.967,0,0,1,1.068.2l3.178,3.172A.967.967,0,0,1,14.732,49,23.86,23.86,0,0,0,8.963,62.571c-.111,1.237-3.179,1.3-3.587.268a4.712,4.712,0,0,0-2.337-2.667c-.334.192-1.1,1.684-1.1,4.356S2.707,68.7,3.04,68.886a4.712,4.712,0,0,0,2.336-2.668c.409-1.037,3.462-.965,3.553.285a23.859,23.859,0,0,0,5.534,13.665.967.967,0,0,1-.059,1.3l-3.2,3.2a.967.967,0,0,1-1.068.2,4.736,4.736,0,0,0-3.543-.237c-.1.374.416,1.972,2.306,3.858s3.5,2.4,3.872,2.3a4.7,4.7,0,0,0-.239-3.531.967.967,0,0,1,.2-1.071l3.178-3.172a.967.967,0,0,1,1.314-.048,23.957,23.957,0,0,0,13.6,5.758c1.238.11,1.3,3.179.267,3.586a4.728,4.728,0,0,0-2.672,2.33c.2.334,1.693,1.1,4.366,1.1s4.175-.77,4.367-1.1a4.728,4.728,0,0,0-2.672-2.328c-1.038-.408-.966-3.462.284-3.552a23.959,23.959,0,0,0,13.694-5.525.967.967,0,0,1,1.3.059l3.2,3.2a.967.967,0,0,1,.2,1.071,4.709,4.709,0,0,0-.239,3.531,3.35,3.35,0,0,0,1.953-.741.967.967,0,0,1,1.037,1.632c-1.88,1.194-3.462,1.376-4.341.5-.907-.906-1.065-3.113-.422-5.064L49.005,85.28A25.849,25.849,0,0,1,35.8,90.614v.179c1.836.925,3.289,2.6,3.289,3.879,0,2.069-3.268,3.011-6.3,3.011Z" transform="translate(-0.001 -31.806)" fill="#060606"/>
        <path id="Trazado_193190" data-name="Trazado 193190" d="M135.123,142.663a6.572,6.572,0,1,1,6.588-6.572A6.587,6.587,0,0,1,135.123,142.663Zm0-11.212a4.639,4.639,0,1,0,4.654,4.639A4.652,4.652,0,0,0,135.123,131.451Z" transform="translate(-111.967 -112.883)" fill="#060606"/>
        <path id="Trazado_193191" data-name="Trazado 193191" d="M354.085,270.632a3.77,3.77,0,1,1,3.777-3.77A3.778,3.778,0,0,1,354.085,270.632Zm0-5.606a1.836,1.836,0,1,0,1.844,1.836A1.842,1.842,0,0,0,354.085,265.027Z" transform="translate(-305.154 -229.241)" fill="#060606"/>
        <path id="Trazado_193192" data-name="Trazado 193192" d="M272.748,334.921a5.121,5.121,0,1,1,5.132-5.121A5.132,5.132,0,0,1,272.748,334.921Zm0-8.308a3.187,3.187,0,1,0,3.2,3.187A3.2,3.2,0,0,0,272.748,326.614Z" transform="translate(-233.121 -282.889)" fill="#060606"/>
      </g>
    </g>
  </g>
</svg>
