<svg xmlns="http://www.w3.org/2000/svg" xmlns:xlink="http://www.w3.org/1999/xlink" width="816" height="527" viewBox="0 0 816 527">
  <defs>
    <clipPath id="clip-path">
      <rect id="Rect치ngulo_44260" data-name="Rect치ngulo 44260" width="125" height="125" transform="translate(-0.232 -0.232)" fill="none"/>
    </clipPath>
  </defs>
  <g id="Grupo_145936" data-name="Grupo 145936" transform="translate(-181 -1880)">
    <rect id="Rect치ngulo_44293" data-name="Rect치ngulo 44293" width="816" height="439" transform="translate(181 1880)" fill="#fff"/>
    <g id="Grupo_145436" data-name="Grupo 145436" transform="translate(523.232 2281.917)">
      <g id="Grupo_145418" data-name="Grupo 145418" transform="translate(0 0.315)" clip-path="url(#clip-path)">
        <path id="Trazado_193096" data-name="Trazado 193096" d="M124.77,62.385A62.385,62.385,0,1,1,62.385,0,62.446,62.446,0,0,1,124.77,62.385" transform="translate(0 -0.235)" fill="#f18385"/>
        <path id="Trazado_193097" data-name="Trazado 193097" d="M106.147,54.367A51.585,51.585,0,1,1,86,58.432a51.446,51.446,0,0,1,20.152-4.065m0-4.367A55.952,55.952,0,1,0,128,54.41,55.789,55.789,0,0,0,106.147,50" transform="translate(-43.761 -43.997)" fill="#483c8c"/>
        <path id="Trazado_193098" data-name="Trazado 193098" d="M302.956,302.973a25.516,25.516,0,1,1,0,36.086,25.516,25.516,0,0,1,0-36.086" transform="translate(-258.615 -258.865)" fill="#1a1a1a"/>
        <path id="Trazado_193099" data-name="Trazado 193099" d="M607.769,279.508a2.675,2.675,0,0,0,1.874.734,2.756,2.756,0,0,0,2.559-1.871l.72-2.082a11.193,11.193,0,0,1,6.128-6.128l2.083-.72A2.755,2.755,0,0,0,623,266.882a2.674,2.674,0,0,0-.734-1.874l-.058-.06-.06-.058a2.676,2.676,0,0,0-1.874-.734,2.756,2.756,0,0,0-2.559,1.871l-.72,2.082a11.194,11.194,0,0,1-6.128,6.128l-2.082.72a2.755,2.755,0,0,0-1.871,2.559,2.675,2.675,0,0,0,.734,1.874l.058.06.06.058" transform="translate(-531.192 -231.432)" fill="#1a1a1a"/>
        <path id="Trazado_193100" data-name="Trazado 193100" d="M607.769,279.508a2.675,2.675,0,0,0,1.874.734,2.756,2.756,0,0,0,2.559-1.871l.72-2.082a11.193,11.193,0,0,1,6.128-6.128l2.083-.72A2.755,2.755,0,0,0,623,266.882a2.674,2.674,0,0,0-.734-1.874l-.058-.06-.06-.058a2.676,2.676,0,0,0-1.874-.734,2.756,2.756,0,0,0-2.559,1.871l-.72,2.082a11.194,11.194,0,0,1-6.128,6.128l-2.082.72a2.755,2.755,0,0,0-1.871,2.559,2.675,2.675,0,0,0,.734,1.874l.058.06.06.058" transform="translate(-531.192 -231.432)" fill="#483c8c"/>
        <path id="Trazado_193101" data-name="Trazado 193101" d="M407.334,205.6a2.675,2.675,0,0,0,1.573-1.256,2.755,2.755,0,0,0-.341-3.151l-1.443-1.665a11.193,11.193,0,0,1-2.243-8.371L405.3,189a2.755,2.755,0,0,0-1.28-2.9,2.674,2.674,0,0,0-1.99-.3l-.081.02-.08.023a2.675,2.675,0,0,0-1.573,1.256,2.755,2.755,0,0,0,.341,3.151l1.443,1.665a11.193,11.193,0,0,1,2.243,8.371l-.417,2.164a2.755,2.755,0,0,0,1.28,2.9,2.676,2.676,0,0,0,1.99.3l.081-.02.08-.023" transform="translate(-350.046 -162.784)" fill="#483c8c"/>
        <path id="Trazado_193102" data-name="Trazado 193102" d="M205.652,407.118a2.675,2.675,0,0,0-.3-1.99,2.755,2.755,0,0,0-2.9-1.28l-2.164.417a11.194,11.194,0,0,1-8.371-2.243l-1.665-1.443a2.755,2.755,0,0,0-3.151-.341,2.674,2.674,0,0,0-1.256,1.572c-.008.027-.015.053-.023.08s-.014.054-.02.081a2.675,2.675,0,0,0,.3,1.99,2.756,2.756,0,0,0,2.9,1.28l2.164-.417a11.193,11.193,0,0,1,8.371,2.243l1.665,1.443a2.756,2.756,0,0,0,3.151.341,2.675,2.675,0,0,0,1.256-1.573c.008-.026.015-.053.023-.08s.014-.054.02-.081" transform="translate(-162.554 -350.233)" fill="#483c8c"/>
        <path id="Trazado_193103" data-name="Trazado 193103" d="M246.628,541.324a1.379,1.379,0,0,0-.648-.811,1.42,1.42,0,0,0-1.625.176l-.858.744a7.883,7.883,0,0,1-4.315,1.156l-1.115-.215a1.421,1.421,0,0,0-1.495.66,1.379,1.379,0,0,0-.155,1.026q0,.021.01.042l.012.041a1.379,1.379,0,0,0,.648.811,1.421,1.421,0,0,0,1.625-.176l.858-.744a7.884,7.884,0,0,1,4.315-1.156l1.115.215a1.42,1.42,0,0,0,1.495-.66,1.379,1.379,0,0,0,.155-1.026c0-.014-.007-.028-.01-.042l-.012-.041" transform="translate(-206.885 -473.153)" fill="#483c8c"/>
        <path id="Trazado_193104" data-name="Trazado 193104" d="M677.69,420.642a1.653,1.653,0,0,0,.777.973,1.7,1.7,0,0,0,1.949-.211l1.03-.893a9.466,9.466,0,0,1,5.178-1.387l1.339.258a1.7,1.7,0,0,0,1.794-.792,1.656,1.656,0,0,0,.187-1.231l-.013-.05-.014-.05a1.656,1.656,0,0,0-.777-.973,1.7,1.7,0,0,0-1.949.211l-1.03.893a9.465,9.465,0,0,1-5.178,1.387l-1.339-.258a1.7,1.7,0,0,0-1.794.792,1.655,1.655,0,0,0-.187,1.231c0,.017.008.033.012.05l.014.049" transform="translate(-593.071 -364.394)" fill="#483c8c"/>
        <path id="Trazado_193105" data-name="Trazado 193105" d="M296.307,314.367a25.516,25.516,0,1,1,18.043,31.251,25.516,25.516,0,0,1-18.043-31.251" transform="translate(-258.571 -258.821)" fill="#1a1a1a"/>
        <path id="Trazado_193106" data-name="Trazado 193106" d="M296.307,327.576a25.516,25.516,0,1,1,31.251,18.043,25.517,25.517,0,0,1-31.251-18.043" transform="translate(-258.571 -258.821)" fill="#1a1a1a"/>
        <path id="Trazado_193107" data-name="Trazado 193107" d="M420.5,677.674a1.655,1.655,0,0,0-1.231.187,1.7,1.7,0,0,0-.792,1.794l.258,1.339a9.464,9.464,0,0,1-1.388,5.178l-.893,1.03a1.7,1.7,0,0,0-.211,1.949,1.655,1.655,0,0,0,.973.777l.05.014.05.013a1.655,1.655,0,0,0,1.231-.187,1.7,1.7,0,0,0,.792-1.794l-.258-1.339a9.463,9.463,0,0,1,1.388-5.178l.893-1.03a1.7,1.7,0,0,0,.211-1.949,1.655,1.655,0,0,0-.973-.777l-.049-.014-.05-.013" transform="translate(-364.124 -593.316)" fill="#483c8c"/>
        <path id="Trazado_193108" data-name="Trazado 193108" d="M541.414,246.674a1.379,1.379,0,0,0,1.026-.155,1.42,1.42,0,0,0,.66-1.495l-.215-1.115a7.884,7.884,0,0,1,1.156-4.315l.744-.858a1.42,1.42,0,0,0,.176-1.625,1.379,1.379,0,0,0-.811-.648l-.041-.012-.042-.01a1.379,1.379,0,0,0-1.026.155,1.42,1.42,0,0,0-.66,1.495l.215,1.115a7.887,7.887,0,0,1-1.156,4.315l-.744.858a1.421,1.421,0,0,0-.176,1.625,1.379,1.379,0,0,0,.811.648l.041.012.042.01" transform="translate(-472.924 -207.142)" fill="#483c8c"/>
        <path id="Trazado_193109" data-name="Trazado 193109" d="M302.956,339.059a25.516,25.516,0,1,1,36.086,0,25.516,25.516,0,0,1-36.086,0" transform="translate(-258.615 -258.866)" fill="#1a1a1a"/>
        <path id="Trazado_193110" data-name="Trazado 193110" d="M314.35,345.619A25.516,25.516,0,1,1,345.6,327.576a25.516,25.516,0,0,1-31.251,18.043" transform="translate(-258.571 -258.821)" fill="#483c8c"/>
        <path id="Trazado_193111" data-name="Trazado 193111" d="M629.856,629.951a1.379,1.379,0,0,0-.378.966,1.42,1.42,0,0,0,.964,1.319l1.074.371a7.886,7.886,0,0,1,3.159,3.159l.371,1.074a1.42,1.42,0,0,0,1.319.964,1.379,1.379,0,0,0,.966-.378l.031-.03.03-.031a1.379,1.379,0,0,0,.378-.966,1.42,1.42,0,0,0-.964-1.319l-1.074-.371a7.887,7.887,0,0,1-3.159-3.159l-.371-1.074a1.421,1.421,0,0,0-1.319-.964,1.38,1.38,0,0,0-.966.378l-.031.03-.03.031" transform="translate(-550.937 -551.202)" fill="#483c8c"/>
        <path id="Trazado_193112" data-name="Trazado 193112" d="M303.293,303.22a1.655,1.655,0,0,0,.454-1.159,1.7,1.7,0,0,0-1.157-1.583l-1.288-.446a9.464,9.464,0,0,1-3.791-3.791l-.446-1.288a1.7,1.7,0,0,0-1.583-1.157,1.655,1.655,0,0,0-1.159.454l-.037.036-.036.037a1.655,1.655,0,0,0-.454,1.159,1.7,1.7,0,0,0,1.157,1.583l1.288.446a9.464,9.464,0,0,1,3.791,3.791l.446,1.288a1.7,1.7,0,0,0,1.583,1.157,1.655,1.655,0,0,0,1.159-.454l.037-.036.036-.037" transform="translate(-257.138 -257.374)" fill="#483c8c"/>
        <path id="Trazado_193113" data-name="Trazado 193113" d="M279.373,607.619a2.675,2.675,0,0,0-1.874-.734,2.755,2.755,0,0,0-2.558,1.871l-.721,2.082a11.193,11.193,0,0,1-6.128,6.128l-2.082.721a2.755,2.755,0,0,0-1.871,2.558,2.675,2.675,0,0,0,.734,1.874l.058.06.06.058a2.676,2.676,0,0,0,1.874.734,2.756,2.756,0,0,0,2.559-1.871l.72-2.082a11.194,11.194,0,0,1,6.128-6.128l2.082-.72a2.756,2.756,0,0,0,1.871-2.558,2.676,2.676,0,0,0-.734-1.874l-.058-.06-.06-.058" transform="translate(-231.182 -531.399)" fill="#483c8c"/>
        <path id="Trazado_193114" data-name="Trazado 193114" d="M527.379,654.128a2.675,2.675,0,0,0-1.573,1.256,2.755,2.755,0,0,0,.341,3.151l1.443,1.665a11.193,11.193,0,0,1,2.243,8.371l-.417,2.164a2.755,2.755,0,0,0,1.28,2.9,2.675,2.675,0,0,0,1.99.3l.081-.02.08-.023a2.676,2.676,0,0,0,1.573-1.256,2.755,2.755,0,0,0-.341-3.151l-1.443-1.665a11.193,11.193,0,0,1-2.243-8.371l.417-2.164a2.755,2.755,0,0,0-1.28-2.9,2.675,2.675,0,0,0-1.99-.3l-.081.02-.08.023" transform="translate(-459.899 -572.645)" fill="#483c8c"/>
        <path id="Trazado_193115" data-name="Trazado 193115" d="M654.068,527.557a2.675,2.675,0,0,0,.3,1.99,2.755,2.755,0,0,0,2.9,1.28l2.164-.417a11.193,11.193,0,0,1,8.371,2.243l1.665,1.443a2.756,2.756,0,0,0,3.151.341,2.675,2.675,0,0,0,1.256-1.573c.008-.026.015-.053.023-.08s.014-.054.02-.081a2.675,2.675,0,0,0-.3-1.99,2.755,2.755,0,0,0-2.9-1.28l-2.164.417a11.193,11.193,0,0,1-8.371-2.243l-1.665-1.443a2.755,2.755,0,0,0-3.151-.341,2.676,2.676,0,0,0-1.256,1.573c-.008.026-.015.053-.023.08s-.014.054-.02.081" transform="translate(-572.395 -460.15)" fill="#483c8c"/>
        <path id="Trazado_193116" data-name="Trazado 193116" d="M284.779,579.063l2.056,3.562-6.814,2.957a1.218,1.218,0,0,1-1.21-2.1Z" transform="translate(-243.592 -507.048)" fill="#483c8c"/>
        <path id="Trazado_193117" data-name="Trazado 193117" d="M579.046,655.475l3.562-2.057,2.957,6.814a1.218,1.218,0,0,1-2.1,1.21Z" transform="translate(-506.798 -572.126)" fill="#483c8c"/>
        <path id="Trazado_193118" data-name="Trazado 193118" d="M655.458,374.517l-2.057-3.562L660.215,368a1.218,1.218,0,0,1,1.21,2.1Z" transform="translate(-571.876 -322.23)" fill="#483c8c"/>
        <path id="Trazado_193119" data-name="Trazado 193119" d="M374.5,284.8l-3.562,2.056-2.957-6.814a1.218,1.218,0,0,1,2.1-1.21Z" transform="translate(-321.979 -243.842)" fill="#483c8c"/>
        <path id="Trazado_193120" data-name="Trazado 193120" d="M370.937,653.418l3.562,2.057-4.422,5.967a1.218,1.218,0,0,1-2.1-1.21Z" transform="translate(-321.979 -572.126)" fill="#483c8c"/>
        <path id="Trazado_193121" data-name="Trazado 193121" d="M653.4,582.625l2.057-3.562,5.967,4.422a1.218,1.218,0,0,1-1.21,2.1Z" transform="translate(-571.876 -507.048)" fill="#483c8c"/>
        <path id="Trazado_193122" data-name="Trazado 193122" d="M582.608,286.851l-3.562-2.056,4.422-5.967a1.218,1.218,0,0,1,2.1,1.21Z" transform="translate(-506.798 -243.842)" fill="#483c8c"/>
        <path id="Trazado_193123" data-name="Trazado 193123" d="M286.834,370.955l-2.056,3.562-5.967-4.422a1.218,1.218,0,0,1,1.21-2.1Z" transform="translate(-243.591 -322.23)" fill="#483c8c"/>
        <path id="Trazado_193124" data-name="Trazado 193124" d="M483.507,686.667h4.113l-.846,7.379a1.218,1.218,0,0,1-2.42,0Z" transform="translate(-423.18 -601.227)" fill="#483c8c"/>
        <path id="Trazado_193125" data-name="Trazado 193125" d="M686.649,487.638v-4.113l7.379.846a1.218,1.218,0,0,1,0,2.42Z" transform="translate(-600.976 -423.431)" fill="#483c8c"/>
        <path id="Trazado_193126" data-name="Trazado 193126" d="M487.621,254.012h-4.113l.846-7.379a1.218,1.218,0,0,1,1.21-1.079h0a1.218,1.218,0,0,1,1.21,1.079Z" transform="translate(-423.18 -215.151)" fill="#483c8c"/>
        <path id="Trazado_193127" data-name="Trazado 193127" d="M254,483.525v4.113l-7.379-.846a1.218,1.218,0,0,1,0-2.42Z" transform="translate(-214.901 -423.431)" fill="#483c8c"/>
        <path id="Trazado_193128" data-name="Trazado 193128" d="M431.108,386.048a3.113,3.113,0,1,1-2.2,3.812,3.113,3.113,0,0,1,2.2-3.812" transform="translate(-375.298 -338.022)" fill="#f18385"/>
        <path id="Trazado_193129" data-name="Trazado 193129" d="M361.926,526.138a4.25,4.25,0,1,1-3.005,5.206,4.25,4.25,0,0,1,3.005-5.206" transform="translate(-314.01 -460.599)" fill="#f18385"/>
        <path id="Trazado_193130" data-name="Trazado 193130" d="M540.263,544.269a2.115,2.115,0,1,1-1.5,2.59,2.115,2.115,0,0,1,1.5-2.59" transform="translate(-471.482 -476.532)" fill="#f18385"/>
        <path id="Trazado_193131" data-name="Trazado 193131" d="M646.764,461.27a2.115,2.115,0,1,1-1.5,2.59,2.115,2.115,0,0,1,1.5-2.59" transform="translate(-564.695 -403.889)" fill="#f18385"/>
        <path id="Trazado_193132" data-name="Trazado 193132" d="M532.878,332.655a2.115,2.115,0,1,1-1.5,2.59,2.115,2.115,0,0,1,1.5-2.59" transform="translate(-465.018 -291.321)" fill="#f18385"/>
        <path id="Trazado_193133" data-name="Trazado 193133" d="M561.757,436.81a1.057,1.057,0,1,1-.748,1.295,1.057,1.057,0,0,1,.748-1.295" transform="translate(-490.98 -382.512)" fill="#f4e474"/>
        <path id="Trazado_193134" data-name="Trazado 193134" d="M484.615,623.973a1.057,1.057,0,1,1-.748,1.295,1.057,1.057,0,0,1,.748-1.295" transform="translate(-423.463 -546.323)" fill="#f18385"/>
        <path id="Trazado_193135" data-name="Trazado 193135" d="M336.591,435.782a1.057,1.057,0,1,1-.748,1.295,1.057,1.057,0,0,1,.748-1.295" transform="translate(-293.908 -381.612)" fill="#f18385"/>
        <path id="Trazado_193136" data-name="Trazado 193136" d="M606.112,601.174a1.057,1.057,0,1,1-.748,1.3,1.057,1.057,0,0,1,.748-1.3" transform="translate(-529.801 -526.369)" fill="#f18385"/>
      </g>
    </g>
  </g>
</svg>
