<svg xmlns="http://www.w3.org/2000/svg" width="113" height="113" viewBox="0 0 113 113">
  <g id="Grupo_145940" data-name="Grupo 145940" transform="translate(-955 -1255)">
    <rect id="Rectángulo_44289" data-name="Rectángulo 44289" width="113" height="113" rx="56.5" transform="translate(955 1255)" fill="#8ee5f6"/>
    <g id="seta" transform="translate(980.503 1255.186)">
      <path id="Trazado_193212" data-name="Trazado 193212" d="M323.17,301.771a10.7,10.7,0,0,1,7.228-3.889,106.929,106.929,0,0,1-1.857-20.935h-7.07a107.315,107.315,0,0,1-1.827,20.785A14.219,14.219,0,0,1,323.17,301.771Z" transform="translate(-273.515 -218.425)" fill="#fde9e0"/>
      <path id="Trazado_193213" data-name="Trazado 193213" d="M323.279,301.642a153.568,153.568,0,0,0,1.8-24.7h-3.6a107.31,107.31,0,0,1-1.827,20.785,14.221,14.221,0,0,1,3.526,4.04Z" transform="translate(-273.515 -218.424)" fill="#bcffff"/>
      <path id="Trazado_193214" data-name="Trazado 193214" d="M154.779,216.4c-2.769,0-3.668-1.535-3.107-3.46a22.45,22.45,0,0,1,3.353-6.75h-9.31c0,18.349-2.766,29.915-4.078,34.167a7.124,7.124,0,0,1,4.25,1.557h0a14.221,14.221,0,0,1,11.7-7.577,132.543,132.543,0,0,1-2.1-17.937h-.709Z" transform="translate(-121.196 -157.882)" fill="#fde9e0"/>
      <path id="Trazado_193215" data-name="Trazado 193215" d="M149.36,206.193h-3.645c0,18.349-2.766,29.915-4.078,34.167a7.13,7.13,0,0,1,3.831,1.247C146.838,236.658,149.36,224.691,149.36,206.193Z" transform="translate(-121.196 -157.882)" fill="#bcffff"/>
      <path id="Trazado_193216" data-name="Trazado 193216" d="M63.233,50.107a28.935,28.935,0,0,0-55.58-.033c-.141.492-1.19,4.68,4.09,4.68H59.47C64.318,54.754,63.3,50.359,63.233,50.107Z" transform="translate(-6.396 -6.442)" fill="#f18385"/>
      <path id="Trazado_193217" data-name="Trazado 193217" d="M11.26,50.073l.014-.048h0A28.944,28.944,0,0,1,37.241,29.268a28.938,28.938,0,0,0-29.589,20.8c-.141.492-1.19,4.68,4.09,4.68h3.608C10.07,54.753,11.118,50.565,11.26,50.073Z" transform="translate(-6.396 -6.442)" fill="#bc3535"/>
      <path id="Trazado_193218" data-name="Trazado 193218" d="M91.372,42.816a6.5,6.5,0,0,0,5.271-10.285A28.933,28.933,0,0,0,84.985,37.49,6.494,6.494,0,0,0,91.372,42.816Z" transform="translate(-72.72 -9.281)" fill="#efefef"/>
      <path id="Trazado_193219" data-name="Trazado 193219" d="M96.643,32.531A28.933,28.933,0,0,0,84.985,37.49a6.456,6.456,0,0,0,.825,2.181,28.881,28.881,0,0,1,11.284-6.415A6.511,6.511,0,0,0,96.643,32.531Z" transform="translate(-72.72 -9.281)" fill="#ddd"/>
      <circle id="Elipse_28" data-name="Elipse 28" cx="3.229" cy="3.229" r="3.229" transform="translate(30.186 29.927)" fill="#efefef"/>
      <path id="Trazado_193220" data-name="Trazado 193220" d="M212.143,82.027a3.228,3.228,0,0,1,1.739-2.865,3.229,3.229,0,1,0,0,5.729A3.228,3.228,0,0,1,212.143,82.027Z" transform="translate(-178.978 -48.872)" fill="#ddd"/>
      <circle id="Elipse_29" data-name="Elipse 29" cx="2.215" cy="2.215" r="2.215" transform="translate(20.44 39.194)" fill="#efefef"/>
      <path id="Trazado_193221" data-name="Trazado 193221" d="M251.674,158.944a22.06,22.06,0,0,0-42.375-.026c-.108.375-.907,3.568,3.118,3.568h36.389A2.683,2.683,0,0,0,251.674,158.944Z" transform="translate(-178.979 -103.82)" fill="#fde9e0"/>
      <path id="Trazado_193222" data-name="Trazado 193222" d="M212.931,158.884h0a22.07,22.07,0,0,1,19.362-15.793A22.06,22.06,0,0,0,209.3,158.92c-.108.375-.907,3.568,3.118,3.568h3.62C213.251,162.489,212.357,160.837,212.931,158.884Z" transform="translate(-178.979 -103.823)" fill="#bc3535"/>
      <path id="Trazado_193223" data-name="Trazado 193223" d="M426.408,172.757a22.152,22.152,0,0,0-8.765-9.344,6.451,6.451,0,1,0,8.765,9.344Z" transform="translate(-355.126 -121.275)" fill="#efefef"/>
      <path id="Trazado_193224" data-name="Trazado 193224" d="M419.521,164.619a22.094,22.094,0,0,0-1.862-1.208,6.456,6.456,0,0,0,2.318,11.466C418.3,173.712,416.253,167.345,419.521,164.619Z" transform="translate(-355.142 -121.274)" fill="#ddd"/>
      <circle id="Elipse_30" data-name="Elipse 30" cx="2.17" cy="2.17" r="2.17" transform="translate(50.769 42.607)" fill="#efefef"/>
      <g id="Grupo_145434" data-name="Grupo 145434" transform="translate(20.44 39.194)">
        <path id="Trazado_193225" data-name="Trazado 193225" d="M143.851,145.228a2.212,2.212,0,0,1,1.107-1.916,2.215,2.215,0,1,0,0,3.832A2.212,2.212,0,0,1,143.851,145.228Z" transform="translate(-141.636 -143.013)" fill="#ddd"/>
        <path id="Trazado_193226" data-name="Trazado 193226" d="M355.076,166.966a2.17,2.17,0,1,0,0,3.73A2.168,2.168,0,0,1,355.076,166.966Z" transform="translate(-321.469 -163.247)" fill="#ddd"/>
      </g>
      <circle id="Elipse_31" data-name="Elipse 31" cx="3.32" cy="3.32" r="3.32" transform="translate(39.487 47.965)" fill="#efefef"/>
      <path id="Trazado_193227" data-name="Trazado 193227" d="M278.606,204.225a3.32,3.32,0,1,0,0,5.75A3.321,3.321,0,0,1,278.606,204.225Z" transform="translate(-234.137 -155.814)" fill="#ddd"/>
      <path id="Trazado_193228" data-name="Trazado 193228" d="M92.733,445.949a7.15,7.15,0,0,1,13.613,0,.825.825,0,0,1-.785,1.075H93.518A.825.825,0,0,1,92.733,445.949Z" transform="translate(-79.316 -358.792)" fill="#8ee5f6"/>
      <path id="Trazado_193229" data-name="Trazado 193229" d="M96.3,445.877a7.114,7.114,0,0,1,5.024-4.748,7.135,7.135,0,0,0-8.589,4.748.825.825,0,0,0,.785,1.075h3.564A.825.825,0,0,1,96.3,445.877Z" transform="translate(-79.317 -358.721)" fill="#bcffff"/>
      <path id="Trazado_193230" data-name="Trazado 193230" d="M163.828,408.959a14.29,14.29,0,0,1,27.226,0,1.649,1.649,0,0,1-1.571,2.15H165.4A1.65,1.65,0,0,1,163.828,408.959Z" transform="translate(-140.118 -322.877)" fill="#8ee5f6"/>
      <path id="Trazado_193231" data-name="Trazado 193231" d="M167.516,408.96a14.229,14.229,0,0,1,11.769-9.825,14.252,14.252,0,0,0-15.457,9.825,1.649,1.649,0,0,0,1.571,2.149h3.687A1.649,1.649,0,0,1,167.516,408.96Z" transform="translate(-140.118 -322.878)" fill="#bcffff"/>
      <path id="Trazado_193232" data-name="Trazado 193232" d="M330.955,428.038a10.6,10.6,0,0,1,20.193,0,1.223,1.223,0,0,1-1.165,1.594H332.12A1.224,1.224,0,0,1,330.955,428.038Z" transform="translate(-283.143 -341.401)" fill="#8ee5f6"/>
      <path id="Trazado_193233" data-name="Trazado 193233" d="M334.563,428.035a10.553,10.553,0,0,1,8.293-7.222,10.575,10.575,0,0,0-11.9,7.222,1.223,1.223,0,0,0,1.165,1.594h3.608A1.224,1.224,0,0,1,334.563,428.035Z" transform="translate(-283.144 -341.397)" fill="#bcffff"/>
      <path id="Trazado_193234" data-name="Trazado 193234" d="M201.664,75.609a4.311,4.311,0,1,0,4.311-4.311A4.316,4.316,0,0,0,201.664,75.609Zm6.458,0a2.147,2.147,0,1,1-2.147-2.147A2.149,2.149,0,0,1,208.122,75.609Z" transform="translate(-172.561 -42.454)"/>
      <path id="Trazado_193235" data-name="Trazado 193235" d="M134.137,138.811a3.3,3.3,0,1,0,3.3-3.3A3.3,3.3,0,0,0,134.137,138.811Zm4.429,0a1.132,1.132,0,1,1-1.133-1.132A1.134,1.134,0,0,1,138.566,138.811Z" transform="translate(-114.779 -97.403)"/>
      <path id="Trazado_193236" data-name="Trazado 193236" d="M347.552,159.163a3.253,3.253,0,1,0,3.253,3.253A3.257,3.257,0,0,0,347.552,159.163Zm0,4.342a1.089,1.089,0,1,1,1.089-1.089A1.09,1.09,0,0,1,347.552,163.505Z" transform="translate(-294.612 -117.639)"/>
      <path id="Trazado_193237" data-name="Trazado 193237" d="M266.125,200.7a4.4,4.4,0,1,0,4.4-4.4A4.408,4.408,0,0,0,266.125,200.7Zm6.641,0a2.238,2.238,0,1,1-2.238-2.238A2.241,2.241,0,0,1,272.766,200.7Z" transform="translate(-227.72 -149.411)"/>
      <path id="Trazado_193238" data-name="Trazado 193238" d="M73.736,54.823A23.193,23.193,0,0,0,56.309,38.608,30.223,30.223,0,0,0,45.47,26.45,1.082,1.082,0,0,0,44.3,28.271a28.067,28.067,0,0,1,9.358,9.939,23.079,23.079,0,0,0-20.668,9.163H5.37a3.4,3.4,0,0,1-2.818-.941,2.937,2.937,0,0,1-.238-2.44A28.23,28.23,0,0,1,11.68,30.01a7.577,7.577,0,0,0,13.945-5.933A28.057,28.057,0,0,1,39.99,26.008a1.082,1.082,0,1,0,.835-2A30.19,30.19,0,0,0,.233,43.4l0,.012h0l-.012.041a5.145,5.145,0,0,0,.606,4.284c.9,1.2,2.431,1.8,4.547,1.8H23.432a149.029,149.029,0,0,1-1.26,19.03,1.082,1.082,0,0,0,2.145.291A151.185,151.185,0,0,0,25.6,49.538h5.951A23.356,23.356,0,0,0,29.28,54.8c-.715,2.486.477,4.741,3.852,4.944A123.557,123.557,0,0,0,35.1,75.217,15.2,15.2,0,0,0,24.335,82.2a8.107,8.107,0,0,0-2.493-.935c.485-1.719,1.087-4.155,1.665-7.3a1.082,1.082,0,0,0-2.129-.391,76.64,76.64,0,0,1-1.748,7.556,8.194,8.194,0,0,0-7.244,5.7A1.908,1.908,0,0,0,14.2,89.314H66.839a2.307,2.307,0,0,0,2.2-3.005,11.634,11.634,0,0,0-11.272-8.126,103.624,103.624,0,0,1-1.65-18.434h3.78a1.082,1.082,0,1,0,0-2.165H33.439a2.51,2.51,0,0,1-1.927-.609,2.114,2.114,0,0,1-.138-1.619,21.029,21.029,0,0,1,29.3-12.977A7.53,7.53,0,0,0,70.92,53.315a20.535,20.535,0,0,1,.73,2.086,2.211,2.211,0,0,1-.22,1.652c-.665.851-2.309.41-6.486.53a1.082,1.082,0,1,0,0,2.165h4.884a3.954,3.954,0,0,0,3.307-1.362A4.229,4.229,0,0,0,73.736,54.823ZM18.652,32.452a5.406,5.406,0,0,1-5.16-3.78,27.623,27.623,0,0,1,9.914-4.217A5.42,5.42,0,0,1,18.652,32.452ZM35.3,59.748H46.868a105.579,105.579,0,0,1-1.494,17.587,15.391,15.391,0,0,0-8.1-2.279A120.562,120.562,0,0,1,35.3,59.748Zm-20.737,27.4a6.07,6.07,0,0,1,8.744-3.042,4.866,4.866,0,0,0-.7,3.042Zm10.258-.232a.569.569,0,0,1-.082-.507h0a13.212,13.212,0,0,1,23.6-3.266c-.648.925-1.737,2.911-1.669,4C24.264,87.06,25.148,87.36,24.824,86.917Zm42.149.049a.14.14,0,0,1-.134.183c-19.08-.023-17.9.053-17.976-.057-.048-.065-.041-.1.115-.52A9.527,9.527,0,0,1,66.973,86.966ZM53.948,59.748A106.264,106.264,0,0,0,55.6,78.407a11.623,11.623,0,0,0-5.8,3.033,15.21,15.21,0,0,0-2.485-2.7,105.511,105.511,0,0,0,1.717-18.987Zm12.4-7.048a5.377,5.377,0,0,1-3.724-9.238A21.106,21.106,0,0,1,69.961,51.3,5.357,5.357,0,0,1,66.344,52.7Z" transform="translate(0 0)"/>
    </g>
  </g>
</svg>
