<svg xmlns="http://www.w3.org/2000/svg" width="113" height="113" viewBox="0 0 113 113">
  <g id="Grupo_145939" data-name="Grupo 145939" transform="translate(-535 -1255)">
    <rect id="Rectángulo_44287" data-name="Rectángulo 44287" width="113" height="113" rx="56.5" transform="translate(535 1255)" fill="#8ee5f6"/>
    <g id="oruga" transform="translate(531.786 1240.5)">
      <g id="Grupo_145432" data-name="Grupo 145432" transform="translate(31.428 38)">
        <circle id="Elipse_26" data-name="Elipse 26" cx="1.5" cy="1.5" r="1.5" transform="translate(53.786 38.186)" fill="#4c241d"/>
        <ellipse id="Elipse_27" data-name="Elipse 27" cx="1" cy="1.5" rx="1" ry="1.5" transform="translate(4.786 31.186)" fill="#4c241d"/>
        <path id="Trazado_193194" data-name="Trazado 193194" d="M84.072,87.053a1.179,1.179,0,0,1-.833-2.012l4.355-4.356a1.178,1.178,0,0,1,1.666,1.666l-4.355,4.356A1.174,1.174,0,0,1,84.072,87.053Z" transform="translate(-74.38 -67.865)" fill="#4c241d"/>
        <path id="Trazado_193195" data-name="Trazado 193195" d="M88.427,87.053a1.175,1.175,0,0,1-.833-.345l-4.355-4.356a1.178,1.178,0,0,1,1.666-1.666l4.355,4.356a1.179,1.179,0,0,1-.833,2.012Z" transform="translate(-74.38 -67.865)"/>
        <path id="Trazado_193196" data-name="Trazado 193196" d="M206.125,226.248a4.125,4.125,0,1,1,4.125-4.125A4.13,4.13,0,0,1,206.125,226.248Zm0-5.893a1.768,1.768,0,1,0,1.768,1.768A1.77,1.77,0,0,0,206.125,220.355Z" transform="translate(-158.393 -164.964)"/>
        <path id="Trazado_193197" data-name="Trazado 193197" d="M57.535,222.5a1.18,1.18,0,0,1-1.133-.855l-2.357-8.25a1.178,1.178,0,0,1,.123-.93l3.536-5.893a1.179,1.179,0,0,1,2.021,1.213l-3.273,5.454,2.217,7.758a1.18,1.18,0,0,1-1.133,1.5Z" transform="translate(-54 -156.497)" fill="#4c241d"/>
        <path id="Trazado_193198" data-name="Trazado 193198" d="M86.715,225.317a1.177,1.177,0,0,1-1.055-.651l-3.536-7.071a1.18,1.18,0,0,1-.04-.965l2.357-5.893a1.179,1.179,0,0,1,2.189.876l-2.161,5.4,3.3,6.6a1.178,1.178,0,0,1-1.053,1.706Z" transform="translate(-73.75 -159.319)" fill="#4c241d"/>
        <path id="Trazado_193199" data-name="Trazado 193199" d="M119.893,221.319a1.175,1.175,0,0,1-.921-.443l-4.714-5.893a1.177,1.177,0,0,1-.258-.736v-7.071a1.179,1.179,0,0,1,2.357,0v6.658l4.456,5.57a1.179,1.179,0,0,1-.92,1.915Z" transform="translate(-96.322 -156.499)" fill="#4c241d"/>
        <path id="Trazado_193200" data-name="Trazado 193200" d="M143.428,209.781a1.171,1.171,0,0,1-.373-.061l-7.071-2.357a1.18,1.18,0,0,1-.79-.924l-1.179-7.071a1.179,1.179,0,1,1,2.325-.388l1.062,6.372,6.4,2.133a1.179,1.179,0,0,1-.373,2.3Z" transform="translate(-110.428 -150.854)" fill="#4c241d"/>
        <path id="Trazado_193201" data-name="Trazado 193201" d="M158.964,191.891h-7.071a1.178,1.178,0,0,1-.707-.236l-4.714-3.536a1.179,1.179,0,1,1,1.415-1.885l4.4,3.3h6.678a1.179,1.179,0,0,1,0,2.357Z" transform="translate(-118.893 -142.392)" fill="#4c241d"/>
        <path id="Trazado_193202" data-name="Trazado 193202" d="M153.07,167.89a1.18,1.18,0,0,1-.607-.168l-5.893-3.536a1.179,1.179,0,0,1,1.213-2.021l5.428,3.257,6.557-2.186a1.179,1.179,0,0,1,.746,2.236l-7.071,2.357A1.191,1.191,0,0,1,153.07,167.89Z" transform="translate(-118.892 -125.463)" fill="#4c241d"/>
        <path id="Trazado_193203" data-name="Trazado 193203" d="M157.07,142.711a1.191,1.191,0,0,1-.438-.084l-5.893-2.357a1.179,1.179,0,0,1,.876-2.189l5.455,2.182,5.455-2.182a1.179,1.179,0,0,1,.876,2.189l-5.893,2.357a1.2,1.2,0,0,1-.438.084Z" transform="translate(-121.713 -108.534)" fill="#4c241d"/>
        <path id="Trazado_193204" data-name="Trazado 193204" d="M162.963,114.712H157.07a1.189,1.189,0,0,1-.438-.084l-5.893-2.357a1.179,1.179,0,0,1,.876-2.189l5.682,2.273h5.666a1.179,1.179,0,0,1,0,2.357Z" transform="translate(-121.713 -88.784)" fill="#4c241d"/>
        <path id="Trazado_193205" data-name="Trazado 193205" d="M166.965,83.426a1.193,1.193,0,0,1-.2-.016L159.7,82.231a1.179,1.179,0,0,1-.726-.426l-4.714-5.893a1.178,1.178,0,0,1,1.84-1.472l4.433,5.541,6.626,1.1a1.178,1.178,0,0,1-.193,2.341Z" transform="translate(-124.536 -63.391)" fill="#4c241d"/>
        <path id="Trazado_193206" data-name="Trazado 193206" d="M198.249,62.962a1.172,1.172,0,0,1-.653-.2l-7.071-4.714a1.178,1.178,0,0,1-.525-.981V51.177a1.179,1.179,0,0,1,2.357,0v5.262L198.9,60.8a1.179,1.179,0,0,1-.655,2.159Z" transform="translate(-149.929 -46.463)" fill="#4c241d"/>
        <path id="Trazado_193207" data-name="Trazado 193207" d="M223.894,52.142a1.175,1.175,0,0,1-.921-.443l-4.714-5.893a1.178,1.178,0,0,1-.235-.967l1.179-5.893a1.178,1.178,0,1,1,2.311.463l-1.071,5.354,4.371,5.464a1.179,1.179,0,0,1-.92,1.915Z" transform="translate(-169.679 -38)" fill="#4c241d"/>
      </g>
      <g id="Grupo_145433" data-name="Grupo 145433" transform="translate(27.303 40.888)">
        <path id="Trazado_193208" data-name="Trazado 193208" d="M59.17,109.025A45.775,45.775,0,0,1,46.024,107.1a2.946,2.946,0,1,1,1.843-5.6c.149.048,15.551,4.937,26.264-2.561,5.322-3.726,5.087-12.069,4.859-20.139-.208-7.39-.406-14.37,3.433-18.847,7.969-9.3,21.945-8.142,22.539-8.088a2.946,2.946,0,0,1-.527,5.869c-.118-.013-11.568-.912-17.538,6.054-2.357,2.751-2.184,8.9-2.016,14.846.259,9.18.552,19.586-7.371,25.132-5.86,4.1-12.6,5.259-18.34,5.26Z" transform="translate(-42.821 -50.616)" fill="#f18385"/>
        <path id="Trazado_193209" data-name="Trazado 193209" d="M56.35,107.388A47.351,47.351,0,0,1,42.835,105.4a4.125,4.125,0,0,1,2.58-7.836c.142.047,15.05,4.711,25.22-2.407,4.8-3.361,4.575-11.38,4.357-19.135-.215-7.63-.418-14.829,3.716-19.652,8.362-9.756,22.922-8.55,23.541-8.5a4.126,4.126,0,0,1,2.262,7.282,4.074,4.074,0,0,1-3,.935c-.11-.007-10.96-.858-16.535,5.648-2.061,2.405-1.887,8.589-1.733,14.045.268,9.478.57,20.221-7.873,26.131-5.186,3.63-11.584,5.472-19.015,5.472ZM44.128,99.716a1.767,1.767,0,0,0-.555,3.446,44.719,44.719,0,0,0,12.778,1.869c6.938,0,12.881-1.7,17.663-5.047,7.4-5.182,7.119-15.25,6.869-24.133-.174-6.169-.354-12.549,2.3-15.647,6.448-7.522,18.44-6.471,18.558-6.458a1.729,1.729,0,0,0,1.264-.4,1.768,1.768,0,0,0-.968-3.122c-.569-.055-13.96-1.16-21.538,7.681-3.542,4.131-3.351,10.889-3.149,18.043.237,8.387.481,17.051-5.361,21.141-11.169,7.815-27.144,2.768-27.3,2.717A1.787,1.787,0,0,0,44.128,99.716Z" transform="translate(-40.001 -47.801)"/>
      </g>
      <path id="Trazado_193210" data-name="Trazado 193210" d="M261.3,54.248a1.176,1.176,0,0,1-.664-.205l-4.125-2.819a1.179,1.179,0,0,1-.186-1.789l2.946-3.074a1.179,1.179,0,0,1,1.7,1.631l-1.984,2.07,2.976,2.034a1.179,1.179,0,0,1-.666,2.152Z" transform="translate(-165.055 -5.641)" fill="#4c241d"/>
      <path id="Trazado_193211" data-name="Trazado 193211" d="M23.179,212.606a1.179,1.179,0,0,1-.508-2.243l4.579-2.183L24.534,203.8a1.179,1.179,0,1,1,2-1.242l3.409,5.5a1.179,1.179,0,0,1-.494,1.685l-5.767,2.75A1.178,1.178,0,0,1,23.179,212.606Z" transform="translate(0 -115.679)" fill="#4c241d"/>
    </g>
  </g>
</svg>
