<svg xmlns="http://www.w3.org/2000/svg" width="139" height="139" viewBox="0 0 139 139">
  <g id="Grupo_145938" data-name="Grupo 145938" transform="translate(10578 7390)">
    <rect id="Rectángulo_44302" data-name="Rectángulo 44302" width="139" height="139" rx="69.5" transform="translate(-10578 -7390)" fill="#b0f0fc"/>
    <g id="layer2" transform="translate(-10603.373 -7386.259)">
      <g id="ic-stamp" transform="translate(43.42 22.259)">
        <path id="rect1865-7" d="M98.018,106.25l13.96-13.96V25.709a3.213,3.213,0,0,0-3.22-3.22H50.051a3.213,3.213,0,0,0-3.22,3.22V49.588a9.609,9.609,0,0,1,2.92-.457c5,0,9.061,3.783,9.061,8.452,0,7.4-4.79,13.212-4.79,26.951h3.666a3.279,3.279,0,0,1,3.1,3.445V89.7a3.767,3.767,0,0,1-.245,1.345h6.889a4.321,4.321,0,0,1,4.084,4.538v4.535H68.547v4.769a1.4,1.4,0,0,1-1.445,1.36Z" transform="translate(-26.832 -21.143)" fill="#e6e6e6"/>
        <path id="path1968" d="M77.137,36.617A12.805,12.805,0,1,1,64.331,23.812,12.805,12.805,0,0,1,77.137,36.617Z" transform="translate(-4.003 -14.71)" fill="#f18385"/>
        <path id="rect1922" d="M47.7,34.184a4.317,4.317,0,0,0-4.081,4.537v4.537h43.53V38.72a4.317,4.317,0,0,0-4.081-4.537Z" transform="translate(-42.461 35.722)" fill="#8ee5f6"/>
        <path id="path1914" d="M54.844,27.033c-5,0-9.06,3.785-9.06,8.455,0,7.4,4.8,13.211,4.8,26.95h8.527c0-13.739,4.789-19.552,4.789-26.95C63.9,30.819,59.848,27.033,54.844,27.033Z" transform="translate(-31.924 0.953)" fill="#8ee5f6"/>
        <path id="rect1924" d="M44.123,35.731V40.5a1.4,1.4,0,0,0,1.446,1.362h34.7A1.4,1.4,0,0,0,81.713,40.5V35.731Z" transform="translate(-39.998 43.248)" fill="#8ee5f6"/>
        <path id="rect1963" d="M48.61,33.072a3.28,3.28,0,0,0-3.1,3.445V38.24a3.771,3.771,0,0,0,.245,1.346H66.978a3.771,3.771,0,0,0,.245-1.346V36.517a3.28,3.28,0,0,0-3.1-3.445Z" transform="translate(-33.264 30.319)" fill="#defaff"/>
        <g id="Grupo_145447" data-name="Grupo 145447">
          <path id="path3006" d="M58.21,34.168a2.79,2.79,0,0,0-2.789,2.789V49.8H56.76L70.742,35.819V34.168Z" transform="translate(14.941 35.646)" fill="#b3b3b3"/>
          <path id="circle3020" d="M58.1,24.137A12.825,12.825,0,1,0,74.286,43.5,12.825,12.825,0,0,1,58.1,24.135Z" transform="translate(-3.607 -13.14)" fill="#ffd0d0"/>
          <path id="path3025" d="M47.772,34.237a4.326,4.326,0,0,0-4.087,4.545v4.542H47.9V38.783a4.326,4.326,0,0,1,4.087-4.545Z" transform="translate(-42.129 35.983)" fill="#defaff"/>
          <path id="path3039" d="M54.931,27.076c-5.012,0-9.076,3.789-9.076,8.466,0,7.41,4.812,13.233,4.812,26.993h4.594c-.205-13.111-4.794-18.86-4.794-26.1a8.737,8.737,0,0,1,8.551-8.441A9.545,9.545,0,0,0,54.931,27.076Z" transform="translate(-31.573 1.161)" fill="#defaff"/>
          <path id="path3044" d="M49.83,26.4a13.4,13.4,0,0,0-2.925.337v4.066a9.624,9.624,0,0,1,2.925-.458c5.012,0,9.076,3.789,9.076,8.466,0,7.41-4.8,13.233-4.8,26.993H57.78a3.285,3.285,0,0,1,3.107,3.45v1.727a3.772,3.772,0,0,1-.246,1.347h6.9a4.328,4.328,0,0,1,4.09,4.545v4.542H68.655v4.776a1.4,1.4,0,0,1-1.447,1.362h5.186a5.04,5.04,0,0,0,.206-1.362v-.953a3.945,3.945,0,0,0,2.974-3.823V76.876c0-4.422-3.412-8.49-8.032-8.49H64.665a7.132,7.132,0,0,0-6.3-6.393,54.3,54.3,0,0,1,1.924-10.957c1.16-3.97,2.555-7.667,2.555-12.222,0-6.96-6.017-12.41-13.017-12.41Z" transform="translate(-26.472 -2.11)" fill="#b3b3b3"/>
          <path id="rect1865" d="M67.081,22.259A4.811,4.811,0,0,0,62.3,27.042V44.016a1.555,1.555,0,0,0,3.11,0V27.042a1.639,1.639,0,0,1,1.675-1.675h58.8a1.639,1.639,0,0,1,1.675,1.675V90.623H116.8a4.8,4.8,0,0,0-4.782,4.77v10.757H94.924a1.555,1.555,0,1,0,0,3.11h20.2a1.557,1.557,0,0,0,1.1-.449L130.2,94.819a1.554,1.554,0,0,0,.458-1.089V27.042a4.808,4.808,0,0,0-4.782-4.782Zm37.167,7.777a14.375,14.375,0,1,0,14.383,14.37A14.4,14.4,0,0,0,104.248,30.036Zm0,3.095A11.274,11.274,0,1,1,92.976,44.407,11.252,11.252,0,0,1,104.248,33.131Zm5.219,6.7-5.7,6.861-3.429-3.511a1.552,1.552,0,0,0-2.224,2.166l4.633,4.749A1.554,1.554,0,0,0,105.053,50l6.812-8.177a1.56,1.56,0,0,0-2.4-2ZM66.781,48.946c-5.8,0-10.629,4.449-10.629,10.025,0,4.041,1.276,7.5,2.464,11.546a51.737,51.737,0,0,1,2.318,13.891H59.189a4.847,4.847,0,0,0-4.655,5v1.526H49.063a5.9,5.9,0,0,0-5.644,6.1v4.539a1.554,1.554,0,0,0,1.56,1.551H46.4v3.222a2.984,2.984,0,0,0,3,2.913H84.155a2.987,2.987,0,0,0,3.007-2.913v-3.222h1.42a1.554,1.554,0,0,0,1.547-1.551V97.034a5.9,5.9,0,0,0-5.641-6.1h-5.1V89.406a4.847,4.847,0,0,0-4.655-5H72.64a51.883,51.883,0,0,1,2.306-13.891c1.184-4.05,2.455-7.506,2.455-11.546C77.4,53.4,72.576,48.946,66.781,48.946Zm0,3.107a7.224,7.224,0,0,1,7.525,6.918c0,3.37-1.125,6.521-2.339,10.675A59.936,59.936,0,0,0,69.73,84.408h-5.9A59.8,59.8,0,0,0,61.6,69.646c-1.218-4.154-2.339-7.306-2.339-10.675A7.221,7.221,0,0,1,66.781,52.053ZM91.817,64.169a1.593,1.593,0,1,0,1.593,1.593A1.594,1.594,0,0,0,91.817,64.169Zm6.217.042a1.554,1.554,0,1,0,0,3.107h21.741a1.554,1.554,0,1,0,0-3.107ZM82.5,71.937a1.593,1.593,0,1,0,1.593,1.593A1.594,1.594,0,0,0,82.5,71.937Zm6.214.036a1.555,1.555,0,0,0,0,3.11h31.065a1.555,1.555,0,1,0,0-3.11Zm3.107,7.731A1.593,1.593,0,1,0,93.41,81.3,1.594,1.594,0,0,0,91.817,79.705Zm6.217.033a1.554,1.554,0,1,0,0,3.107h21.741a1.554,1.554,0,1,0,0-3.107ZM59.189,87.515H74.731a1.711,1.711,0,0,1,1.548,1.89v1.526H66.966a1.554,1.554,0,1,0,0,3.107H84.489a2.763,2.763,0,0,1,2.534,2.995v2.98H46.53v-2.98a2.763,2.763,0,0,1,2.534-2.995H60.749a1.554,1.554,0,0,0,0-3.107H57.641V89.406a1.711,1.711,0,0,1,1.547-1.89ZM116.8,93.73h10.116L115.12,105.506V95.392A1.629,1.629,0,0,1,116.8,93.73Zm-67.286,9.394H84.052v3.025H49.509Z" transform="translate(-43.42 -22.259)"/>
        </g>
      </g>
    </g>
  </g>
</svg>
