<svg xmlns="http://www.w3.org/2000/svg" width="139" height="139" viewBox="0 0 139 139">
  <g id="Grupo_145937" data-name="Grupo 145937" transform="translate(10578 7696)">
    <rect id="Rectángulo_44300" data-name="Rectángulo 44300" width="139" height="139" rx="69.5" transform="translate(-10578 -7696)" fill="#b0f0fc"/>
    <g id="vestido" transform="translate(-10588.298 -7669.717)">
      <g id="Grupo_145444" data-name="Grupo 145444" transform="translate(45.277 1.266)">
        <path id="Trazado_193277" data-name="Trazado 193277" d="M109.61,71.755h10.942V31.976A24.477,24.477,0,0,0,96.076,7.5H75.989A24.478,24.478,0,0,0,51.511,31.976V71.755h58.1Z" transform="translate(-51.511 -7.5)" fill="#8ee5f6"/>
        <path id="Trazado_193278" data-name="Trazado 193278" d="M223.727,213.637H183.788L219.557,178.2a4.17,4.17,0,0,1,4.17,4.17v31.268Z" transform="translate(-161.458 -149.382)" fill="#55bed3"/>
        <path id="Trazado_193279" data-name="Trazado 193279" d="M83.055,7.5A24.478,24.478,0,0,0,58.578,31.976V71.755H51.511V31.976A24.478,24.478,0,0,1,75.989,7.5Z" transform="translate(-51.511 -7.5)" fill="#55bed3"/>
        <path id="Trazado_193280" data-name="Trazado 193280" d="M51.511,351.153h69.042v6.241H51.511Z" transform="translate(-51.511 -293.139)" fill="#55bed3"/>
        <path id="Trazado_193281" data-name="Trazado 193281" d="M163.486,186.24V178.2H116.329v8.042a9.9,9.9,0,0,0,9.9,9.9,9.9,9.9,0,0,0-9.9,9.9v27.244h47.157V206.037a9.9,9.9,0,0,0-9.9-9.9A9.9,9.9,0,0,0,163.486,186.24Z" transform="translate(-105.387 -149.382)" fill="#8ee5f6"/>
        <path id="Trazado_193282" data-name="Trazado 193282" d="M137.617,179.516a9.9,9.9,0,0,0-9.9,9.9v27.245H116.33V189.413a9.9,9.9,0,0,1,9.9-9.9,9.9,9.9,0,0,1-9.9-9.9V158.2l3.678,1.09a10.773,10.773,0,0,1,7.71,10.328A9.9,9.9,0,0,0,137.617,179.516Z" transform="translate(-105.388 -132.758)" fill="#55bed3"/>
        <path id="Trazado_193283" data-name="Trazado 193283" d="M200.475,7.844a14.718,14.718,0,0,1-28.3,0,24.6,24.6,0,0,1,4.109-.344h20.087A24.583,24.583,0,0,1,200.475,7.844Z" transform="translate(-151.801 -7.5)" fill="#8ee5f6"/>
        <path id="Trazado_193284" data-name="Trazado 193284" d="M291.472,138.273h12.8V144.7h-12.8Z" transform="translate(-250.963 -116.197)" fill="#f18385"/>
      </g>
      <g id="Grupo_145445" data-name="Grupo 145445" transform="translate(44.011)">
        <path id="Trazado_193285" data-name="Trazado 193285" d="M89.842,0H69.755A25.772,25.772,0,0,0,44.011,25.742V65.521a1.266,1.266,0,0,0,1.266,1.266h9.676v6.63a1.266,1.266,0,0,0,2.532,0v-15.5a8.642,8.642,0,0,1,8.623-8.633H85.268a1.266,1.266,0,0,0,0-2.532H66.117a8.641,8.641,0,0,1-8.632-8.632V26.706a1.266,1.266,0,1,0-2.532,0V38.125a11.175,11.175,0,0,0,6,9.9,11.177,11.177,0,0,0-6,9.9v.092h-8.41V25.742A23.25,23.25,0,0,1,64.792,3.068,16.048,16.048,0,0,0,79.8,13.554a15.954,15.954,0,0,0,8.317-2.333A1.266,1.266,0,1,0,86.8,9.06a13.425,13.425,0,0,1-7,1.962,13.508,13.508,0,0,1-12.45-8.365,23.383,23.383,0,0,1,2.407-.124H89.842a23.367,23.367,0,0,1,2.409.125,13.365,13.365,0,0,1-2.018,3.4,1.266,1.266,0,1,0,1.964,1.6A15.863,15.863,0,0,0,94.8,3.068a23.249,23.249,0,0,1,18.249,22.674V58.014h-8.41v-.092a11.176,11.176,0,0,0-6-9.9,11.175,11.175,0,0,0,6-9.9V26.706a1.266,1.266,0,1,0-2.532,0V38.125a8.641,8.641,0,0,1-8.632,8.632,1.266,1.266,0,1,0,0,2.532,8.642,8.642,0,0,1,8.632,8.633V83.9H57.486V78.482a1.266,1.266,0,0,0-2.532,0v6.685a1.266,1.266,0,0,0,1.266,1.266h47.157a1.266,1.266,0,0,0,1.266-1.266V66.787h9.676a1.266,1.266,0,0,0,1.266-1.266V25.742A25.771,25.771,0,0,0,89.842,0ZM54.953,60.546v3.709h-8.41V60.546Zm49.689,3.709V60.546h8.41v3.709Z" transform="translate(-44.011)"/>
        <path id="Trazado_193286" data-name="Trazado 193286" d="M299.3,138.464v-6.425a1.266,1.266,0,0,0-1.266-1.266h-12.8a1.266,1.266,0,0,0-1.266,1.266v6.425a1.266,1.266,0,0,0,1.266,1.266h12.8A1.266,1.266,0,0,0,299.3,138.464Zm-2.532-1.266H286.5v-3.893h10.264Z" transform="translate(-243.462 -108.697)"/>
      </g>
    </g>
  </g>
</svg>
