<svg xmlns="http://www.w3.org/2000/svg" width="139" height="139" viewBox="0 0 139 139">
  <g id="Grupo_145939" data-name="Grupo 145939" transform="translate(10578 7084)">
    <rect id="Rectángulo_44304" data-name="Rectángulo 44304" width="139" height="139" rx="69.5" transform="translate(-10578 -7084)" fill="#b0f0fc"/>
    <g id="locion" transform="translate(-10598.288 -7058.535)">
      <path id="Trazado_193287" data-name="Trazado 193287" d="M121.352,348.342H76.012A10.012,10.012,0,0,1,66,338.33V321.043a4.623,4.623,0,0,1,4.623-4.623H126.74a4.623,4.623,0,0,1,4.623,4.623V338.33A10.011,10.011,0,0,1,121.352,348.342Z" transform="translate(-9.935 -261.992)" fill="#8ee5f6"/>
      <path id="Trazado_193288" data-name="Trazado 193288" d="M97.835,268.091h54.412V276.4H97.835Z" transform="translate(-36.294 -221.976)" fill="#fff"/>
      <circle id="Elipse_1144" data-name="Elipse 1144" cx="7.22" cy="7.22" r="7.22" transform="translate(81.527 63.168)" fill="#fff"/>
      <path id="Trazado_193289" data-name="Trazado 193289" d="M163.26,201.053a8.83,8.83,0,0,0-8.83-8.83,9.85,9.85,0,0,1-8.625-5.1v0l-.94,1.23a9.847,9.847,0,0,1-7.824,3.868H123.453a8.83,8.83,0,0,0-8.83,8.83Z" transform="translate(-50.194 -154.938)" fill="#fde9e0"/>
      <g id="Grupo_145449" data-name="Grupo 145449" transform="translate(71.52 1.72)">
        <path id="Trazado_193290" data-name="Trazado 193290" d="M269.166,23.176a13.84,13.84,0,0,1-12.852,3.716,13.852,13.852,0,0,1,12.706-16.885,3.952,3.952,0,0,1,4.178,4.178,13.8,13.8,0,0,1-4.033,8.99Z" transform="translate(-238.752 -10.001)" fill="#f18385"/>
        <path id="Trazado_193291" data-name="Trazado 193291" d="M159.89,48.954a13.84,13.84,0,0,0,12.852,3.716,13.852,13.852,0,0,0-12.706-16.885,3.952,3.952,0,0,0-4.178,4.178A13.8,13.8,0,0,0,159.89,48.954Z" transform="translate(-155.851 -31.345)" fill="#f18385"/>
      </g>
      <g id="Grupo_145450" data-name="Grupo 145450" transform="translate(54.001 0)">
        <path id="Trazado_193292" data-name="Trazado 193292" d="M119.329,199.427v-6.654a1.72,1.72,0,0,0-1.72-1.72H116.3a10.565,10.565,0,0,0-10.407-8.83,8.131,8.131,0,0,1-7.122-4.212,1.72,1.72,0,0,0-2.87-.209l-.94,1.23a8.175,8.175,0,0,1-6.457,3.192H74.914a10.565,10.565,0,0,0-10.407,8.83H63.2a1.72,1.72,0,0,0-1.72,1.72v6.654A6.352,6.352,0,0,0,56,205.709V223a11.745,11.745,0,0,0,11.732,11.732h45.34A11.745,11.745,0,0,0,124.805,223V205.709A6.353,6.353,0,0,0,119.329,199.427ZM74.914,185.663H88.5a11.643,11.643,0,0,0,8.694-3.938,11.569,11.569,0,0,0,8.695,3.938,7.122,7.122,0,0,1,6.9,5.389H68.015A7.122,7.122,0,0,1,74.914,185.663ZM121.365,223a8.3,8.3,0,0,1-8.292,8.292H67.733A8.3,8.3,0,0,1,59.441,223V205.709a2.907,2.907,0,0,1,2.9-2.9H82.662a1.72,1.72,0,1,0,0-3.44H64.917v-4.873h50.972v4.873H98.143a1.72,1.72,0,1,0,0,3.44h20.318a2.907,2.907,0,0,1,2.9,2.9Z" transform="translate(-55.657 -146.658)"/>
        <path id="Trazado_193293" data-name="Trazado 193293" d="M212.965,357.234a8.941,8.941,0,1,0,8.941,8.941A8.951,8.951,0,0,0,212.965,357.234Zm0,14.441a5.5,5.5,0,1,1,5.5-5.5A5.507,5.507,0,0,1,212.965,371.675Z" transform="translate(-178.218 -295.786)"/>
        <path id="Trazado_193294" data-name="Trazado 193294" d="M150.394,20.546a15.488,15.488,0,0,0,10.981,4.565,15.674,15.674,0,0,0,1.707-.094v2.911a1.72,1.72,0,1,0,3.44,0V20.584a15.64,15.64,0,0,0,1.7.093A15.49,15.49,0,0,0,179.2,16.112,15.546,15.546,0,0,0,183.735,6,5.673,5.673,0,0,0,177.74.01a15.6,15.6,0,0,0-14.019,11.066,15.74,15.74,0,0,0-1.76-2.1,15.545,15.545,0,0,0-10.107-4.534,5.673,5.673,0,0,0-5.995,5.995A15.547,15.547,0,0,0,150.394,20.546ZM170.065,6.977a12.11,12.11,0,0,1,7.873-3.532A2.232,2.232,0,0,1,180.3,5.806a12.11,12.11,0,0,1-3.532,7.873,12.072,12.072,0,0,1-7.8,3.532l3.626-3.626a1.72,1.72,0,0,0-2.433-2.433l-3.626,3.626a12.068,12.068,0,0,1,3.532-7.8ZM149.944,8.528a2.206,2.206,0,0,1,1.577-.654q.067,0,.136,0a12.138,12.138,0,0,1,11.4,11.334L160.145,16.3a1.72,1.72,0,1,0-2.433,2.433l2.916,2.916A12.138,12.138,0,0,1,149.294,10.24a2.21,2.21,0,0,1,.65-1.712Z" transform="translate(-130.051 0)"/>
        <path id="Trazado_193295" data-name="Trazado 193295" d="M55.721,84.388h2.312V86.7a1.72,1.72,0,0,0,3.44,0V84.388h2.312a1.72,1.72,0,0,0,0-3.44H61.473V78.636a1.72,1.72,0,0,0-3.44,0v2.312H55.721a1.72,1.72,0,1,0,0,3.44Z" transform="translate(-54.001 -63.686)"/>
        <circle id="Elipse_1145" data-name="Elipse 1145" cx="1.72" cy="1.72" r="1.72" transform="translate(12.11 27.516)"/>
        <circle id="Elipse_1146" data-name="Elipse 1146" cx="1.72" cy="1.72" r="1.72" transform="translate(33.026 52.707)"/>
      </g>
      <g id="Grupo_145451" data-name="Grupo 145451" transform="translate(111.989 13.38)">
        <path id="Trazado_193296" data-name="Trazado 193296" d="M400.9,129.989h-2.312v-2.312a1.72,1.72,0,1,0-3.44,0v2.312H392.84a1.72,1.72,0,0,0,0,3.44h2.312v2.312a1.72,1.72,0,1,0,3.44,0v-2.312H400.9a1.72,1.72,0,0,0,0-3.44Z" transform="translate(-391.12 -117.671)"/>
        <circle id="Elipse_1147" data-name="Elipse 1147" cx="1.72" cy="1.72" r="1.72" transform="translate(0.079)"/>
      </g>
    </g>
  </g>
</svg>
