<svg xmlns="http://www.w3.org/2000/svg" width="139" height="139" viewBox="0 0 139 139">
  <g id="Grupo_145559" data-name="Grupo 145559" transform="translate(-246 -6300)">
    <rect id="Rectángulo_44350" data-name="Rectángulo 44350" width="139" height="139" rx="69.5" transform="translate(246 6300)" fill="#b0f0fc"/>
    <g id="corte-de-pelo" transform="translate(268.988 6324.827)">
      <g id="Grupo_145557" data-name="Grupo 145557" transform="translate(9.836 11.113)">
        <g id="Grupo_145556" data-name="Grupo 145556" transform="translate(0)">
          <path id="Trazado_193467" data-name="Trazado 193467" d="M395.809,97.189c15.156,6.251,10.682,19.974,8.4,25.025a.91.91,0,0,1-1.685-.064l-8.807-24.2Z" transform="translate(-329.692 -91.825)" fill="#e5d5f5"/>
          <path id="Trazado_193468" data-name="Trazado 193468" d="M92.6,109.859c-7.228,8.97-17.85,17.5-30.074,14.521a16.782,16.782,0,0,1-11.2-9,14.874,14.874,0,0,1-1.416-5.785c-.208-5.445,2.272-10.689,1.21-16.164-1.047-5.392-4.81-9.992-10.277-11.224a13.9,13.9,0,0,0-4.109-.3A12.772,12.772,0,0,0,27.8,89.591c-1.358,3.042-2.166,7.133-2.166,12.578a17.327,17.327,0,0,0,.475,4.038,16.338,16.338,0,0,1-7.3-6.7A23.167,23.167,0,0,1,16.2,85.71c.515-5.326,2.529-10.649,6.37-14.375,4.527-4.4,11.171-6.135,17.467-5.728s12.317,2.753,17.941,5.615,10.967,6.263,16.651,9c6.131,2.953,14.695,5.5,20.78,1.239a1.037,1.037,0,0,1,1.613.681,29.2,29.2,0,0,1-6.969,24.1,1.039,1.039,0,0,0,.6,1.73c.432.067.867.142,1.3.21a1.038,1.038,0,0,1,.655,1.677Z" transform="translate(-16.064 -65.549)" fill="#8ee5f6"/>
          <path id="Trazado_193469" data-name="Trazado 193469" d="M341.738,185.2c-.432-.067-.867-.142-1.3-.21a1.039,1.039,0,0,1-.6-1.73,29.2,29.2,0,0,0,6.969-24.1,1.037,1.037,0,0,0-1.613-.681,11.97,11.97,0,0,1-3.4,1.646,29.214,29.214,0,0,1-7.041,23.646,1.039,1.039,0,0,0,.6,1.73c.432.067.867.142,1.3.21a1.038,1.038,0,0,1,.655,1.677C332.051,193.908,325,200.2,316.845,202c10.313.229,19.228-7.276,25.548-15.12A1.038,1.038,0,0,0,341.738,185.2Z" transform="translate(-265.854 -142.567)" fill="#18bab9"/>
          <path id="Trazado_193470" data-name="Trazado 193470" d="M63.251,367.261V355.9H49.215v11.357a1.382,1.382,0,0,1-.982,1.323c-5.388,1.632-14.2,3.224-14.2,10.624v.8A1.091,1.091,0,0,0,35.12,381.1H77.346A1.091,1.091,0,0,0,78.437,380v-.8c0-7.4-8.816-8.992-14.2-10.624A1.382,1.382,0,0,1,63.251,367.261Z" transform="translate(-30.983 -306.68)" fill="#fde9e0"/>
          <path id="Trazado_193471" data-name="Trazado 193471" d="M184.961,368.583a1.382,1.382,0,0,1-.982-1.323V355.9H179.4v12.374a1.382,1.382,0,0,0,.982,1.323c5.388,1.632,14.2,2.207,14.2,9.607v.8a1.091,1.091,0,0,1-1.091,1.091h4.577A1.091,1.091,0,0,0,199.165,380v-.8C199.165,371.807,190.349,370.215,184.961,368.583Z" transform="translate(-151.711 -306.68)" fill="#ebae9d"/>
          <ellipse id="Elipse_1156" data-name="Elipse 1156" cx="7.737" cy="6.195" rx="7.737" ry="6.195" transform="translate(2.921 30.583)" fill="#fde9e0"/>
          <path id="Trazado_193472" data-name="Trazado 193472" d="M96.817,189.567a14.875,14.875,0,0,0,1.416,5.785c-3.308,3.4-7.346,5.359-10.018,5.359-4.56,0-13.1-5.715-15.2-14.534a17.336,17.336,0,0,1-.475-4.038c0-5.445.808-9.536,2.166-12.578a12.772,12.772,0,0,1,8.934-7.677,13.9,13.9,0,0,1,4.109.3c5.467,1.232,9.23,5.832,10.277,11.224C99.089,178.878,96.609,184.122,96.817,189.567Z" transform="translate(-62.966 -145.519)" fill="#fde9e0"/>
          <path id="Trazado_193473" data-name="Trazado 193473" d="M138.319,339.482a6.147,6.147,0,0,1-.969-.083,10.813,10.813,0,0,0,4.688,1.363c2.671,0,6.71-1.962,10.018-5.359a14.905,14.905,0,0,1-1.357-4.919C147.374,336.082,141.7,339.482,138.319,339.482Z" transform="translate(-116.788 -285.571)" fill="#ebae9d"/>
          <g id="Grupo_145555" data-name="Grupo 145555" transform="translate(52.008 5.364)">
            <path id="Trazado_193474" data-name="Trazado 193474" d="M333.668,97.189c-15.156,6.251-10.682,19.974-8.4,25.025a.91.91,0,0,0,1.685-.064l8.807-24.2Z" transform="translate(-322.842 -97.189)" fill="#f2eafa"/>
          </g>
          <circle id="Elipse_1157" data-name="Elipse 1157" cx="3.647" cy="3.647" r="3.647" transform="translate(60.829 2.039)" fill="#92e0c4"/>
        </g>
      </g>
      <g id="Grupo_145558" data-name="Grupo 145558" transform="translate(8.565 0.001)">
        <path id="Trazado_193475" data-name="Trazado 193475" d="M85.917,52.491c-.213-.033-.8-.129-.874-.142a30.509,30.509,0,0,0,7-24.86,2.308,2.308,0,0,0-3.594-1.508,10.339,10.339,0,0,1-.994.614c-1.14-4.19-3.9-7.529-8.229-9.949a4.907,4.907,0,0,0-1.621-3.495L78.717,10.1a4.921,4.921,0,0,0,8.33-1.554l.706-1.94a4.92,4.92,0,1,0-9.246-3.366l-3.184,8.747a4.92,4.92,0,0,0-2.023,0L70.117,3.241A4.92,4.92,0,0,0,60.87,6.606l.706,1.94a4.921,4.921,0,0,0,8.33,1.553l1.111,3.052a4.906,4.906,0,0,0-1.621,3.5,18,18,0,0,0-5.936,5.135c-1.228-.676-2.457-1.369-3.654-2.044-2.43-1.371-4.943-2.79-7.484-4.083-7-3.565-12.863-5.392-18.435-5.75a27.764,27.764,0,0,0-9.428.989,1.271,1.271,0,1,0,.709,2.442,25.2,25.2,0,0,1,8.556-.893c5.216.335,10.76,2.077,17.446,5.479,2.492,1.269,4.981,2.673,7.387,4.031,1.178.665,2.386,1.346,3.6,2.015a17.292,17.292,0,0,0-1.427,9.777,28.986,28.986,0,0,0,2.384,8.284,2.182,2.182,0,0,0,4.038-.154l4.805-13.2c5.8,2.115,12.48,2.995,17.64-.4A27.9,27.9,0,0,1,82.883,50.95a2.31,2.31,0,0,0,1.341,3.843c.213.033.818.133.907.147C73.492,69.214,63.2,70.316,56.6,68.708c-6.393-1.557-11.4-7.017-11.645-13.594a31.507,31.507,0,0,1,.714-6.708c.551-3.1,1.122-6.308.474-9.65-.09-.463-.2-.92-.326-1.369a26.554,26.554,0,0,1,4.432,8.089,1.271,1.271,0,0,0,2.434-.737c-1.5-4.964-6.086-11.762-11.19-14.656A14,14,0,0,0,34.9,26.536a14.321,14.321,0,0,0-4.7-.29q-.41.1-.807.223a14.973,14.973,0,0,1,3.517-1.762c3.237-1.109,8.38-1.54,14.5,2.7a1.271,1.271,0,0,0,1.448-2.09C41.87,20.471,35.882,21,32.091,22.3a17.873,17.873,0,0,0-10.97,10.927q-.376.676-.7,1.411a24.823,24.823,0,0,0-1.722,5.937A9.259,9.259,0,0,0,13.184,43.5,22.525,22.525,0,0,1,11.236,31.4a21.679,21.679,0,0,1,5.991-13.586,17.273,17.273,0,0,1,2.845-2.224,1.271,1.271,0,1,0-1.352-2.154,19.817,19.817,0,0,0-3.264,2.553A24.208,24.208,0,0,0,8.7,31.152a24.12,24.12,0,0,0,3.029,14.975,6.38,6.38,0,0,0-.248,1.764c0,3.908,3.643,7.122,8.262,7.438A22.454,22.454,0,0,0,26.8,64.162v7.533a.11.11,0,0,1-.081.106c-3.116.944-7.154,1.825-10.337,3.81-3.164,1.973-4.768,4.675-4.768,8.031v.8A2.365,2.365,0,0,0,13.973,86.8H56.2a2.366,2.366,0,0,0,2.363-2.363A9.079,9.079,0,0,0,55.6,76.962a1.271,1.271,0,0,0-1.71,1.882,6.5,6.5,0,0,1,2.132,5.413H14.155v-.615c0-2.487,1.135-4.354,3.571-5.873C20.56,76,24.5,75.131,27.453,74.235a2.637,2.637,0,0,0,1.888-2.54V65.817a12.549,12.549,0,0,0,5.745,1.76,12.523,12.523,0,0,0,5.747-1.768v5.885a2.637,2.637,0,0,0,1.885,2.539c1.956.592,4.251,1.152,6.435,1.968a1.271,1.271,0,1,0,.89-2.382c-2.291-.856-4.686-1.444-6.589-2.02a.109.109,0,0,1-.078-.105V64.156c.475-.358.942-.738,1.4-1.139A18.207,18.207,0,0,0,56,71.179a22.286,22.286,0,0,0,5.289.641,25.32,25.32,0,0,0,12.548-3.55A48.683,48.683,0,0,0,87.366,56.223a2.31,2.31,0,0,0-1.449-3.731ZM83.943,2.69a2.377,2.377,0,0,1,1.42,3.046l-.706,1.94a2.376,2.376,0,0,1-4.472-1.611c.072-.2-.264.724.711-1.955A2.38,2.38,0,0,1,83.943,2.69ZM67.013,9.1a2.38,2.38,0,0,1-3.046-1.42l-.706-1.94A2.377,2.377,0,1,1,67.727,4.11c.073.2-.257-.724.709,1.95A2.373,2.373,0,0,1,67.013,9.1Zm9.674,7.7a2.375,2.375,0,1,1-2.375-2.375A2.378,2.378,0,0,1,76.687,16.8ZM65.071,40.154c-3.6-8.611-1.3-14.06-.1-16.041a14.613,14.613,0,0,1,5.066-4.893,4.953,4.953,0,0,0,1.961,1.916ZM74.312,22.2l1.859,5.109a32.666,32.666,0,0,1-3.345-1.028Zm4.763,5.651-2.444-6.716a4.953,4.953,0,0,0,1.961-1.918,13.475,13.475,0,0,1,6.481,8.323A15.69,15.69,0,0,1,79.075,27.852ZM14.029,47.892c0-2.1,1.8-3.953,4.315-4.638a26.065,26.065,0,0,0,.456,9.388c-2.745-.569-4.77-2.482-4.77-4.75Zm28.388,7.319a16.043,16.043,0,0,0,1.171,5.445c-3.166,3-6.573,4.378-8.5,4.378-4.543,0-14.4-6.959-14.4-17.3,0-4.944.692-9,2.056-12.06q.312-.7.669-1.33l.016-.026a10.947,10.947,0,0,1,7.291-5.578,12.612,12.612,0,0,1,3.628.277c4.969,1.119,8.346,5.278,9.308,10.224.558,2.877.053,5.716-.481,8.72a33.886,33.886,0,0,0-.752,7.25Z" transform="translate(-8.565 -0.001)"/>
        <path id="Trazado_193476" data-name="Trazado 193476" d="M144.229,320.108a6.724,6.724,0,0,1-6.094,0,1.271,1.271,0,1,0-1.091,2.3,9.244,9.244,0,0,0,8.275,0,1.271,1.271,0,1,0-1.091-2.3Z" transform="translate(-114.66 -265.738)"/>
        <path id="Trazado_193477" data-name="Trazado 193477" d="M123.922,254.6a1.271,1.271,0,0,0-2.543,0v1.777a1.271,1.271,0,1,0,2.543,0Z" transform="translate(-102.254 -210.383)"/>
        <path id="Trazado_193478" data-name="Trazado 193478" d="M112.583,223.3a1.271,1.271,0,1,0,1.289-2.192,5.744,5.744,0,0,0-6.122,0,1.271,1.271,0,0,0,1.289,2.192A3.21,3.21,0,0,1,112.583,223.3Z" transform="translate(-90.415 -182.892)"/>
      </g>
    </g>
  </g>
</svg>
