<svg xmlns="http://www.w3.org/2000/svg" width="139" height="139" viewBox="0 0 139 139">
  <g id="Grupo_145562" data-name="Grupo 145562" transform="translate(-985 -6300)">
    <rect id="Rectángulo_44352" data-name="Rectángulo 44352" width="139" height="139" rx="69.5" transform="translate(985 6300)" fill="#b0f0fc"/>
    <g id="plancha-de-pelo" transform="translate(998.338 6321.3)">
      <g id="Grupo_145553" data-name="Grupo 145553" transform="translate(24.391 1.323)">
        <g id="Grupo_145552" data-name="Grupo 145552" transform="translate(0)">
          <path id="Trazado_193443" data-name="Trazado 193443" d="M48.268,31.578V47.125H102.9V31.577A24.078,24.078,0,0,0,78.82,7.5H72.345A24.077,24.077,0,0,0,48.268,31.578Z" transform="translate(-45.145 -7.5)" fill="#8ee5f6"/>
          <ellipse id="Elipse_1155" data-name="Elipse 1155" cx="9.403" cy="6.624" rx="9.403" ry="6.624" transform="translate(1.155 32.233)" fill="#fde9e0"/>
          <path id="Trazado_193444" data-name="Trazado 193444" d="M67.81,345.517V332.87H49.921v12.647A1.761,1.761,0,0,1,48.67,347.2c-6.867,2.08-18.1,4.109-18.1,13.54v1.015a1.39,1.39,0,0,0,1.39,1.39H85.774a1.391,1.391,0,0,0,1.391-1.391v-1.015c0-9.431-11.236-11.46-18.1-13.54A1.761,1.761,0,0,1,67.81,345.517Z" transform="translate(-30.567 -275.468)" fill="#fde9e0"/>
          <path id="Trazado_193445" data-name="Trazado 193445" d="M117.5,107.6c0,14.15-13.356,23.732-20.03,23.732s-20.03-9.582-20.03-23.732c0-18.325,10.036-25.034,20.072-25.043C108.079,82.552,117.5,89.278,117.5,107.6Z" transform="translate(-69.17 -69.319)" fill="#fde9e0"/>
          <path id="Trazado_193446" data-name="Trazado 193446" d="M176.6,82.561a21.7,21.7,0,0,0-3.008.211c9.212,1.263,16.821,8.362,16.821,24.832,0,12.2-9.928,21-16.942,23.2a10.531,10.531,0,0,0,3.087.534c6.674,0,20.03-9.582,20.03-23.732C196.591,89.279,187.171,82.552,176.6,82.561Z" transform="translate(-148.262 -69.319)" fill="#ebae9d"/>
          <path id="Trazado_193447" data-name="Trazado 193447" d="M116.887,54.536h8.037a13.855,13.855,0,0,1,13.855,13.855v60.583h18.868a1.764,1.764,0,0,0,1.764-1.764V73.527L145.705,48.533H118.79Z" transform="translate(-101.658 -41.294)" fill="#8ee5f6"/>
          <path id="Trazado_193448" data-name="Trazado 193448" d="M196.74,7.5h-5.293a24.077,24.077,0,0,1,24.077,24.077V93.417a1.764,1.764,0,0,1-1.764,1.764h5.293a1.764,1.764,0,0,0,1.764-1.764V31.578A24.077,24.077,0,0,0,196.74,7.5Z" transform="translate(-163.065 -7.5)" fill="#18bab9"/>
          <path id="Trazado_193449" data-name="Trazado 193449" d="M303.792,407.35v-6.03h23.567a.717.717,0,0,1,.717.717v4.6a.717.717,0,0,1-.717.717H303.792Z" transform="translate(-255.59 -331.842)" fill="#91dafa"/>
          <path id="Trazado_193450" data-name="Trazado 193450" d="M241.537,397.31v-2.422a3.568,3.568,0,0,0-3.568-3.568H214.95a3.568,3.568,0,0,0-3.568,3.568v2.422a3.568,3.568,0,0,0,3.568,3.568h23.019A3.568,3.568,0,0,0,241.537,397.31Z" transform="translate(-179.483 -323.606)" fill="#f18385"/>
          <path id="Trazado_193451" data-name="Trazado 193451" d="M339.847,400.878h-4.763a3.568,3.568,0,0,0,3.568-3.568v-2.422a3.568,3.568,0,0,0-3.568-3.568h4.763a3.568,3.568,0,0,1,3.568,3.568v2.422A3.568,3.568,0,0,1,339.847,400.878Z" transform="translate(-281.361 -323.606)" fill="#e279b3"/>
        </g>
      </g>
      <g id="Grupo_145554" data-name="Grupo 145554" transform="translate(23.068 0)">
        <path id="Trazado_193452" data-name="Trazado 193452" d="M173.3,274.913a1.323,1.323,0,0,0-1.763-.628,6.381,6.381,0,0,1-5.783,0,1.323,1.323,0,0,0-1.135,2.391,8.995,8.995,0,0,0,8.053,0A1.323,1.323,0,0,0,173.3,274.913Z" transform="translate(-139.023 -225.79)"/>
        <path id="Trazado_193453" data-name="Trazado 193453" d="M129.071,206.5a1.323,1.323,0,0,0-1.323,1.323v1.915a1.323,1.323,0,1,0,2.646,0v-1.915A1.323,1.323,0,0,0,129.071,206.5Z" transform="translate(-109.28 -170.069)"/>
        <path id="Trazado_193454" data-name="Trazado 193454" d="M120.187,173.16a6.147,6.147,0,0,0-6.551,0,1.323,1.323,0,0,0,1.342,2.281,3.5,3.5,0,0,1,3.867,0,1.323,1.323,0,0,0,1.342-2.281Z" transform="translate(-97.121 -141.832)"/>
        <path id="Trazado_193455" data-name="Trazado 193455" d="M103.933,58.779a1.323,1.323,0,0,0-1.323,1.323V71.747a.747.747,0,0,1-.746.746H98.2v-.976a2.042,2.042,0,0,0-2.039-2.039H86.634a4.888,4.888,0,0,0-3.167-1.727V42.039a1.323,1.323,0,1,0-2.646,0V67.714H62.835V28.421A15.2,15.2,0,0,0,47.655,13.242H39.619a1.323,1.323,0,0,0,0,2.646h2.708a19.031,19.031,0,0,0-5.455,4.683A25.577,25.577,0,0,0,31.881,32.56a12.486,12.486,0,0,0-3.044,1.084V25.4A22.781,22.781,0,0,1,51.59,2.646h6.476A22.78,22.78,0,0,1,80.82,25.4V35.865a1.323,1.323,0,0,0,2.646,0V25.4A25.429,25.429,0,0,0,58.066,0H51.59a25.429,25.429,0,0,0-25.4,25.4V35.592a6.651,6.651,0,0,0-1.968,4.587c0,3.836,3.662,7.081,8.65,7.8a27.341,27.341,0,0,0,6.366,9.738,29.647,29.647,0,0,0,3.184,2.755v10.9a.437.437,0,0,1-.311.42c-.734.222-1.518.444-2.348.678-1.262.357-2.567.725-3.9,1.153a1.323,1.323,0,0,0,.4,2.583c.382,0,.031-.008,4.216-1.189.842-.238,1.638-.463,2.4-.692a3.07,3.07,0,0,0,2.189-2.953v-9.15a16.012,16.012,0,0,0,7.621,2.441,15.974,15.974,0,0,0,7.5-2.38v5.431h-.33A4.9,4.9,0,0,0,54.967,72.6v2.422a4.9,4.9,0,0,0,4.891,4.891h.33v7.762H25.781a.067.067,0,0,1-.067-.067V86.6c0-3.529,1.744-6.135,5.488-8.2a1.323,1.323,0,1,0-1.279-2.317c-4.548,2.512-6.855,6.051-6.855,10.519v1.016a2.716,2.716,0,0,0,2.713,2.713h54.6a3.091,3.091,0,0,0,3.087-3.087V79.881a4.887,4.887,0,0,0,3.167-1.727h9.526A2.042,2.042,0,0,0,98.2,76.114v-.976h3.664a3.4,3.4,0,0,0,3.392-3.392V60.1a1.323,1.323,0,0,0-1.323-1.323ZM26.868,40.18c0-2.374,2.356-4.076,4.654-4.792A28.394,28.394,0,0,0,31.99,45.1C29,44.306,26.868,42.35,26.868,40.18ZM52.689,62.017c-2.6,0-7.332-1.932-11.583-6.174-2.66-2.655-7.123-8.294-7.123-16.235,0-13.525,5.791-22.082,15.9-23.518A12.551,12.551,0,0,1,60.189,28.421V59.18C57.484,60.964,54.718,62.017,52.689,62.017ZM80.38,87.681H62.835V79.918H80.821V87.24A.442.442,0,0,1,80.38,87.681Zm2.5-10.409H59.858a2.247,2.247,0,0,1-2.245-2.245V72.6a2.247,2.247,0,0,1,2.245-2.245H82.877A2.247,2.247,0,0,1,85.122,72.6v2.422A2.248,2.248,0,0,1,82.877,77.272Zm12.677-1.764h-7.81c.016-.158.024-.318.024-.481V72.6c0-.162-.008-.322-.024-.481h7.81Z" transform="translate(-23.068 0)"/>
      </g>
    </g>
  </g>
</svg>
