<svg xmlns="http://www.w3.org/2000/svg" width="139" height="139" viewBox="0 0 139 139">
  <g id="Grupo_145561" data-name="Grupo 145561" transform="translate(-661 -6300)">
    <rect id="Rectángulo_44351" data-name="Rectángulo 44351" width="139" height="139" rx="69.5" transform="translate(661 6300)" fill="#b0f0fc"/>
    <g id="manicura" transform="translate(637.075 6324.828)">
      <path id="Trazado_193456" data-name="Trazado 193456" d="M125.957,117.227v39.059a7.683,7.683,0,0,1-7.683,7.683H85.033a7.683,7.683,0,0,1-7.683-7.683V117.227a24.3,24.3,0,1,1,48.607,0Z" transform="translate(-7.827 -77.17)" fill="#fde9e0"/>
      <path id="Trazado_193457" data-name="Trazado 193457" d="M136.391,106.131v9.333a21.627,21.627,0,1,1-43.254,0v-9.333a24.314,24.314,0,0,1,43.254,0Z" transform="translate(-20.938 -77.17)" fill="#f2c3ae"/>
      <path id="Trazado_193458" data-name="Trazado 193458" d="M164.983,57.652V76.467a14.293,14.293,0,1,1-28.587,0V57.652a11.686,11.686,0,0,1,11.687-11.687H153.3A11.686,11.686,0,0,1,164.983,57.652Z" transform="translate(-56.863 -38.173)" fill="#8ee5f6"/>
      <path id="Trazado_193459" data-name="Trazado 193459" d="M164.983,182.382v1.843a14.293,14.293,0,1,1-28.587,0v-1.843a18.665,18.665,0,0,1,28.587,0Z" transform="translate(-56.863 -145.931)" fill="#defaff"/>
      <path id="Trazado_193460" data-name="Trazado 193460" d="M109.718,49.953v-.128A13.3,13.3,0,0,0,96.433,36.539H91.22A13.3,13.3,0,0,0,77.935,49.825v.125A26,26,0,0,0,67.925,70.4V109.46a1.6,1.6,0,1,0,3.195,0V70.4a22.793,22.793,0,0,1,6.815-16.211V68.639a15.812,15.812,0,0,0,1,5.535A1.571,1.571,0,0,0,79,74.36a15.886,15.886,0,0,0,29.645,0,1.642,1.642,0,0,0,.073-.184,15.813,15.813,0,0,0,1-5.536V54.19c.054.053.11.1.164.157a22.547,22.547,0,0,1,6.65,16.053v9.106a1.6,1.6,0,0,0,3.195,0V70.4a25.721,25.721,0,0,0-7.586-18.313A26.1,26.1,0,0,0,109.718,49.953ZM93.826,81.335a12.712,12.712,0,0,1-11.589-7.52A13.911,13.911,0,0,1,96.349,67.8a1.6,1.6,0,1,0,.576-3.143A17.1,17.1,0,0,0,81.2,69.968a12.8,12.8,0,0,1-.07-1.329V49.825A10.1,10.1,0,0,1,91.221,39.734h5.212a10.1,10.1,0,0,1,10.091,10.091V68.638a12.8,12.8,0,0,1-.07,1.327,17.159,17.159,0,0,0-2.133-1.98,1.6,1.6,0,0,0-1.965,2.519,13.888,13.888,0,0,1,3.06,3.311A12.713,12.713,0,0,1,93.826,81.335Z" transform="translate(0 -30.345)"/>
      <path id="Trazado_193461" data-name="Trazado 193461" d="M356.242,328.773a1.6,1.6,0,0,0-1.6,1.6v21.782a1.6,1.6,0,0,0,3.195,0V330.37A1.6,1.6,0,0,0,356.242,328.773Z" transform="translate(-238.113 -273.036)"/>
      <path id="Trazado_193462" data-name="Trazado 193462" d="M176.39,436.781H157.669a1.6,1.6,0,0,0,0,3.195H176.39a1.6,1.6,0,0,0,0-3.195Z" transform="translate(-73.203 -362.734)"/>
      <path id="Trazado_193463" data-name="Trazado 193463" d="M192.593,386.623a1.6,1.6,0,0,0,0-3.195H182.183a1.6,1.6,0,0,0,0,3.195Z" transform="translate(-93.562 -318.426)"/>
      <path id="Trazado_193464" data-name="Trazado 193464" d="M332.873,20.292h-1.719V18.572a1.6,1.6,0,1,0-3.195,0v1.719h-1.719a1.6,1.6,0,0,0,0,3.195h1.719v1.719a1.6,1.6,0,1,0,3.195,0V23.487h1.719a1.6,1.6,0,1,0,0-3.195Z" transform="translate(-213.196 -14.097)"/>
      <path id="Trazado_193465" data-name="Trazado 193465" d="M394.332,169.615h-1.719V167.9a1.6,1.6,0,1,0-3.195,0v1.719H387.7a1.6,1.6,0,0,0,0,3.195h1.719v1.719a1.6,1.6,0,1,0,3.195,0V172.81h1.719a1.6,1.6,0,0,0,0-3.195Z" transform="translate(-264.236 -138.106)"/>
      <path id="Trazado_193466" data-name="Trazado 193466" d="M75.788,6.512h1.719V8.231a1.6,1.6,0,0,0,3.195,0V6.512h1.719a1.6,1.6,0,1,0,0-3.195H80.7V1.6a1.6,1.6,0,0,0-3.195,0V3.317H75.788a1.6,1.6,0,0,0,0,3.2Z" transform="translate(-5.204)"/>
    </g>
  </g>
</svg>
