<svg xmlns="http://www.w3.org/2000/svg" width="139" height="139" viewBox="0 0 139 139">
  <g id="Grupo_145937" data-name="Grupo 145937" transform="translate(10003 4250)">
    <rect id="Rectángulo_44361" data-name="Rectángulo 44361" width="139" height="139" rx="69.5" transform="translate(-10003 -4250)" fill="#b0f0fc"/>
    <g id="tratamiento-facial" transform="translate(-9997.809 -4244.039)">
      <g id="Grupo_145564" data-name="Grupo 145564">
        <path id="Trazado_193479" data-name="Trazado 193479" d="M43.61,72.78h-.02a6.555,6.555,0,0,1-3.07-12.39c.13-.07.27-.13.4-.19a3.906,3.906,0,0,0,2.67.51V72.56a.858.858,0,0,0,.02.22Z" fill="#f9dbbd"/>
        <path id="Trazado_193480" data-name="Trazado 193480" d="M91.67,66.21a6.609,6.609,0,0,1-6.64,6.57h-.01a1.7,1.7,0,0,0,.01-.22V60.71a3.906,3.906,0,0,0,2.67-.51c.13.06.27.12.4.19A6.561,6.561,0,0,1,91.67,66.21Z" fill="#f9dbbd"/>
        <path id="Trazado_193481" data-name="Trazado 193481" d="M85.03,60.71V72.56a1.7,1.7,0,0,1-.01.22C84.93,80.7,79.6,87.51,72.1,90.35a22.078,22.078,0,0,1-15.58,0c-7.5-2.84-12.83-9.65-12.91-17.57a.858.858,0,0,1-.02-.22V60.71a3.944,3.944,0,0,0,.97-.28l19.75-8.52,19.75,8.52a3.944,3.944,0,0,0,.97.28Z" fill="#defaff"/>
        <path id="Trazado_193482" data-name="Trazado 193482" d="M74.34,22.32V32.54a3.273,3.273,0,0,1-.24,1.25,3.917,3.917,0,0,0-5.48-3.41l-4.31,1.86-8.03,3.47-1.77.76L42.3,41.74V33.07a3.524,3.524,0,0,1,2.14-3.23l9.84-4.25,10.03-4.33,5.03-2.17a3.566,3.566,0,0,1,5,3.23Z" fill="#ffa5ab"/>
        <path id="Trazado_193483" data-name="Trazado 193483" d="M74.11,33.93V45.14a3.67,3.67,0,0,1-.21,1.24,3.866,3.866,0,0,1-2.14,2.31l-7.45,3.22L44.56,60.43a4.029,4.029,0,0,1-3.64-.23,3.9,3.9,0,0,1-1.96-3.39V45.72a3.888,3.888,0,0,1,2.35-3.55l.99-.43,12.21-5.27,1.77-.76,8.03-3.47,4.31-1.86a3.917,3.917,0,0,1,5.48,3.41.66.66,0,0,1,.01.14Z" fill="#f294a1"/>
        <path id="Trazado_193484" data-name="Trazado 193484" d="M89.66,45.72V56.81a4,4,0,0,1-4.63,3.9,3.944,3.944,0,0,1-.97-.28L64.31,51.91l7.45-3.22a3.866,3.866,0,0,0,2.14-2.31,3.67,3.67,0,0,0,.21-1.24V36.47l12.21,5.27.99.43a3.888,3.888,0,0,1,2.35,3.55Z" fill="#e88092"/>
        <path id="Trazado_193485" data-name="Trazado 193485" d="M86.32,33.07v8.67L74.11,36.47V33.93a.66.66,0,0,0-.01-.14,3.273,3.273,0,0,0,.24-1.25V25.59l9.84,4.25a3.524,3.524,0,0,1,2.14,3.23Z" fill="#f294a1"/>
        <g id="Grupo_145563" data-name="Grupo 145563">
          <path id="Trazado_193486" data-name="Trazado 193486" d="M85.993,103.372a17.224,17.224,0,0,0-12.2-5.052H71.436a6.081,6.081,0,0,0,.263-1.765V90.348a21.61,21.61,0,0,1-15.4,0v6.207a6.081,6.081,0,0,0,.263,1.765H54.211A17.26,17.26,0,0,0,38.261,109H89.74a17.32,17.32,0,0,0-3.747-5.628Z" fill="#f9dbbd"/>
          <circle id="Elipse_1167" data-name="Elipse 1167" cx="6.182" cy="6.182" r="6.182" transform="translate(49.251 61.399)" fill="#f9dbbd"/>
          <circle id="Elipse_1168" data-name="Elipse 1168" cx="6.182" cy="6.182" r="6.182" transform="translate(67.015 61.399)" fill="#f9dbbd"/>
        </g>
      </g>
      <path id="Trazado_193487" data-name="Trazado 193487" d="M73.448,91.676A23.107,23.107,0,0,0,76.1,90.387a22.727,22.727,0,0,0,3.176-2.217A22.234,22.234,0,0,0,81.52,86a20.242,20.242,0,0,0,5.156-11.637A8.35,8.35,0,0,0,93.42,66.21a8.254,8.254,0,0,0-2.942-6.3,5.612,5.612,0,0,0,.932-3.1V45.72a5.633,5.633,0,0,0-3.34-5.12V33.07a5.271,5.271,0,0,0-3.2-4.837l-8.78-3.794V22.32a5.251,5.251,0,0,0-2.381-4.4,5.337,5.337,0,0,0-5.063-.44l-24.9,10.749a5.272,5.272,0,0,0-3.2,4.838V40.6a5.631,5.631,0,0,0-3.34,5.122V56.81a5.625,5.625,0,0,0,.931,3.1,8.249,8.249,0,0,0-2.941,6.3,8.349,8.349,0,0,0,6.744,8.155A20.946,20.946,0,0,0,54.552,91.421v5.148h-.341a18.953,18.953,0,0,0-17.567,11.763,1.75,1.75,0,0,0,1.617,2.418H59.167a1.75,1.75,0,1,0,0-3.5H41.132a15.448,15.448,0,0,1,13.079-7.181h2.352a1.749,1.749,0,0,0,1.676-2.256,4.318,4.318,0,0,1-.187-1.258V92.681a23.483,23.483,0,0,0,11.9.143v3.731a4.32,4.32,0,0,1-.187,1.259,1.749,1.749,0,0,0,1.676,2.255h2.352A15.462,15.462,0,0,1,86.87,107.25H76.718a1.75,1.75,0,0,0,0,3.5H89.74a1.75,1.75,0,0,0,1.618-2.417A18.976,18.976,0,0,0,73.789,96.569h-.341ZM89.92,66.21a4.82,4.82,0,0,1-3.14,4.49V62.4a5.649,5.649,0,0,0,.857-.241A4.789,4.789,0,0,1,89.92,66.21ZM75.86,33.979a5.013,5.013,0,0,0,.23-1.439V28.252l7.4,3.2a1.772,1.772,0,0,1,1.08,1.618v6.009l-8.71-3.76Zm-.312,12.992a5.427,5.427,0,0,0,.312-1.831V39.131l10.749,4.642a2.139,2.139,0,0,1,1.3,1.947V56.81a2.264,2.264,0,0,1-3.157,2.013L68.721,51.908l3.74-1.614A5.617,5.617,0,0,0,75.548,46.971Zm-31.5-13.9a1.774,1.774,0,0,1,1.085-1.624l24.9-10.75a1.872,1.872,0,0,1,.742-.156,1.826,1.826,0,0,1,1.01.308,1.737,1.737,0,0,1,.8,1.472v6.52c-.013-.006-.029-.008-.042-.014a5.726,5.726,0,0,0-4.621-.053L44.05,39.081ZM41.84,70.7a4.764,4.764,0,0,1-.855-8.547,5.813,5.813,0,0,0,.855.242ZM43.3,58.984a2.187,2.187,0,0,1-1.5-.3,2.157,2.157,0,0,1-1.09-1.874V45.72a2.138,2.138,0,0,1,1.3-1.945l27.3-11.786a2.235,2.235,0,0,1,.882-.183,2.194,2.194,0,0,1,1.18.347,2.073,2.073,0,0,1,.981,1.7.676.676,0,0,0,.009.135V45.14a1.971,1.971,0,0,1-.12.685,2.121,2.121,0,0,1-1.175,1.259L43.854,58.828a2.191,2.191,0,0,1-.554.156ZM71.48,88.713a20.418,20.418,0,0,1-14.339,0c-7.085-2.683-11.709-8.943-11.78-15.95a1.743,1.743,0,0,0-.02-.25V62l18.965-8.185L83.281,62V72.548a1.67,1.67,0,0,0-.015.213,16.632,16.632,0,0,1-4.351,10.9,18.5,18.5,0,0,1-1.892,1.82,19.027,19.027,0,0,1-2.683,1.873,19.5,19.5,0,0,1-2.861,1.359ZM70.583,109a1.749,1.749,0,0,1-1.75,1.75h-1a1.75,1.75,0,0,1,0-3.5h1a1.749,1.749,0,0,1,1.75,1.75ZM55.434,59.9a7.682,7.682,0,1,0,7.681,7.682A7.682,7.682,0,0,0,55.434,59.9Zm0,12.364a4.682,4.682,0,1,1,4.681-4.682,4.682,4.682,0,0,1-4.681,4.682Zm25.444-4.682A7.681,7.681,0,1,0,73.2,75.263a7.681,7.681,0,0,0,7.678-7.681ZM73.2,72.263a4.682,4.682,0,1,1,4.682-4.682A4.682,4.682,0,0,1,73.2,72.263ZM58.428,66.6a1.5,1.5,0,0,1-.07,2.12,4.273,4.273,0,0,1-5.85,0,1.5,1.5,0,1,1,2.051-2.19,1.3,1.3,0,0,0,1.749,0A1.5,1.5,0,0,1,58.428,66.6Zm17.885,0a1.5,1.5,0,0,1-.071,2.12,4.275,4.275,0,0,1-5.849,0,1.5,1.5,0,1,1,2.048-2.192,1.306,1.306,0,0,0,1.752,0,1.5,1.5,0,0,1,2.12.072Z" fill="#260614"/>
    </g>
  </g>
</svg>
