<svg xmlns="http://www.w3.org/2000/svg" width="139" height="139" viewBox="0 0 139 139">
  <g id="Grupo_145944" data-name="Grupo 145944" transform="translate(7722 1810)">
    <rect id="Rectángulo_44397" data-name="Rectángulo 44397" width="139" height="139" rx="69.5" transform="translate(-7722 -1810)" fill="#b0f0fc"/>
    <g id="enfermeras" transform="translate(-7718.662 -1791.359)">
      <path id="Trazado_193622" data-name="Trazado 193622" d="M178.6,158.186v31.377a1.859,1.859,0,0,1-1.858,1.858H153.657a1.859,1.859,0,0,1-1.858-1.858V158.186a1.859,1.859,0,0,1,1.858-1.858h23.082A1.859,1.859,0,0,1,178.6,158.186Z" transform="translate(-76.793 -96.512)" fill="#f18385"/>
      <path id="Trazado_193623" data-name="Trazado 193623" d="M76.577,138.908v31.377a1.859,1.859,0,0,0,1.858,1.858H42.045l.632-20.094H32.089l2.962-17a6.87,6.87,0,0,1,4.761-5.385l13.208-4.017,11.4,12.769,11.394-12.7,13.271,3.95a6.862,6.862,0,0,1,4.627,4.783q.078.3.134.6l.349,2H78.435a1.859,1.859,0,0,0-1.858,1.858Z" transform="translate(-1.57 -77.233)" fill="#defaff"/>
      <path id="Trazado_193624" data-name="Trazado 193624" d="M147.4,153.788v31.377a1.859,1.859,0,0,0,1.858,1.858H145.2a4.438,4.438,0,0,1-.405-1.858V153.788a4.463,4.463,0,0,1,4.46-4.46h15.274q.078.3.134.6l.349,2H149.259A1.859,1.859,0,0,0,147.4,153.788Z" transform="translate(-72.394 -92.113)" fill="#8ee5f6"/>
      <g id="Grupo_145603" data-name="Grupo 145603" transform="translate(32.329 23.734)">
        <path id="Trazado_193625" data-name="Trazado 193625" d="M111.2,113.365l-11.394,12.7L88.41,113.3l3.568-1.085V106a14.053,14.053,0,0,0,15.445-.007v6.221Z" transform="translate(-69.29 -88.616)" fill="#fde9e0"/>
        <path id="Trazado_193626" data-name="Trazado 193626" d="M45.738,196.692l-.632,20.094H36.96l.424-17.493.063-2.6Z" transform="translate(-36.96 -145.61)" fill="#fde9e0"/>
        <path id="Trazado_193627" data-name="Trazado 193627" d="M71.742,64.876a13.716,13.716,0,0,0,.216,2.449H70.321a4.044,4.044,0,1,1,0-8.089h1.42v5.64Z" transform="translate(-55.382 -59.236)" fill="#fde9e0"/>
      </g>
      <path id="Trazado_193628" data-name="Trazado 193628" d="M113.455,105.992v3.025a16.7,16.7,0,0,1-15.445,0V106a14.053,14.053,0,0,0,15.445-.007Z" transform="translate(-42.993 -64.882)" fill="#e98e7b"/>
      <path id="Trazado_193629" data-name="Trazado 193629" d="M109.1,42.858V54.583a13.282,13.282,0,0,1-.216,2.449,14.052,14.052,0,0,1-27.675,0,13.169,13.169,0,0,1-.216-2.449V42.858Z" transform="translate(-32.298 -25.21)" fill="#fde9e0"/>
      <path id="Trazado_193630" data-name="Trazado 193630" d="M161.72,63.28a4.04,4.04,0,0,1-4.042,4.042h-1.636a13.267,13.267,0,0,0,.216-2.449V59.234h1.42A4.041,4.041,0,0,1,161.72,63.28Z" transform="translate(-79.459 -35.501)" fill="#fde9e0"/>
      <path id="Trazado_193631" data-name="Trazado 193631" d="M86.625,42.86l-5.639,7.952V42.86Z" transform="translate(-32.296 -25.212)" fill="#afafaf"/>
      <path id="Trazado_193632" data-name="Trazado 193632" d="M147.076,42.86v7.952L141.43,42.86Z" transform="translate(-70.277 -25.212)" fill="#afafaf"/>
      <path id="Trazado_193633" data-name="Trazado 193633" d="M38.163,196.692h8.291l-.632,20.094h-2.6l.55-17.493H38.1Z" transform="translate(-5.347 -121.875)" fill="#e98e7b"/>
      <path id="Trazado_193634" data-name="Trazado 193634" d="M109.095,19.217H80.986V16.754a11.52,11.52,0,0,1,11.52-11.52h5.068a11.52,11.52,0,0,1,11.52,11.52v2.462Z" transform="translate(-32.296 -1.568)" fill="#8ee5f6"/>
      <path id="Trazado_193635" data-name="Trazado 193635" d="M112.017,74.408v9.369a14.082,14.082,0,0,1-18.195,2.375A13.737,13.737,0,0,1,91.34,84.07V74.408Z" transform="translate(-38.802 -45.035)" fill="#eee"/>
      <path id="Trazado_193636" data-name="Trazado 193636" d="M163.49,166.123H181.6v26.618H163.49Z" transform="translate(-84.139 -102.667)" fill="#eee"/>
      <g id="Grupo_145604" data-name="Grupo 145604" transform="translate(34.01 51.733)">
        <path id="Trazado_193637" data-name="Trazado 193637" d="M42.252,154.857a.929.929,0,0,1-.756-1.075l.191-1.1a.929.929,0,0,1,1.831.319l-.191,1.1A.929.929,0,0,1,42.252,154.857Zm.829-4.759a.929.929,0,0,1-.756-1.075l1.374-7.884a4.058,4.058,0,0,1,2.827-3.2l10.934-3.325A.929.929,0,0,1,58,136.393l-10.933,3.325a2.208,2.208,0,0,0-1.538,1.74l-1.374,7.884a.929.929,0,0,1-1.075.756Z" transform="translate(-41.482 -134.576)" fill="#18bab9"/>
      </g>
      <g id="Grupo_145605" data-name="Grupo 145605" transform="translate(59.281 6.453)">
        <path id="Trazado_193638" data-name="Trazado 193638" d="M122.269,20.362a6.85,6.85,0,0,0-.226-.954.929.929,0,1,1,1.773-.558,8.69,8.69,0,0,1,.288,1.214.929.929,0,1,1-1.834.3Zm-1.9-3.73a6.824,6.824,0,0,0-4.883-2.04h-5.068a.929.929,0,1,1,0-1.858h5.068a8.669,8.669,0,0,1,6.2,2.591.929.929,0,0,1-1.32,1.307Z" transform="translate(-109.485 -12.734)" fill="#18bab9"/>
      </g>
      <path id="Trazado_193639" data-name="Trazado 193639" d="M177.071,90.3c2.485.821,2.766,2.035,3.193,3.873a.989.989,0,0,0,1.926,0c.708-3.052,1.75-3.4,3.193-3.873a.989.989,0,0,0,0-1.877c-1.386-.456-2.468-.751-3.193-3.873a.989.989,0,0,0-1.925,0c-.709,3.052-1.7,3.379-3.193,3.873A.989.989,0,0,0,177.071,90.3Z" transform="translate(-92.248 -50.93)"/>
      <path id="Trazado_193640" data-name="Trazado 193640" d="M36.6,90.3c2.485.821,2.766,2.035,3.193,3.873a.989.989,0,0,0,1.926,0c.708-3.052,1.75-3.4,3.193-3.873a.989.989,0,0,0,0-1.877c-1.386-.456-2.468-.751-3.193-3.873a.989.989,0,0,0-1.925,0c-.709,3.052-1.7,3.379-3.193,3.873A.989.989,0,0,0,36.6,90.3Z" transform="translate(-3.978 -50.93)"/>
      <path id="Trazado_193641" data-name="Trazado 193641" d="M99.628,62.379a.929.929,0,0,0,.929-.929v-.828a.929.929,0,0,0-1.858,0v.828A.929.929,0,0,0,99.628,62.379Z" transform="translate(-43.426 -35.789)"/>
      <path id="Trazado_193642" data-name="Trazado 193642" d="M134.827,62.379a.929.929,0,0,0,.929-.929v-.828a.929.929,0,1,0-1.858,0v.828A.929.929,0,0,0,134.827,62.379Z" transform="translate(-65.544 -35.789)"/>
      <path id="Trazado_193643" data-name="Trazado 193643" d="M51.472,32.752h.881A15.022,15.022,0,0,0,58.291,41.6v5.044s-2.6.789-16.117,4.9a7.79,7.79,0,0,0-5.4,6.113l-.475,2.728a.928.928,0,1,0,1.828.32l.475-2.728a5.919,5.919,0,0,1,4.118-4.656l12.639-3.843,11,12.326a.93.93,0,0,0,1.385,0l11-12.264,12.708,3.783a5.9,5.9,0,0,1,4.11,4.66l.158.9H81.068a2.79,2.79,0,0,0-2.787,2.787V93.051a2.79,2.79,0,0,0,2.787,2.787H104.15a2.79,2.79,0,0,0,2.787-2.787V61.674a2.79,2.79,0,0,0-2.787-2.787H97.605l-.216-1.23a7.789,7.789,0,0,0-5.4-6.113L78.708,47.589l-.016,0-3.1-.944V41.595a14.949,14.949,0,0,0,5.952-8.844h.876a4.973,4.973,0,0,0,0-9.946h-.491c0-3.773,0-6.8,0-7.617a12.619,12.619,0,0,0-.342-2.917.93.93,0,0,0-1.81.427s0,0,0,.007a10.65,10.65,0,0,1,.29,2.482v1.531H53.82V15.188A10.633,10.633,0,0,1,64.416,4.6h5.065a10.48,10.48,0,0,1,6.738,2.416.955.955,0,0,0,1.308-.123A.93.93,0,0,0,77.4,5.581a12.463,12.463,0,0,0-7.923-2.843H64.416a12.438,12.438,0,0,0-12.45,12.45c0,.31,0,3.032,0,7.618h-.493a4.973,4.973,0,0,0,0,9.947ZM96.531,62.529H88.686V60.747h7.845Zm-7.845,1.858h7.845v1.02a.558.558,0,0,1-.557.557h-6.73a.558.558,0,0,1-.557-.557Zm16.392-2.713V93.051a.93.93,0,0,1-.929.929H81.068a.93.93,0,0,1-.929-.929V61.674a.93.93,0,0,1,.929-.929h5.76v1.784H83.554a.927.927,0,0,0-.929.925V77.71a.929.929,0,0,0,1.858,0V64.387h2.345v1.02a2.418,2.418,0,0,0,2.416,2.416h6.73a2.418,2.418,0,0,0,2.416-2.416v-1.02h2.345V89.145H84.483v-4a.929.929,0,0,0-1.858,0v4.931a.93.93,0,0,0,.929.929h18.109a.926.926,0,0,0,.929-.929V63.455a.926.926,0,0,0-.929-.925H98.389V60.745h5.76A.93.93,0,0,1,105.079,61.674Zm-30.2-43.1,4.381,6.171-2.349,3.7H67.875v-3.61a.929.929,0,1,0-1.858,0v3.61H57.232L54.674,24.7l4.339-6.12ZM66.939,42.495l0,.018v-.018h0A12.994,12.994,0,0,1,57.67,38.66V30.3H76.49v8.07A13.021,13.021,0,0,1,66.939,42.495ZM53.824,18.577h2.911l-2.911,4.1Zm0,10.8V26.747l1.988,2.912v6.676A13.2,13.2,0,0,1,53.824,29.373Zm24.523.271,1.725-2.714v2.443a13.017,13.017,0,0,1-1.725,6.5Zm1.724-6.958-2.917-4.108h2.917ZM76.779,48.947,67.05,59.79,57.314,48.882l2.177-.662a.929.929,0,0,0,.659-.889V42.741a14.968,14.968,0,0,0,13.587-.006v4.6a.929.929,0,0,0,.658.889Zm5.644-24.284a3.115,3.115,0,0,1,0,6.23h-.565c.033-.331.074-1.1.074-1.52v-4.71Zm-30.951,0h.491v4.711c0,.47.042,1.178.076,1.52h-.567a3.115,3.115,0,1,1,0-6.231Z" transform="translate(-4.203 0)"/>
      <path id="Trazado_193644" data-name="Trazado 193644" d="M150.831,19.026a.936.936,0,0,0,.294-1.282l0,0a.951.951,0,0,0-1.278-.29.93.93,0,0,0,.989,1.576Z" transform="translate(-75.289 -9.16)"/>
      <path id="Trazado_193645" data-name="Trazado 193645" d="M30.519,179.437h1.345L31.4,198.581a.929.929,0,1,0,1.857.045l.465-19.189h6.425l-.6,19.135a.93.93,0,1,0,1.858.059l.631-20.079s0-.008,0-.012l.309-9.827a.929.929,0,0,0-1.857-.058l-.281,8.923H31.623l1.022-5.861a.928.928,0,0,0-1.828-.323v0L29.6,178.348a.928.928,0,0,0,.914,1.089Z" transform="translate(0 -103.693)"/>
      <path id="Trazado_193646" data-name="Trazado 193646" d="M35.329,167.478a.93.93,0,1,0,.32-1.832.93.93,0,0,0-.32,1.832Z" transform="translate(-3.123 -102.359)"/>
      <circle id="Elipse_1186" data-name="Elipse 1186" cx="0.929" cy="0.929" r="0.929" transform="translate(78.422 80.497)"/>
      <g id="Grupo_145608" data-name="Grupo 145608" transform="translate(35.246 36.731)">
        <g id="Grupo_145606" data-name="Grupo 145606" transform="translate(52.204)">
          <path id="Trazado_193648" data-name="Trazado 193648" d="M188.294,95.918a4.864,4.864,0,0,0-1.46,1.65,5.123,5.123,0,0,0-1.55-1.635,4.912,4.912,0,0,0,1.531-1.724A5.053,5.053,0,0,0,188.294,95.918Z" transform="translate(-185.284 -94.209)" fill="#f18385"/>
        </g>
        <g id="Grupo_145607" data-name="Grupo 145607">
          <path id="Trazado_193649" data-name="Trazado 193649" d="M47.82,95.918a4.864,4.864,0,0,0-1.46,1.65,5.123,5.123,0,0,0-1.55-1.635,4.912,4.912,0,0,0,1.531-1.724A5.053,5.053,0,0,0,47.82,95.918Z" transform="translate(-44.81 -94.209)" fill="#f18385"/>
        </g>
      </g>
    </g>
  </g>
</svg>
