<svg xmlns="http://www.w3.org/2000/svg" width="139" height="139" viewBox="0 0 139 139">
  <g id="Grupo_145945" data-name="Grupo 145945" transform="translate(7547 1810)">
    <rect id="Rectángulo_44398" data-name="Rectángulo 44398" width="139" height="139" rx="69.5" transform="translate(-7547 -1810)" fill="#b0f0fc"/>
    <g id="proteccion-de-la-piel" transform="translate(-7619.872 -1788.621)">
      <g id="Grupo_145612" data-name="Grupo 145612" transform="translate(120.892 68.362)">
        <g id="Grupo_145611" data-name="Grupo 145611" transform="translate(0)">
          <g id="Grupo_145610" data-name="Grupo 145610">
            <g id="Grupo_145609" data-name="Grupo 145609">
              <path id="Trazado_193650" data-name="Trazado 193650" d="M174.5,399c-.845-.214-9.514-3.837-10.969-8.433-1.5-4.741-1.341-9.825-1.168-14.794H144.2c.174,4.969.332,10.053-1.168,14.794-1.454,4.6-10.124,8.218-10.969,8.433Z" transform="translate(-132.061 -375.771)" fill="#fde9e0"/>
            </g>
          </g>
        </g>
      </g>
      <g id="Grupo_145616" data-name="Grupo 145616" transform="translate(141.513 68.362)">
        <g id="Grupo_145615" data-name="Grupo 145615" transform="translate(0)">
          <g id="Grupo_145614" data-name="Grupo 145614">
            <g id="Grupo_145613" data-name="Grupo 145613">
              <path id="Trazado_193651" data-name="Trazado 193651" d="M267.227,399H255.311l-.295-4.1a7.583,7.583,0,0,0-1.719-4.285l-2.057-2.486c-2.043-2.11-4.369-8.123-5.831-12.359h9.682c-.173,4.969-.333,10.053,1.168,14.795,1.3,4.1,8.34,7.427,10.44,8.247A5.555,5.555,0,0,0,267.227,399Z" transform="translate(-245.409 -375.77)" fill="#ffcbb4"/>
            </g>
          </g>
        </g>
      </g>
      <g id="Grupo_145618" data-name="Grupo 145618" transform="translate(127.124 1.362)">
        <g id="Grupo_145617" data-name="Grupo 145617" transform="translate(0)">
          <path id="Trazado_193652" data-name="Trazado 193652" d="M167.015,23.514c-2.29-5.437,1.367-11.992,6.326-14.388a18.293,18.293,0,0,1,16.345.623,17.577,17.577,0,0,1,7.009,6.152c1.9,3.14,1.908,8.62,1.788,12.17Z" transform="translate(-166.316 -7.486)" fill="#defaff"/>
        </g>
      </g>
      <g id="Grupo_145620" data-name="Grupo 145620" transform="translate(133.281 1.362)">
        <g id="Grupo_145619" data-name="Grupo 145619" transform="translate(0)">
          <path id="Trazado_193653" data-name="Trazado 193653" d="M226.17,28.071l-2.727-.395c.04-3.439-.2-7.847-1.826-10.537a17.579,17.579,0,0,0-7.008-6.153A18.634,18.634,0,0,0,200.16,9.595q.426-.257.868-.469a18.3,18.3,0,0,1,16.344.622,17.585,17.585,0,0,1,7.01,6.153C226.277,19.04,226.29,24.52,226.17,28.071Z" transform="translate(-200.16 -7.485)" fill="#8ee5f6"/>
        </g>
      </g>
      <g id="Grupo_145622" data-name="Grupo 145622" transform="translate(121.851 19.031)">
        <g id="Grupo_145621" data-name="Grupo 145621">
          <path id="Trazado_193654" data-name="Trazado 193654" d="M177.5,126.788l-2.034-22.177H139.721l-2.034,22.177c-.483,5.1-.747,10.4,1.106,15.177,2.315,5.963,8.075,11.392,13.412,14.725,1.234.771,3.845,2.1,5.389,2.092,1.543.011,4.155-1.322,5.389-2.092,5.337-3.333,11.1-8.762,13.412-14.725C178.248,137.191,177.985,131.885,177.5,126.788Z" transform="translate(-137.334 -104.611)" fill="#fde9e0"/>
        </g>
      </g>
      <g id="Grupo_145624" data-name="Grupo 145624" transform="translate(139.538 19.032)">
        <g id="Grupo_145623" data-name="Grupo 145623" transform="translate(0)">
          <path id="Trazado_193655" data-name="Trazado 193655" d="M255.927,141.968c-2.314,5.962-8.074,11.392-13.411,14.724-1.235.771-3.845,2.1-5.389,2.094a7.409,7.409,0,0,1-2.574-.655,17.352,17.352,0,0,0,4.3-1.939c5.337-3.332,11.1-8.761,13.411-14.724,1.853-4.775,1.591-10.08,1.108-15.178l-1.988-21.676H255l2.034,22.176C257.518,131.888,257.78,137.194,255.927,141.968Z" transform="translate(-234.553 -104.614)" fill="#fdcbb4"/>
        </g>
      </g>
      <g id="Grupo_145626" data-name="Grupo 145626" transform="translate(119.773 9.755)">
        <g id="Grupo_145625" data-name="Grupo 145625">
          <path id="Trazado_193656" data-name="Trazado 193656" d="M128.441,84.028c.809-1.887,1.187-4.16,2.72-5.527a30.235,30.235,0,0,1,7.209-4.279c5.461-2.634,11.012-5.675,14.51-10.627V53.62h-4.956a32.709,32.709,0,0,0-16.231,8.053s-.257.218-.669.632a17.648,17.648,0,0,0-3.382,20.046Z" transform="translate(-125.913 -53.62)" fill="#defaff"/>
        </g>
      </g>
      <g id="Grupo_145628" data-name="Grupo 145628" transform="translate(120.62 16.531)">
        <g id="Grupo_145627" data-name="Grupo 145627" transform="translate(0)">
          <path id="Trazado_193657" data-name="Trazado 193657" d="M140.717,101.788a67.134,67.134,0,0,0,15.968-10.922v3.2c-3.5,4.951-9.049,7.992-14.509,10.626a30.231,30.231,0,0,0-7.208,4.28c-1.533,1.366-1.912,3.64-2.721,5.526l-.8-1.677a8.1,8.1,0,0,1-.882-2.11,12.784,12.784,0,0,1,3.177-4.731A28.509,28.509,0,0,1,140.717,101.788Z" transform="translate(-130.564 -90.866)" fill="#8ee5f6"/>
        </g>
      </g>
      <g id="Grupo_145630" data-name="Grupo 145630" transform="translate(132.015 6.694)">
        <g id="Grupo_145629" data-name="Grupo 145629" transform="translate(0)">
          <path id="Trazado_193658" data-name="Trazado 193658" d="M223.144,70.264c-.809-1.887-1.187-4.16-2.72-5.527a30.24,30.24,0,0,0-7.209-4.279,109.941,109.941,0,0,1-14.676-8.749c-2.606-1.8-4.718-3.6-5.242-6.8a6.978,6.978,0,0,1,6.024-8.055c4.283-.517,8.293,2.48,11.752,4.568,4.468,2.7,9.108,5.58,11.935,10.111a18.122,18.122,0,0,1,.936,17.054Z" transform="translate(-193.203 -36.796)" fill="#8ee5f6"/>
        </g>
      </g>
      <g id="Grupo_145632" data-name="Grupo 145632" transform="translate(132.015 8.548)">
        <g id="Grupo_145631" data-name="Grupo 145631" transform="translate(0)">
          <path id="Trazado_193659" data-name="Trazado 193659" d="M224.67,75.215a7.585,7.585,0,0,1-.728,1.706s-.8,1.677-.8,1.677c-.809-1.886-1.188-4.16-2.719-5.526a30.272,30.272,0,0,0-7.21-4.28,109.932,109.932,0,0,1-14.677-8.749c-2.6-1.8-4.718-3.6-5.242-6.8a6.977,6.977,0,0,1,2.154-6.261,6.975,6.975,0,0,0-.086,2.7c.524,3.2,1.578,5.777,4.182,7.578a114.379,114.379,0,0,0,15.143,8.623,31.549,31.549,0,0,1,7.248,4.579A11.674,11.674,0,0,1,224.67,75.215Z" transform="translate(-193.202 -46.984)" fill="#defaff"/>
        </g>
      </g>
      <g id="Grupo_145642" data-name="Grupo 145642" transform="translate(141.034 41.449)">
        <g id="Grupo_145634" data-name="Grupo 145634" transform="translate(0 0)">
          <g id="Grupo_145633" data-name="Grupo 145633">
            <path id="Trazado_193660" data-name="Trazado 193660" d="M244.8,241.159a7.316,7.316,0,0,0,2.831,1.57,8.923,8.923,0,0,0,3.369.259,9.874,9.874,0,0,0,6.019-2.96c2.2-2.313,3.477-7.093,1.78-9.994-2.4-4.11-6.763-1.613-9.389.736-1.931,1.726-4.931,1.973-6.176,4.473C242.149,237.428,243.122,239.665,244.8,241.159Z" transform="translate(-242.778 -227.839)" fill="#fdf6ec"/>
          </g>
        </g>
        <g id="Grupo_145636" data-name="Grupo 145636" transform="translate(3.246)">
          <g id="Grupo_145635" data-name="Grupo 145635">
            <path id="Trazado_193661" data-name="Trazado 193661" d="M271.62,240.027a9.874,9.874,0,0,1-6.021,2.959,8.916,8.916,0,0,1-3.368-.258,7.007,7.007,0,0,1-1.611-.689,9.034,9.034,0,0,0,1.42-.046,9.875,9.875,0,0,0,6.021-2.959c2.2-2.314,3.478-7.094,1.781-9.995a5.456,5.456,0,0,0-.84-1.108,3.882,3.882,0,0,1,4.4,2.1C275.1,232.933,273.821,237.713,271.62,240.027Z" transform="translate(-260.619 -227.836)" fill="#fef1da"/>
          </g>
        </g>
        <g id="Grupo_145641" data-name="Grupo 145641" transform="translate(3.031 5.687)">
          <g id="Grupo_145638" data-name="Grupo 145638" transform="translate(0 0.001)">
            <g id="Grupo_145637" data-name="Grupo 145637">
              <path id="Trazado_193662" data-name="Trazado 193662" d="M280.732,297.889a14.705,14.705,0,0,1-.122-7.941l1.478-5.6a14.187,14.187,0,0,0-1.378-9.855c-2.563-4.739-6.555-11.3-8.21-14.285a2.156,2.156,0,0,0-3.849,1.935c1.281,2.837.89,1.983.89,1.983a2.473,2.473,0,0,0-4.521,2.006c.214.488.457,1.041.719,1.637a2.239,2.239,0,0,0-3.951,2.084l1.835,4.127a2.187,2.187,0,0,0-4.126,1.394l.112.471s4.012,13.45,7.291,16.839l2.057,2.486a7.579,7.579,0,0,1,1.719,4.286l.3,4.145H282.43Z" transform="translate(-259.439 -259.099)" fill="#fde9e0"/>
            </g>
          </g>
          <g id="Grupo_145640" data-name="Grupo 145640" transform="translate(9.839)">
            <g id="Grupo_145639" data-name="Grupo 145639">
              <path id="Trazado_193663" data-name="Trazado 193663" d="M324.975,297.886a14.7,14.7,0,0,1-.124-7.941l1.479-5.6a14.19,14.19,0,0,0-1.377-9.855c-2.563-4.74-6.555-11.3-8.21-14.286a2.154,2.154,0,0,0-2.823-.893,2.092,2.092,0,0,0-.4.251s5.306,10.188,7.868,14.928a14.191,14.191,0,0,1,1.377,9.855l-1.479,5.6a14.722,14.722,0,0,0,.122,7.941l1.7,5.711h3.565Z" transform="translate(-313.52 -259.095)" fill="#facbb5"/>
            </g>
          </g>
        </g>
      </g>
      <g id="Grupo_145643" data-name="Grupo 145643" transform="translate(118.408 0)">
        <path id="Trazado_193664" data-name="Trazado 193664" d="M162.44,12.049a1.364,1.364,0,0,0,1.7-.9,11.656,11.656,0,0,1,5.83-6.915,16.913,16.913,0,0,1,15.118.6c2.911,1.527,5.96,3.8,7.116,7.031a1.364,1.364,0,1,0,2.569-.92,10.417,10.417,0,0,0-.874-1.872,18.652,18.652,0,0,0-7.543-6.655,19.647,19.647,0,0,0-17.572-.643,14.468,14.468,0,0,0-7.251,8.572,1.364,1.364,0,0,0,.9,1.7Z" transform="translate(-153.641 0)"/>
        <path id="Trazado_193665" data-name="Trazado 193665" d="M181.615,242.837a1.364,1.364,0,0,0-1.929,0,4.376,4.376,0,0,1-6.189,0,1.364,1.364,0,1,0-1.929,1.929,7.2,7.2,0,0,0,.653.576l-.555,1.031a1.364,1.364,0,1,0,2.4,1.292l.585-1.087c.189.053.38.1.573.137v1.038a1.364,1.364,0,0,0,2.729,0v-1.038c.193-.037.384-.084.573-.137l.585,1.087a1.364,1.364,0,0,0,2.4-1.292l-.555-1.031a7.226,7.226,0,0,0,.653-.576A1.364,1.364,0,0,0,181.615,242.837Z" transform="translate(-161.57 -198.332)"/>
        <path id="Trazado_193666" data-name="Trazado 193666" d="M370.616,435.8l-1.7-5.712a13.334,13.334,0,0,1-.111-7.2,1.364,1.364,0,0,0-2.638-.7,16.065,16.065,0,0,0,.134,8.678l1.7,5.712a1.252,1.252,0,0,0,1.306.942A1.338,1.338,0,0,0,370.616,435.8Z" transform="translate(-320.66 -344.546)"/>
        <path id="Trazado_193667" data-name="Trazado 193667" d="M159.906,85.535s-4.125-9.2-5.385-11.985a.793.793,0,0,1,1.413-.713c.671,1.212,1.7,2.966,2.891,5,1.776,3.028,3.788,6.459,5.312,9.277a12.88,12.88,0,0,1,1.349,8.4,1.364,1.364,0,0,0,1.1,1.586,1.378,1.378,0,0,0,1.586-1.1,15.618,15.618,0,0,0-1.634-10.186c-1.1-2.041-2.452-4.384-3.782-6.666,1.368-4.7,1.045-9.752.63-14.131l-.056-.615c.346-.726.543-1.142.654-1.4l.012.006a19.561,19.561,0,0,0-1.01-18.367c-3.262-5.227-8.766-8.283-13.778-11.417-3.3-2.064-7.039-4.4-11.235-3.9a8.352,8.352,0,0,0-7.209,6.92,31.457,31.457,0,0,0-6.845,5.16,18.99,18.99,0,0,0-1.764,2.045,1.364,1.364,0,1,0,2.189,1.63,19.145,19.145,0,0,1,2.15-2.354,27.9,27.9,0,0,1,4.349-3.355c.74,3.571,3.233,5.559,5.736,7.288q1.519,1.05,2.962,2a62.365,62.365,0,0,1-8.327,4.606,29.529,29.529,0,0,0-7.1,4.285,7.766,7.766,0,0,0-1.941,2.961,16.354,16.354,0,0,1-.452-10.056,1.364,1.364,0,1,0-2.631-.723A19.088,19.088,0,0,0,120.27,63l.637,1.336-.061.671c-.469,4.95-.8,10.662,1.193,15.8,1.662,4.282,5.182,8.707,9.762,12.4.1,4.412-.036,9.665-1.239,13.469-1.164,3.678-8.818,7.189-10,7.523a1.364,1.364,0,1,0,.67,2.645c.951-.241,10.264-4.06,11.936-9.345a37.663,37.663,0,0,0,1.319-12.3q.747.512,1.521,1c1.98,1.235,4.657,2.686,7.081,2.2a21.088,21.088,0,0,0,2.634-.883c.123-.042.247-.082.371-.12.081-.024,2.337,5.121,2.536,5.478a35.372,35.372,0,0,0,3.909,5.127,6.178,6.178,0,0,1,1.41,3.514s.308,4.271.309,4.288a1.365,1.365,0,0,0,2.721-.2l-.309-4.288a8.893,8.893,0,0,0-2.029-5.057,30.938,30.938,0,0,1-4.368-6.2,71.214,71.214,0,0,1-2.808-6.874,54.643,54.643,0,0,1-1.9-5.738,1.3,1.3,0,0,1,0-1.047A.832.832,0,0,1,147,86.5l3.721,8.366a1.384,1.384,0,0,0,1.8.692,1.364,1.364,0,0,0,.692-1.8L149.5,85.394l-1.835-4.127a.885.885,0,0,1,1.031-1.2.872.872,0,0,1,.472.324c1.707,3.877,5.4,11.841,5.568,12.107a1.382,1.382,0,0,0,1.88.434,1.364,1.364,0,0,0,.434-1.88c-.121-.193-5.4-11.84-5.466-11.947l-.683-1.555a1.109,1.109,0,0,1,2.027-.9l4.495,10c.776,1.743,1.385,3.128,1.634,3.727a1.364,1.364,0,1,0,2.52-1.045c-.255-.614-.877-2.028-1.666-3.8ZM138.128,44.412c-2.711-1.873-4.258-3.367-4.672-5.9a5.576,5.576,0,0,1,1.054-4.286c3.928-5.229,10.766-.173,14.675,2.187,4.1,2.475,8.748,5.281,11.485,9.667a16.807,16.807,0,0,1,1.42,14.421,7.76,7.76,0,0,0-1.939-2.955,31.555,31.555,0,0,0-7.527-4.491,107.772,107.772,0,0,1-14.5-8.645ZM143.9,84.181a3.546,3.546,0,0,0-1.1,3.477c.382,1.608.955,3.2,1.491,4.769q.406,1.189.837,2.37a13.525,13.525,0,0,1-1.927.779,3.289,3.289,0,0,1-1.435.173,8.328,8.328,0,0,1-2.078-.684,17.558,17.558,0,0,1-2.237-1.174c-4.725-2.95-10.586-8.195-12.866-14.065-1.78-4.585-1.46-9.919-1.02-14.562l.077-.838c.207-.505.387-1.02.56-1.521a7.8,7.8,0,0,1,1.731-3.321c1.958-1.746,4.817-2.992,7.176-4.207a64.947,64.947,0,0,0,8.9-5.129,96,96,0,0,0,9.429,5.266,28.88,28.88,0,0,1,6.9,4.069,7.807,7.807,0,0,1,1.731,3.321c.161.465.327.942.516,1.412l.087.95a43.763,43.763,0,0,1,.049,10.4c-.635-1.083-1.211-2.069-1.692-2.907a8.667,8.667,0,0,0-.786-5.871,5.34,5.34,0,0,0-3.816-2.806c-3.007-.474-6.091,1.811-7.66,3.214a9.949,9.949,0,0,1-2.28,1.363c-1.52.742-3.244,1.583-4.208,3.518-1.252,2.512-.531,5.4,1.881,7.545a8.853,8.853,0,0,0,2.737,1.653,3.574,3.574,0,0,0,.277,1l.43.968a3.528,3.528,0,0,0-1.7.837Zm7.824-10.906a3.835,3.835,0,0,0-3.636,4.053,3.572,3.572,0,0,0-2.48,1.394,6.117,6.117,0,0,1-1.638-1.041c-.551-.489-2.269-2.245-1.251-4.288.551-1.106,1.669-1.652,2.963-2.283a12.135,12.135,0,0,0,2.9-1.781c1.906-1.7,5.474-4.189,7.3-1.064a4.418,4.418,0,0,1,.532,1.644,3.52,3.52,0,0,0-4.694,3.367Z" transform="translate(-118.408 -23.932)"/>
      </g>
    </g>
  </g>
</svg>
