<svg xmlns="http://www.w3.org/2000/svg" width="139" height="139" viewBox="0 0 139 139">
  <g id="Grupo_145938" data-name="Grupo 145938" transform="translate(10186 4032)">
    <rect id="Rectángulo_44362" data-name="Rectángulo 44362" width="139" height="139" rx="69.5" transform="translate(-10186 -4032)" fill="#b0f0fc"/>
    <g id="masaje" transform="translate(-10169 -4016.218)">
      <rect id="Rectángulo_44364" data-name="Rectángulo 44364" width="98.047" height="7.894" transform="translate(0 68.592)" fill="#defaff"/>
      <g id="Grupo_145565" data-name="Grupo 145565" transform="translate(16.852 68.592)">
        <path id="Trazado_193488" data-name="Trazado 193488" d="M385.18,356.461v-2.123H355.306v7.894H385.18v-.9c-.189-.223-.386-.441-.595-.65a10.561,10.561,0,0,0-2.591-1.9A9.626,9.626,0,0,0,385.18,356.461Z" transform="translate(-303.985 -354.338)" fill="#18bab9"/>
        <rect id="Rectángulo_44365" data-name="Rectángulo 44365" width="31.406" height="7.894" fill="#18bab9"/>
      </g>
      <path id="Trazado_193489" data-name="Trazado 193489" d="M234.075,105.546a6.7,6.7,0,0,0-5.885-3.5h-5.165v2.681a4.787,4.787,0,1,1-9.575,0v-2.681h-5.173a6.7,6.7,0,0,0-5.887,3.5l-4.968,9.124,5.092,2.87,4.137-7.066h.805l2.259,13.022v13.979h16.277V123.5l2.887-13.022h.751l4.284,7.091,5.134-2.894Z" transform="translate(-159.543 -81.866)" fill="#8ee5f6"/>
      <path id="Trazado_193490" data-name="Trazado 193490" d="M277.766,218.989l-7.627,7.627c-.044.044-.086.09-.129.135-.043-.045-.085-.091-.129-.135l-8.393-8.393V231.36h16.277v-12.37Z" transform="translate(-211.317 -175.748)" fill="#448aff"/>
      <path id="Trazado_193491" data-name="Trazado 193491" d="M94.744,299.847a6.685,6.685,0,0,1,1.963,4.74H75.833a3.829,3.829,0,0,1-3.83-3.83V290.8H0v-8.426H20.682a11.711,11.711,0,0,1,13.637-6.249l6.088,1.653s32.6,0,32.667,0a5.845,5.845,0,0,1,5.632,5.837h4.6l2.107-2.872h5.553a5.745,5.745,0,1,1,0,11.49H85.408L83.3,289.362h-4.6v8.522H90A6.685,6.685,0,0,1,94.744,299.847Z" transform="translate(0 -222.207)" fill="#fdd8a8"/>
      <g id="Grupo_145566" data-name="Grupo 145566" transform="translate(0 53.506)">
        <path id="Trazado_193492" data-name="Trazado 193492" d="M48.257,281.723l.742.742a6.863,6.863,0,0,0,4.805,2.05,6.67,6.67,0,0,0,4.761-1.963c.044-.044.086-.09.128-.134.042.044.084.09.128.134a6.694,6.694,0,0,0,9.479,0l4.772-4.772,0,0H40.406l-6.088-1.653a11.711,11.711,0,0,0-13.637,6.249h-3.83v4.6H0v3.83H72a3.83,3.83,0,0,0-3.83-3.83H48.257Z" transform="translate(0 -275.712)" fill="#ffc477"/>
        <path id="Trazado_193493" data-name="Trazado 193493" d="M441.812,325.558h-5.553l-2.107-1.723v2.543l2.107,2.873h5.553a5.747,5.747,0,0,0,5.391-7.734A6.47,6.47,0,0,1,441.812,325.558Z" transform="translate(-350.851 -312.727)" fill="#ffc477"/>
      </g>
      <path id="Trazado_193494" data-name="Trazado 193494" d="M281.513,33.7a4.787,4.787,0,0,0,4.787-4.787V26.234h-1.961V22.4l2.872-2.107V13.978a5.745,5.745,0,1,0-11.49,0V20.3l2.872,2.107v3.83h-1.869v2.681A4.787,4.787,0,0,0,281.513,33.7Z" transform="translate(-222.819 -6.049)" fill="#fdd8a8"/>
      <g id="Grupo_145567" data-name="Grupo 145567" transform="translate(8.011 76.485)">
        <rect id="Rectángulo_44366" data-name="Rectángulo 44366" width="5.745" height="22.214" fill="#b0bec5"/>
        <rect id="Rectángulo_44367" data-name="Rectángulo 44367" width="5.745" height="16.319" transform="translate(73.95 5.894)" fill="#b0bec5"/>
      </g>
      <path id="Trazado_193495" data-name="Trazado 193495" d="M127.514,277.776l-6.088-1.654a11.713,11.713,0,0,0-13.636,6.249V307.5h23.746V277.776Z" transform="translate(-87.108 -222.205)" fill="#f4c0c1"/>
      <g id="Grupo_145568" data-name="Grupo 145568" transform="translate(34.031 32.807)">
        <path id="Trazado_193496" data-name="Trazado 193496" d="M177.364,174.9l17.764,17.762a2.872,2.872,0,0,0,4.062,0h0a2.872,2.872,0,0,0,0-4.062l-14.737-14.737L186.3,170.7l-5.092-2.87Z" transform="translate(-177.364 -167.832)" fill="#fdd8a8"/>
        <path id="Trazado_193497" data-name="Trazado 193497" d="M335.12,167.839l-5.134,2.894,1.9,3.138-14.737,14.737a2.872,2.872,0,0,0,0,4.062h0a2.872,2.872,0,0,0,4.062,0l17.764-17.763Z" transform="translate(-289.646 -167.838)" fill="#fdd8a8"/>
      </g>
      <g id="Grupo_145569" data-name="Grupo 145569" transform="translate(8.011 76.485)">
        <rect id="Rectángulo_44368" data-name="Rectángulo 44368" width="5.745" height="3.83" transform="translate(73.95 5.894)" fill="#90a4ae"/>
        <rect id="Rectángulo_44369" data-name="Rectángulo 44369" width="5.745" height="3.83" fill="#90a4ae"/>
      </g>
      <path id="Trazado_193498" data-name="Trazado 193498" d="M285.739,105.306a4.789,4.789,0,0,1-4.536-3.255h-.252v2.681a4.787,4.787,0,1,0,9.575,0v-2.681h-.252A4.789,4.789,0,0,1,285.739,105.306Z" transform="translate(-227.045 -81.866)" fill="#ffc477"/>
      <rect id="Rectángulo_44370" data-name="Rectángulo 44370" width="16.277" height="22.214" transform="translate(50.172 76.485)" fill="#8ee5f6"/>
      <rect id="Rectángulo_44371" data-name="Rectángulo 44371" width="16.277" height="3.83" transform="translate(50.172 76.485)" fill="#448aff"/>
      <path id="Trazado_193499" data-name="Trazado 193499" d="M98.238,75.049H93.546A8.106,8.106,0,0,0,90,74.241H80.142V68.592h2.432l2.107,2.873h6.281a7.181,7.181,0,0,0,0-14.362H84.68l-2.107,2.873H80a7.288,7.288,0,0,0-7.136-5.841H71.129l14-14L75.793,22.993a8.134,8.134,0,0,0-7.146-4.244h-5.69V17.083l2.873-2.107V7.929a7.181,7.181,0,1,0-14.362,0v7.047l2.873,2.107v1.666H48.734A8.133,8.133,0,0,0,41.586,23l-9.33,17.136,14,14H40.6l-5.9-1.6a13.143,13.143,0,0,0-14.883,6.2H0V61.6H19.245v5.553H0v2.873H19.245v5.021H0v2.873H6.575V98.7H9.447V77.922H12.32V98.7h2.873V77.922h4.053V86.73H45.864V77.922h2.873V98.7h2.873V77.922h5.17V98.7h2.873V77.922h5.362V98.7h2.873V77.922h2.681v.628a5.272,5.272,0,0,0,5.266,5.266h4.692V98.7H83.4V83.816H86.27V98.7h2.873V83.816h9V82.38a8.083,8.083,0,0,0-1.328-4.458h1.423ZM64.577,56.623a1.436,1.436,0,0,1-2.031-2.031L78.079,39.06l-1.712-2.834,2.575-1.451,2.64,4.845Zm9.879-18L67.886,45.19v-3.4l2.278-10.275ZM54.339,7.929a4.309,4.309,0,0,1,8.617,0v5.592l-2.873,2.107v5.994h1.961v1.245a3.351,3.351,0,0,1-6.7,0V21.621h1.869V15.627l-2.873-2.107V7.929Zm-15.9,26.844,2.551,1.438-1.674,2.86L54.841,54.592a1.436,1.436,0,0,1-2.031,2.031l-17-17Zm8.541-3.11,1.751,10.093v2.668L42.92,38.608ZM22.118,83.858V60.508a10.268,10.268,0,0,1,11.824-5.2l6.272,1.7h2.777V83.858Zm23.746-8.809V70.028h24.7v5.021Zm29.969,5.894a2.4,2.4,0,0,1-2.394-2.394V67.156H45.864V57.006h3.268l1.648,1.648a4.308,4.308,0,0,0,6.093-6.093L51.609,47.3V41.509L49.123,27.175H46.285l-3.839,6.557L39.818,32.25l4.291-7.881a5.263,5.263,0,0,1,4.625-2.748H52.47v1.245a6.224,6.224,0,0,0,12.447,0V21.621h3.729a5.263,5.263,0,0,1,4.624,2.746l4.3,7.885-2.687,1.514L70.9,27.175H68.184l-3.171,14.3v6.587l-4.5,4.5a4.308,4.308,0,0,0,3.046,7.355h0a4.28,4.28,0,0,0,3.046-1.262l1.648-1.648h4.609a4.409,4.409,0,0,1,4.4,4.4v1.436h6.76l2.107-2.873h4.826a4.309,4.309,0,0,1,0,8.617H86.136l-2.107-2.873h-6.76V77.113H90a5.272,5.272,0,0,1,5.069,3.83H75.833Z"/>
      <g id="Grupo_145570" data-name="Grupo 145570" transform="translate(24.99 31.579)">
        <path id="Trazado_193500" data-name="Trazado 193500" d="M133.118,335.74h-2.873v-2.872h2.873Zm0-5.745h-2.873v-2.872h2.873Zm0-5.745h-2.873v-2.872h2.873Zm0-5.745h-2.873v-2.873h2.873Z" transform="translate(-130.245 -286.047)" fill="#fff"/>
        <path id="Trazado_193501" data-name="Trazado 193501" d="M196.993,335.74h-2.872v-2.872h2.872Zm0-5.745h-2.872v-2.872h2.872Zm0-5.745h-2.872v-2.872h2.872Zm0-5.745h-2.872v-2.873h2.872Z" transform="translate(-181.865 -286.047)" fill="#fff"/>
        <rect id="Rectángulo_44372" data-name="Rectángulo 44372" width="2.873" height="2.873" transform="translate(31.789)" fill="#fff"/>
        <rect id="Rectángulo_44373" data-name="Rectángulo 44373" width="2.873" height="2.873" transform="translate(31.789 6.846)" fill="#fff"/>
        <rect id="Rectángulo_44374" data-name="Rectángulo 44374" width="2.873" height="2.873" transform="translate(31.789 13.692)" fill="#fff"/>
      </g>
    </g>
  </g>
</svg>
