<svg xmlns="http://www.w3.org/2000/svg" width="139" height="139" viewBox="0 0 139 139">
  <g id="Grupo_145940" data-name="Grupo 145940" transform="translate(7619 3960)">
    <g id="Grupo_145647" data-name="Grupo 145647" transform="translate(-8350 -12303)">
      <rect id="Rectángulo_44380" data-name="Rectángulo 44380" width="139" height="139" rx="69.5" transform="translate(731 8343)" fill="#b0f0fc"/>
      <g id="proteger" transform="translate(755.398 8369.799)">
        <path id="Trazado_193518" data-name="Trazado 193518" d="M116.689,286.061,99.047,297.868l-5.258-.3-.206-2.069a6.718,6.718,0,0,0-5.743-5.987l-18.652-1.634c-1.828-.259-5.673-2.291-8.687-4.02a19.183,19.183,0,0,0-9.381-2.549l-9.483-.078v23.184L68.48,314.583a7.3,7.3,0,0,0,3.121.207l.019,0,27.025-3.9a11.962,11.962,0,0,0,5.673-2.542l17.467-15.709a4.171,4.171,0,0,0-5.1-6.58Zm0,0" transform="translate(-34.301 -231.275)" fill="#fde9e0"/>
        <path id="Trazado_193519" data-name="Trazado 193519" d="M122.463,312.719a4.158,4.158,0,0,0-.381-.48l-17.765,13.046a11.958,11.958,0,0,1-5.673,2.542l-27.025,3.9-.019,0a7.306,7.306,0,0,1-3.121-.208L41.637,321.351v8.608L68.48,340.125a7.3,7.3,0,0,0,3.121.207l.019,0,27.025-3.9a11.961,11.961,0,0,0,5.673-2.542l17.467-15.709A4.171,4.171,0,0,0,122.463,312.719Zm0,0" transform="translate(-34.301 -256.816)" fill="#fddbcb"/>
        <path id="Trazado_193520" data-name="Trazado 193520" d="M20.464,281.98H9.313a1.825,1.825,0,0,1-1.824-1.824V246.11a1.825,1.825,0,0,1,1.824-1.824H20.464a1.825,1.825,0,0,1,1.824,1.824v34.046A1.825,1.825,0,0,1,20.464,281.98Zm0,0" transform="translate(-6.169 -200.835)" fill="#8ee5f6"/>
        <path id="Trazado_193521" data-name="Trazado 193521" d="M49.487,244.285H42.719V281.98h6.768a1.825,1.825,0,0,0,1.824-1.824V246.11A1.825,1.825,0,0,0,49.487,244.285Zm0,0" transform="translate(-35.193 -200.835)" fill="#defaff"/>
        <path id="Trazado_193522" data-name="Trazado 193522" d="M167.311,19.849a12.908,12.908,0,0,1-7.906-10.8,1.275,1.275,0,0,0-1.281-1.158l-13.4.078h-.272l-13.4.078a1.285,1.285,0,0,0-1.269,1.193A12.908,12.908,0,0,1,122,20.12a1.842,1.842,0,0,0-1.105,1.888c.615,5.881,4.2,25.909,23.726,34.917a.607.607,0,0,0,.26.056.617.617,0,0,0,.259-.059c19.42-9.236,22.768-29.3,23.314-35.193A1.851,1.851,0,0,0,167.311,19.849Zm0,0" transform="translate(-99.584 -6.092)" fill="#8ee5f6"/>
        <path id="Trazado_193523" data-name="Trazado 193523" d="M259.137,19.849a12.908,12.908,0,0,1-7.906-10.8,1.275,1.275,0,0,0-1.281-1.158l-7.376.043a12.907,12.907,0,0,0,7.945,11.907,1.861,1.861,0,0,1,1.149,1.885c-.507,5.46-3.423,23.107-19.324,33.01a40.2,40.2,0,0,0,4.1,2.186.618.618,0,0,0,.26.056.606.606,0,0,0,.259-.059c19.42-9.236,22.768-29.3,23.315-35.193A1.852,1.852,0,0,0,259.137,19.849Zm0,0" transform="translate(-191.409 -6.092)" fill="#defaff"/>
        <path id="Trazado_193524" data-name="Trazado 193524" d="M169.1,74.661c-13.363-7.252-17.238-20.7-18.349-27.305a.706.706,0,0,1,.321-.718,17.271,17.271,0,0,0,7.478-9.821.71.71,0,0,1,.678-.508l19.978-.117a.709.709,0,0,1,.683.5,17.273,17.273,0,0,0,7.593,9.733.705.705,0,0,1,.33.714c-1.033,6.614-4.749,20.111-18.027,27.518A.715.715,0,0,1,169.1,74.661Zm0,0" transform="translate(-124.183 -29.403)" fill="#fff"/>
        <path id="Trazado_193525" data-name="Trazado 193525" d="M254.576,46.424a17.276,17.276,0,0,1-7.593-9.733.709.709,0,0,0-.683-.5l-8.055.047a17.272,17.272,0,0,0,7.724,10.187.7.7,0,0,1,.33.712c-.924,5.911-3.991,17.323-14.115,24.97a33.8,33.8,0,0,0,4.01,2.554.715.715,0,0,0,.686,0c13.277-7.408,16.994-20.9,18.027-27.519A.7.7,0,0,0,254.576,46.424Zm0,0" transform="translate(-191.278 -29.403)" fill="#d6d6d6"/>
        <path id="Trazado_193526" data-name="Trazado 193526" d="M35.782,395.022a3.354,3.354,0,1,1-3.354-3.354A3.353,3.353,0,0,1,35.782,395.022Zm0,0" transform="translate(-23.952 -322.252)" fill="#ededed"/>
        <path id="Trazado_193527" data-name="Trazado 193527" d="M219.5,106a1.334,1.334,0,0,0,2.012-.228L230.309,92.5a1.322,1.322,0,1,0-2.2-1.46L220.181,103l-4.4-4.182a1.321,1.321,0,1,0-1.82,1.917Zm0,0" transform="translate(-175.923 -74.098)"/>
        <path id="Trazado_193528" data-name="Trazado 193528" d="M137.9,52.053a1.958,1.958,0,0,0,.81.177h.011a1.934,1.934,0,0,0,.82-.187c20.093-9.556,23.5-30.173,24.062-36.264a3.159,3.159,0,0,0-1.948-3.223,11.548,11.548,0,0,1-7.1-9.691A2.61,2.61,0,0,0,151.964.5h-.016l-27.07.159A2.589,2.589,0,0,0,122.3,3.071a11.55,11.55,0,0,1-6.992,9.761,3.148,3.148,0,0,0-1.9,3.24C114.045,22.157,117.692,42.734,137.9,52.053ZM116.348,15.262A14.18,14.18,0,0,0,124.933,3.3l26.992-.158A14.182,14.182,0,0,0,160.637,15a.531.531,0,0,1,.33.539c-.53,5.709-3.7,24.957-22.267,33.977-18.673-8.8-22.067-28.012-22.664-33.714A.52.52,0,0,1,116.348,15.262Zm0,0" transform="translate(-93.414)"/>
        <path id="Trazado_193529" data-name="Trazado 193529" d="M144.244,45.9a1.393,1.393,0,0,0,1.622.928,1.323,1.323,0,0,0,.928-1.621c-.337-1.24-.619-2.5-.842-3.743a18.583,18.583,0,0,0,7.561-9.908l19.083-.112a18.582,18.582,0,0,0,7.676,9.819c-.207,1.249-.476,2.511-.8,3.756a1.322,1.322,0,1,0,2.559.663c.379-1.462.687-2.946.915-4.41A2.02,2.02,0,0,0,182,39.22a15.947,15.947,0,0,1-7.013-8.989A2.044,2.044,0,0,0,173.04,28.8h-.012l-19.979.117a2.044,2.044,0,0,0-1.937,1.457,15.948,15.948,0,0,1-6.907,9.071,2.02,2.02,0,0,0-.928,2.06C143.523,42.964,143.848,44.442,144.244,45.9Zm0,0" transform="translate(-118.011 -23.312)"/>
        <path id="Trazado_193530" data-name="Trazado 193530" d="M192.921,147.635a1.32,1.32,0,0,0-1.725.717,33.283,33.283,0,0,1-14.372,16.731,33.3,33.3,0,0,1-14.578-16.588,1.322,1.322,0,0,0-2.432,1.035,35.845,35.845,0,0,0,16.045,18.038,2.023,2.023,0,0,0,1.96-.011,35.834,35.834,0,0,0,15.82-18.2A1.32,1.32,0,0,0,192.921,147.635Zm0,0" transform="translate(-131.571 -121.129)"/>
        <path id="Trazado_193531" data-name="Trazado 193531" d="M26.261,384.273a4.675,4.675,0,1,0,4.676,4.675A4.68,4.68,0,0,0,26.261,384.273Zm0,6.707a2.032,2.032,0,1,1,2.033-2.032A2.034,2.034,0,0,1,26.261,390.981Zm0,0" transform="translate(-17.783 -316.16)"/>
        <path id="Trazado_193532" data-name="Trazado 193532" d="M89.256,249.92a5.5,5.5,0,0,0-7.6-1.47L64.381,260.011l-3.687-.207-.094-.944a8.019,8.019,0,0,0-6.873-7.164l-.07-.008-18.613-1.631c-.63-.1-2.645-.677-8.184-3.854a20.554,20.554,0,0,0-9.417-2.709v-3.457a3.149,3.149,0,0,0-3.146-3.146H3.146A3.15,3.15,0,0,0,0,240.036v34.046a3.15,3.15,0,0,0,3.146,3.146H14.3a3.15,3.15,0,0,0,3.146-3.146v-.938l16.27,6.161a9.1,9.1,0,0,0,3.786.279l27.035-3.9.02,0a13.292,13.292,0,0,0,6.3-2.822l.048-.041,17.46-15.7A5.5,5.5,0,0,0,89.256,249.92ZM86.6,255.146,69.16,270.833a10.648,10.648,0,0,1-5.013,2.239l-27.015,3.895-.023,0-.013,0a5.935,5.935,0,0,1-2.5-.16l-17.151-6.495v-15.09a1.321,1.321,0,1,0-2.643,0v18.854a.5.5,0,0,1-.5.5H3.146a.5.5,0,0,1-.5-.5V240.036a.5.5,0,0,1,.5-.5H14.3a.5.5,0,0,1,.5.5v9.223a1.321,1.321,0,0,0,2.643,0v-3.121a17.9,17.9,0,0,1,8.1,2.357c6.68,3.831,8.546,4.1,9.159,4.182l.07.008,18.615,1.631a5.384,5.384,0,0,1,4.581,4.8l.07.7-24.922,1.539-.05,0a3.012,3.012,0,0,1-2.056-1.076,1.321,1.321,0,1,0-2.03,1.692,5.722,5.722,0,0,0,3.85,2.016c.816.085,26.66-1.609,26.66-1.609l5.181.291a1.317,1.317,0,0,0,.809-.222l17.644-11.808a2.849,2.849,0,0,1,3.474,4.5Zm0,0" transform="translate(0 -194.743)"/>
      </g>
    </g>
  </g>
</svg>
