<svg xmlns="http://www.w3.org/2000/svg" width="76.165" height="67.154" viewBox="0 0 76.165 67.154">
  <g id="peligro-biologico" transform="translate(0 -30.071)">
    <g id="Grupo_145668" data-name="Grupo 145668" transform="translate(1.126 31.195)">
      <path id="Trazado_193709" data-name="Trazado 193709" d="M98.173,108.336,65.5,51.98l-4.844,1.173L27.893,109.9l2.247,3.892.126-.489,5.536,1.423H94.49A4.257,4.257,0,0,0,98.173,108.336Z" transform="translate(-24.84 -49.821)" fill="#defaff"/>
      <path id="Trazado_193710" data-name="Trazado 193710" d="M18.37,96.086,49.609,42.2,48.176,39.73l-.021-.037a4.257,4.257,0,0,0-7.366,0L8.1,96.086a4.257,4.257,0,0,0,3.683,6.392H22.053A4.257,4.257,0,0,1,18.37,96.086Z" transform="translate(-7.515 -37.571)" fill="#8ee5f6"/>
      <path id="Trazado_193711" data-name="Trazado 193711" d="M106.751,127.932,75.58,74.166a.484.484,0,0,0-.836,0l-31.232,54.1a.416.416,0,0,0,.338.627H106.2A.64.64,0,0,0,106.751,127.932Z" transform="translate(-38.07 -68.481)" fill="#e8adae"/>
      <path id="Trazado_193712" data-name="Trazado 193712" d="M75.58,74.166a.484.484,0,0,0-.836,0l-31.232,54.1a.416.416,0,0,0,.338.627h4.5a4.235,4.235,0,0,1,.573-1.9l28.641-49.4Z" transform="translate(-38.07 -68.481)" fill="#f18385"/>
    </g>
    <g id="Grupo_145669" data-name="Grupo 145669" transform="translate(0 30.071)">
      <path id="Trazado_193713" data-name="Trazado 193713" d="M75.43,89.146l-20.7-35.705a1.124,1.124,0,1,0-1.944,1.127l20.7,35.705a3.134,3.134,0,0,1-2.711,4.705H5.389a3.134,3.134,0,0,1-2.711-4.705L35.371,33.88a3.134,3.134,0,0,1,5.422,0l9.592,16.545A1.124,1.124,0,1,0,52.329,49.3L42.737,32.753a5.381,5.381,0,0,0-9.31,0L.734,89.146a5.381,5.381,0,0,0,4.655,8.08H70.775a5.381,5.381,0,0,0,4.655-8.08Z" transform="translate(0 -30.071)"/>
      <path id="Trazado_193714" data-name="Trazado 193714" d="M56.8,164.662a1.124,1.124,0,1,0-1.944-1.127l-23.48,40.5a1.124,1.124,0,0,0,.972,1.687H96.909a1.124,1.124,0,0,0,.972-1.687l-4.6-7.941a1.124,1.124,0,1,0-1.944,1.127l3.625,6.253H34.3Z" transform="translate(-26.546 -143.063)"/>
      <path id="Trazado_193715" data-name="Trazado 193715" d="M212.465,62.208a1.124,1.124,0,0,0-1.944,0l-6.4,11.038a1.124,1.124,0,0,0,1.944,1.127l5.427-9.361,24.3,41.921a1.124,1.124,0,0,0,1.944-1.127Z" transform="translate(-173.41 -56.917)"/>
      <path id="Trazado_193716" data-name="Trazado 193716" d="M164.944,207.457a1.124,1.124,0,0,0-1.1-1.961,8.207,8.207,0,0,0-3.479,10.553,8.978,8.978,0,0,0-.67,1.2,8.216,8.216,0,0,0-6.76,10.337,1.124,1.124,0,0,0,2.166-.6,5.972,5.972,0,0,1,3.857-7.263,8.98,8.98,0,0,0,6.141,9.852l-.048.05a5.979,5.979,0,0,1-5.856,1.494,1.124,1.124,0,1,0-.621,2.16,8.227,8.227,0,0,0,8.058-2.057,8.311,8.311,0,0,0,1.016-1.22c.067,0,.134.005.2.005.128,0,.256,0,.383-.01a8.228,8.228,0,0,0,9.077,3.281,1.124,1.124,0,1,0-.621-2.16,5.98,5.98,0,0,1-5.856-1.494c-.032-.032-.062-.065-.094-.1a8.989,8.989,0,0,0,5.994-9.866,5.973,5.973,0,0,1,4.049,7.325,1.124,1.124,0,1,0,2.166.6A8.213,8.213,0,0,0,176,217.221a8.993,8.993,0,0,0-.659-1.173,8.207,8.207,0,0,0-3.479-10.553,1.124,1.124,0,0,0-1.1,1.961,5.97,5.97,0,0,1,2.875,6.687,8.963,8.963,0,0,0-11.566,0,5.971,5.971,0,0,1,2.874-6.687Zm-3.831,13.558a6.737,6.737,0,0,1,.19-1.585,5.971,5.971,0,0,1,5.093,8.164A6.75,6.75,0,0,1,161.113,221.015Zm8.364,6.54a5.971,5.971,0,0,1,4.928-8.111,6.734,6.734,0,0,1-4.928,8.111Zm-1.625-13.279a6.719,6.719,0,0,1,4.766,1.98,5.961,5.961,0,0,1-9.533,0A6.718,6.718,0,0,1,167.853,214.276Z" transform="translate(-129.77 -179.091)"/>
      <path id="Trazado_193717" data-name="Trazado 193717" d="M248.93,121.181v-.966a1.124,1.124,0,1,0-2.247,0v.966a1.124,1.124,0,1,0,2.247,0Z" transform="translate(-209.724 -105.754)"/>
      <path id="Trazado_193718" data-name="Trazado 193718" d="M80.964,405.483a1.124,1.124,0,0,0,0,2.247h1.246a1.124,1.124,0,1,0,0-2.247Z" transform="translate(-67.878 -349.237)"/>
      <path id="Trazado_193719" data-name="Trazado 193719" d="M408.809,407.73a1.124,1.124,0,0,0,0-2.247h-1.246a1.124,1.124,0,0,0,0,2.247Z" transform="translate(-345.546 -349.237)"/>
    </g>
  </g>
</svg>
