<svg xmlns="http://www.w3.org/2000/svg" width="61.418" height="61.42" viewBox="0 0 61.418 61.42">
  <g id="Grupo_145937" data-name="Grupo 145937" transform="translate(-331.999 -10155.584)">
    <g id="_48_Healthcare" data-name="48 Healthcare" transform="translate(332 10155.604)">
      <g id="_48_Healthcare-2" data-name="48 Healthcare" transform="translate(-0.001 -0.02)">
        <g id="Healthcare_flat" data-name="Healthcare flat" transform="translate(1.35 1.325)">
          <path id="Trazado_193680" data-name="Trazado 193680" d="M21.176,380.8,11.57,377.09a1.546,1.546,0,0,0-.32.96v.064a1.606,1.606,0,0,0,.72,1.337l.611.408a21.97,21.97,0,0,0,7.712,3.239A24.46,24.46,0,0,1,30.4,387.863a.45.45,0,0,1,.169.351v3.659a.45.45,0,0,0,.446.44h1.462c-.193-1.61,1.177-7.677,1.177-7.677Z" transform="translate(-11.249 -333.178)" fill="#ffbeaa"/>
          <path id="Trazado_193681" data-name="Trazado 193681" d="M40.05,384.3v-5.458A10.347,10.347,0,0,0,29.705,368.5H28.252a1.679,1.679,0,0,0-1.695,1.567A1.651,1.651,0,0,0,28.2,371.8H31.37a.458.458,0,0,1,.453.36.451.451,0,0,1-.44.545H27.632a20.733,20.733,0,0,1-11.417-3.424l-.144-.095a1.589,1.589,0,0,0-1.651-.083,1.567,1.567,0,0,0-.5.425,1.148,1.148,0,0,0,.437.542l.81.541a21.97,21.97,0,0,0,7.712,3.239,28.935,28.935,0,0,1,10.274,4.267,2.327,2.327,0,0,1,.96,1.624c.181,1.519.525,3.445.714,5.014H39.6a.45.45,0,0,0,.45-.45Z" transform="translate(-13.6 -325.618)" fill="#ffcdbe"/>
          <path id="Trazado_193682" data-name="Trazado 193682" d="M326.475,380.8l9.606-3.708a1.546,1.546,0,0,1,.32.96v.064a1.606,1.606,0,0,1-.72,1.338l-.611.408a21.97,21.97,0,0,1-7.712,3.239,24.46,24.46,0,0,0-10.105,4.766.45.45,0,0,0-.169.351v3.659a.45.45,0,0,1-.446.44h-1.462c.193-1.61-1.177-7.677-1.177-7.677Z" transform="translate(-277.683 -333.178)" fill="#ffbeaa"/>
          <path id="Trazado_193683" data-name="Trazado 193683" d="M280.25,384.3v-5.458A10.347,10.347,0,0,1,290.6,368.5h1.453a1.679,1.679,0,0,1,1.695,1.567A1.651,1.651,0,0,1,292.1,371.8H288.93a.458.458,0,0,0-.453.36.451.451,0,0,0,.44.545h3.751a20.733,20.733,0,0,0,11.423-3.424l.144-.095a1.589,1.589,0,0,1,1.651-.083,1.566,1.566,0,0,1,.5.425,1.148,1.148,0,0,1-.437.542l-.81.541a21.97,21.97,0,0,1-7.712,3.239,28.98,28.98,0,0,0-10.274,4.267,2.327,2.327,0,0,0-.96,1.624c-.181,1.519-.525,3.445-.714,5.014H280.7A.45.45,0,0,1,280.25,384.3Z" transform="translate(-247.982 -325.618)" fill="#ffcdbe"/>
          <path id="Trazado_193684" data-name="Trazado 193684" d="M201.824,19.669a11.636,11.636,0,0,0-5.388-2.969L167.63,47.985l9.982,9.769a.892.892,0,0,0,1.233,0l22.979-22.132a11.062,11.062,0,0,0,0-15.953Z" transform="translate(-148.871 -16.019)" fill="#e54c7f"/>
          <path id="Trazado_193685" data-name="Trazado 193685" d="M146.457,14.244a12.02,12.02,0,0,0-2.826-.335,11.781,11.781,0,0,0-6.565,1.97l-8.693,14.384-17.533,8.6,6.812,6.666,4.733,1.425a8.523,8.523,0,0,0,8.35-1.988l15.53-14.961a11.06,11.06,0,0,0,.192-15.761Z" transform="translate(-98.893 -13.563)" fill="#f36e90"/>
          <path id="Trazado_193686" data-name="Trazado 193686" d="M67.954,19.768a17.952,17.952,0,0,0-1.184-6.427,11.636,11.636,0,0,0-1.643,1.327l-7.155,6.791-7.177-7.135a11.885,11.885,0,0,0-16.434,0,11.062,11.062,0,0,0,0,15.954l6.181,6.049a19.4,19.4,0,0,0,8.4,1.9c10.506,0,19.015-8.266,19.015-18.458Z" transform="translate(-28.598 -11.025)" fill="#f58ba6"/>
        </g>
        <g id="Healthcare_line" data-name="Healthcare line" transform="translate(0 0)">
          <g id="Healthcare">
            <path id="Trazado_193687" data-name="Trazado 193687" d="M51.6,44.606a.894.894,0,0,1-.638-.266L27.25,20.446A11.99,11.99,0,0,1,44.21,3.494l7.406,7.579L59,3.86A11.99,11.99,0,1,1,75.953,20.822L52.235,44.345A.891.891,0,0,1,51.6,44.606ZM35.736,1.782a10.185,10.185,0,0,0-7.207,17.394L51.6,42.434l23.07-22.888A10.188,10.188,0,1,0,60.263,5.139l-8.035,7.85a.9.9,0,0,1-1.272-.016L42.931,4.759a10.145,10.145,0,0,0-7.195-2.977Z" transform="translate(-20.893 0.02)"/>
            <g id="Cardiogram" transform="translate(14.755 12.178)">
              <path id="Trazado_193688" data-name="Trazado 193688" d="M133.136,120.933a.869.869,0,0,1-.191-.02.9.9,0,0,1-.709-.879V106.21l-2.494,4.988a.9.9,0,0,1-.8.5H123.9a.9.9,0,1,1,0-1.8h4.482l3.95-7.9a.9.9,0,0,1,1.7.4V115.88l2.48-5.456a.9.9,0,0,1,.819-.528H140.5l3.949-7.9a.9.9,0,0,1,1.7.4v12.527l1.613-4.438a.9.9,0,0,1,.846-.593h3.959a.9.9,0,1,1,0,1.8H149.24l-3.143,8.644a.9.9,0,0,1-1.745-.306V106.21l-2.494,4.988a.9.9,0,0,1-.8.5h-3.139l-3.959,8.709a.9.9,0,0,1-.819.528Z" transform="translate(-123 -101.5)"/>
            </g>
            <path id="Trazado_193689" data-name="Trazado 193689" d="M28.249,375.593H20.212a.9.9,0,0,1-.9-.9v-1.439a.9.9,0,0,1,1.8,0v.54h6.238v-5.1a9.907,9.907,0,0,0-9.9-9.9h-1.5a1.2,1.2,0,0,0,0,2.4h3.179a.9.9,0,1,1,0,1.8H15.381a21.185,21.185,0,0,1-11.663-3.49l-.144-.095a1.15,1.15,0,0,0-1.19-.062,1.1,1.1,0,0,0-.585.982v.064a1.156,1.156,0,0,0,.516.96l.611.408a21.5,21.5,0,0,0,7.557,3.169,24.543,24.543,0,0,1,8.991,3.889.9.9,0,1,1-1.026,1.478,22.757,22.757,0,0,0-8.335-3.606,23.322,23.322,0,0,1-8.183-3.433l-.611-.4A2.95,2.95,0,0,1,0,360.4v-.064a2.879,2.879,0,0,1,1.529-2.566,2.921,2.921,0,0,1,3.029.143l.144.095a19.385,19.385,0,0,0,8.447,3.066,3,3,0,0,1,2.8-4.071h1.5a11.709,11.709,0,0,1,11.7,11.7v6A.9.9,0,0,1,28.249,375.593Z" transform="translate(0.001 -314.173)"/>
            <path id="Trazado_193690" data-name="Trazado 193690" d="M277.937,375.593H269.9a.9.9,0,0,1-.9-.9v-6A11.709,11.709,0,0,1,280.7,357h1.5a3,3,0,0,1,2.8,4.071,19.384,19.384,0,0,0,8.447-3.066l.143-.095a2.923,2.923,0,0,1,3.034-.143,2.879,2.879,0,0,1,1.529,2.566v.064a2.95,2.95,0,0,1-1.32,2.46l-.611.408a23.322,23.322,0,0,1-8.183,3.433A22.757,22.757,0,0,0,279.7,370.3a.9.9,0,1,1-1.026-1.478,24.543,24.543,0,0,1,8.991-3.889,21.505,21.505,0,0,0,7.557-3.169l.611-.408a1.156,1.156,0,0,0,.516-.96v-.064a1.1,1.1,0,0,0-.584-.982,1.148,1.148,0,0,0-1.19.064l-.144.094A21.183,21.183,0,0,1,282.767,363h-3.751a.9.9,0,1,1,0-1.8H282.2a1.2,1.2,0,0,0,0-2.4h-1.5a9.907,9.907,0,0,0-9.9,9.9v5.1h6.238v-.54a.9.9,0,0,1,1.8,0v1.439A.9.9,0,0,1,277.937,375.593Z" transform="translate(-236.732 -314.173)"/>
            <circle id="Elipse_1206" data-name="Elipse 1206" cx="0.9" cy="0.9" r="0.9" transform="translate(47.023 20.484)"/>
          </g>
        </g>
      </g>
    </g>
  </g>
</svg>
