<svg xmlns="http://www.w3.org/2000/svg" width="73.245" height="67.153" viewBox="0 0 73.245 67.153">
  <g id="Transfer_money" data-name="Transfer money" transform="translate(0 -1.996)">
    <path id="Trazado_193691" data-name="Trazado 193691" d="M1,11H71.193V50.675H1Z" transform="translate(0.526 4.736)" fill="#defaff"/>
    <path id="Trazado_193692" data-name="Trazado 193692" d="M69.616,11V47.623H40.623A36.623,36.623,0,0,1,4,11Z" transform="translate(2.104 4.736)" fill="#8ee5f6"/>
    <path id="Trazado_193693" data-name="Trazado 193693" d="M58.934,44.519H10.1a1.526,1.526,0,0,1-1.526-1.526,3.052,3.052,0,0,0-3.052-3.052A1.526,1.526,0,0,1,4,38.415V20.1a1.526,1.526,0,0,1,1.526-1.526,3.052,3.052,0,0,0,3.052-3.052A1.526,1.526,0,0,1,10.1,14h48.83a1.526,1.526,0,0,1,1.526,1.526,3.052,3.052,0,0,0,3.052,3.052A1.526,1.526,0,0,1,65.038,20.1V38.415a1.526,1.526,0,0,1-1.526,1.526,3.052,3.052,0,0,0-3.052,3.052A1.526,1.526,0,0,1,58.934,44.519Zm-47.5-3.052H57.606a6.1,6.1,0,0,1,4.379-4.379V21.431a6.1,6.1,0,0,1-4.379-4.379H11.431a6.1,6.1,0,0,1-4.379,4.379V37.088A6.1,6.1,0,0,1,11.431,41.467Z" transform="translate(2.104 6.313)" fill="#84b749"/>
    <path id="Trazado_193694" data-name="Trazado 193694" d="M9.445,23.445a1.532,1.532,0,1,1,0,2.167,1.532,1.532,0,0,1,0-2.167Z" transform="translate(4.731 11.045)" fill="#84b749"/>
    <path id="Trazado_193695" data-name="Trazado 193695" d="M38.523,26.052a1.526,1.526,0,1,1,1.418-.941A1.526,1.526,0,0,1,38.523,26.052Z" transform="translate(19.463 11.047)" fill="#84b749"/>
    <path id="Trazado_193696" data-name="Trazado 193696" d="M39.91,46.565l3.51-3.494H13.526a1.526,1.526,0,1,1,0-3.052c36.211,0,34.425-.4,34.975.946s0,1.3-6.424,7.767a1.532,1.532,0,1,1-2.167-2.167Z" transform="translate(6.311 19.969)" fill="#82bcf4"/>
    <path id="Trazado_193697" data-name="Trazado 193697" d="M47.11,11.158c-36.211,0-34.425.4-34.975-.946s0-1.3,6.424-7.767a1.532,1.532,0,0,1,2.167,2.167l-3.51,3.494H47.11a1.526,1.526,0,0,1,0,3.052Z" transform="translate(6.298)" fill="#82bcf4"/>
    <path id="Trazado_193698" data-name="Trazado 193698" d="M42.467,28.733a13.871,13.871,0,0,1-2.029,7.157C33.311,47.686,15,42.559,15,28.733a13.733,13.733,0,1,1,27.467,0Z" transform="translate(7.889 6.839)" fill="#f18385"/>
    <g id="Grupo_145667" data-name="Grupo 145667" transform="translate(30.519 24.891)">
      <path id="Trazado_193699" data-name="Trazado 193699" d="M23,21.578V18.526a1.526,1.526,0,1,1,3.052,0v3.052a1.526,1.526,0,0,1-3.052,0Z" transform="translate(-18.422 -17)" fill="#b5e08c"/>
      <path id="Trazado_193700" data-name="Trazado 193700" d="M23,31.578V28.526a1.526,1.526,0,1,1,3.052,0v3.052a1.526,1.526,0,1,1-3.052,0Z" transform="translate(-18.422 -11.741)" fill="#b5e08c"/>
      <path id="Trazado_193701" data-name="Trazado 193701" d="M27.63,34.259h-6.1a1.526,1.526,0,1,1,0-3.052h6.1a1.526,1.526,0,1,0,0-3.052H24.578a4.578,4.578,0,1,1,0-9.156h6.1a1.526,1.526,0,1,1,0,3.052h-6.1a1.526,1.526,0,0,0,0,3.052H27.63a4.578,4.578,0,1,1,0,9.156Z" transform="translate(-20 -15.948)" fill="#b5e08c"/>
    </g>
    <path id="Trazado_193702" data-name="Trazado 193702" d="M71.719,10H1.526A1.526,1.526,0,0,0,0,11.526V51.2a1.526,1.526,0,0,0,1.526,1.526H71.719A1.526,1.526,0,0,0,73.245,51.2V11.526A1.526,1.526,0,0,0,71.719,10ZM70.193,49.675H3.052V13.052H70.193Z" transform="translate(0 4.21)"/>
    <path id="Trazado_193703" data-name="Trazado 193703" d="M5.526,39.941a3.052,3.052,0,0,1,3.052,3.052A1.526,1.526,0,0,0,10.1,44.519h48.83a1.526,1.526,0,0,0,1.526-1.526,3.052,3.052,0,0,1,3.052-3.052,1.526,1.526,0,0,0,1.526-1.526V20.1a1.526,1.526,0,0,0-1.526-1.526,3.052,3.052,0,0,1-3.052-3.052A1.526,1.526,0,0,0,58.934,14H10.1a1.526,1.526,0,0,0-1.526,1.526,3.052,3.052,0,0,1-3.052,3.052A1.526,1.526,0,0,0,4,20.1V38.415A1.526,1.526,0,0,0,5.526,39.941ZM22.311,29.259A12.208,12.208,0,1,1,34.519,41.467,12.208,12.208,0,0,1,22.311,29.259Zm35.3-12.208a6.1,6.1,0,0,0,4.379,4.379V37.088a6.1,6.1,0,0,0-4.379,4.379H43.675a15.259,15.259,0,0,0,0-24.415ZM7.052,21.431a6.1,6.1,0,0,0,4.379-4.379H25.363a15.259,15.259,0,0,0,0,24.415H11.431a6.1,6.1,0,0,0-4.379-4.379Z" transform="translate(2.104 6.313)"/>
    <path id="Trazado_193704" data-name="Trazado 193704" d="M24.578,23.1h6.1a1.526,1.526,0,1,0,0-3.052H27.63V18.526a1.526,1.526,0,1,0-3.052,0v1.526a4.578,4.578,0,0,0,0,9.156H27.63a1.526,1.526,0,1,1,0,3.052h-6.1a1.526,1.526,0,1,0,0,3.052h3.052v1.526a1.526,1.526,0,1,0,3.052,0V35.311a4.578,4.578,0,1,0,0-9.156H24.578a1.526,1.526,0,0,1,0-3.052Z" transform="translate(10.519 7.891)"/>
    <path id="Trazado_193705" data-name="Trazado 193705" d="M9.452,25.613a1.526,1.526,0,0,0,2.35-1.938C10.779,21.951,7.85,23.828,9.452,25.613Z" transform="translate(4.724 11.043)"/>
    <path id="Trazado_193706" data-name="Trazado 193706" d="M38.526,26.052A1.526,1.526,0,1,0,37,24.526,1.526,1.526,0,0,0,38.526,26.052Z" transform="translate(19.46 11.047)"/>
    <path id="Trazado_193707" data-name="Trazado 193707" d="M13.526,40.011a1.526,1.526,0,0,0,0,3.052H43.419l-3.51,3.494a1.532,1.532,0,0,0,2.167,2.167c6.439-6.455,6.958-6.516,6.424-7.767s1.205-.946-34.975-.946Z" transform="translate(6.311 19.977)"/>
    <path id="Trazado_193708" data-name="Trazado 193708" d="M13.529,11.158H47.1a1.526,1.526,0,0,0,0-3.052H17.207l3.51-3.494a1.532,1.532,0,1,0-2.167-2.167l-6.1,6.1a1.526,1.526,0,0,0,1.083,2.609Z" transform="translate(6.308 0)"/>
  </g>
</svg>
