<svg xmlns="http://www.w3.org/2000/svg" width="133" height="133" viewBox="0 0 133 133">
  <g id="Grupo_145972" data-name="Grupo 145972" transform="translate(-471 -4215)">
    <g id="Grupo_145789" data-name="Grupo 145789" transform="translate(261 -83)">
      <rect id="Rectángulo_44474" data-name="Rectángulo 44474" width="133" height="133" rx="66.5" transform="translate(210 4298)" fill="#483c8c"/>
      <g id="virus" transform="translate(240.023 4327.546)">
        <g id="Grupo_145772" data-name="Grupo 145772" transform="translate(53.561 3.41)">
          <circle id="Elipse_1212" data-name="Elipse 1212" cx="7.766" cy="7.766" r="7.766" transform="translate(0)" fill="#defaff"/>
        </g>
        <g id="Grupo_145773" data-name="Grupo 145773" transform="translate(54.991 4.647)">
          <path id="Trazado_193754" data-name="Trazado 193754" d="M399.131,38.525a7.767,7.767,0,0,1-14.1,4.491A7.767,7.767,0,0,0,395.57,31.995,7.759,7.759,0,0,1,399.131,38.525Z" transform="translate(-385.028 -31.995)" fill="#6ed5a1"/>
        </g>
        <g id="Grupo_145774" data-name="Grupo 145774" transform="translate(12.316 4.032)">
          <path id="Trazado_193755" data-name="Trazado 193755" d="M137.8,58.8c-5.416-12.3-18.563-27.451-21.51-30.768a.793.793,0,0,0-1.186,0C112.155,31.349,99.008,46.5,93.591,58.8a24.506,24.506,0,1,0,44.206,0Z" transform="translate(-91.189 -27.765)" fill="#f18385"/>
        </g>
        <g id="Grupo_145775" data-name="Grupo 145775" transform="translate(34.709 4.033)">
          <path id="Trazado_193756" data-name="Trazado 193756" d="M271.995,69.4a24.506,24.506,0,0,1-24.32,24.5q-1.154.009-2.283-.09A24.518,24.518,0,0,0,265.364,58.8c-4.749-10.783-15.442-23.762-19.988-29.031.639-.74,1.157-1.328,1.52-1.737a.794.794,0,0,1,1.186,0C251.028,31.35,264.175,46.5,269.593,58.8A24.421,24.421,0,0,1,271.995,69.4Z" transform="translate(-245.376 -27.767)" fill="#c94c4e"/>
        </g>
        <g id="Grupo_145776" data-name="Grupo 145776" transform="translate(4.55 46.749)">
          <circle id="Elipse_1213" data-name="Elipse 1213" cx="11.529" cy="11.529" r="11.529" fill="#8ee5f6"/>
        </g>
        <g id="Grupo_145777" data-name="Grupo 145777" transform="translate(8.496 47.929)">
          <path id="Trazado_193757" data-name="Trazado 193757" d="M84,340.37a11.529,11.529,0,0,1-19.112,8.684,11.53,11.53,0,0,0,12.666-19.035A11.527,11.527,0,0,1,84,340.37Z" transform="translate(-64.886 -330.019)" fill="#6ed5a1"/>
        </g>
        <g id="Grupo_145778" data-name="Grupo 145778" transform="translate(16.079 58.279)">
          <circle id="Elipse_1214" data-name="Elipse 1214" cx="2.954" cy="2.954" r="2.954" fill="#ceefdd"/>
        </g>
        <g id="Grupo_145779" data-name="Grupo 145779" transform="translate(16.274 58.328)">
          <path id="Trazado_193758" data-name="Trazado 193758" d="M124.15,404.533a2.954,2.954,0,0,1-5.713,1.052,2.953,2.953,0,0,0,3.491-2.9,2.916,2.916,0,0,0-.194-1.052A2.954,2.954,0,0,1,124.15,404.533Z" transform="translate(-118.437 -401.629)" fill="#b9eacf"/>
        </g>
        <g id="Grupo_145780" data-name="Grupo 145780" transform="translate(57.701 8.223)">
          <circle id="Elipse_1215" data-name="Elipse 1215" cx="2.954" cy="2.954" r="2.954" fill="#ceefdd"/>
        </g>
        <g id="Grupo_145781" data-name="Grupo 145781" transform="translate(57.838 8.252)">
          <path id="Trazado_193759" data-name="Trazado 193759" d="M410.407,59.746a2.953,2.953,0,0,1-5.77.887,2.919,2.919,0,0,0,.409.029,2.954,2.954,0,0,0,2.817-3.841A2.953,2.953,0,0,1,410.407,59.746Z" transform="translate(-404.637 -56.821)" fill="#b9eacf"/>
        </g>
        <g id="Grupo_145782" data-name="Grupo 145782" transform="translate(0 0)">
          <path id="Trazado_193760" data-name="Trazado 193760" d="M400.24,49.124a4.042,4.042,0,1,0,4.042,4.042A4.047,4.047,0,0,0,400.24,49.124Zm0,5.907a1.865,1.865,0,1,1,1.865-1.865A1.867,1.867,0,0,1,400.24,55.031Z" transform="translate(-339.585 -41.99)"/>
          <path id="Trazado_193761" data-name="Trazado 193761" d="M372.969,10.088h-1.3a8.785,8.785,0,0,0-.631-2.362l1.126-.65a1.089,1.089,0,0,0-1.089-1.886l-1.13.652a8.934,8.934,0,0,0-1.728-1.728l.652-1.13A1.089,1.089,0,1,0,366.982,1.9l-.65,1.126a8.784,8.784,0,0,0-2.362-.631v-1.3a1.089,1.089,0,0,0-2.177,0v1.3a8.785,8.785,0,0,0-2.362.631L358.78,1.9a1.089,1.089,0,0,0-1.886,1.088l.652,1.13a8.933,8.933,0,0,0-1.728,1.728l-1.13-.652A1.089,1.089,0,1,0,353.6,7.075l1.126.65a8.784,8.784,0,0,0-.631,2.362h-1.3a1.089,1.089,0,0,0,0,2.177h1.3a8.784,8.784,0,0,0,.631,2.362l-1.126.65a1.089,1.089,0,1,0,1.089,1.886l1.13-.652a8.933,8.933,0,0,0,1.728,1.728l-.652,1.13a1.089,1.089,0,1,0,1.886,1.089l.65-1.126a8.784,8.784,0,0,0,2.362.631v1.3a1.089,1.089,0,1,0,2.177,0v-1.3a8.785,8.785,0,0,0,2.362-.631l.65,1.126a1.089,1.089,0,0,0,1.886-1.089l-.652-1.13a8.933,8.933,0,0,0,1.728-1.728l1.13.652a1.089,1.089,0,1,0,1.089-1.886l-1.126-.65a8.785,8.785,0,0,0,.631-2.362h1.3a1.089,1.089,0,0,0,0-2.177Zm-10.088,7.766a6.678,6.678,0,1,1,6.678-6.678A6.685,6.685,0,0,1,362.881,17.854Z" transform="translate(-301.554 0)"/>
          <path id="Trazado_193762" data-name="Trazado 193762" d="M113.94,393.843a1.089,1.089,0,1,0-.15,2.172,1.865,1.865,0,1,1-1.994,1.943,1.089,1.089,0,0,0-2.175.094,4.042,4.042,0,1,0,4.319-4.21Z" transform="translate(-94.627 -336.643)"/>
          <path id="Trazado_193763" data-name="Trazado 193763" d="M59.815,40.469A1.089,1.089,0,1,0,58,41.673a76.9,76.9,0,0,1,6.31,11.16l.015.033A23.4,23.4,0,0,1,32.192,83.631q.319-.386.607-.8l2.1,1.212a1.089,1.089,0,1,0,1.088-1.885l-2.1-1.21A12.518,12.518,0,0,0,35.031,76.7h2.42a1.089,1.089,0,1,0,0-2.177h-2.42a12.521,12.521,0,0,0-1.141-4.253l2.1-1.21A1.089,1.089,0,1,0,34.9,67.169l-2.1,1.212a12.719,12.719,0,0,0-3.112-3.112l1.212-2.1a1.089,1.089,0,1,0-1.886-1.088l-1.21,2.1a12.519,12.519,0,0,0-4.253-1.141v-2.42a1.089,1.089,0,0,0-2.177,0v2.42a12.577,12.577,0,0,0-1.581.238c0-.1,0-.19,0-.285a23.2,23.2,0,0,1,2.3-10.123l.015-.032C23.037,50.7,28.456,39.253,43.2,22.6c1.784,2.02,6.96,8,11.932,14.931a1.089,1.089,0,0,0,1.769-1.27C51.789,29.133,46.6,23.147,44.61,20.9a1.883,1.883,0,0,0-1.406-.632h0A1.883,1.883,0,0,0,41.8,20.9c-1.527,1.719-5.548,6.339-9.884,12.084-5.5,7.285-9.469,13.662-11.8,18.952a25.362,25.362,0,0,0-2.5,11.049c0,.322.007.643.019.963q-.258.107-.51.226l-1.21-2.1a1.089,1.089,0,0,0-1.886,1.088l1.212,2.1a12.724,12.724,0,0,0-3.112,3.112l-2.1-1.212a1.089,1.089,0,0,0-1.088,1.886l2.1,1.21A12.518,12.518,0,0,0,9.89,74.518H7.471a1.089,1.089,0,0,0,0,2.177h2.42a12.521,12.521,0,0,0,1.141,4.253l-2.1,1.21a1.089,1.089,0,1,0,1.088,1.885l2.1-1.212a12.724,12.724,0,0,0,3.112,3.112l-1.212,2.1a1.089,1.089,0,1,0,1.886,1.089l1.21-2.1a12.517,12.517,0,0,0,4.253,1.141V90.6a1.089,1.089,0,0,0,2.177,0v-2.42A12.519,12.519,0,0,0,27.8,87.036l1.21,2.1A1.089,1.089,0,0,0,30.9,88.044l-1.212-2.1q.475-.333.918-.708a25.271,25.271,0,0,0,12.6,3.346H43.4A25.6,25.6,0,0,0,66.3,51.94a79.062,79.062,0,0,0-6.481-11.47ZM22.461,86.047A10.441,10.441,0,1,1,32.9,75.607,10.452,10.452,0,0,1,22.461,86.047Z" transform="translate(-6.382 -17.328)"/>
          <path id="Trazado_193764" data-name="Trazado 193764" d="M72.927,414.128h-2.31a1.089,1.089,0,1,0,0,2.177h2.309a1.089,1.089,0,0,0,0-2.177Z" transform="translate(-60.358 -353.984)"/>
          <path id="Trazado_193765" data-name="Trazado 193765" d="M66.065,385.675a1.089,1.089,0,0,0-1.089-1.089h-2.31a1.089,1.089,0,0,0,0,2.177h2.31A1.089,1.089,0,0,0,66.065,385.675Z" transform="translate(-53.562 -328.733)"/>
          <path id="Trazado_193766" data-name="Trazado 193766" d="M123.075,355.9h2.31a1.089,1.089,0,1,0,0-2.177h-2.31a1.089,1.089,0,1,0,0,2.177Z" transform="translate(-105.197 -302.349)"/>
        </g>
      </g>
    </g>
  </g>
</svg>
