<svg xmlns="http://www.w3.org/2000/svg" width="278.441" height="166.561" viewBox="0 0 278.441 166.561">
  <g id="Grupo_145891" data-name="Grupo 145891" transform="translate(4349.5 1882.951)">
    <g id="Grupo_145859" data-name="Grupo 145859" transform="translate(-5228 -10608.39)">
      <circle id="Elipse_1246" data-name="Elipse 1246" cx="82.5" cy="82.5" r="82.5" transform="translate(927 8727)" fill="#8ee5f6"/>
      <g id="microorganismo" transform="translate(878.5 8756.618)">
        <path id="Trazado_193913" data-name="Trazado 193913" d="M389.846,146.683c0,11.6-6.692,25.392-14.948,25.392s-14.948-13.792-14.948-25.392,6.692-16.616,14.948-16.616,14.948,5.016,14.948,16.616Z" transform="translate(-285.506 -103.195)" fill="#f18385"/>
        <circle id="Elipse_1241" data-name="Elipse 1241" cx="10.755" cy="10.755" r="10.755" transform="translate(28.501 79.072)" fill="#defaff"/>
        <path id="Trazado_193914" data-name="Trazado 193914" d="M177.909,382.464a10.753,10.753,0,0,0-3.1.456,10.756,10.756,0,0,1,0,20.6,10.755,10.755,0,1,0,3.1-21.053Z" transform="translate(-138.654 -303.392)" fill="#90d774"/>
        <circle id="Elipse_1242" data-name="Elipse 1242" cx="3.309" cy="3.309" r="3.309" transform="translate(34.677 85.249)" fill="#ffcd55"/>
        <path id="Trazado_193915" data-name="Trazado 193915" d="M420.327,130.067a18.531,18.531,0,0,0-3.1.255c6.766,1.149,11.846,6.256,11.846,16.361s-5.079,21.872-11.846,24.738a7.916,7.916,0,0,0,3.1.654c8.255,0,14.948-13.792,14.948-25.392s-6.692-16.616-14.948-16.616Z" transform="translate(-330.935 -103.195)" fill="#ff6167"/>
        <path id="Trazado_193916" data-name="Trazado 193916" d="M61.549,37.773,36.139,12.361A16.787,16.787,0,1,0,12.4,36.1L37.806,61.51A16.787,16.787,0,0,0,61.549,37.773Z" transform="translate(-5.95 -5.948)" fill="#483c8c"/>
        <path id="Trazado_193917" data-name="Trazado 193917" d="M114.53,37.78,89.121,12.369a16.8,16.8,0,0,0-14.974-4.61,16.663,16.663,0,0,1,8.769,4.61l25.41,25.412a16.835,16.835,0,0,1,0,23.737,16.666,16.666,0,0,1-8.769,4.61A16.772,16.772,0,0,0,114.53,37.78Z" transform="translate(-58.812 -5.956)" fill="#8178c3"/>
        <circle id="Elipse_1243" data-name="Elipse 1243" cx="7.583" cy="7.583" r="7.583" transform="translate(9.563 13.581)" fill="#ffd86e"/>
        <path id="Trazado_193918" data-name="Trazado 193918" d="M71.005,65.8a7.552,7.552,0,0,0-3.1.664,7.582,7.582,0,0,1,0,13.838,7.583,7.583,0,1,0,3.1-14.5Z" transform="translate(-53.86 -52.221)" fill="#ffcd55"/>
        <circle id="Elipse_1244" data-name="Elipse 1244" cx="6.205" cy="6.205" r="6.205" transform="translate(34.316 31.818)" fill="#ffd86e"/>
        <path id="Trazado_193919" data-name="Trazado 193919" d="M184.025,153.982a6.174,6.174,0,0,0-3.1.832,6.2,6.2,0,0,1,0,10.745,6.2,6.2,0,1,0,3.1-11.577Z" transform="translate(-143.505 -122.164)" fill="#ffcd55"/>
        <circle id="Elipse_1245" data-name="Elipse 1245" cx="7.583" cy="7.583" r="7.583" transform="translate(81.809 35.542)" fill="#ffd86e"/>
        <path id="Trazado_193920" data-name="Trazado 193920" d="M420.327,171.987a7.552,7.552,0,0,0-3.1.664,7.582,7.582,0,0,1,0,13.838,7.583,7.583,0,1,0,3.1-14.5Z" transform="translate(-330.935 -136.445)" fill="#ffcd55"/>
        <g id="Grupo_145839" data-name="Grupo 145839" transform="translate(0 0)">
          <path id="Trazado_193921" data-name="Trazado 193921" d="M38.791,67.436a9.144,9.144,0,0,0,9.133,9.134c12.116-.5,12.113-17.768,0-18.268a9.144,9.144,0,0,0-9.133,9.134Zm15.164,0A6.032,6.032,0,1,1,47.924,61.4,6.038,6.038,0,0,1,53.955,67.436Z" transform="translate(-30.768 -46.272)"/>
          <path id="Trazado_193922" data-name="Trazado 193922" d="M397.207,164.487a9.144,9.144,0,0,0-9.133,9.134c.5,12.117,17.766,12.114,18.266,0A9.144,9.144,0,0,0,397.207,164.487Zm0,15.166a6.031,6.031,0,1,1,6.031-6.032A6.038,6.038,0,0,1,397.207,179.653Z" transform="translate(-307.813 -130.496)"/>
          <path id="Trazado_193923" data-name="Trazado 193923" d="M170.026,409.688a4.86,4.86,0,1,0-4.86,4.86A4.865,4.865,0,0,0,170.026,409.688Zm-6.617,0a1.758,1.758,0,1,1,1.758,1.758A1.76,1.76,0,0,1,163.409,409.688Z" transform="translate(-127.173 -321.13)"/>
          <path id="Trazado_193924" data-name="Trazado 193924" d="M142.9,371.485h-2.273a12.241,12.241,0,0,0-2.481-5.978l1.61-1.611a1.551,1.551,0,0,0-2.193-2.193l-1.611,1.611a12.239,12.239,0,0,0-5.978-2.481V358.56a1.551,1.551,0,0,0-3.1,0v2.273a12.24,12.24,0,0,0-5.978,2.481l-1.611-1.611a1.551,1.551,0,0,0-2.193,2.193l1.61,1.611a12.243,12.243,0,0,0-2.481,5.978h-2.273a1.551,1.551,0,0,0,0,3.1h2.274a12.353,12.353,0,0,0,2.477,5.981l-1.608,1.608a1.551,1.551,0,0,0,2.193,2.194l1.855-1.855a1.55,1.55,0,0,0,1.068-2.693,9.2,9.2,0,1,1,5.711,2.4,1.555,1.555,0,0,0-1.045,2.764v2.523a1.551,1.551,0,0,0,3.1,0v-2.273a12.24,12.24,0,0,0,5.978-2.481l1.61,1.611a1.551,1.551,0,1,0,2.193-2.193l-1.61-1.611a12.243,12.243,0,0,0,2.481-5.978H142.9a1.551,1.551,0,0,0,0-3.1Z" transform="translate(-89.158 -283.21)"/>
          <path id="Trazado_193925" data-name="Trazado 193925" d="M166.217,146.482a7.764,7.764,0,0,0-7.755,7.756c.426,10.289,15.085,10.286,15.51,0A7.764,7.764,0,0,0,166.217,146.482Zm0,12.409a4.653,4.653,0,1,1,4.653-4.653A4.658,4.658,0,0,1,166.217,158.891Z" transform="translate(-125.689 -116.215)"/>
          <path id="Trazado_193926" data-name="Trazado 193926" d="M66.795,54.813,60.1,52.1A18.367,18.367,0,0,0,56.7,30.863L41.5,15.657A1.551,1.551,0,0,0,39.3,17.851l15.2,15.206A15.235,15.235,0,0,1,32.962,54.6L7.555,29.189A15.235,15.235,0,0,1,29.1,7.645l5.09,5.091a1.551,1.551,0,0,0,2.194-2.194l-5.09-5.091c-6.793-7.088-19.14-7.088-25.933,0a18.358,18.358,0,0,0,0,25.931L30.768,56.794a18.476,18.476,0,0,0,21.442,3.294l3.483,6.756a1.551,1.551,0,1,0,2.757-1.422l-3.611-7a18.243,18.243,0,0,0,3.6-3.639l7.19,2.91a1.551,1.551,0,1,0,1.163-2.876Z" transform="translate(0 -0.136)"/>
          <path id="Trazado_193927" data-name="Trazado 193927" d="M194.427,241.717a1.554,1.554,0,0,0,1.841,1.192l7.044-1.507a1.551,1.551,0,0,0-.649-3.034l-7.044,1.507A1.551,1.551,0,0,0,194.427,241.717Z" transform="translate(-154.189 -189.07)"/>
          <path id="Trazado_193928" data-name="Trazado 193928" d="M68.206,96.518a1.551,1.551,0,0,0,1.551,1.551h3a1.551,1.551,0,0,0,0-3.1h-3A1.551,1.551,0,0,0,68.206,96.518Z" transform="translate(-54.1 -75.354)"/>
          <path id="Trazado_193929" data-name="Trazado 193929" d="M376.737,176.755a14.572,14.572,0,0,1-1.651-4.865l-.884-5.827c9.247-5.7,15.207-26.573,8.078-37.052a1.551,1.551,0,1,0-2.559,1.754c6.869,9.677-1.031,33.844-10.8,33.8-7.214,0-13.4-13.109-13.4-23.841,0-9.574,4.882-15.064,13.4-15.064a15.04,15.04,0,0,1,5.861,1.1,1.551,1.551,0,0,0,1.2-2.859c-5.85-2.533-14.5-1.463-18.73,3.072-9.706,9.6-3.4,33.139,6.4,39.1l-.883,5.819a14.573,14.573,0,0,1-1.651,4.865l-2.3,4.176a1.551,1.551,0,0,0,2.716,1.5l2.3-4.176a17.671,17.671,0,0,0,2-5.9l.758-4.994q.384.1.774.17V184.8a1.551,1.551,0,0,0,3.1,0V167.531q.4-.069.788-.173l.759,5a17.664,17.664,0,0,0,2,5.9l2.3,4.176a1.551,1.551,0,1,0,2.716-1.5Z" transform="translate(-279.529 -97.238)"/>
          <path id="Trazado_193930" data-name="Trazado 193930" d="M418.682,201.152h-3.731a1.551,1.551,0,0,0,0,3.1h3.731A1.551,1.551,0,0,0,418.682,201.152Z" transform="translate(-327.911 -159.578)"/>
        </g>
      </g>
    </g>
    <g id="paciente" transform="translate(-4229.508 -1882.951)">
      <g id="Grupo_145861" data-name="Grupo 145861" transform="translate(5.386 82.356)">
        <path id="Trazado_193961" data-name="Trazado 193961" d="M116.868,266.118h-92.9S17.4,285.907,17.4,293.256,32.37,315.3,70.418,315.3s53.015-14.7,53.015-22.045-6.564-27.138-6.564-27.138Z" transform="translate(-17.403 -266.118)" fill="#636978"/>
      </g>
      <g id="Grupo_145862" data-name="Grupo 145862" transform="translate(8.855 2.321)">
        <path id="Trazado_193962" data-name="Trazado 193962" d="M78.129,14a49.641,49.641,0,0,0-11.744,1.4c-1.325-4.608-4.853-7.9-9-7.9-5.279,0-9.559,5.347-9.559,11.943,0,.485.026.961.071,1.431-4.4-2.9-9.741-2.95-12.893.2-3.733,3.733-2.978,10.54,1.686,15.2l.05.047a49.28,49.28,0,0,0-8.129,27.186V79.064h99.031V63.514A49.515,49.515,0,0,0,78.129,14Z" transform="translate(-28.613 -7.5)" fill="#707789"/>
      </g>
      <g id="Grupo_145863" data-name="Grupo 145863" transform="translate(8.855 2.351)">
        <path id="Trazado_193963" data-name="Trazado 193963" d="M78.128,45.37C58.606,35.122,66.385,15.5,66.385,15.5c-1.325-4.608-4.853-7.9-9-7.9-5.279,0-9.559,5.347-9.559,11.943,0,.485.026.961.071,1.431-4.4-2.9-9.741-2.95-12.893.2-3.733,3.733-2.978,10.54,1.686,15.2l.05.047a49.28,49.28,0,0,0-8.129,27.186v9.36H78.128Z" transform="translate(-28.614 -7.596)" fill="#636978"/>
      </g>
      <g id="Grupo_145864" data-name="Grupo 145864" transform="translate(21.534 118.659)">
        <path id="Trazado_193964" data-name="Trazado 193964" d="M143.194,413.531a37.478,37.478,0,0,0-73.492,0,6.181,6.181,0,0,0,6.079,7.363h61.334a6.181,6.181,0,0,0,6.079-7.363Z" transform="translate(-69.582 -383.425)" fill="#f18385"/>
      </g>
      <g id="Grupo_145865" data-name="Grupo 145865" transform="translate(21.534 118.659)">
        <path id="Trazado_193965" data-name="Trazado 193965" d="M115.282,384.473A37.508,37.508,0,0,0,69.7,413.531a6.181,6.181,0,0,0,6.079,7.363H86.64A37.482,37.482,0,0,1,115.282,384.473Z" transform="translate(-69.584 -383.425)" fill="#fde9e0"/>
      </g>
      <g id="Grupo_145868" data-name="Grupo 145868" transform="translate(45.857 110.047)">
        <g id="Grupo_145866" data-name="Grupo 145866" transform="translate(0)">
          <circle id="Elipse_1247" data-name="Elipse 1247" cx="12.543" cy="12.543" r="12.543" fill="#ffe4c2"/>
        </g>
        <g id="Grupo_145867" data-name="Grupo 145867">
          <path id="Trazado_193966" data-name="Trazado 193966" d="M172.764,364.629a12.543,12.543,0,1,0-21.746,11.457A37.384,37.384,0,0,1,172.764,364.629Z" transform="translate(-148.18 -355.598)" fill="#f2d1a5"/>
        </g>
      </g>
      <g id="Grupo_145869" data-name="Grupo 145869" transform="translate(92.147 66.552)">
        <circle id="Elipse_1248" data-name="Elipse 1248" cx="11.166" cy="11.166" r="11.166" fill="#ffe4c2"/>
      </g>
      <g id="Grupo_145870" data-name="Grupo 145870" transform="translate(2.321 66.552)">
        <circle id="Elipse_1249" data-name="Elipse 1249" cx="11.166" cy="11.166" r="11.166" fill="#f2d1a5"/>
      </g>
      <g id="Grupo_145871" data-name="Grupo 145871" transform="translate(13.527 40.095)">
        <path id="Trazado_193967" data-name="Trazado 193967" d="M132.078,156.109c-26.438,0-43.495-26.55-43.495-26.55s-17.057,26.55-43.495,26.55h0a44.873,44.873,0,1,0,86.99,0Z" transform="translate(-43.71 -129.559)" fill="#fff2de"/>
      </g>
      <g id="Grupo_145872" data-name="Grupo 145872" transform="translate(13.527 63.134)">
        <path id="Trazado_193968" data-name="Trazado 193968" d="M59.184,218.588a44.809,44.809,0,0,1,2.425-14.583,41.671,41.671,0,0,1-16.521,3.511A44.9,44.9,0,0,0,96.32,262.795,44.885,44.885,0,0,1,59.184,218.588Z" transform="translate(-43.71 -204.005)" fill="#ffe4c2"/>
      </g>
      <g id="Grupo_145873" data-name="Grupo 145873" transform="translate(27.453 24.621)">
        <path id="Trazado_193969" data-name="Trazado 193969" d="M135.131,110.506H104.184a15.474,15.474,0,1,1,0-30.947h30.947a15.474,15.474,0,1,1,0,30.947Z" transform="translate(-88.71 -79.559)" fill="#bfe1ff"/>
      </g>
      <g id="Grupo_145874" data-name="Grupo 145874" transform="translate(27.453 24.621)">
        <path id="Trazado_193970" data-name="Trazado 193970" d="M107.278,95.033a15.474,15.474,0,0,1,15.474-15.474H104.184a15.474,15.474,0,1,0,0,30.947h18.568A15.473,15.473,0,0,1,107.278,95.033Z" transform="translate(-88.71 -79.559)" fill="#a3d4ff"/>
      </g>
      <g id="Grupo_145881" data-name="Grupo 145881" transform="translate(23.208 74.503)">
        <g id="Grupo_145877" data-name="Grupo 145877" transform="translate(0 4.265)">
          <g id="Grupo_145875" data-name="Grupo 145875" transform="translate(0 0.048)">
            <ellipse id="Elipse_1250" data-name="Elipse 1250" cx="9.485" cy="7.554" rx="9.485" ry="7.554" fill="#ffa1ac"/>
          </g>
          <g id="Grupo_145876" data-name="Grupo 145876" transform="translate(51.414)">
            <ellipse id="Elipse_1251" data-name="Elipse 1251" cx="9.485" cy="7.554" rx="9.485" ry="7.554" transform="translate(0)" fill="#ffa1ac"/>
          </g>
        </g>
        <g id="Grupo_145878" data-name="Grupo 145878" transform="translate(9.381 0.038)">
          <path id="Trazado_193971" data-name="Trazado 193971" d="M110.925,247.017a6.7,6.7,0,0,1-5.048-2.3,2.321,2.321,0,1,1,3.5-3.054,2.062,2.062,0,0,0,1.552.707h0a2.059,2.059,0,0,0,1.552-.71,2.321,2.321,0,0,1,3.5,3.046,6.7,6.7,0,0,1-5.051,2.306Z" transform="translate(-105.304 -240.867)"/>
        </g>
        <g id="Grupo_145879" data-name="Grupo 145879" transform="translate(49.739)">
          <path id="Trazado_193972" data-name="Trazado 193972" d="M241.335,246.894a6.7,6.7,0,0,1-5.048-2.3,2.321,2.321,0,1,1,3.5-3.054,2.062,2.062,0,0,0,1.552.707h0a2.06,2.06,0,0,0,1.552-.71,2.321,2.321,0,0,1,3.5,3.046,6.7,6.7,0,0,1-5.05,2.306Z" transform="translate(-235.714 -240.744)"/>
        </g>
        <g id="Grupo_145880" data-name="Grupo 145880" transform="translate(27.776 2.791)">
          <path id="Trazado_193973" data-name="Trazado 193973" d="M177.257,256.726a2.316,2.316,0,0,1-1.751-.8,4.432,4.432,0,0,0-6.691,0,2.321,2.321,0,1,1-3.5-3.05,9.074,9.074,0,0,1,13.69,0,2.321,2.321,0,0,1-1.748,3.846Z" transform="translate(-164.744 -249.763)"/>
        </g>
      </g>
      <g id="Grupo_145882" data-name="Grupo 145882" transform="translate(118.992 35.605)">
        <circle id="Elipse_1252" data-name="Elipse 1252" cx="18.568" cy="18.568" r="18.568" fill="#f5fafc"/>
      </g>
      <g id="Grupo_145883" data-name="Grupo 145883" transform="translate(118.992 35.605)">
        <path id="Trazado_193974" data-name="Trazado 193974" d="M396.879,146a6.189,6.189,0,0,1,6.189-6.189V115.05a18.568,18.568,0,1,0,0,37.137A6.189,6.189,0,0,1,396.879,146Z" transform="translate(-384.5 -115.05)" fill="#e1f1fa"/>
      </g>
      <g id="Grupo_145884" data-name="Grupo 145884" transform="translate(131.37 2.321)">
        <path id="Trazado_193975" data-name="Trazado 193975" d="M430.689,7.5a6.189,6.189,0,0,0-6.189,6.189V26.068h12.379V13.689A6.189,6.189,0,0,0,430.689,7.5Z" transform="translate(-424.5 -7.5)" fill="#e1f1fa"/>
      </g>
      <g id="Grupo_145885" data-name="Grupo 145885" transform="translate(131.37 14.7)">
        <path id="Trazado_193976" data-name="Trazado 193976" d="M430.689,47.5a6.189,6.189,0,0,0-6.189,6.189V86.973a6.189,6.189,0,1,0,12.379,0V53.689A6.189,6.189,0,0,0,430.689,47.5Z" transform="translate(-424.5 -47.5)" fill="#f18385"/>
      </g>
      <g id="Grupo_145886" data-name="Grupo 145886" transform="translate(131.37 36.682)">
        <path id="Trazado_193977" data-name="Trazado 193977" d="M430.689,124.721a6.189,6.189,0,0,1-6.189-6.189v17.491a6.189,6.189,0,1,0,12.379,0V118.532A6.189,6.189,0,0,1,430.689,124.721Z" transform="translate(-424.5 -118.532)" fill="#ff8870"/>
      </g>
      <g id="Grupo_145887" data-name="Grupo 145887" transform="translate(0)">
        <path id="Trazado_193978" data-name="Trazado 193978" d="M116.8,77.718a13.491,13.491,0,0,0-6.594-11.586v-7.8a51.864,51.864,0,0,0-62.1-50.816C46.068,2.946,42.061,0,37.63,0,31.72,0,26.8,5.208,25.9,12c-4.52-1.582-9.226-.812-12.292,2.254C9.336,18.527,9.646,25.91,14.08,31.4a51.622,51.622,0,0,0-7.546,26.94v7.83a13.478,13.478,0,0,0,.721,23.507c-2.028,6.922-4.191,15.35-4.191,19.821,0,6.768,8.674,15.69,25.3,20.567a39.726,39.726,0,0,0-8.985,18.251,8.5,8.5,0,0,0,8.355,10.138H89.067a8.5,8.5,0,0,0,8.355-10.138,39.724,39.724,0,0,0-8.984-18.251c16.624-4.876,25.3-13.8,25.3-20.567,0-4.468-2.161-12.893-4.191-19.821A13.5,13.5,0,0,0,116.8,77.718ZM11.176,58.335a46.99,46.99,0,0,1,7.746-25.91,2.321,2.321,0,0,0-.3-2.917l-.069-.067c-3.735-3.75-4.484-9.085-1.667-11.9,2.3-2.3,6.4-2.264,9.974.093a2.321,2.321,0,0,0,3.589-2.158c-.041-.424-.06-.819-.06-1.21,0-5.306,3.246-9.622,7.237-9.622,2.976,0,5.7,2.5,6.766,6.224a2.321,2.321,0,0,0,2.779,1.614,47.224,47.224,0,0,1,58.39,45.855v6.087a13.5,13.5,0,0,0-2.251-.192,13.685,13.685,0,0,0-1.568.091c-7.719-.031-15.338-2.449-22.716-7.2A17.794,17.794,0,0,0,73.874,22.3H42.927a17.794,17.794,0,0,0-5.155,34.825c-7.383,4.751-15.008,7.169-22.733,7.2a13.279,13.279,0,0,0-3.862.111v-6.1ZM58.4,124.911a47.184,47.184,0,0,0,10.147-1.1,10.219,10.219,0,0,1-20.294,0A47.187,47.187,0,0,0,58.4,124.911Zm0-4.642A42.584,42.584,0,0,1,16.759,68.925C26.38,68.5,35.775,64.8,44.725,57.89H72.076C81.026,64.8,90.422,68.5,100.042,68.925A42.586,42.586,0,0,1,58.4,120.269ZM73.874,53.248H42.927a13.153,13.153,0,0,1,0-26.305H73.874a13.153,13.153,0,1,1,0,26.305ZM4.642,77.718A8.858,8.858,0,0,1,12.013,69a47.405,47.405,0,0,0,0,17.441,8.858,8.858,0,0,1-7.375-8.721Zm3.065,31.776c0-3.142,1.405-9.64,3.973-18.413a13.526,13.526,0,0,0,1.491.117,47.42,47.42,0,0,0,26.491,29.831,39.845,39.845,0,0,0-7.546,5.251C13.7,121.6,7.707,113,7.707,109.494Zm84.365,42.891a3.874,3.874,0,0,1-3,1.423H27.733a3.874,3.874,0,0,1-3-1.423,3.8,3.8,0,0,1-.8-3.166,35.32,35.32,0,0,1,19.7-24.989,14.862,14.862,0,0,0,29.543,0,35.316,35.316,0,0,1,19.7,24.989A3.8,3.8,0,0,1,92.072,152.384Zm17.022-42.891c0,3.5-6,12.108-24.409,16.785a39.857,39.857,0,0,0-7.546-5.251A47.42,47.42,0,0,0,103.63,91.2a13.513,13.513,0,0,0,1.49-.117c2.568,8.774,3.973,15.271,3.973,18.414Zm-4.31-23.055a47.4,47.4,0,0,0,0-17.441,8.843,8.843,0,0,1,0,17.441Z" transform="translate(0)"/>
        <path id="Trazado_193979" data-name="Trazado 193979" d="M406.4,35.092V8.51a8.51,8.51,0,0,0-17.021,0V35.093a20.888,20.888,0,1,0,17.021,0Zm-12.379-14.2a3.868,3.868,0,1,1,7.737,0V54.173a3.868,3.868,0,1,1-7.737,0Zm3.868-16.247a3.873,3.873,0,0,1,3.868,3.868v4.8a8.478,8.478,0,0,0-7.737,0V8.51a3.873,3.873,0,0,1,3.868-3.868Zm0,65.778a16.247,16.247,0,0,1-8.51-30.087v13.84a8.51,8.51,0,0,0,17.021,0V40.332a16.248,16.248,0,0,1-8.51,30.088Z" transform="translate(-260.329)"/>
        <circle id="Elipse_1253" data-name="Elipse 1253" cx="2.321" cy="2.321" r="2.321" transform="translate(56.079 37.774)"/>
        <circle id="Elipse_1254" data-name="Elipse 1254" cx="2.321" cy="2.321" r="2.321" transform="translate(70.005 37.774)"/>
        <circle id="Elipse_1255" data-name="Elipse 1255" cx="2.321" cy="2.321" r="2.321" transform="translate(42.153 37.774)"/>
        <circle id="Elipse_1256" data-name="Elipse 1256" cx="2.321" cy="2.321" r="2.321" transform="translate(63.012 31.584)"/>
        <circle id="Elipse_1257" data-name="Elipse 1257" cx="2.321" cy="2.321" r="2.321" transform="translate(49.086 31.584)"/>
        <circle id="Elipse_1258" data-name="Elipse 1258" cx="2.321" cy="2.321" r="2.321" transform="translate(63.012 43.963)"/>
        <circle id="Elipse_1259" data-name="Elipse 1259" cx="2.321" cy="2.321" r="2.321" transform="translate(49.086 43.963)"/>
      </g>
    </g>
  </g>
</svg>
