<svg xmlns="http://www.w3.org/2000/svg" width="162.855" height="120" viewBox="0 0 162.855 120">
  <g id="Grupo_145936" data-name="Grupo 145936" transform="translate(-955.316 -175.539)">
    <path id="Trazado_193137" data-name="Trazado 193137" d="M153.239,764.3a1.136,1.136,0,0,1-1.136-1.134v-9.379a1.133,1.133,0,0,1,2.267,0v9.379a1.133,1.133,0,0,1-1.131,1.134" transform="translate(911.166 -484.612)" fill="#fff"/>
    <path id="Trazado_193138" data-name="Trazado 193138" d="M144.621,772.913h-9.376a1.134,1.134,0,1,1,0-2.268h9.376a1.134,1.134,0,1,1,0,2.268" transform="translate(924.471 -497.92)" fill="#fff"/>
    <path id="Rectángulo_44246" data-name="Rectángulo 44246" d="M0,0H42A45,45,0,0,1,87,45v75a0,0,0,0,1,0,0H45A45,45,0,0,1,0,75V0A0,0,0,0,1,0,0Z" transform="translate(997.316 175.539)" fill="#8ee5f6"/>
    <g id="Grupo_145416" data-name="Grupo 145416" transform="translate(13846.316 12119.064)">
      <path id="Trazado_192735" data-name="Trazado 192735" d="M3.64,485.1a.275.275,0,0,0-.017.038l.009-.021.007-.017" transform="translate(-12746.112 -12322.392)" fill="#483c8c"/>
      <path id="Trazado_192750" data-name="Trazado 192750" d="M44.349,426.525a.377.377,0,0,0,.182-.233.383.383,0,0,0-.034-.283.4.4,0,0,0-.231-.182.359.359,0,0,0-.281.035.377.377,0,0,0-.182.233.383.383,0,0,0,.034.283.4.4,0,0,0,.231.182.359.359,0,0,0,.281-.035" transform="translate(-12775.057 -12279.672)" fill="#483c8c"/>
      <path id="Trazado_192751" data-name="Trazado 192751" d="M52.322,418.372a.516.516,0,0,0-.336-.635.508.508,0,0,0-.633.34.515.515,0,0,0,.336.635.509.509,0,0,0,.633-.34" transform="translate(-12780.49 -12273.833)" fill="#483c8c"/>
      <path id="Trazado_193053" data-name="Trazado 193053" d="M449.247,281.035c-1.8,5.185-6.133,6.042-6.263,8.875,0,0-1.131-2.049-.122-3.45,1.438-1.973,3.39-2.172,4.919-5.779a11.438,11.438,0,0,0,.614-7.092,8.655,8.655,0,0,1,.852,7.446" transform="translate(-13281.393 -12178.403)" fill="#483c8c"/>
      <path id="Trazado_193054" data-name="Trazado 193054" d="M361.156,251.684a.63.63,0,0,1-.63-.618c-.006-.307-.034-.683-.067-1.119a17.6,17.6,0,0,1,.386-6.259c.858-3.019,7.5-10.259,7.781-10.565a.63.63,0,1,1,.927.853c-1.866,2.028-6.852,7.789-7.5,10.057a16.286,16.286,0,0,0-.342,5.819c.034.454.064.847.07,1.189a.63.63,0,0,1-.618.642h-.012" transform="translate(-13208.956 -12142.518)" fill="#483c8c"/>
      <path id="Trazado_193055" data-name="Trazado 193055" d="M284.105,126.731a3.015,3.015,0,0,1-2.828-2.027,16.168,16.168,0,0,1-.726-2.223c-.47-1.683-1.055-3.778-2.182-4.528-1.515-1.007-4.054-.03-6.994,1.1-5.113,1.966-12.115,4.659-18.318-2.062a32.8,32.8,0,0,0-12.509-8.13c-6.268-2.409-12.855-.231-12.921-.209a.63.63,0,0,1-.4-1.194c.286-.1,7.088-2.344,13.777.226a34.04,34.04,0,0,1,12.983,8.451c5.622,6.092,11.634,3.78,16.939,1.74,3.267-1.256,6.089-2.342,8.145-.974,1.517,1.01,2.145,3.257,2.7,5.239a15.562,15.562,0,0,0,.658,2.037,1.841,1.841,0,0,0,1.72,1.291.63.63,0,1,1,.024,1.26h-.062" transform="translate(-13091.115 -12030.935)" fill="#483c8c"/>
      <path id="Trazado_193056" data-name="Trazado 193056" d="M193.545,382.586a.629.629,0,0,1-.427-.167,80.278,80.278,0,0,1-10.187-11.135c-5.194-6.967-6.685-15.3-7.021-21.071a.63.63,0,1,1,1.258-.074c.326,5.6,1.766,13.674,6.773,20.391a79.063,79.063,0,0,0,10.032,10.963.63.63,0,0,1-.427,1.093" transform="translate(-13046.214 -12245.424)" fill="#483c8c"/>
      <path id="Trazado_193057" data-name="Trazado 193057" d="M194.62,150.485a.631.631,0,0,1-.6-.815c2.642-8.612-6.206-19.206-15.573-30.421-6.9-8.263-14.037-16.807-17.378-25.406a113,113,0,0,1-3.577-11.73c-2.693-10.122-5.477-20.587-14.717-26.585a.63.63,0,0,1,.686-1.057c9.646,6.261,12.494,16.966,15.248,27.317a112.031,112.031,0,0,0,3.533,11.6c3.266,8.406,10.335,16.87,17.171,25.055,9.593,11.486,18.654,22.334,15.811,31.6a.631.631,0,0,1-.6.445" transform="translate(-13016.724 -11984.974)" fill="#483c8c"/>
      <path id="Trazado_193058" data-name="Trazado 193058" d="M219.337,55.935a.631.631,0,0,1-.615-.494,20.726,20.726,0,0,0-10.155-13.713c-7.391-4.291-18.021-5.245-27.081-2.428a.63.63,0,1,1-.374-1.2c9.381-2.915,20.406-1.918,28.088,2.542a21.956,21.956,0,0,1,10.753,14.531.63.63,0,0,1-.479.751.641.641,0,0,1-.137.015" transform="translate(-13050.415 -11969.155)" fill="#483c8c"/>
      <path id="Trazado_193059" data-name="Trazado 193059" d="M804.661,758.7a.628.628,0,0,1-.256-.054,26.673,26.673,0,0,1-3.981-2.128.63.63,0,1,1,.7-1.048,25.391,25.391,0,0,0,3.793,2.024.63.63,0,0,1-.256,1.206" transform="translate(-13597.013 -12603.5)" fill="#483c8c"/>
      <path id="Trazado_193060" data-name="Trazado 193060" d="M506.17,397.913a.63.63,0,0,1-.187-1.232c6.958-2.163,11.9-8.1,11.952-8.157a.63.63,0,0,1,.974.8c-.21.256-5.224,6.283-12.551,8.561a.633.633,0,0,1-.187.028" transform="translate(-13337.066 -12279.614)" fill="#483c8c"/>
      <path id="Trazado_193061" data-name="Trazado 193061" d="M479.78,437.958l-4.407,3.931,5.608,1.852Z" transform="translate(-13310.448 -12323.436)" fill="#483c8c"/>
      <path id="Trazado_193062" data-name="Trazado 193062" d="M656.581,446.947a.63.63,0,0,1-.411-1.108c5.529-4.747,7.712-12.157,7.733-12.232a.63.63,0,0,1,1.211.348c-.091.318-2.3,7.84-8.123,12.839a.627.627,0,0,1-.41.152" transform="translate(-13469.783 -12319.194)" fill="#483c8c"/>
      <path id="Trazado_193063" data-name="Trazado 193063" d="M633.833,519.744l-2.485,5.357,5.882-.526Z" transform="translate(-13448.074 -12395.6)" fill="#483c8c"/>
      <path id="Trazado_193064" data-name="Trazado 193064" d="M691.665,3.174a.253.253,0,0,0-.04-.025.249.249,0,0,0-.334.111C689.915,6,674.55,24.267,669.072,26.277a61.622,61.622,0,0,1-6.9,1.794c-5.756,1.289-32.845,18.225-32.983,18.3-.922.521-1.408,1.119-1.445,1.775a2.084,2.084,0,0,0,.85,1.6c.275.329,2.656,2.746,10.6-.823a49.3,49.3,0,0,0,4.7-2.535,40.056,40.056,0,0,1,5.665-2.936c1.512-.587,3.731-.475,4.863.889,1.153,1.389.524,2.835-.143,4.366-.079.182-.159.365-.235.547-1.888,4.51-5.357,8.75-8.418,12.49q-.474.58-.939,1.149c-.648.739-16.012,18.273-17.092,19.85a2.841,2.841,0,0,0,.009,3.315,1.234,1.234,0,0,0,1.622.194c3.124-1.787,9.929-8.267,14-12.138,1.187-1.131,2.125-2.023,2.692-2.535,2.156-1.945,14.215-13.892,14.337-14.013a.249.249,0,0,0-.351-.354c-.121.12-12.172,12.06-14.32,14-.572.516-1.512,1.411-2.7,2.545-4.05,3.856-10.828,10.31-13.9,12.067a.742.742,0,0,1-1.009-.1,2.352,2.352,0,0,1,.036-2.7c1.063-1.553,16.9-19.628,17.061-19.81.315-.387.628-.769.944-1.155,3.083-3.767,6.576-8.036,8.492-12.613.075-.18.153-.36.232-.54.7-1.6,1.419-3.259.069-4.883-1.3-1.559-3.71-1.7-5.427-1.035a40.426,40.426,0,0,0-5.737,2.971,49,49,0,0,1-4.648,2.51c-7.893,3.545-10,.973-10.023.947a.241.241,0,0,0-.052-.051,1.648,1.648,0,0,1-.673-1.192c.028-.475.429-.935,1.193-1.367.139-.079,27.164-16.979,32.847-18.251a61.89,61.89,0,0,0,6.962-1.812c3.212-1.179,9.375-7.572,12.763-11.278,4.465-4.884,8.92-10.372,9.729-11.984a.25.25,0,0,0-.071-.309" transform="translate(-13444.298 -11939.755)" fill="#483c8c"/>
      <path id="Trazado_193065" data-name="Trazado 193065" d="M625.7,84.083a1.548,1.548,0,0,1-1.153-.528,3.182,3.182,0,0,1-.042-3.772c1.1-1.611,16.776-19.493,17.114-19.88q.457-.561.925-1.132l.01-.012c3.045-3.721,6.5-7.938,8.364-12.4.077-.183.156-.366.236-.55.648-1.488,1.207-2.772.2-3.986a4.04,4.04,0,0,0-4.447-.781,39.792,39.792,0,0,0-5.612,2.91,49.615,49.615,0,0,1-4.732,2.553c-7.9,3.549-10.507,1.323-11.007.754a2.4,2.4,0,0,1-.961-1.886,2.694,2.694,0,0,1,1.631-2.074l.239-.148c6.414-3.979,27.737-17.05,32.845-18.194a61.442,61.442,0,0,0,6.853-1.78c2.256-.828,6.813-4.887,12.5-11.137,4.646-5.1,8.855-10.386,9.514-11.7A.618.618,0,0,1,689,.065a.636.636,0,0,1,.1.062.618.618,0,0,1,.176.766c-.821,1.637-5.3,7.163-9.786,12.068-3.411,3.731-9.623,10.17-12.908,11.375a62.008,62.008,0,0,1-7,1.825c-2.189.49-8.121,3.535-17.162,8.807-4.593,2.678-10.033,5.959-15.318,9.239l-.272.168c-.639.361-.987.731-1.007,1.068a1.24,1.24,0,0,0,.526.875.607.607,0,0,1,.124.122c.014.016,2.086,2.309,9.582-1.057a48.674,48.674,0,0,0,4.612-2.491,40.7,40.7,0,0,1,5.791-3c1.838-.713,4.435-.55,5.842,1.142,1.494,1.8.693,3.64-.015,5.265-.08.185-.157.36-.23.535-1.937,4.627-5.449,8.918-8.547,12.7-.316.386-.629.768-.943,1.155l-.009.01c-4.138,4.719-16.148,18.481-17.034,19.775a1.988,1.988,0,0,0-.069,2.239c.1.11.237.213.556.03,3.033-1.735,9.791-8.169,13.828-12.014,1.191-1.135,2.133-2.031,2.709-2.551,2.133-1.924,14.186-13.865,14.307-13.985a.612.612,0,0,1,.434-.179h0a.617.617,0,0,1,.431,1.055l-.01.01c-1.249,1.237-12.264,12.142-14.339,14.014-.563.508-1.5,1.4-2.678,2.522-4.085,3.89-10.91,10.389-14.073,12.2a1.857,1.857,0,0,1-.922.264" transform="translate(-13441.511 -11937)" fill="#483c8c"/>
      <path id="Trazado_193066" data-name="Trazado 193066" d="M791.412,463.757a.249.249,0,0,0-.337.031c-3.03,3.376-11.042,12.24-11.716,12.712-.824.577-3.314,1.922-3.339,1.935a.249.249,0,0,0,.237.439c.1-.056,2.541-1.372,3.388-1.966s11.355-12.29,11.8-12.788a.249.249,0,0,0-.019-.352l-.015-.012" transform="translate(-13575.61 -12346.154)" fill="#483c8c"/>
      <path id="Trazado_193067" data-name="Trazado 193067" d="M773.38,476.523a.62.62,0,0,1-.177-.026.617.617,0,0,1-.116-1.134c.1-.056,2.513-1.36,3.3-1.913.543-.38,7.142-7.63,11.654-12.657a.62.62,0,0,1,.834-.078h0l.039.033a.617.617,0,0,1,.043.867c-1.831,2.039-11.007,12.243-11.864,12.843s-3.32,1.932-3.424,1.988a.616.616,0,0,1-.292.074" transform="translate(-13572.853 -12343.405)" fill="#483c8c"/>
      <path id="Trazado_193068" data-name="Trazado 193068" d="M613.884,607.441a.249.249,0,0,0-.191-.048c-.415.067-10.166,1.686-10.552,6.083a.909.909,0,0,0,.318.8c1.063.91,4.029-.019,4.437-.121.133-.033.855-.1.822-.234a.249.249,0,0,0-.3-.182c-1.038.259-3.9.789-4.633.158a.409.409,0,0,1-.146-.38c.352-4.013,10.037-5.619,10.134-5.634a.249.249,0,0,0,.112-.444" transform="translate(-13423.182 -12472.935)" fill="#483c8c"/>
      <path id="Trazado_193069" data-name="Trazado 193069" d="M602.17,612.285a2.561,2.561,0,0,1-1.7-.483,1.279,1.279,0,0,1-.445-1.114c.174-1.984,2.025-3.658,5.5-4.977a30.207,30.207,0,0,1,5.359-1.437.617.617,0,0,1,.2,1.218c-2.641.427-9.556,2.212-9.827,5.3a.143.143,0,0,0,0,.051.086.086,0,0,0,.017.017c.453.388,2.592.192,4.305-.235a.616.616,0,0,1,.747.45.408.408,0,0,1-.057.324c-.131.2-.385.256-.893.333-.062.009-.113.017-.141.023l-.148.04a11.409,11.409,0,0,1-2.91.487m8.735-7.308h0Z" transform="translate(-13420.427 -12470.18)" fill="#483c8c"/>
      <path id="Trazado_193070" data-name="Trazado 193070" d="M731.572,508.853a.249.249,0,0,0-.337.031c-3.856,4.294-11.471,12.61-12.69,13.343-1.524.916-13.759,3.924-13.883,3.955a.249.249,0,0,0,.119.484c.507-.124,12.432-3.057,14.021-4.012s12.347-12.928,12.8-13.437a.249.249,0,0,0-.019-.352l-.015-.013" transform="translate(-13512.597 -12385.945)" fill="#483c8c"/>
      <path id="Trazado_193071" data-name="Trazado 193071" d="M701.963,524.292a.617.617,0,0,1-.146-1.216c3.416-.838,12.551-3.174,13.781-3.913,1.1-.659,8.14-8.3,12.606-13.273a.62.62,0,0,1,.833-.078.513.513,0,0,1,.043.036.616.616,0,0,1,.041.865c-1.15,1.281-11.281,12.54-12.888,13.506s-12.846,3.741-14.122,4.054a.621.621,0,0,1-.148.018" transform="translate(-13509.839 -12383.196)" fill="#483c8c"/>
      <path id="Trazado_193072" data-name="Trazado 193072" d="M737.142,551.1a.249.249,0,0,0-.341.036c-.27.316-25.169,27.75-25.543,27.948a1.09,1.09,0,0,1-1.1-.2c-.918-.674-1.477-2.387-.036-5.023,1.732-3.168,9.332-12.82,9.409-12.917a.249.249,0,0,0-.041-.35c-.1-.082-.7.482-.781.591-.314.4-7.272,9.233-9.024,12.438-1.574,2.88-.919,4.823.136,5.632l.044.033a1.438,1.438,0,0,0,1.916.017c.872-.915,24.982-27.363,25.288-27.716l.112-.13a.249.249,0,0,0-.027-.351l-.011-.009" transform="translate(-13516.366 -12423.221)" fill="#483c8c"/>
      <path id="Trazado_193073" data-name="Trazado 193073" d="M708.194,577.273a2.172,2.172,0,0,1-1.269-.444l-.05-.038c-1.16-.89-1.918-3.021-.235-6.1,1.729-3.163,8.313-11.544,9.058-12.489.005-.007.616-.693.991-.736a.41.41,0,0,1,.308.086.617.617,0,0,1,.1.864c-.077.1-7.666,9.74-9.375,12.866-1.324,2.423-.865,3.965-.069,4.55a.8.8,0,0,0,.684.181c1.138-1.054,25.263-27.642,25.464-27.875a.616.616,0,0,1,.843-.088h0l.021.017a.619.619,0,0,1,.072.873l-.114.132c-.113.131-24.271,26.649-25.3,27.729a1.532,1.532,0,0,1-1.13.47" transform="translate(-13513.645 -12420.464)" fill="#483c8c"/>
      <path id="Trazado_193074" data-name="Trazado 193074" d="M938.8,113.4a.249.249,0,0,0-.342.037c-.195.232-19.53,23.2-22.13,26.817S905.55,162.2,902.711,166.244c-.82,1.168-1.467,2.091-1.8,2.651-.835,1.407-2.694,5.484-4.492,9.427-1.86,4.08-3.784,8.3-4.289,8.915a.723.723,0,0,1-.82.3c-.682-.255-1.339-1.613-1.279-3.716.1-3.366,5.366-17.079,5.419-17.217a.249.249,0,0,0-.465-.179c-.219.567-5.353,13.932-5.452,17.382-.071,2.46.754,3.88,1.6,4.2a1.194,1.194,0,0,0,1.38-.453c.546-.666,2.4-4.726,4.357-9.023,1.792-3.931,3.646-8,4.467-9.38.322-.543.965-1.459,1.778-2.619,2.859-4.076,11.122-22.524,13.612-25.986,2.589-3.6,21.912-26.555,22.107-26.787a.249.249,0,0,0-.03-.351l-.009-.007" transform="translate(-13675.883 -12037.013)" fill="#483c8c"/>
      <path id="Trazado_193075" data-name="Trazado 193075" d="M888.77,185.685a1.479,1.479,0,0,1-.521-.1c-.9-.337-1.922-1.731-1.841-4.552.1-3.511,5.257-16.934,5.477-17.5a.617.617,0,1,1,1.151.444c-.053.137-5.3,13.79-5.395,17.1-.058,2.029.573,3.187,1.04,3.362.053.02.192.072.407-.191.475-.579,2.474-4.965,4.239-8.834l.007-.015c1.8-3.945,3.66-8.025,4.5-9.447.34-.573.99-1.5,1.814-2.674,1.414-2.015,4.215-7.714,6.924-13.225,2.767-5.628,5.38-10.944,6.693-12.77,2.6-3.621,21.953-26.607,22.148-26.839a.615.615,0,0,1,.847-.092h0l.014.011a.617.617,0,0,1,.081.874c-.195.231-19.5,23.16-22.09,26.765-1.2,1.671-3.878,7.109-6.467,12.368-2.786,5.66-5.667,11.512-7.142,13.615-.811,1.156-1.448,2.065-1.763,2.6-.811,1.367-2.659,5.421-4.447,9.341a95.14,95.14,0,0,1-4.409,9.107,1.652,1.652,0,0,1-1.272.661" transform="translate(-13673.125 -12034.253)" fill="#483c8c"/>
      <path id="Trazado_193076" data-name="Trazado 193076" d="M79,156.99a.628.628,0,0,1-.628-.625v-4.192a.629.629,0,0,1,1.258,0v4.192a.628.628,0,0,1-.63.625" transform="translate(-12960.147 -12070.716)" fill="#483c8c"/>
      <path id="Trazado_193077" data-name="Trazado 193077" d="M65.378,170.615H61.187a.629.629,0,0,1,0-1.258h4.191a.629.629,0,0,1,0,1.258" transform="translate(-12944.435 -12086.434)" fill="#483c8c"/>
      <path id="Trazado_193078" data-name="Trazado 193078" d="M1.97,76.411A1.969,1.969,0,1,1,3.94,74.44a1.971,1.971,0,0,1-1.969,1.97m0-2.682a.712.712,0,1,0,.713.712.712.712,0,0,0-.713-.712" transform="translate(-12891 -12000.946)" fill="#483c8c"/>
      <path id="Trazado_193079" data-name="Trazado 193079" d="M1066.031,868.226a.627.627,0,0,1-.627-.628v-4.192a.628.628,0,1,1,1.256,0V867.6a.629.629,0,0,1-.629.628" transform="translate(-13831.067 -12698.277)" fill="#483c8c"/>
      <path id="Trazado_193080" data-name="Trazado 193080" d="M1052.4,881.853h-4.191a.628.628,0,1,1,0-1.257h4.191a.628.628,0,0,1,0,1.257" transform="translate(-13815.337 -12714)" fill="#483c8c"/>
      <path id="Trazado_193081" data-name="Trazado 193081" d="M1050.341,664.771a.629.629,0,0,1-.629-.628v-5.2a.628.628,0,0,1,1.256,0v5.2a.628.628,0,0,1-.627.628" transform="translate(-13817.221 -12517.87)" fill="#483c8c"/>
      <path id="Trazado_193082" data-name="Trazado 193082" d="M1033.444,681.663h-5.2a.628.628,0,1,1,0-1.257h5.2a.628.628,0,1,1,0,1.257" transform="translate(-13797.727 -12537.361)" fill="#483c8c"/>
      <path id="Trazado_193083" data-name="Trazado 193083" d="M983.37,787.777a.629.629,0,0,1-.628-.628v-3.519a.628.628,0,1,1,1.256,0v3.519a.628.628,0,0,1-.628.628" transform="translate(-13758.129 -12627.887)" fill="#483c8c"/>
      <path id="Trazado_193084" data-name="Trazado 193084" d="M971.935,799.212h-3.521a.628.628,0,0,1,0-1.257h3.521a.628.628,0,0,1,0,1.257" transform="translate(-13744.934 -12641.081)" fill="#483c8c"/>
    </g>
  </g>
</svg>
