<svg xmlns="http://www.w3.org/2000/svg" width="134.324" height="150.948" viewBox="0 0 134.324 150.948">
  <g id="Grupo_145938" data-name="Grupo 145938" transform="translate(-1326.009 -371.539)">
    <path id="Rectángulo_44256" data-name="Rectángulo 44256" d="M0,0H42.476a45,45,0,0,1,45,45v76.757a0,0,0,0,1,0,0H45a45,45,0,0,1-45-45V0A0,0,0,0,1,0,0Z" transform="translate(1438.63 505.61) rotate(180)" fill="#fff"/>
    <g id="Grupo_145417" data-name="Grupo 145417" transform="translate(14574.01 12868.814)">
      <path id="Trazado_193085" data-name="Trazado 193085" d="M399.828,69.281a.675.675,0,0,1-.676-.672V64.1a.676.676,0,0,1,1.353,0v4.509a.675.675,0,0,1-.677.672" transform="translate(-13584.189 -12550.694)" fill="#483c8c"/>
      <path id="Trazado_193086" data-name="Trazado 193086" d="M390.053,79.065h-4.508a.676.676,0,0,1,0-1.353h4.508a.676.676,0,0,1,0,1.353" transform="translate(-13572.159 -12562.73)" fill="#483c8c"/>
      <path id="Trazado_193087" data-name="Trazado 193087" d="M338.414,4.236a2.118,2.118,0,1,1,2.118-2.119,2.12,2.12,0,0,1-2.118,2.119m0-2.884a.766.766,0,1,0,.766.765.766.766,0,0,0-.766-.765" transform="translate(-13531.247 -12497.275)" fill="#483c8c"/>
      <path id="Trazado_193088" data-name="Trazado 193088" d="M165.569,925.138a.685.685,0,0,1-.685-.686v-4.579a.686.686,0,1,1,1.372,0v4.579a.687.687,0,0,1-.687.686" transform="translate(-13386.876 -13271.466)" fill="#483c8c"/>
      <path id="Trazado_193089" data-name="Trazado 193089" d="M155.627,935.074h-4.577a.686.686,0,1,1,0-1.372h4.577a.686.686,0,0,1,0,1.372" transform="translate(-13374.644 -13283.69)" fill="#483c8c"/>
      <path id="Trazado_193090" data-name="Trazado 193090" d="M152.79,759.7a.688.688,0,0,1-.687-.686v-5.677a.686.686,0,0,1,1.372,0v5.677a.686.686,0,0,1-.685.686" transform="translate(-13376.111 -13131.2)" fill="#483c8c"/>
      <path id="Trazado_193091" data-name="Trazado 193091" d="M140.471,772.017H134.8a.686.686,0,1,1,0-1.372h5.675a.686.686,0,1,1,0,1.372" transform="translate(-13360.955 -13146.357)" fill="#483c8c"/>
      <path id="Trazado_193092" data-name="Trazado 193092" d="M98.24,859.424a.687.687,0,0,1-.686-.686v-3.843a.686.686,0,1,1,1.372,0v3.843a.686.686,0,0,1-.686.686" transform="translate(-13330.165 -13216.739)" fill="#483c8c"/>
      <path id="Trazado_193093" data-name="Trazado 193093" d="M89.9,867.762H86.058a.686.686,0,0,1,0-1.373H89.9a.686.686,0,0,1,0,1.373" transform="translate(-13319.906 -13226.997)" fill="#483c8c"/>
      <path id="Trazado_193094" data-name="Trazado 193094" d="M487.73,379.373a38.3,38.3,0,0,1-10.235-1.947c-.587-.168-1.16-.333-1.715-.487-.612-.17-1.219-.355-1.806-.535a17.809,17.809,0,0,0-6.064-1.13c-.788.1-1.6.252-2.385.4a20.752,20.752,0,0,1-5.11.524A8.577,8.577,0,0,1,455,373.666a6.42,6.42,0,0,1-1.63-3.568c-.113-.818-.152-1.637-.189-2.428-.029-.606-.058-1.234-.122-1.837-.128-1.218-.895-1.946-2.265-2.865-1.611-1.08-3.349-2.048-5.029-2.983l-.417-.232a53.685,53.685,0,0,1-5.246-3.44,99.908,99.908,0,0,1-9.675-7.989.776.776,0,1,1,1.061-1.134,98.33,98.33,0,0,0,9.524,7.864A51,51,0,0,0,446.1,358.4l.417.232c1.708.951,3.474,1.934,5.138,3.05,1.375.922,2.734,1.989,2.944,3.993.068.648.1,1.3.128,1.926.038.792.073,1.54.176,2.289a4.9,4.9,0,0,0,1.19,2.682,6.941,6.941,0,0,0,4.434,2.081,19.37,19.37,0,0,0,4.711-.5c.817-.153,1.662-.312,2.505-.417l.053,0a19.167,19.167,0,0,1,6.631,1.195c.577.177,1.174.359,1.766.523.559.154,1.138.321,1.73.491,5.364,1.541,12.039,3.459,16.542-.344a2.545,2.545,0,0,0,.612-.678c-.074-.114-.459-.556-2.21-1.166-1.3-.453-2.814-.815-3.816-1.055-.505-.121-.87-.208-1.075-.275a44.666,44.666,0,0,1-10.014-5.231c-.625-.4-1.246-.8-1.867-1.208l-1.04-.676c-.678-.439-1.388-.885-2.111-1.326-.848-.518-1.753-.994-2.628-1.455-1.125-.592-2.288-1.2-3.387-1.93a11.743,11.743,0,0,1-2.031-1.644c-.444-.457-.86-.937-1.263-1.4-.166-.191-.332-.383-.5-.572-2.459-2.782-4.885-5.724-6.965-8.263-5.588-6.821-10.836-13.549-15.911-20.055-2.34-3-4.76-6.1-7.194-9.189a.777.777,0,0,1,1.22-.961c2.437,3.09,4.857,6.194,7.2,9.2,5.07,6.5,10.311,13.22,15.888,20.026,2.071,2.528,4.486,5.457,6.927,8.219.171.193.34.389.509.584.407.469.79.912,1.2,1.337a10.27,10.27,0,0,0,1.773,1.43c1.034.683,2.163,1.277,3.255,1.852.9.472,1.824.96,2.714,1.5.734.448,1.456.9,2.145,1.348l1.043.678c.617.4,1.235.8,1.855,1.2a43.454,43.454,0,0,0,9.657,5.063c.146.048.522.137.956.241,3.921.938,6.474,1.783,7.087,3.1a1.467,1.467,0,0,1-.02,1.3,3.911,3.911,0,0,1-1.013,1.2,11.556,11.556,0,0,1-7.738,2.6m7.365-4.433h0Z" transform="translate(-13610.319 -12765.288)" fill="#483c8c"/>
      <path id="Trazado_193095" data-name="Trazado 193095" d="M71.517,212.266a8.448,8.448,0,0,1-4.284-1.345,19.716,19.716,0,0,1-4.771-4.236A75.311,75.311,0,0,1,55.7,196.248c-.507-.887-1.031-1.8-1.554-2.7-1.09-1.861-2.806-2.985-4.622-4.175-.657-.43-1.336-.875-2-1.363a9.758,9.758,0,0,1-4.154-6.482,8.21,8.21,0,0,1,1.979-6.286c.262-.322.539-.633.807-.934,1.337-1.5,2.138-2.5,1.764-4.041-.406-1.678-.853-3.374-1.284-5.014-.929-3.527-1.889-7.175-2.512-10.877a98.568,98.568,0,0,1-1.4-17,90.761,90.761,0,0,1,1.064-12.876c.063-.415.207-.988.39-1.715.488-1.94,1.4-5.551.556-6.873a.935.935,0,0,0-.66-.44,5.806,5.806,0,0,0-2.652.465c-.389.128-.791.259-1.177.354-8.394,2.064-18.431,1.89-29.833-.518a.777.777,0,1,1,.321-1.52c11.172,2.359,20.976,2.537,29.142.529.328-.081.685-.2,1.063-.322a6.969,6.969,0,0,1,3.433-.514,2.5,2.5,0,0,1,1.675,1.132c1.107,1.742.461,4.818-.361,8.085-.166.659-.309,1.227-.36,1.568A89.16,89.16,0,0,0,44.283,137.4a97.012,97.012,0,0,0,1.376,16.727c.611,3.633,1.562,7.245,2.482,10.739.434,1.647.882,3.35,1.292,5.043.584,2.412-.849,4.021-2.114,5.44-.257.288-.522.586-.763.882a6.7,6.7,0,0,0-1.642,5.11,8.234,8.234,0,0,0,3.536,5.427c.625.462,1.286.895,1.925,1.313a14.706,14.706,0,0,1,5.111,4.689c.527.9,1.053,1.82,1.562,2.71A74.13,74.13,0,0,0,63.664,205.7c2.444,2.99,6.376,6.014,9.417,4.694a.781.781,0,0,0,.236-.142c-.016-.276-.663-.965-.878-1.195l-.147-.157a20.942,20.942,0,0,1-4.727-8.542l-.188-.73c-.83-3.22-1.688-6.55-2.474-9.843a61.229,61.229,0,0,0-3.022-10.056,10.522,10.522,0,0,1-.4-5.078l.033-.389c.124-1.5.214-3.042.3-4.529l.065-1.1c.23-3.839.468-7.808.75-11.61.514-6.917,1.234-13.923,1.93-20.7.66-6.417,1.342-13.054,1.846-19.594.274-3.554.511-7.174.706-10.759.257-4.734-1.159-6.567-2.42-7.635C62.462,96.449,52,92.014,39,88.138,30.04,85.47,13.173,81.1.822,81.83A.777.777,0,0,1,.73,80.28c12.59-.741,29.656,3.673,38.709,6.37,11.984,3.57,23.516,8.183,26.255,10.5,2.924,2.475,3.122,6.058,2.968,8.9-.2,3.6-.433,7.229-.708,10.795-.506,6.56-1.189,13.206-1.849,19.633-.7,6.764-1.414,13.759-1.926,20.654-.282,3.791-.519,7.755-.748,11.588l-.065,1.1c-.088,1.5-.179,3.042-.3,4.565l-.033.394a9.245,9.245,0,0,0,.282,4.332,63.37,63.37,0,0,1,3.105,10.309c.782,3.279,1.639,6.6,2.467,9.816l.188.73a19.319,19.319,0,0,0,4.364,7.876l.139.149c.622.664,1.475,1.574,1.266,2.583a1.754,1.754,0,0,1-1.139,1.241,5.443,5.443,0,0,1-2.183.445" transform="translate(-13248 -12564.822)" fill="#483c8c"/>
    </g>
  </g>
</svg>
