<svg xmlns="http://www.w3.org/2000/svg" width="133" height="133" viewBox="0 0 133 133">
  <g id="Grupo_145980" data-name="Grupo 145980" transform="translate(-471 -1142)">
    <g id="Grupo_145979" data-name="Grupo 145979">
      <rect id="Rectángulo_44474" data-name="Rectángulo 44474" width="133" height="133" rx="66.5" transform="translate(471 1142)" fill="#483c8c"/>
    </g>
    <g id="Grupo_145915" data-name="Grupo 145915" transform="translate(489.921 1174.929)">
      <path id="Trazado_194029" data-name="Trazado 194029" d="M87.782,11.708v-.427A3.281,3.281,0,0,0,84.5,8H64.813a3.281,3.281,0,0,0-3.281,3.281v.427A42.644,42.644,0,0,0,32,52.3h85.314A42.644,42.644,0,0,0,87.782,11.708Z" transform="translate(-27.078 -8)" fill="#f18385"/>
      <path id="Trazado_194030" data-name="Trazado 194030" d="M99.877,224h-88.6A3.281,3.281,0,0,0,8,227.281v3.281a3.281,3.281,0,0,0,3.281,3.281h88.6a3.281,3.281,0,0,0,3.281-3.281v-3.281A3.281,3.281,0,0,0,99.877,224Z" transform="translate(-8 -179.702)" fill="#fde9e0"/>
    </g>
    <path id="Trazado_194036" data-name="Trazado 194036" d="M93.517,44.3h-.066A44.088,44.088,0,0,0,63.91,4.177,4.922,4.922,0,0,0,59.064,0H39.376a4.922,4.922,0,0,0-4.847,4.177A44.088,44.088,0,0,0,4.988,44.3H4.922A4.922,4.922,0,0,0,0,49.22V52.5a4.922,4.922,0,0,0,4.922,4.922h88.6A4.922,4.922,0,0,0,98.439,52.5V49.22A4.922,4.922,0,0,0,93.517,44.3ZM34.454,7.7v28.4a1.641,1.641,0,1,0,3.281,0V4.922a1.641,1.641,0,0,1,1.641-1.641h8.2V39.376a1.641,1.641,0,0,0,3.281,0V3.281h8.2A1.641,1.641,0,0,1,60.7,4.922V36.095a1.641,1.641,0,1,0,3.281,0V7.7A40.82,40.82,0,0,1,90.171,44.3H8.269A40.82,40.82,0,0,1,34.454,7.7Zm60.7,44.8a1.641,1.641,0,0,1-1.641,1.641H4.922A1.641,1.641,0,0,1,3.281,52.5V49.22a1.641,1.641,0,0,1,1.641-1.641h88.6a1.641,1.641,0,0,1,1.641,1.641Z" transform="translate(488.28 1173.288)" fill="#231f20"/>
  </g>
</svg>
