<svg xmlns="http://www.w3.org/2000/svg" width="113" height="113" viewBox="0 0 113 113">
  <g id="Grupo_145937" data-name="Grupo 145937" transform="translate(-535 -911)">
    <rect id="Rectángulo_44282" data-name="Rectángulo 44282" width="113" height="113" rx="56.5" transform="translate(535 911)" fill="#8ee5f6"/>
    <g id="bacterias" transform="translate(558 934.839)">
      <path id="Trazado_193172" data-name="Trazado 193172" d="M194.024,41.087a12.9,12.9,0,0,1-5.5,14.617,35.173,35.173,0,0,0-11.731,12.082A12.933,12.933,0,0,1,154.471,54.71a60.96,60.96,0,0,1,20.358-20.959A12.922,12.922,0,0,1,194.024,41.087Zm0,0" transform="translate(-133.277 -27.745)" fill="#f18385"/>
      <path id="Trazado_193173" data-name="Trazado 193173" d="M216.492,71.813a7.684,7.684,0,0,0-4.076,1.175,56.163,56.163,0,0,0-18.655,19.208,7.833,7.833,0,0,0,6.744,11.79,7.87,7.87,0,0,0,6.768-3.873A40.477,40.477,0,0,1,220.7,86.28a7.852,7.852,0,0,0-4.212-14.467Zm0,0" transform="translate(-168.164 -62.65)" fill="#fde9e0"/>
      <path id="Trazado_193174" data-name="Trazado 193174" d="M333.475,137.439a3.022,3.022,0,1,0-4.36.113A3.085,3.085,0,0,0,333.475,137.439Zm0,0" transform="translate(-286.429 -115.36)" fill="#8ee5f6"/>
      <path id="Trazado_193175" data-name="Trazado 193175" d="M210.993,62.412a9.069,9.069,0,0,0-3.228-.6,8.969,8.969,0,0,0-4.751,1.368,56.687,56.687,0,0,0-6.251,4.52,1.276,1.276,0,1,0,1.632,1.961,54.211,54.211,0,0,1,5.968-4.316,6.427,6.427,0,0,1,3.4-.981A6.571,6.571,0,0,1,211.3,76.477a41.757,41.757,0,0,0-13.858,14.269,6.547,6.547,0,0,1-8.968,2.341,6.553,6.553,0,0,1-2.341-8.968,55.029,55.029,0,0,1,5.277-7.489,1.276,1.276,0,0,0-1.956-1.639,57.6,57.6,0,0,0-5.523,7.838,9.109,9.109,0,0,0,7.844,13.711,9.15,9.15,0,0,0,7.868-4.5,39.2,39.2,0,0,1,13.007-13.395,9.118,9.118,0,0,0-1.66-16.229Zm0,0" transform="translate(-159.437 -53.929)"/>
      <path id="Trazado_193176" data-name="Trazado 193176" d="M260.127,135.973a1.273,1.273,0,0,0,.9-.376l.033-.033a1.276,1.276,0,1,0-1.8-1.8l-.038.038a1.276,1.276,0,0,0,.9,2.176Zm0,0" transform="translate(-225.889 -116.368)"/>
      <path id="Trazado_193177" data-name="Trazado 193177" d="M322.61,130.941a4.463,4.463,0,0,0,3.068-1.338,4.366,4.366,0,0,0,.058-6.166,4.206,4.206,0,0,0-3.1-1.215,4.517,4.517,0,0,0-4.373,4.419,4.209,4.209,0,0,0,4.228,4.3Zm-1.793-4.259a1.967,1.967,0,0,1,1.888-1.908h.048a1.671,1.671,0,0,1,1.188.478,1.813,1.813,0,0,1-.077,2.557,1.925,1.925,0,0,1-1.32.582,1.659,1.659,0,0,1-1.727-1.708Zm0,0" transform="translate(-277.723 -106.628)"/>
      <path id="Trazado_193178" data-name="Trazado 193178" d="M289.771,201.4a1.276,1.276,0,0,0,1.276-1.276v-1.645a1.276,1.276,0,1,0-2.551,0v1.645A1.276,1.276,0,0,0,289.771,201.4Zm0,0" transform="translate(-251.752 -172.046)"/>
      <path id="Trazado_193179" data-name="Trazado 193179" d="M240.5,219.94a1.276,1.276,0,0,0,1.276,1.276h.829a1.276,1.276,0,1,0,0-2.552h-.829A1.276,1.276,0,0,0,240.5,219.94Zm0,0" transform="translate(-209.876 -190.766)"/>
      <path id="Trazado_193180" data-name="Trazado 193180" d="M237.37,260.87a1.275,1.275,0,0,0,0,1.8l.861.861a1.276,1.276,0,1,0,1.8-1.8l-.861-.861A1.275,1.275,0,0,0,237.37,260.87Zm0,0" transform="translate(-206.823 -227.26)"/>
      <path id="Trazado_193181" data-name="Trazado 193181" d="M64.547,15.593H62.982a14.175,14.175,0,0,0-.511-2.615,14.422,14.422,0,0,0-1.172-2.82l1.855-.829A1.276,1.276,0,0,0,62.113,7L59.855,8.01a14.141,14.141,0,0,0-5.133-3.942l1.136-2.209A1.276,1.276,0,0,0,53.589.692l-1.3,2.521a13.97,13.97,0,0,0-7.8.254L43.457,1.422a1.276,1.276,0,0,0-2.276,1.154l.964,1.9q-.389.21-.768.446-2.1,1.31-4.09,2.788l-.943-1.6a1.276,1.276,0,1,0-2.2,1.3l1.106,1.874q-2.3,1.86-4.419,3.935l-1.151-1.151a1.276,1.276,0,0,0-1.8,1.8l1.167,1.167a62.879,62.879,0,0,0-4.217,4.969l-1.922-1.7a1.276,1.276,0,0,0-1.69,1.912l2.1,1.857q-1.445,2.063-2.724,4.241c-.077.132-.151.264-.224.4l-2.571-.69a1.276,1.276,0,1,0-.661,2.464l2.207.592a14.108,14.108,0,0,0-.24,8.009c.033.129.069.257.107.385a16.427,16.427,0,0,0-8.882,7.379,13.434,13.434,0,0,1-3.811,4.438,1.276,1.276,0,0,0,1.513,2.055,15.97,15.97,0,0,0,4.538-5.269,14.04,14.04,0,0,1,7.572-6.219,14.048,14.048,0,0,0,1.356,2.2A28.581,28.581,0,0,0,11.129,54.679c-3.483,8.168-9.067,8.1-9.293,8.093a1.276,1.276,0,1,0-.119,2.549c.019,0,.065,0,.136,0,1.063,0,7.674-.383,11.623-9.643a26.2,26.2,0,0,1,9.768-11.707,14.364,14.364,0,0,0,2.427,1.788c.37.216.749.415,1.135.6a13.933,13.933,0,0,1-6.2,7.508c-6.8,3.714-7.68,9.756-7.713,10.012a1.275,1.275,0,0,0,1.1,1.433,1.235,1.235,0,0,0,.17.011,1.275,1.275,0,0,0,1.263-1.107c.007-.05.731-5.009,6.408-8.11A16.427,16.427,0,0,0,29.2,47.234a14.138,14.138,0,0,0,2.748.45v1.308a1.276,1.276,0,1,0,2.551,0V47.613a14.309,14.309,0,0,0,8.062-3.746l1.391,1.391a1.276,1.276,0,0,0,1.8-1.8l-1.492-1.493a14.07,14.07,0,0,0,.846-1.276,34.014,34.014,0,0,1,2.409-3.566L49.4,38.989a1.276,1.276,0,0,0,1.8-1.809l-2.04-2.029a34.14,34.14,0,0,1,3.766-3.6l2.521,2.107A1.276,1.276,0,1,0,57.084,31.7L55.016,29.97c.46-.321.926-.632,1.4-.929A13.976,13.976,0,0,0,59.864,26l2.814,1.164a1.276,1.276,0,0,0,.975-2.358l-2.341-.968a14.3,14.3,0,0,0,1.7-5.693h1.538a1.276,1.276,0,1,0,0-2.551Zm-9.48,11.282q-1.455.908-2.817,1.954a1.222,1.222,0,0,0-.166.131A36.656,36.656,0,0,0,46.522,34.3l-.014.013a1.292,1.292,0,0,0-.155.19A36.6,36.6,0,0,0,42.912,39.4a11.665,11.665,0,0,1-18.537,2.11l-.025-.025A11.67,11.67,0,0,1,22.8,27.609,60.014,60.014,0,0,1,42.728,7.088a11.49,11.49,0,0,1,6.1-1.757,11.677,11.677,0,0,1,6.245,21.545Zm0,0" transform="translate(-0.501 0.001)"/>
      <path id="Trazado_193182" data-name="Trazado 193182" d="M6.409,404.245a1.289,1.289,0,0,0,.169-.011l.062-.009a1.276,1.276,0,1,0-.393-2.521l-.013,0a1.276,1.276,0,0,0,.174,2.54Zm0,0" transform="translate(-4.541 -350.438)"/>
    </g>
  </g>
</svg>
