<svg xmlns="http://www.w3.org/2000/svg" width="200.875" height="201.216" viewBox="0 0 200.875 201.216">
  <g id="proteccion" transform="translate(-0.434 0)">
    <g id="Grupo_145908" data-name="Grupo 145908" transform="translate(3.04 2.946)">
      <g id="Grupo_145902" data-name="Grupo 145902">
        <g id="Grupo_145901" data-name="Grupo 145901" transform="translate(9.423)">
          <path id="Trazado_194011" data-name="Trazado 194011" d="M194.513,121.222H41.852l-.008-18.542a76.33,76.33,0,1,1,152.66-.064Z" transform="translate(-37.599 -18.92)" fill="#f18385"/>
          <path id="Trazado_194012" data-name="Trazado 194012" d="M227.171,109.8l-.041-98.319a35.138,35.138,0,0,0-32.523.014l.041,98.306h32.523Z" transform="translate(-130.326 -7.494)" fill="#fde9e0"/>
          <path id="Trazado_194013" data-name="Trazado 194013" d="M240.126,11.481a35.134,35.134,0,0,0-24.108-3.089,35.116,35.116,0,0,1,8.389,3.089l.041,98.319h15.72Z" transform="translate(-143.323 -7.499)" fill="#f18385"/>
          <g id="Grupo_145900" data-name="Grupo 145900" transform="translate(0 20.125)">
            <path id="Trazado_194014" data-name="Trazado 194014" d="M31.043,122.4l.008,18.54H66.185l-.033-79.154a2.972,2.972,0,0,0-4.82-2.329A80.462,80.462,0,0,0,31.043,122.4Z" transform="translate(-31.043 -58.766)" fill="#f18385"/>
            <path id="Trazado_194015" data-name="Trazado 194015" d="M96.1,61.789a2.972,2.972,0,0,0-4.82-2.329A81.28,81.28,0,0,0,80.388,70l.03,70.939h15.72Z" transform="translate(-60.996 -58.766)" fill="#fde9e0"/>
            <path id="Trazado_194016" data-name="Trazado 194016" d="M351.632,61.688l.033,79.193H386.8l-.008-18.608A80.462,80.462,0,0,0,356.45,59.354,2.972,2.972,0,0,0,351.632,61.688Z" transform="translate(-225.641 -58.703)" fill="#f18385"/>
            <path id="Trazado_194017" data-name="Trazado 194017" d="M386.791,122.272a80.46,80.46,0,0,0-30.342-62.918,2.972,2.972,0,0,0-4.818,2.333l0,8.2a80.213,80.213,0,0,1,19.437,52.383l.008,18.608H386.8Z" transform="translate(-225.641 -58.703)" fill="#fde9e0"/>
          </g>
        </g>
        <path id="Trazado_194018" data-name="Trazado 194018" d="M146.744,295.262l2.765-1.461a60.033,60.033,0,0,1,28.027-6.957,9.553,9.553,0,0,0,9.544-9.884,9.66,9.66,0,0,0-9.8-9.154H16.864a9.717,9.717,0,0,0-9.794,9.23,9.554,9.554,0,0,0,9.552,9.876,60.038,60.038,0,0,1,28.033,6.934l2.766,1.459a60.04,60.04,0,0,0,28.033,6.934l43.262-.018a60.042,60.042,0,0,0,28.028-6.958Z" transform="translate(-7.064 -165.503)" fill="#e6b3b4"/>
        <path id="Trazado_194019" data-name="Trazado 194019" d="M292.04,276.959a9.66,9.66,0,0,0-9.8-9.154h-15.72a9.66,9.66,0,0,1,9.8,9.154,9.553,9.553,0,0,1-9.544,9.884,60.032,60.032,0,0,0-28.027,6.957l-2.765,1.461a60.034,60.034,0,0,1-28.028,6.957l-27.977.012c.145,0,.29.007.435.006l43.262-.018a60.035,60.035,0,0,0,28.028-6.957l2.765-1.461a60.033,60.033,0,0,1,28.027-6.957A9.553,9.553,0,0,0,292.04,276.959Z" transform="translate(-112.024 -165.503)" fill="#f5d60c"/>
      </g>
      <g id="Grupo_145907" data-name="Grupo 145907" transform="translate(42.535 120.18)">
        <g id="Grupo_145906" data-name="Grupo 145906">
          <g id="Grupo_145903" data-name="Grupo 145903" transform="translate(10.279)">
            <path id="Trazado_194020" data-name="Trazado 194020" d="M156.21,313.489a7.642,7.642,0,0,0-9.145,5.756l-5.285,23.24c-4.876,21.442,46.057,50.58,52.971,20.18l1.092-4.8a8.939,8.939,0,0,1,17.434,3.965l-1.092,4.8c-6.945,30.537,51.637,26.043,56.488,4.713l5.285-23.24a7.641,7.641,0,0,0-5.756-9.145Z" transform="translate(-141.451 -313.297)" fill="#defaff"/>
          </g>
          <g id="Grupo_145904" data-name="Grupo 145904" transform="translate(18.017 0)">
            <path id="Trazado_194021" data-name="Trazado 194021" d="M280.152,338.958,168.162,313.489a7.63,7.63,0,0,0-7.021,1.978l103.292,23.491a7.641,7.641,0,0,1,5.756,9.145l-5.285,23.24c-1.969,8.657-12.787,14.54-24.483,16.434,15.777,2.873,37.341-3.85,40.2-16.434l5.285-23.24A7.641,7.641,0,0,0,280.152,338.958Z" transform="translate(-161.141 -313.298)" fill="#82e2f5"/>
          </g>
          <g id="Grupo_145905" data-name="Grupo 145905" transform="translate(0 4.492)">
            <path id="Trazado_194022" data-name="Trazado 194022" d="M119.49,350.773l5.806,1.32,5.892-25.91-5.806-1.32a5.387,5.387,0,0,0-6.448,4.058l-3.5,15.4A5.387,5.387,0,0,0,119.49,350.773Z" transform="translate(-115.297 -324.728)" fill="#f18385"/>
            <path id="Trazado_194023" data-name="Trazado 194023" d="M475.324,403.183l-5.806-1.32-5.892,25.91,5.806,1.32a5.387,5.387,0,0,0,6.448-4.058l3.5-15.4A5.388,5.388,0,0,0,475.324,403.183Z" transform="translate(-326.733 -371.549)" fill="#f18385"/>
          </g>
        </g>
      </g>
    </g>
    <g id="Grupo_145909" data-name="Grupo 145909" transform="translate(0.434 0.001)">
      <path id="Trazado_194024" data-name="Trazado 194024" d="M200.025,160.066a8.968,8.968,0,0,0-5.206-3.687l-3.338-.759a10.794,10.794,0,0,0-8.225-9.707l-41.487-9.435c10.359-4.936,19.908-9.239,31.744-9.244,14.362-.006,16.8-20.973,3.055-24.514l-.007-16.081a83.177,83.177,0,0,0-31.448-65.219,6.286,6.286,0,0,0-7.219-.117A78.3,78.3,0,0,0,112.215,9.733V6.927a2.947,2.947,0,0,0-1.585-2.612,38.1,38.1,0,0,0-35.252.015A2.947,2.947,0,0,0,73.8,6.943V9.75A78.266,78.266,0,0,0,48.129,21.341a6.284,6.284,0,0,0-7.219.123A84.281,84.281,0,0,0,26.234,36.6c-2.29,3.047,2.423,6.588,4.712,3.542A78.986,78.986,0,0,1,44.341,26.257a2.93,2.93,0,0,0,.284.76l.032,75.283H15.418l-.007-15.593a76.685,76.685,0,0,1,7.945-34.224c1.685-3.418-3.6-6.025-5.288-2.606A82.526,82.526,0,0,0,9.516,86.709l.007,16.034C-4.208,106.45-1.742,127.3,12.622,127.3c12.113,0,21.791,4.64,32.425,9.541l-2.21,9.718c-1.045,4.593,2.031,8.673,6.279,9.976l3.915.89c.651,5.5,3.825,11.287,9.293,16.774a51.322,51.322,0,0,0,23.785,13.525c13.458,3.061,23.148-2.389,25.921-14.578l1.092-4.8c1.713-7.541,13.4-4.883,11.685,2.658l-1.092,4.8c-2.037,8.954,1.148,14.58,4.179,17.723,4.781,4.959,13.141,7.689,22.66,7.689a53.551,53.551,0,0,0,9.934-.951c3.744-.709,2.648-6.5-1.1-5.792-11.329,2.145-22.281.12-27.254-5.038-2.94-3.05-3.84-7.2-2.674-12.324l1.092-4.8c3.4-14.93-19.784-20.217-23.182-5.272l-1.092,4.8c-1.423,6.258-5.852,13.1-18.865,10.137-14.512-3.3-30.87-17.961-28.358-29.01l5.285-23.24a0,0,0,0,1,0,0,4.7,4.7,0,0,1,5.618-3.534L181.95,151.66a4.781,4.781,0,0,1,3.535,5.618L180.2,180.518c-.945,4.154-4.489,7.141-7.3,8.916-3.221,2.036-.071,7.02,3.15,4.983a24.369,24.369,0,0,0,7.63-7.277l3.936.9a8.51,8.51,0,0,0,9.976-6.279l3.5-15.4a8.283,8.283,0,0,0-1.074-6.288ZM141.432,26.023a77.312,77.312,0,0,1,29.235,60.617l.007,15.659h-29.24L141.4,26.044c.009-.011.035-.026.036-.02Zm-5.924.8.032,75.474H112.254l-.036-86.477a72.514,72.514,0,0,1,23.289,11ZM106.32,8.77l.039,93.53H79.731L79.692,8.781A32.21,32.21,0,0,1,106.32,8.77ZM50.52,26.857A72.458,72.458,0,0,1,73.8,15.839l.037,86.461H50.552Zm-.1,123.932a2.44,2.44,0,0,1-1.838-2.92l3.5-15.4a2.6,2.6,0,0,1,2.921-1.838l2.932.667-4.585,20.162Zm9.235-25.149-3.342-.76a8.344,8.344,0,0,0-9.924,6.077c-10.9-5.31-21.365-9.55-33.769-9.55-8.6,0-8.394-13.208.218-13.211H173.255c8.555,0,8.894,13.14.256,13.144-14.708.006-28.926,6.31-41.865,12.836L71.267,120.443a10.606,10.606,0,0,0-11.61,5.2ZM195.35,165.046l-3.5,15.4a2.444,2.444,0,0,1-2.92,1.838l-2.932-.667,3.667-16.125.918-4.036,2.932.667a2.439,2.439,0,0,1,1.838,2.92Z" transform="translate(-0.434 -0.001)"/>
      <path id="Trazado_194025" data-name="Trazado 194025" d="M176.6,358.162l11.879-7.477c3.225-2.03.085-7.019-3.14-4.989l-11.879,7.477C170.153,355.254,173.5,360.113,176.6,358.162Z" transform="translate(-104.631 -209.55)"/>
      <path id="Trazado_194026" data-name="Trazado 194026" d="M178.287,379.648a2.934,2.934,0,0,0,1.567-.454l28.7-18.064c3.225-2.03.085-7.019-3.14-4.989l-28.7,18.064C174.431,375.643,175.35,379.648,178.287,379.648Z" transform="translate(-106.659 -215.89)"/>
      <path id="Trazado_194027" data-name="Trazado 194027" d="M354.338,398.584l11.879-7.477c3.225-2.03.085-7.02-3.14-4.989L351.2,393.6C347.894,395.675,351.241,400.535,354.338,398.584Z" transform="translate(-212.52 -234.086)"/>
      <path id="Trazado_194028" data-name="Trazado 194028" d="M356.027,420.069a2.933,2.933,0,0,0,1.567-.454l28.7-18.064c3.225-2.03.085-7.02-3.14-4.989l-28.7,18.064c-2.284,1.437-1.364,5.442,1.573,5.442Z" transform="translate(-214.548 -240.426)"/>
    </g>
  </g>
</svg>
