<svg xmlns="http://www.w3.org/2000/svg" width="139" height="139" viewBox="0 0 139 139">
  <g id="Grupo_145942" data-name="Grupo 145942" transform="translate(10578 6166)">
    <rect id="Rectángulo_44310" data-name="Rectángulo 44310" width="139" height="139" rx="69.5" transform="translate(-10578 -6166)" fill="#b0f0fc"/>
    <g id="protegido" transform="translate(-10550.541 -6139.769)">
      <g id="Grupo_145460" data-name="Grupo 145460" transform="translate(6.742 1.744)">
        <path id="Trazado_193315" data-name="Trazado 193315" d="M306.58,25.177h12.565L301.433,10.085v9.947A5.159,5.159,0,0,0,306.58,25.177Z" transform="translate(-251.916 -10.085)" fill="#dad0d3" fill-rule="evenodd"/>
        <path id="Trazado_193316" data-name="Trazado 193316" d="M24.079,126.728V64.8h-4.8A4.207,4.207,0,0,0,15.083,69v67.2a4.207,4.207,0,0,0,4.192,4.194H82.3a3.966,3.966,0,0,1-1.885-.75,26.767,26.767,0,0,1-8.5-8.717H28.265a4.2,4.2,0,0,1-4.187-4.195Z" transform="translate(-15.083 -55.34)" fill="#8ee5f6" fill-rule="evenodd"/>
        <path id="Trazado_193317" data-name="Trazado 193317" d="M113.261,82.8a31.576,31.576,0,0,1-4.02-15c.02-2.171.5-2.411,2.306-3.381l13.789-7.443v-31.8H112.771a5.159,5.159,0,0,1-5.147-5.145V10.085H71.29A4.2,4.2,0,0,0,67.1,14.279V81.473a4.2,4.2,0,0,0,4.187,4.194h43.655C114.353,84.746,113.789,83.786,113.261,82.8Z" transform="translate(-58.108 -10.085)" fill="#f3eff0" fill-rule="evenodd"/>
        <path id="Trazado_193318" data-name="Trazado 193318" d="M338.94,307.056a31.576,31.576,0,0,0,4.02-15c-.02-2.171-.5-2.411-2.3-3.381l-13.789-7.443-13.789,7.443c-1.8.97-2.287,1.21-2.306,3.381a31.576,31.576,0,0,0,4.02,15c.529.99,1.092,1.95,1.684,2.871a26.768,26.768,0,0,0,8.5,8.717,3.966,3.966,0,0,0,1.885.75h.015a3.93,3.93,0,0,0,1.885-.75C332.931,316.151,336.325,311.936,338.94,307.056Z" transform="translate(-259.641 -234.345)" fill="#f18385" fill-rule="evenodd"/>
      </g>
      <path id="Trazado_193319" data-name="Trazado 193319" d="M120.184,134.032H157.17a1.744,1.744,0,0,0,0-3.488H120.184a1.744,1.744,0,0,0,0,3.488Z" transform="translate(-93.825 -107.97)"/>
      <path id="Trazado_193320" data-name="Trazado 193320" d="M276.429,180.9H264.378a1.744,1.744,0,1,0,0,3.488h12.051a1.744,1.744,0,1,0,0-3.488Z" transform="translate(-213.085 -149.616)"/>
      <path id="Trazado_193321" data-name="Trazado 193321" d="M120.184,184.386h12.751a1.744,1.744,0,0,0,0-3.488H120.184a1.744,1.744,0,1,0,0,3.488Z" transform="translate(-93.825 -149.616)"/>
      <path id="Trazado_193322" data-name="Trazado 193322" d="M120.184,234.739H157.17a1.744,1.744,0,0,0,0-3.488H120.184a1.744,1.744,0,1,0,0,3.488Z" transform="translate(-93.825 -191.262)"/>
      <path id="Trazado_193323" data-name="Trazado 193323" d="M120.184,285.092h3.482a1.744,1.744,0,1,0,0-3.488h-3.482a1.744,1.744,0,1,0,0,3.488Z" transform="translate(-93.825 -232.908)"/>
      <path id="Trazado_193324" data-name="Trazado 193324" d="M204.955,281.6H190.666a1.744,1.744,0,1,0,0,3.488h14.289a1.744,1.744,0,1,0,0-3.488Z" transform="translate(-152.119 -232.908)"/>
      <path id="Trazado_193325" data-name="Trazado 193325" d="M143.219,333.7a1.744,1.744,0,0,0-1.744-1.744H120.184a1.744,1.744,0,1,0,0,3.488h21.291A1.744,1.744,0,0,0,143.219,333.7Z" transform="translate(-93.825 -274.555)"/>
      <path id="Trazado_193326" data-name="Trazado 193326" d="M120.184,83.651H141.5a1.744,1.744,0,1,0,0-3.488H120.184a1.744,1.744,0,1,0,0,3.488Z" transform="translate(-93.825 -66.301)"/>
      <path id="Trazado_193327" data-name="Trazado 193327" d="M88.641,54.569,75.715,47.592V16.836a1.8,1.8,0,0,0-.64-1.351c-.084-.073-.17-.145-.255-.217L57.886.839C57.694.676,57.507.5,57.3.35A1.758,1.758,0,0,0,56.259,0H19.924a5.941,5.941,0,0,0-5.931,5.938V9.462h-3.06A5.944,5.944,0,0,0,5,15.4V82.6a5.944,5.944,0,0,0,5.936,5.938H73.97a1.769,1.769,0,0,0,.2-.013,5.846,5.846,0,0,0,2.581-.984c4.152-2.482,7.793-6.607,10.823-12.261A33.3,33.3,0,0,0,91.806,59.44c-.027-3.038-1.1-3.759-3.164-4.871ZM58,5.521l11.232,9.571h-7.83a3.406,3.406,0,0,1-3.4-3.4ZM8.486,82.6V15.4a2.452,2.452,0,0,1,2.448-2.451h3.06V73.132a5.941,5.941,0,0,0,5.931,5.938h8.653a1.744,1.744,0,1,0,0-3.488H19.924a2.449,2.449,0,0,1-2.443-2.451V5.938a2.449,2.449,0,0,1,2.443-2.451H54.515v8.2a6.9,6.9,0,0,0,6.891,6.889H72.227V47.592L59.354,54.54l-.051.028c-2.066,1.112-3.145,1.834-3.172,4.873a33.3,33.3,0,0,0,4.227,15.838c.055.1.112.2.168.3H44.095a1.744,1.744,0,1,0,0,3.488H62.637a31.079,31.079,0,0,0,5.16,5.979H10.934A2.452,2.452,0,0,1,8.486,82.6ZM84.5,73.631c-2.727,5.09-5.936,8.762-9.539,10.916a3.82,3.82,0,0,1-.992.5h0a3.645,3.645,0,0,1-1-.5h0c-3.551-2.123-6.85-5.9-9.538-10.916a29.818,29.818,0,0,1-3.813-14.159c.008-.931.117-1.085.122-1.091a6.46,6.46,0,0,1,1.216-.742l13.014-7.025,12.961,7,.053.029a6.452,6.452,0,0,1,1.211.741c0,.006.114.161.122,1.092A29.818,29.818,0,0,1,84.5,73.631Z"/>
      <path id="Trazado_193328" data-name="Trazado 193328" d="M177.871,437.085h-.01a1.749,1.749,0,1,0,.01,0Z" transform="translate(-141.533 -361.503)"/>
      <path id="Trazado_193329" data-name="Trazado 193329" d="M373.892,356.4l-6.073,6.237-2.258-2.117a1.744,1.744,0,0,0-2.386,2.544l3.506,3.288a1.744,1.744,0,0,0,2.442-.055l7.267-7.463a1.744,1.744,0,1,0-2.5-2.433Z" transform="translate(-295.784 -294.335)"/>
    </g>
  </g>
</svg>
