<svg xmlns="http://www.w3.org/2000/svg" width="139" height="139" viewBox="0 0 139 139">
  <g id="Grupo_145937" data-name="Grupo 145937" transform="translate(-428 -4011)">
    <rect id="Rectángulo_44298" data-name="Rectángulo 44298" width="139" height="139" rx="69.5" transform="translate(428 4011)" fill="#b0f0fc"/>
    <g id="erupcion" transform="translate(433.131 4032.072)">
      <g id="Grupo_145439" data-name="Grupo 145439" transform="translate(26.066 1.419)">
        <path id="Trazado_193257" data-name="Trazado 193257" d="M34.625,41.437a4.609,4.609,0,0,1,6.214,1.969l3.206,6.179V20.176a4.609,4.609,0,0,1,9.219,0V12.109a4.609,4.609,0,0,1,9.219,0v5.762a4.609,4.609,0,1,1,9.219,0V26.13a4.609,4.609,0,0,1,9.219,0v75.388H44.045V69.6L32.657,47.651a4.609,4.609,0,0,1,1.969-6.214Z" transform="translate(-32.138 -7.5)" fill="#fcd0a3"/>
        <path id="Trazado_193258" data-name="Trazado 193258" d="M258.653,81.615a4.6,4.6,0,0,0-1.633.3A4.61,4.61,0,0,1,260,86.225v75.388h3.265V86.224A4.61,4.61,0,0,0,258.653,81.615Z" transform="translate(-214.479 -67.595)" fill="#ffb983"/>
        <path id="Trazado_193259" data-name="Trazado 193259" d="M40.98,188.661l3.047,5.888a1.152,1.152,0,0,0,2.176-.53V192.8L43,186.644a4.608,4.608,0,0,0-8.2.032A4.609,4.609,0,0,1,40.98,188.661Z" transform="translate(-34.295 -150.739)" fill="#ffb983"/>
        <path id="Trazado_193260" data-name="Trazado 193260" d="M163.851,337.691V298.774a12.065,12.065,0,0,0-9.219,6.426c-3.861,7.408-7.344,8.345-11.195,8.345-6.356,0-9.472,3.708-8.969,8.969.488,5.1,5.314,7.225,10.986,8,3.2.437,6.819,1.65,6.819,5.04a3.458,3.458,0,0,1-.759,2.137h12.337Z" transform="translate(-115.068 -243.674)" fill="#f8b0b0"/>
        <path id="Trazado_193261" data-name="Trazado 193261" d="M272.757,337.691h3.265V298.774a13.759,13.759,0,0,0-3.265.906Z" transform="translate(-227.239 -243.674)" fill="#fc8086"/>
      </g>
      <g id="Grupo_145441" data-name="Grupo 145441" transform="translate(70.635 40.111)">
        <path id="Trazado_193262" data-name="Trazado 193262" d="M293.808,212.627a18.69,18.69,0,0,0-22.192,24.52l-3.873,6.1,7.313-.267a18.689,18.689,0,1,0,18.752-30.355Z" transform="translate(-267.744 -212.038)" fill="#defaff"/>
        <circle id="Elipse_1140" data-name="Elipse 1140" cx="13.746" cy="13.746" r="13.746" transform="translate(7.681 4.947)" fill="#fde9e0"/>
        <g id="Grupo_145440" data-name="Grupo 145440" transform="translate(12.928 9.758)">
          <circle id="Elipse_1141" data-name="Elipse 1141" cx="2.852" cy="2.852" r="2.852" transform="translate(6.084)" fill="#fc8086"/>
          <circle id="Elipse_1142" data-name="Elipse 1142" cx="2.852" cy="2.852" r="2.852" transform="translate(10.267 9.697)" fill="#fc8086"/>
          <circle id="Elipse_1143" data-name="Elipse 1143" cx="2.852" cy="2.852" r="2.852" transform="translate(0 8.366)" fill="#fc8086"/>
        </g>
      </g>
      <g id="Grupo_145442" data-name="Grupo 145442" transform="translate(24.649 0)">
        <path id="Trazado_193263" data-name="Trazado 193263" d="M168.659,401.637a1.521,1.521,0,1,0,1.521,1.521A1.521,1.521,0,0,0,168.659,401.637Z" transform="translate(-140.183 -325.659)"/>
        <path id="Trazado_193264" data-name="Trazado 193264" d="M236.916,376.369a1.521,1.521,0,1,0-1.521,1.521A1.521,1.521,0,0,0,236.916,376.369Z" transform="translate(-194.295 -303.938)"/>
        <path id="Trazado_193265" data-name="Trazado 193265" d="M213.694,399.6a1.521,1.521,0,1,0,1.521-1.521A1.521,1.521,0,0,0,213.694,399.6Z" transform="translate(-177.932 -322.778)"/>
        <path id="Trazado_193266" data-name="Trazado 193266" d="M248.886,431.811a1.521,1.521,0,1,0,1.521,1.521A1.521,1.521,0,0,0,248.886,431.811Z" transform="translate(-205.234 -350.125)"/>
        <path id="Trazado_193267" data-name="Trazado 193267" d="M248.886,477.273a1.521,1.521,0,1,0,1.521,1.521A1.521,1.521,0,0,0,248.886,477.273Z" transform="translate(-205.234 -386.987)"/>
        <path id="Trazado_193268" data-name="Trazado 193268" d="M196.135,435.668a1.521,1.521,0,1,0,1.521-1.521A1.521,1.521,0,0,0,196.135,435.668Z" transform="translate(-163.695 -352.019)"/>
        <path id="Trazado_193269" data-name="Trazado 193269" d="M283.934,444.643a1.419,1.419,0,0,0-1.419,1.419v9.9a1.419,1.419,0,0,0,2.838,0v-9.9A1.419,1.419,0,0,0,283.934,444.643Z" transform="translate(-233.734 -360.53)"/>
        <path id="Trazado_193270" data-name="Trazado 193270" d="M45.773,14.1s0,0,0,.007V44.44a1.419,1.419,0,1,0,2.838,0V6.029a3.191,3.191,0,0,1,6.383,0V44.44a1.419,1.419,0,1,0,2.838,0V11.807c0-.006,0-.012,0-.018a3.19,3.19,0,0,1,6.381,0V44.44a1.419,1.419,0,1,0,2.838,0V20.052s0,0,0,0a3.19,3.19,0,1,1,6.381,0V31a1.419,1.419,0,1,0,2.838,0V20.048a6.026,6.026,0,0,0-9.218-5.114V11.789a6.026,6.026,0,0,0-9.218-5.112V6.029a6.029,6.029,0,1,0-12.058,0V8.981A6.026,6.026,0,0,0,36.555,14.1V37.69l-.528-1.017a6.027,6.027,0,1,0-10.7,5.551L36.554,63.866V70.3a1.419,1.419,0,0,0,2.838,0V63.52a1.418,1.418,0,0,0-.159-.653L27.844,40.916a3.19,3.19,0,1,1,5.663-2.938l3.206,6.178a1.419,1.419,0,0,0,2.678-.653V14.1a3.19,3.19,0,1,1,6.381,0Z" transform="translate(-24.649 0)"/>
        <path id="Trazado_193271" data-name="Trazado 193271" d="M89,399.831a1.419,1.419,0,0,0-1.419,1.419v18.382a1.419,1.419,0,0,0,2.838,0V401.25A1.419,1.419,0,0,0,89,399.831Z" transform="translate(-75.679 -324.195)"/>
        <path id="Trazado_193272" data-name="Trazado 193272" d="M192.285,203.794a20.106,20.106,0,0,0-33.1-2.195V192.87a1.419,1.419,0,1,0-2.838,0v13.609a20.2,20.2,0,0,0-.847,2.571c-.159.62-.285,1.244-.384,1.87a13.183,13.183,0,0,0-7.827,6.6c-3.655,7.013-6.663,7.583-9.937,7.583-3.535,0-6.376,1.069-8.215,3.092a9.386,9.386,0,0,0-2.166,7.43c.489,5.111,4.6,8.23,12.205,9.271,3.711.507,5.593,1.73,5.593,3.634a2.063,2.063,0,0,1-.468,1.277,1.419,1.419,0,1,0,2.256,1.72,4.861,4.861,0,0,0,1.049-3c0-2.439-1.4-5.536-8.046-6.445-6.219-.85-9.413-3.052-9.765-6.73a6.644,6.644,0,0,1,1.441-5.252c1.286-1.415,3.4-2.163,6.115-2.163a11.291,11.291,0,0,0,6.352-1.615c2.2-1.394,4.2-3.845,6.1-7.494a10.235,10.235,0,0,1,5.062-4.791,19.969,19.969,0,0,0,.993,6.228l-3.506,5.525a1.419,1.419,0,0,0,1.249,2.178l2.743-.1v6.263a1.419,1.419,0,0,0,2.838,0v-6.367l1.068-.039a19.987,19.987,0,0,0,9.738,5.786,20.241,20.241,0,0,0,5.024.637,20.115,20.115,0,0,0,17.267-30.362Zm-.572,14.531a17.271,17.271,0,0,1-29.773,7.036,1.419,1.419,0,0,0-1.072-.49h-.052l-4.618.169,2.428-3.826a1.419,1.419,0,0,0,.134-1.249,17.271,17.271,0,1,1,32.952-1.642Z" transform="translate(-107.569 -155.234)"/>
        <path id="Trazado_193273" data-name="Trazado 193273" d="M316.011,230.692a15.165,15.165,0,1,0,15.165,15.165A15.182,15.182,0,0,0,316.011,230.692Zm0,27.493a12.328,12.328,0,1,1,12.328-12.327A12.341,12.341,0,0,1,316.011,258.185Z" transform="translate(-248.598 -187.052)"/>
        <path id="Trazado_193274" data-name="Trazado 193274" d="M369.291,260.391a4.271,4.271,0,1,0-4.271,4.271A4.276,4.276,0,0,0,369.291,260.391Zm-5.7,0a1.433,1.433,0,1,1,1.433,1.433A1.435,1.435,0,0,1,363.587,260.391Z" transform="translate(-297.17 -207.67)"/>
        <path id="Trazado_193275" data-name="Trazado 193275" d="M387.131,307.378a4.271,4.271,0,1,0,4.271,4.271A4.276,4.276,0,0,0,387.131,307.378Zm0,5.7a1.433,1.433,0,1,1,1.433-1.433A1.435,1.435,0,0,1,387.131,313.082Z" transform="translate(-315.097 -249.231)"/>
        <path id="Trazado_193276" data-name="Trazado 193276" d="M332.859,300.343a4.271,4.271,0,1,0,4.271,4.271A4.276,4.276,0,0,0,332.859,300.343Zm0,5.7a1.433,1.433,0,1,1,1.433-1.433A1.435,1.435,0,0,1,332.859,306.047Z" transform="translate(-271.092 -243.527)"/>
      </g>
    </g>
  </g>
</svg>
