<svg xmlns="http://www.w3.org/2000/svg" width="133" height="133" viewBox="0 0 133 133">
  <g id="Grupo_145973" data-name="Grupo 145973" transform="translate(-996 -4215)">
    <g id="Grupo_145791" data-name="Grupo 145791" transform="translate(156 -113)">
      <rect id="Rectángulo_44482" data-name="Rectángulo 44482" width="133" height="133" rx="66.5" transform="translate(840 4328)" fill="#f18385"/>
      <g id="cancer-de-piel" transform="translate(877.415 4357.341)">
        <path id="Trazado_193767" data-name="Trazado 193767" d="M117.786,16.867a3.747,3.747,0,0,0-3.747,3.747V16.867a3.747,3.747,0,1,0-7.494,0v-5.62a3.747,3.747,0,1,0-7.494,0v5.62a3.747,3.747,0,1,0-7.494,0V37.288a3.747,3.747,0,0,0-3.884-3.744,3.806,3.806,0,0,0-3.61,3.834V56.022a5.62,5.62,0,0,0,1.124,3.372l3.372,4.5a5.621,5.621,0,0,1,1.124,3.372v20.8h31.849V20.614a3.748,3.748,0,0,0-3.747-3.747Z" transform="translate(-82.848 -6.284)" fill="#fde9e0"/>
        <path id="Trazado_193768" data-name="Trazado 193768" d="M233.252,65.291a3.764,3.764,0,0,0-.605.049V91.8a3.248,3.248,0,0,1-1.568,2.794,18.813,18.813,0,0,0,0,32.358,3.248,3.248,0,0,1,1.568,2.794v6.734H237V69.038a3.747,3.747,0,0,0-3.747-3.747Z" transform="translate(-198.313 -54.708)" fill="#f18385"/>
        <g id="Grupo_145783" data-name="Grupo 145783" transform="translate(27.81 41.495)">
          <circle id="Elipse_1216" data-name="Elipse 1216" cx="14.573" cy="14.573" r="14.573" fill="#8ee5f6"/>
          <path id="Trazado_193769" data-name="Trazado 193769" d="M296.807,302.868l-.193-.964a1.554,1.554,0,0,1,.124-.969q.157-.332.282-.681a1.555,1.555,0,0,1,.6-.773l.818-.546a1.537,1.537,0,0,0,0-2.558l-.818-.546a1.554,1.554,0,0,1-.6-.773q-.125-.349-.282-.681a1.557,1.557,0,0,1-.124-.969l.193-.964A1.537,1.537,0,0,0,295,290.637l-.964.193a1.555,1.555,0,0,1-.969-.124q-.332-.157-.681-.282a1.554,1.554,0,0,1-.773-.6l-.546-.818a1.537,1.537,0,0,0-2.558,0l-.546.818a1.554,1.554,0,0,1-.773.6q-.349.125-.681.282a1.557,1.557,0,0,1-.969.124l-.964-.193a1.537,1.537,0,0,0-1.809,1.809l.193.964a1.555,1.555,0,0,1-.124.969q-.157.332-.282.681a1.554,1.554,0,0,1-.6.773l-.818.546a1.537,1.537,0,0,0,0,2.558l.818.546a1.554,1.554,0,0,1,.6.773q.125.349.282.681a1.557,1.557,0,0,1,.124.969l-.193.964a1.537,1.537,0,0,0,1.809,1.809l.964-.193a1.554,1.554,0,0,1,.969.124q.332.157.681.282a1.554,1.554,0,0,1,.773.6l.546.818a1.537,1.537,0,0,0,2.558,0l.546-.818a1.554,1.554,0,0,1,.773-.6q.349-.125.681-.282a1.557,1.557,0,0,1,.969-.124l.964.193A1.537,1.537,0,0,0,296.807,302.868Z" transform="translate(-275.214 -283.084)" fill="#18bab9"/>
          <path id="Trazado_193770" data-name="Trazado 193770" d="M310.238,324.619l-.818-.546a1.554,1.554,0,0,1-.6-.773q-.125-.349-.282-.681a1.585,1.585,0,0,1-.151-.592,13.348,13.348,0,0,1-12.286,8.127c-.45,0-.894-.023-1.333-.066,0,.019-.005.038-.009.057l-.193.964a1.537,1.537,0,0,0,1.809,1.809l.964-.193a1.555,1.555,0,0,1,.969.124q.332.157.681.282a1.555,1.555,0,0,1,.773.6l.546.818a1.537,1.537,0,0,0,2.558,0l.546-.818a1.554,1.554,0,0,1,.773-.6q.349-.125.681-.282a1.557,1.557,0,0,1,.969-.124l.964.193a1.537,1.537,0,0,0,1.809-1.809l-.193-.964a1.554,1.554,0,0,1,.124-.969q.157-.332.282-.681a1.554,1.554,0,0,1,.6-.773l.818-.546A1.537,1.537,0,0,0,310.238,324.619Z" transform="translate(-287.016 -311.325)" fill="#8ee5f6"/>
          <circle id="Elipse_1217" data-name="Elipse 1217" cx="2.62" cy="2.62" r="2.62" transform="translate(11.953 11.953)" fill="#9c66d5"/>
        </g>
        <g id="Grupo_145784" data-name="Grupo 145784" transform="translate(12.91 49.354)">
          <circle id="Elipse_1218" data-name="Elipse 1218" cx="2.62" cy="2.62" r="2.62" fill="#905041"/>
        </g>
        <g id="Grupo_145785" data-name="Grupo 145785" transform="translate(18.804 69.003)">
          <circle id="Elipse_1219" data-name="Elipse 1219" cx="2.62" cy="2.62" r="2.62" fill="#905041"/>
        </g>
        <g id="Grupo_145786" data-name="Grupo 145786" transform="translate(21.078 38.22)">
          <circle id="Elipse_1220" data-name="Elipse 1220" cx="2.62" cy="2.62" r="2.62" fill="#905041"/>
        </g>
        <g id="Grupo_145787" data-name="Grupo 145787" transform="translate(0 0)">
          <path id="Trazado_193771" data-name="Trazado 193771" d="M82.181,67.8a1.216,1.216,0,1,0,2.431,0V60.98a6.882,6.882,0,0,0-1.368-4.1l-3.372-4.5a4.425,4.425,0,0,1-.881-2.643V31.092a2.6,2.6,0,0,1,2.438-2.617,2.529,2.529,0,0,1,2.625,2.519s0,.006,0,.009v9.051l-.721.721a1.216,1.216,0,1,0,1.719,1.719l1.077-1.077a1.216,1.216,0,0,0,.356-.86V10.583a2.531,2.531,0,0,1,5.062,0s0,20.425,0,20.425a1.216,1.216,0,0,0,2.431,0V4.962a2.531,2.531,0,0,1,5.062,0V31a1.216,1.216,0,0,0,2.431,0V10.583a2.531,2.531,0,0,1,5.062,0V31a1.216,1.216,0,0,0,2.431,0V14.33s0,0,0,0a2.532,2.532,0,0,1,5.064,0V24.16a1.216,1.216,0,1,0,2.431,0V14.329a4.962,4.962,0,0,0-7.521-4.251,4.961,4.961,0,0,0-7.468-3.761V4.962a4.962,4.962,0,0,0-9.925,0V6.317a4.961,4.961,0,0,0-7.493,4.266v16.15a4.939,4.939,0,0,0-2.712-.687,5.048,5.048,0,0,0-4.783,5.047V49.737a6.871,6.871,0,0,0,1.368,4.1l3.371,4.5a4.434,4.434,0,0,1,.882,2.644V67.8Z" transform="translate(-76.56 0)"/>
          <path id="Trazado_193772" data-name="Trazado 193772" d="M148,188.212a15.84,15.84,0,0,0-2.482.2V177.766a1.216,1.216,0,1,0-2.431,0V189a15.788,15.788,0,0,0,0,30.01v9.486H113.671V221.41a1.216,1.216,0,0,0-2.431,0v8.3a1.216,1.216,0,0,0,1.216,1.216H144.3a1.216,1.216,0,0,0,1.216-1.216V219.593a15.807,15.807,0,0,0,10.544-2.016,1.216,1.216,0,0,0-1.244-2.089,13.363,13.363,0,1,1,3.859-3.462,1.216,1.216,0,0,0,1.942,1.463A15.789,15.789,0,0,0,148,188.212Z" transform="translate(-105.619 -147.933)"/>
          <path id="Trazado_193773" data-name="Trazado 193773" d="M318.208,322.242a3.836,3.836,0,1,0,3.836,3.836A3.84,3.84,0,0,0,318.208,322.242Zm0,5.24a1.4,1.4,0,1,1,1.4-1.4A1.406,1.406,0,0,1,318.208,327.482Z" transform="translate(-275.825 -270.01)"/>
          <path id="Trazado_193774" data-name="Trazado 193774" d="M292.827,289.083l-.818-.546a.343.343,0,0,1-.127-.171c-.1-.267-.206-.533-.327-.79a.345.345,0,0,1-.031-.212l.193-.964a2.753,2.753,0,0,0-3.239-3.239l-.964.193a.344.344,0,0,1-.212-.031c-.256-.121-.522-.231-.79-.327a.342.342,0,0,1-.171-.127l-.546-.818a2.753,2.753,0,0,0-4.581,0l-.546.818a.343.343,0,0,1-.171.127c-.268.1-.533.206-.79.327a.347.347,0,0,1-.212.031l-.964-.193a2.753,2.753,0,0,0-3.239,3.239l.193.964a.346.346,0,0,1-.031.212c-.121.256-.231.522-.327.79a.344.344,0,0,1-.128.171l-.818.546a2.753,2.753,0,0,0,0,4.581l.818.546a.344.344,0,0,1,.127.171c.1.268.206.534.327.79a.344.344,0,0,1,.031.212l-.193.964a2.753,2.753,0,0,0,3.239,3.239l.964-.193a.344.344,0,0,1,.212.031c.257.121.522.231.79.327a.343.343,0,0,1,.171.128l.546.818a2.753,2.753,0,0,0,4.581,0l.545-.818a.342.342,0,0,1,.172-.127c.267-.1.533-.206.79-.327a.345.345,0,0,1,.212-.031l.964.193a2.753,2.753,0,0,0,3.239-3.239l-.193-.964a.345.345,0,0,1,.032-.212c.121-.256.231-.522.327-.79a.341.341,0,0,1,.127-.171l.818-.546a2.753,2.753,0,0,0,0-4.581Zm-1.349,2.558-.818.545a2.752,2.752,0,0,0-1.068,1.374c-.07.194-.149.387-.237.573a2.755,2.755,0,0,0-.217,1.726l.193.964a.321.321,0,0,1-.378.378l-.964-.193a2.755,2.755,0,0,0-1.726.216c-.186.088-.379.167-.573.237a2.752,2.752,0,0,0-1.374,1.068l-.545.818a.322.322,0,0,1-.535,0l-.545-.818a2.751,2.751,0,0,0-1.374-1.068c-.194-.07-.387-.149-.573-.237a2.782,2.782,0,0,0-1.189-.27,2.737,2.737,0,0,0-.537.053l-.964.193a.321.321,0,0,1-.378-.378l.193-.964a2.755,2.755,0,0,0-.217-1.726c-.088-.186-.167-.378-.237-.573a2.753,2.753,0,0,0-1.068-1.374l-.818-.545a.321.321,0,0,1,0-.535l.818-.545a2.751,2.751,0,0,0,1.068-1.374c.07-.194.149-.387.237-.573a2.754,2.754,0,0,0,.217-1.726l-.193-.964a.321.321,0,0,1,.378-.378l.964.193a2.757,2.757,0,0,0,1.726-.217c.186-.088.378-.167.573-.237a2.753,2.753,0,0,0,1.374-1.067l.546-.818a.321.321,0,0,1,.535,0l.546.818a2.752,2.752,0,0,0,1.374,1.067c.194.07.387.149.573.237a2.756,2.756,0,0,0,1.726.217l.964-.193a.321.321,0,0,1,.378.378l-.193.964a2.755,2.755,0,0,0,.216,1.726c.088.186.167.379.237.573a2.751,2.751,0,0,0,1.068,1.374l.818.546a.321.321,0,0,1,0,.535Z" transform="translate(-241.121 -235.306)"/>
          <path id="Trazado_193775" data-name="Trazado 193775" d="M152.542,296.988a3.836,3.836,0,1,0,3.836,3.836A3.84,3.84,0,0,0,152.542,296.988Zm0,5.24a1.4,1.4,0,1,1,1.4-1.4A1.406,1.406,0,0,1,152.542,302.228Z" transform="translate(-137.012 -248.849)"/>
          <path id="Trazado_193776" data-name="Trazado 193776" d="M188.907,425.878a3.836,3.836,0,1,0-3.836-3.836A3.84,3.84,0,0,0,188.907,425.878Zm0-5.24a1.4,1.4,0,1,1-1.4,1.4A1.406,1.406,0,0,1,188.907,420.639Z" transform="translate(-167.482 -350.42)"/>
          <path id="Trazado_193777" data-name="Trazado 193777" d="M206.767,232.132a3.836,3.836,0,1,0-3.836,3.836A3.84,3.84,0,0,0,206.767,232.132Zm-3.836,1.4a1.4,1.4,0,1,1,1.4-1.4A1.406,1.406,0,0,1,202.932,233.536Z" transform="translate(-179.234 -191.292)"/>
        </g>
      </g>
    </g>
  </g>
</svg>
