<svg id="en-llamada" xmlns="http://www.w3.org/2000/svg" width="126.148" height="126.148" viewBox="0 0 126.148 126.148">
  <path id="Trazado_193778" data-name="Trazado 193778" d="M126.148,63.074A63.074,63.074,0,1,1,63.074,0,63.074,63.074,0,0,1,126.148,63.074Zm0,0" fill="#6acfe3"/>
  <path id="Trazado_193779" data-name="Trazado 193779" d="M231.953,104.835H218.97V91.852H205.41v12.983H192.426v13.559H205.41v12.985H218.97V118.394h12.983Zm0,0" transform="translate(-133.792 -63.864)" fill="#f18385"/>
  <path id="Trazado_193780" data-name="Trazado 193780" d="M214.8,129.035H201.239a1.829,1.829,0,0,1-1.828-1.828V116.051H188.254a1.829,1.829,0,0,1-1.828-1.828V100.663a1.829,1.829,0,0,1,1.828-1.828H199.41V87.68a1.828,1.828,0,0,1,1.828-1.828H214.8a1.828,1.828,0,0,1,1.828,1.828V98.835h11.155a1.828,1.828,0,0,1,1.828,1.828v13.559a1.828,1.828,0,0,1-1.828,1.828H216.626v11.156A1.829,1.829,0,0,1,214.8,129.035Zm-11.731-3.656h9.9V114.223a1.829,1.829,0,0,1,1.828-1.828h11.155v-9.9H214.8a1.829,1.829,0,0,1-1.828-1.828V89.508h-9.9v11.155a1.829,1.829,0,0,1-1.828,1.828H190.082v9.9h11.156a1.829,1.829,0,0,1,1.828,1.828Zm0,0" transform="translate(-129.621 -59.692)" fill="#4c4372"/>
  <path id="Trazado_193781" data-name="Trazado 193781" d="M111.006,144.149a6.5,6.5,0,0,1,9.2,0l12.106,12.106a6.51,6.51,0,0,1-.778,9.864c-19.38,14.146-44.212,8.921-62.36-9.227S45.8,113.913,59.944,94.532a6.51,6.51,0,0,1,9.864-.777l12.106,12.1a6.5,6.5,0,0,1,0,9.2l-5.881,5.882a3.873,3.873,0,0,0-1.013,3.7,36.609,36.609,0,0,0,26.4,26.406,3.878,3.878,0,0,0,3.7-1.013Zm0,0" transform="translate(-36.051 -63.863)" fill="#defaff"/>
  <path id="Trazado_193782" data-name="Trazado 193782" d="M258.575,281.107a6.51,6.51,0,0,0,.777-9.864l-12.1-12.106a6.5,6.5,0,0,0-9.2,0l-3.48,3.48,20.688,20.689C256.379,282.632,257.486,281.9,258.575,281.107Zm0,0" transform="translate(-163.095 -178.852)" fill="#a4cff2"/>
  <path id="Trazado_193783" data-name="Trazado 193783" d="M91.887,118.535l3.48-3.48a6.5,6.5,0,0,0,0-9.2L83.261,93.752a6.51,6.51,0,0,0-9.864.778c-.8,1.089-1.525,2.2-2.2,3.317Zm0,0" transform="translate(-49.504 -63.862)" fill="#a4cff2"/>
  <g id="Grupo_145790" data-name="Grupo 145790" transform="translate(13.967 26.158)">
    <path id="Trazado_193784" data-name="Trazado 193784" d="M251.088,280.972a1.827,1.827,0,0,1-1.294-.536l-20.688-20.688a1.828,1.828,0,0,1,0-2.585l3.48-3.48a8.342,8.342,0,0,1,11.782,0l12.1,12.106a8.339,8.339,0,0,1-.991,12.633c-1.1.806-2.266,1.576-3.454,2.29A1.827,1.827,0,0,1,251.088,280.972Zm3.316-4.027h0Zm-21.42-18.489,18.369,18.368c.674-.436,1.334-.889,1.973-1.356a4.683,4.683,0,0,0,.563-7.1l-12.106-12.1a4.682,4.682,0,0,0-6.612,0Zm0,0" transform="translate(-172.891 -200.848)" fill="#4c4372"/>
    <path id="Trazado_193785" data-name="Trazado 193785" d="M87.715,116.19a1.829,1.829,0,0,1-1.293-.536L65.734,94.967a1.828,1.828,0,0,1-.275-2.234c.717-1.193,1.487-2.356,2.29-3.454a8.337,8.337,0,0,1,12.632-.993l12.106,12.106a8.332,8.332,0,0,1,0,11.782l-3.48,3.48A1.827,1.827,0,0,1,87.715,116.19ZM69.347,93.408l18.368,18.369,2.188-2.188a4.677,4.677,0,0,0,0-6.612L77.8,90.871a4.683,4.683,0,0,0-7.1.563Q70,92.391,69.347,93.408Zm0,0" transform="translate(-59.299 -85.847)" fill="#4c4372"/>
    <path id="Trazado_193786" data-name="Trazado 193786" d="M102.9,171.872a45.794,45.794,0,0,1-7.49-.625c-11.353-1.882-22.319-7.841-31.712-17.235S48.346,133.654,46.464,122.3a42.95,42.95,0,0,1,7.824-33.02,8.34,8.34,0,0,1,12.633-.993l12.106,12.106a8.341,8.341,0,0,1,0,11.782l-5.881,5.882a2.054,2.054,0,0,0-.534,1.954A34.743,34.743,0,0,0,97.7,145.1a2.055,2.055,0,0,0,1.956-.534l5.882-5.881a8.329,8.329,0,0,1,11.782,0l12.106,12.1a8.34,8.34,0,0,1-.993,12.633A42.8,42.8,0,0,1,102.9,171.872ZM61.036,89.507c-.121,0-.242,0-.363.014a4.7,4.7,0,0,0-3.432,1.915,39.363,39.363,0,0,0-7.17,30.266c1.756,10.6,7.362,20.875,16.213,29.724s19.129,14.457,29.724,16.213a39.362,39.362,0,0,0,30.266-7.17,4.682,4.682,0,0,0,.563-7.094l-12.106-12.106a4.677,4.677,0,0,0-6.612,0l-5.881,5.882a5.731,5.731,0,0,1-5.445,1.491,38.4,38.4,0,0,1-27.725-27.725,5.729,5.729,0,0,1,1.493-5.444l5.881-5.882a4.68,4.68,0,0,0,0-6.612l-12.1-12.1A4.663,4.663,0,0,0,61.036,89.507Zm0,0" transform="translate(-45.839 -85.849)" fill="#4c4372"/>
  </g>
</svg>
