<svg xmlns="http://www.w3.org/2000/svg" width="139" height="139" viewBox="0 0 139 139">
  <g id="Grupo_145940" data-name="Grupo 145940" transform="translate(10578 6778)">
    <rect id="Rectángulo_44306" data-name="Rectángulo 44306" width="139" height="139" rx="69.5" transform="translate(-10578 -6778)" fill="#b0f0fc"/>
    <g id="instrumento-quirurgico" transform="translate(-10558.843 -6759.754)">
      <g id="Grupo_145456" data-name="Grupo 145456" transform="translate(1.262 11.108)">
        <g id="Grupo_145455" data-name="Grupo 145455" transform="translate(0 0)">
          <g id="Grupo_145453" data-name="Grupo 145453" transform="translate(47.086 0)">
            <path id="Trazado_193297" data-name="Trazado 193297" d="M300.236,17.346h-.8a12.031,12.031,0,0,0-12.031,12.031v12.9a2.978,2.978,0,0,0,2.39,2.919l2.548.513a.918.918,0,0,1,.737.9V66.714H301.8v-47.8a1.566,1.566,0,0,0-1.565-1.565Z" transform="translate(-287.409 -17.346)" fill="#ddebfd"/>
            <path id="Trazado_193298" data-name="Trazado 193298" d="M348.134,17.346h-.8a12.091,12.091,0,0,0-2.344.23,1.563,1.563,0,0,1,.752,1.335v47.8H349.7v-47.8a1.565,1.565,0,0,0-1.565-1.565Z" transform="translate(-335.307 -17.346)" fill="#bed9fd"/>
            <path id="Trazado_193299" data-name="Trazado 193299" d="M297.513,270.171V236.785a1.962,1.962,0,0,1,1.323-1.854l9.973-3.435a1.053,1.053,0,0,1,1.4,1v37.679a5.545,5.545,0,0,1-5.545,5.545h-1.6a5.544,5.544,0,0,1-5.544-5.545Z" transform="translate(-295.813 -195.423)" fill="#6cbff8"/>
            <path id="Trazado_193300" data-name="Trazado 193300" d="M330.414,231.5l-2.564.883a1.087,1.087,0,0,1,.007.113v37.679a5.546,5.546,0,0,1-4.369,5.419,5.566,5.566,0,0,0,1.175.126h1.6a5.545,5.545,0,0,0,5.545-5.545V232.492A1.054,1.054,0,0,0,330.414,231.5Z" transform="translate(-317.419 -195.423)" fill="#5fa7ee"/>
          </g>
          <path id="Trazado_193301" data-name="Trazado 193301" d="M7.5,86.08c0,6.383,4.816,11.559,10.759,11.559S29.017,92.463,29.017,86.08V49.445H36.29C35.446,32.04,33.262,23.5,30.375,18.152a1.546,1.546,0,0,0-2.716,0c-3.737,6.927-6.3,19.189-6.3,49.112V73.52a1.163,1.163,0,0,1-1.352,1.153,10.118,10.118,0,0,0-4.857.335A11.489,11.489,0,0,0,7.5,86.08Zm5.085,0a6.211,6.211,0,0,1,2.569-5.1,5.351,5.351,0,0,1,6.209,0,6.211,6.211,0,0,1,2.568,5.1,5.894,5.894,0,0,1-5.672,6.094,5.9,5.9,0,0,1-5.674-6.094Z" transform="translate(-7.5 -17.345)" fill="#ddebfd"/>
          <path id="Trazado_193302" data-name="Trazado 193302" d="M91.487,52.1l7.389,5.983v28c0,6.383,4.816,11.559,10.759,11.559s10.759-5.175,10.759-11.559-4.818-11.559-10.759-11.559a10.108,10.108,0,0,0-1.753.153,1.163,1.163,0,0,1-1.351-1.153V67.265c0-29.923-2.559-42.184-6.3-49.112a1.546,1.546,0,0,0-2.716,0c-3.031,5.618-5.287,14.742-6.031,33.948Zm12.474,33.98a6.211,6.211,0,0,1,2.569-5.1,5.373,5.373,0,0,1,3.1-.992,6.11,6.11,0,1,1-5.674,6.094Z" transform="translate(-77.359 -17.346)" fill="#bed9fd"/>
          <g id="Grupo_145454" data-name="Grupo 145454" transform="translate(19.748 0)">
            <path id="Trazado_193303" data-name="Trazado 193303" d="M130.778,67.264V73.52a1.163,1.163,0,0,0,1.351,1.153,10.135,10.135,0,0,1,2.861-.092,1.174,1.174,0,0,1-.673-1.061V67.264c0-29.923-2.559-42.184-6.3-49.112a1.546,1.546,0,0,0-2.716,0q-.208.386-.412.8C128.406,26.015,130.778,38.452,130.778,67.264Z" transform="translate(-124.893 -17.345)" fill="#9ec8fc"/>
            <path id="Trazado_193304" data-name="Trazado 193304" d="M190.56,357.229a10.107,10.107,0,0,0-1.753.153l-.028,0a11.723,11.723,0,0,1,.012,22.8,10.09,10.09,0,0,0,1.77.158c5.941,0,10.759-5.176,10.759-11.559S196.5,357.229,190.56,357.229Z" transform="translate(-178.032 -300.054)" fill="#9ec8fc"/>
            <path id="Trazado_193305" data-name="Trazado 193305" d="M127.961,19.952a1.54,1.54,0,0,1,.277.368c2.655,4.92,4.714,12.535,5.685,27.255-2.434-1.308-4.979-2.7-6.856-3.809a3.869,3.869,0,0,1-1.909-3.5A121.879,121.879,0,0,1,127.961,19.952Z" transform="translate(-125.111 -19.514)" fill="#9ec8fc"/>
          </g>
          <path id="Trazado_193306" data-name="Trazado 193306" d="M136.593,20.319a1.545,1.545,0,0,0-.277-.368c-.416,1.693-.789,3.54-1.117,5.43,1.506,4.548,2.687,10.847,3.4,20.188,1.188.658,2.448,1.343,3.681,2.005C141.307,32.854,139.248,25.24,136.593,20.319Z" transform="translate(-113.717 -19.513)" fill="#80b6fc"/>
          <path id="Trazado_193307" data-name="Trazado 193307" d="M426.289,103.409l-2.16-20.649a1.548,1.548,0,0,0-3.079,0l-2.16,20.649a1.745,1.745,0,0,1-.561,1.109l-1.873,1.706a4.248,4.248,0,0,0-1.385,3.312l1.428,35.509a6.1,6.1,0,0,0,12.181,0l1.428-35.509a4.248,4.248,0,0,0-1.385-3.312l-1.873-1.706A1.745,1.745,0,0,1,426.289,103.409Z" transform="translate(-346.506 -70.602)" fill="#ddebfd"/>
          <path id="Trazado_193308" data-name="Trazado 193308" d="M456.352,106.224l-1.873-1.706a1.746,1.746,0,0,1-.561-1.109l-2.16-20.649a1.548,1.548,0,0,0-2.469-1.077,1.54,1.54,0,0,1,.283.74l.478,20.986a1.746,1.746,0,0,0,.561,1.109l1.873,1.706a4.247,4.247,0,0,1,1.385,3.312l-1.428,35.509a6.1,6.1,0,0,1-4.156,5.535,6.095,6.095,0,0,0,8.025-5.535l1.428-35.509A4.248,4.248,0,0,0,456.352,106.224Z" transform="translate(-374.135 -70.602)" fill="#bed9fd"/>
        </g>
      </g>
      <g id="Grupo_145457" data-name="Grupo 145457" transform="translate(0 9.846)">
        <path id="Trazado_193309" data-name="Trazado 193309" d="M296.825,25.966a1.262,1.262,0,0,0-2.523,0V45.875c-.5.045-.246.038-6.192,2.061V40.37a2.191,2.191,0,0,0-1.749-2.137l-2.549-.513a1.72,1.72,0,0,1-1.377-1.682v-12.9A10.781,10.781,0,0,1,293.2,12.373c.411.051,1.1-.169,1.1.3v7.4a1.262,1.262,0,0,0,2.523,0v-7.4A2.829,2.829,0,0,0,294,9.85h-.8A13.307,13.307,0,0,0,279.91,23.141v12.9a4.25,4.25,0,0,0,3.4,4.156l2.273.458v8.153l-1.8.621a3.224,3.224,0,0,0-2.173,3.047V85.859a6.814,6.814,0,0,0,6.806,6.806h1.6a6.814,6.814,0,0,0,6.806-6.806V48.18s0-.005,0-.008V25.966Zm-6.806,64.177h-1.6a4.288,4.288,0,0,1-4.283-4.283V52.473a.7.7,0,0,1,.472-.662l9.7-3.34V60.479s0,.006,0,.01v25.37A4.288,4.288,0,0,1,290.019,90.142Z" transform="translate(-232.823 -9.849)"/>
        <path id="Trazado_193310" data-name="Trazado 193310" d="M329,308.95a1.262,1.262,0,0,0-1.262,1.262v15.677a1.262,1.262,0,1,0,2.523,0V310.212A1.262,1.262,0,0,0,329,308.95Z" transform="translate(-272.606 -258.635)"/>
        <path id="Trazado_193311" data-name="Trazado 193311" d="M37.162,382.215a6.63,6.63,0,0,0-3.83,1.221,7.467,7.467,0,0,0-3.106,6.134,7.163,7.163,0,0,0,6.936,7.356,7.162,7.162,0,0,0,6.934-7.356,7.468,7.468,0,0,0-3.1-6.132A6.62,6.62,0,0,0,37.162,382.215Zm0,12.188a4.642,4.642,0,0,1-4.412-4.832,4.943,4.943,0,0,1,2.034-4.07,4.089,4.089,0,0,1,4.758,0,4.944,4.944,0,0,1,2.032,4.069A4.641,4.641,0,0,1,37.162,394.4Z" transform="translate(-25.141 -319.575)"/>
        <path id="Trazado_193312" data-name="Trazado 193312" d="M165.075,382.215a6.63,6.63,0,0,0-3.83,1.221,7.467,7.467,0,0,0-3.106,6.134,6.947,6.947,0,1,0,6.936-7.356Zm0,12.188a4.642,4.642,0,0,1-4.412-4.832,4.944,4.944,0,0,1,2.034-4.07,4.12,4.12,0,0,1,2.379-.762,4.853,4.853,0,0,1,0,9.665Z" transform="translate(-131.537 -319.575)"/>
        <path id="Trazado_193313" data-name="Trazado 193313" d="M33.538,67.021a11.4,11.4,0,0,0-1.843.15V61.026c0-13.088-.232-38.189-6.448-49.711a2.808,2.808,0,0,0-4.936,0c-5.8,10.757-6.29,31.916-6.422,44.707A1.262,1.262,0,0,0,15.137,57.3h.013a1.262,1.262,0,0,0,1.261-1.249c.027-2.651.078-5.195.152-7.612l4.954,4.01v27.4c0,5.678-4.26,10.3-9.5,10.3s-9.5-4.619-9.5-10.3c0-5.491,4.114-10.3,9.5-10.3a8.855,8.855,0,0,1,1.534.134,2.4,2.4,0,0,0,1.961-.528,2.433,2.433,0,0,0,.872-1.868v-5.36a1.262,1.262,0,0,0-2.523,0v5.249a11.378,11.378,0,0,0-1.843-.15A11.79,11.79,0,0,0,2.4,72.159,13.282,13.282,0,0,0,0,79.842c0,7.069,5.392,12.82,12.02,12.82A11.984,11.984,0,0,0,22.779,85.55a11.985,11.985,0,0,0,10.759,7.112c6.628,0,12.02-5.751,12.02-12.82s-5.392-12.821-12.02-12.821Zm-11.22-35.1a128.454,128.454,0,0,1,2.012-16.6c2,5,3.332,11.968,4.083,21.655-1.969-1.073-3.58-1.978-4.806-2.7a2.6,2.6,0,0,1-1.289-2.356Zm11.22,58.222c-5.237,0-9.5-4.619-9.5-10.3v-28a1.261,1.261,0,0,0-.468-.981l-6.9-5.584c.387-9.463,1.309-23.723,5.518-32.117a128.985,128.985,0,0,0-2.4,18.645,5.121,5.121,0,0,0,2.53,4.64c1.533.9,3.648,2.081,6.294,3.508.374,6.012.551,12.985.551,21.071v6.256a2.433,2.433,0,0,0,.871,1.868,2.4,2.4,0,0,0,1.96.528,8.876,8.876,0,0,1,1.535-.134c5.237,0,9.5,4.619,9.5,10.3S38.775,90.139,33.538,90.139Z" transform="translate(0 -9.846)"/>
        <path id="Trazado_193314" data-name="Trazado 193314" d="M423.334,99.053l-1.873-1.705a.484.484,0,0,1-.156-.308l-2.16-20.649a2.81,2.81,0,0,0-5.589,0L411.4,97.039a.484.484,0,0,1-.156.308l-1.873,1.706a5.5,5.5,0,0,0-1.8,4.3l.8,20.007a1.262,1.262,0,1,0,2.521-.1l-.8-20.007a2.978,2.978,0,0,1,.973-2.328l1.874-1.706a3,3,0,0,0,.966-1.911l2.16-20.65a.286.286,0,0,1,.57,0L418.8,97.3a3,3,0,0,0,.966,1.91l1.873,1.706a2.979,2.979,0,0,1,.973,2.328l-1.428,35.509a4.834,4.834,0,0,1-9.66,0l-.387-9.616a1.262,1.262,0,1,0-2.521.1l.387,9.617a7.357,7.357,0,0,0,14.7,0l1.428-35.509a5.5,5.5,0,0,0-1.8-4.3Z" transform="translate(-339.005 -63.102)"/>
      </g>
    </g>
  </g>
</svg>
