<svg xmlns="http://www.w3.org/2000/svg" width="139" height="139" viewBox="0 0 139 139">
  <g id="Grupo_145943" data-name="Grupo 145943" transform="translate(10578 5872)">
    <rect id="Rectángulo_44312" data-name="Rectángulo 44312" width="139" height="139" rx="69.5" transform="translate(-10578 -5872)" fill="#b0f0fc"/>
    <g id="chico" transform="translate(-10620.355 -5850.788)">
      <path id="Trazado_193330" data-name="Trazado 193330" d="M349.867,154.446h1.563a4.689,4.689,0,0,0,4.689-4.689h0a4.689,4.689,0,0,0-4.689-4.689h-1.563" transform="translate(-230.017 -118.494)" fill="#fedac6"/>
      <path id="Trazado_193331" data-name="Trazado 193331" d="M134.252,154.446h-1.563A4.689,4.689,0,0,1,128,149.756h0a4.689,4.689,0,0,1,4.689-4.689h1.563" transform="translate(-48.791 -118.494)" fill="#f5c4b0"/>
      <path id="Trazado_193332" data-name="Trazado 193332" d="M162.133,90.022v12.505l.375,4.877A16.9,16.9,0,0,0,180.787,122.8q.76-.066,1.51-.2a17.2,17.2,0,0,0,13.9-15.835l.328-4.236V90.022l-7.816-4.689Z" transform="translate(-76.672 -69.702)" fill="#fedac6"/>
      <path id="Trazado_193333" data-name="Trazado 193333" d="M169.949,121.713V103.424l-7.816,1.375V117.3l.375,4.877a16.819,16.819,0,0,0,14.615,15.287L174,133.4A18.989,18.989,0,0,1,169.949,121.713Z" transform="translate(-76.672 -84.479)" fill="#f5c4b0"/>
      <path id="Trazado_193334" data-name="Trazado 193334" d="M160.826,11.659h0a5.645,5.645,0,0,0-5.065-3.126H128a6.253,6.253,0,0,0,6.252,6.252H128a6.253,6.253,0,0,0,6.252,6.252H128a6.253,6.253,0,0,0,6.252,6.252H140.5c7.5,0,15.428-2.845,20.321-4.689a16.985,16.985,0,0,0,7.816,4.689V19.475A7.816,7.816,0,0,0,160.826,11.659Z" transform="translate(-48.791 -6.97)" fill="#f18385"/>
      <path id="Trazado_193335" data-name="Trazado 193335" d="M128.427,80.64a6.251,6.251,0,0,0,6.174,5.549h6.252c5.221,0,15.85-3.236,20.321-4.689C149.951,81.765,133.679,81.719,128.427,80.64Z" transform="translate(-49.14 -65.868)" fill="#8f4f24"/>
      <g id="Grupo_145462" data-name="Grupo 145462" transform="translate(85.461 26.573)">
        <path id="Trazado_193336" data-name="Trazado 193336" d="M169.167,156.009h0a7.018,7.018,0,0,1-7.034-7v-3.939H176.2v3.908a7.018,7.018,0,0,1-7,7.034Z" transform="translate(-162.133 -145.067)" fill="#ebebeb"/>
        <path id="Trazado_193337" data-name="Trazado 193337" d="M280.1,156.009h0a7.018,7.018,0,0,1-7.034-7v-3.939h14.068v3.908a7.018,7.018,0,0,1-7,7.034Z" transform="translate(-252.746 -145.067)" fill="#ebebeb"/>
      </g>
      <path id="Trazado_193338" data-name="Trazado 193338" d="M194.941,303.484a14.21,14.21,0,0,0,13.068-8.613l.7-1.563-3.2-.375a3.127,3.127,0,0,1-2.751-3.126V281.6H187.125v8.159a3.127,3.127,0,0,1-2.751,3.126l-3.126.375.7,1.563A14.21,14.21,0,0,0,194.941,303.484Z" transform="translate(-92.285 -230.017)" fill="#fedac6"/>
      <path id="Trazado_193339" data-name="Trazado 193339" d="M131.6,346.142l-8.206-.969-.7,1.563a14.224,14.224,0,0,1-26.135,0l-.7-1.563-8.206.969a12.505,12.505,0,0,0-10.848,12.4v17.194h65.651V358.538A12.506,12.506,0,0,0,131.6,346.142Z" transform="translate(-6.971 -281.945)" fill="#8ee5f6"/>
      <path id="Trazado_193340" data-name="Trazado 193340" d="M76.8,369.9v17.194h6.252V359.083A12.505,12.505,0,0,0,76.8,369.9Z" transform="translate(-6.97 -293.307)" fill="#329ac7"/>
      <rect id="Rectángulo_44313" data-name="Rectángulo 44313" width="12.505" height="7.816" transform="translate(69.83 85.972)" fill="#fedac6"/>
      <g id="Grupo_145463" data-name="Grupo 145463" transform="translate(69.83 51.583)">
        <rect id="Rectángulo_44314" data-name="Rectángulo 44314" width="6.252" height="7.816" transform="translate(0 34.389)" fill="#f5c4b0"/>
        <path id="Trazado_193341" data-name="Trazado 193341" d="M228.965,286.289V281.6H213.334v4.689C219.2,289.416,223.1,289.416,228.965,286.289Z" transform="translate(-188.324 -281.6)" fill="#f5c4b0"/>
      </g>
      <rect id="Rectángulo_44315" data-name="Rectángulo 44315" width="12.505" height="7.816" transform="translate(122.976 85.972)" fill="#fedac6"/>
      <path id="Trazado_193342" data-name="Trazado 193342" d="M236.648,158.271h-4.689a1.564,1.564,0,0,1-1.552-1.757l1.563-12.505,3.1.388-1.341,10.748h2.918v3.126Z" transform="translate(-132.43 -117.63)"/>
      <path id="Trazado_193343" data-name="Trazado 193343" d="M239.2,230.154h-.266v-3.126h.266a9.067,9.067,0,0,0,6.445-2.67l2.21,2.212A12.171,12.171,0,0,1,239.2,230.154Z" transform="translate(-139.404 -183.26)"/>
      <path id="Trazado_193344" data-name="Trazado 193344" d="M351.43,149.037h-1.563v-3.126h1.563a3.126,3.126,0,0,0,0-6.253h-1.563v-3.126h1.563a6.253,6.253,0,0,1,0,12.505Z" transform="translate(-230.017 -111.522)"/>
      <path id="Trazado_193345" data-name="Trazado 193345" d="M127.283,149.039h-1.563a6.252,6.252,0,1,1,0-12.5h1.563v3.126h-1.563a3.126,3.126,0,1,0,0,6.253h1.563Z" transform="translate(-41.821 -111.524)"/>
      <path id="Trazado_193346" data-name="Trazado 193346" d="M172.341,124.425a18.464,18.464,0,0,1-18.361-16.885l-.377-4.891,0-12.625h3.126v12.505l.37,4.757a15.359,15.359,0,0,0,16.586,13.954c.461-.039.918-.1,1.372-.18a15.621,15.621,0,0,0,12.607-14.392l.33-4.261,0-17.072h3.126v17.194l-.333,4.356a18.743,18.743,0,0,1-15.158,17.248c-.571.1-1.122.175-1.674.222S172.876,124.425,172.341,124.425Z" transform="translate(-69.701 -69.703)"/>
      <path id="Trazado_193347" data-name="Trazado 193347" d="M161.671,21.884a1.576,1.576,0,0,1-.416-.056,18.532,18.532,0,0,1-7.792-4.381c-6.071,2.251-13.088,4.438-19.928,4.438h-6.252a7.825,7.825,0,0,1-7.816-7.816,1.564,1.564,0,0,1,1.563-1.563h0a7.784,7.784,0,0,1-1.566-4.689,1.564,1.564,0,0,1,1.563-1.563h0a7.784,7.784,0,0,1-1.566-4.689A1.564,1.564,0,0,1,121.03,0h27.78a7.153,7.153,0,0,1,5.968,3.172,9.392,9.392,0,0,1,8.456,9.334v7.816a1.564,1.564,0,0,1-1.563,1.563Zm-38.811-6.253a4.7,4.7,0,0,0,4.422,3.126h6.252c7.6,0,15.819-3.1,19.769-4.589a1.56,1.56,0,0,1,1.685.388,15.441,15.441,0,0,0,5.118,3.566V12.505a6.259,6.259,0,0,0-6.252-6.252,1.562,1.562,0,0,1-1.4-.866,4.148,4.148,0,0,0-3.659-2.26H122.861a4.7,4.7,0,0,0,4.422,3.126,1.563,1.563,0,1,1,0,3.126h-4.422a4.7,4.7,0,0,0,4.422,3.126,1.563,1.563,0,1,1,0,3.126h-4.422Z" transform="translate(-41.821)"/>
      <path id="Trazado_193348" data-name="Trazado 193348" d="M162.182,150.6a8.582,8.582,0,0,1-8.582-8.563V138.1a1.564,1.564,0,0,1,1.563-1.563h14.068a1.564,1.564,0,0,1,1.563,1.563V142a8.582,8.582,0,0,1-8.563,8.6h-.05Zm-5.455-10.942V142a5.468,5.468,0,0,0,5.455,5.471h.047a5.461,5.461,0,0,0,5.44-5.468v-2.348Z" transform="translate(-69.702 -111.523)"/>
      <path id="Trazado_193349" data-name="Trazado 193349" d="M273.115,150.6a8.593,8.593,0,0,1-8.582-8.563V138.1a1.563,1.563,0,0,1,1.563-1.563h14.068a1.563,1.563,0,0,1,1.563,1.563V142a8.582,8.582,0,0,1-8.563,8.6h-.05Zm-5.455-10.942V142a5.469,5.469,0,0,0,5.455,5.471h.048a5.454,5.454,0,0,0,5.44-5.466v-2.349Z" transform="translate(-160.314 -111.523)"/>
      <rect id="Rectángulo_44316" data-name="Rectángulo 44316" width="6.252" height="3.126" transform="translate(99.529 25.01)"/>
      <circle id="Elipse_1148" data-name="Elipse 1148" cx="3.126" cy="3.126" r="3.126" transform="translate(90.151 26.573)"/>
      <circle id="Elipse_1149" data-name="Elipse 1149" cx="3.126" cy="3.126" r="3.126" transform="translate(108.908 26.573)"/>
      <path id="Trazado_193350" data-name="Trazado 193350" d="M71.393,323.8H68.267V306.61a14.115,14.115,0,0,1,12.2-13.945l11.434-1.347a1.561,1.561,0,0,0,1.371-1.563V281.6H96.4v8.144a4.684,4.684,0,0,1-4.127,4.678l-11.416,1.344a10.971,10.971,0,0,0-9.468,10.844V323.8Z" transform="translate(0 -230.017)"/>
      <path id="Trazado_193351" data-name="Trazado 193351" d="M318.268,323.8h-3.126V306.61a10.979,10.979,0,0,0-9.493-10.831l-11.386-1.341a4.688,4.688,0,0,1-4.131-4.691V281.6h3.126v8.159a1.563,1.563,0,0,0,1.376,1.574l11.406,1.344a14.122,14.122,0,0,1,12.228,13.931Z" transform="translate(-181.224 -230.017)"/>
      <path id="Trazado_193352" data-name="Trazado 193352" d="M186.871,351.092h-.017a15.749,15.749,0,0,1-14.495-9.56l-1-2.327,2.873-1.233,1,2.329a12.632,12.632,0,0,0,11.623,7.666h.014a12.634,12.634,0,0,0,11.625-7.666l1-2.329,2.873,1.233-1,2.329A15.754,15.754,0,0,1,186.871,351.092Z" transform="translate(-84.207 -276.062)"/>
      <rect id="Rectángulo_44317" data-name="Rectángulo 44317" width="3.126" height="12.505" transform="translate(80.772 81.283)"/>
      <rect id="Rectángulo_44318" data-name="Rectángulo 44318" width="12.505" height="3.126" transform="translate(69.83 84.409)"/>
      <rect id="Rectángulo_44319" data-name="Rectángulo 44319" width="3.126" height="12.505" transform="translate(121.413 81.283)"/>
      <rect id="Rectángulo_44320" data-name="Rectángulo 44320" width="12.505" height="3.126" transform="translate(122.976 84.409)"/>
    </g>
    <text id="_18_" data-name="18+" transform="translate(-10488 -5833)" fill="#12263f" font-size="20" font-family="Roboto-Black, Roboto" font-weight="800"><tspan x="0" y="0">18+</tspan></text>
  </g>
</svg>
