<svg xmlns="http://www.w3.org/2000/svg" width="165" height="165" viewBox="0 0 165 165">
  <g id="Grupo_145840" data-name="Grupo 145840" transform="translate(-927 -8727)">
    <circle id="Elipse_1246" data-name="Elipse 1246" cx="82.5" cy="82.5" r="82.5" transform="translate(927 8727)" fill="#8ee5f6"/>
    <g id="microorganismo" transform="translate(953.649 8756.618)">
      <path id="Trazado_193913" data-name="Trazado 193913" d="M389.846,146.683c0,11.6-6.692,25.392-14.948,25.392s-14.948-13.792-14.948-25.392,6.692-16.616,14.948-16.616,14.948,5.016,14.948,16.616Z" transform="translate(-285.506 -103.195)" fill="#f18385"/>
      <circle id="Elipse_1241" data-name="Elipse 1241" cx="10.755" cy="10.755" r="10.755" transform="translate(28.501 79.072)" fill="#defaff"/>
      <path id="Trazado_193914" data-name="Trazado 193914" d="M177.909,382.464a10.753,10.753,0,0,0-3.1.456,10.756,10.756,0,0,1,0,20.6,10.755,10.755,0,1,0,3.1-21.053Z" transform="translate(-138.654 -303.392)" fill="#90d774"/>
      <circle id="Elipse_1242" data-name="Elipse 1242" cx="3.309" cy="3.309" r="3.309" transform="translate(34.677 85.249)" fill="#ffcd55"/>
      <path id="Trazado_193915" data-name="Trazado 193915" d="M420.327,130.067a18.531,18.531,0,0,0-3.1.255c6.766,1.149,11.846,6.256,11.846,16.361s-5.079,21.872-11.846,24.738a7.916,7.916,0,0,0,3.1.654c8.255,0,14.948-13.792,14.948-25.392s-6.692-16.616-14.948-16.616Z" transform="translate(-330.935 -103.195)" fill="#ff6167"/>
      <path id="Trazado_193916" data-name="Trazado 193916" d="M61.549,37.773,36.139,12.361A16.787,16.787,0,1,0,12.4,36.1L37.806,61.51A16.787,16.787,0,0,0,61.549,37.773Z" transform="translate(-5.95 -5.948)" fill="#483c8c"/>
      <path id="Trazado_193917" data-name="Trazado 193917" d="M114.53,37.78,89.121,12.369a16.8,16.8,0,0,0-14.974-4.61,16.663,16.663,0,0,1,8.769,4.61l25.41,25.412a16.835,16.835,0,0,1,0,23.737,16.666,16.666,0,0,1-8.769,4.61A16.772,16.772,0,0,0,114.53,37.78Z" transform="translate(-58.812 -5.956)" fill="#8178c3"/>
      <circle id="Elipse_1243" data-name="Elipse 1243" cx="7.583" cy="7.583" r="7.583" transform="translate(9.563 13.581)" fill="#ffd86e"/>
      <path id="Trazado_193918" data-name="Trazado 193918" d="M71.005,65.8a7.552,7.552,0,0,0-3.1.664,7.582,7.582,0,0,1,0,13.838,7.583,7.583,0,1,0,3.1-14.5Z" transform="translate(-53.86 -52.221)" fill="#ffcd55"/>
      <circle id="Elipse_1244" data-name="Elipse 1244" cx="6.205" cy="6.205" r="6.205" transform="translate(34.316 31.818)" fill="#ffd86e"/>
      <path id="Trazado_193919" data-name="Trazado 193919" d="M184.025,153.982a6.174,6.174,0,0,0-3.1.832,6.2,6.2,0,0,1,0,10.745,6.2,6.2,0,1,0,3.1-11.577Z" transform="translate(-143.505 -122.164)" fill="#ffcd55"/>
      <circle id="Elipse_1245" data-name="Elipse 1245" cx="7.583" cy="7.583" r="7.583" transform="translate(81.809 35.542)" fill="#ffd86e"/>
      <path id="Trazado_193920" data-name="Trazado 193920" d="M420.327,171.987a7.552,7.552,0,0,0-3.1.664,7.582,7.582,0,0,1,0,13.838,7.583,7.583,0,1,0,3.1-14.5Z" transform="translate(-330.935 -136.445)" fill="#ffcd55"/>
      <g id="Grupo_145839" data-name="Grupo 145839" transform="translate(0 0)">
        <path id="Trazado_193921" data-name="Trazado 193921" d="M38.791,67.436a9.144,9.144,0,0,0,9.133,9.134c12.116-.5,12.113-17.768,0-18.268a9.144,9.144,0,0,0-9.133,9.134Zm15.164,0A6.032,6.032,0,1,1,47.924,61.4,6.038,6.038,0,0,1,53.955,67.436Z" transform="translate(-30.768 -46.272)"/>
        <path id="Trazado_193922" data-name="Trazado 193922" d="M397.207,164.487a9.144,9.144,0,0,0-9.133,9.134c.5,12.117,17.766,12.114,18.266,0A9.144,9.144,0,0,0,397.207,164.487Zm0,15.166a6.031,6.031,0,1,1,6.031-6.032A6.038,6.038,0,0,1,397.207,179.653Z" transform="translate(-307.813 -130.496)"/>
        <path id="Trazado_193923" data-name="Trazado 193923" d="M170.026,409.688a4.86,4.86,0,1,0-4.86,4.86A4.865,4.865,0,0,0,170.026,409.688Zm-6.617,0a1.758,1.758,0,1,1,1.758,1.758A1.76,1.76,0,0,1,163.409,409.688Z" transform="translate(-127.173 -321.13)"/>
        <path id="Trazado_193924" data-name="Trazado 193924" d="M142.9,371.485h-2.273a12.241,12.241,0,0,0-2.481-5.978l1.61-1.611a1.551,1.551,0,0,0-2.193-2.193l-1.611,1.611a12.239,12.239,0,0,0-5.978-2.481V358.56a1.551,1.551,0,0,0-3.1,0v2.273a12.24,12.24,0,0,0-5.978,2.481l-1.611-1.611a1.551,1.551,0,0,0-2.193,2.193l1.61,1.611a12.243,12.243,0,0,0-2.481,5.978h-2.273a1.551,1.551,0,0,0,0,3.1h2.274a12.353,12.353,0,0,0,2.477,5.981l-1.608,1.608a1.551,1.551,0,0,0,2.193,2.194l1.855-1.855a1.55,1.55,0,0,0,1.068-2.693,9.2,9.2,0,1,1,5.711,2.4,1.555,1.555,0,0,0-1.045,2.764v2.523a1.551,1.551,0,0,0,3.1,0v-2.273a12.24,12.24,0,0,0,5.978-2.481l1.61,1.611a1.551,1.551,0,1,0,2.193-2.193l-1.61-1.611a12.243,12.243,0,0,0,2.481-5.978H142.9a1.551,1.551,0,0,0,0-3.1Z" transform="translate(-89.158 -283.21)"/>
        <path id="Trazado_193925" data-name="Trazado 193925" d="M166.217,146.482a7.764,7.764,0,0,0-7.755,7.756c.426,10.289,15.085,10.286,15.51,0A7.764,7.764,0,0,0,166.217,146.482Zm0,12.409a4.653,4.653,0,1,1,4.653-4.653A4.658,4.658,0,0,1,166.217,158.891Z" transform="translate(-125.689 -116.215)"/>
        <path id="Trazado_193926" data-name="Trazado 193926" d="M66.795,54.813,60.1,52.1A18.367,18.367,0,0,0,56.7,30.863L41.5,15.657A1.551,1.551,0,0,0,39.3,17.851l15.2,15.206A15.235,15.235,0,0,1,32.962,54.6L7.555,29.189A15.235,15.235,0,0,1,29.1,7.645l5.09,5.091a1.551,1.551,0,0,0,2.194-2.194l-5.09-5.091c-6.793-7.088-19.14-7.088-25.933,0a18.358,18.358,0,0,0,0,25.931L30.768,56.794a18.476,18.476,0,0,0,21.442,3.294l3.483,6.756a1.551,1.551,0,1,0,2.757-1.422l-3.611-7a18.243,18.243,0,0,0,3.6-3.639l7.19,2.91a1.551,1.551,0,1,0,1.163-2.876Z" transform="translate(0 -0.136)"/>
        <path id="Trazado_193927" data-name="Trazado 193927" d="M194.427,241.717a1.554,1.554,0,0,0,1.841,1.192l7.044-1.507a1.551,1.551,0,0,0-.649-3.034l-7.044,1.507A1.551,1.551,0,0,0,194.427,241.717Z" transform="translate(-154.189 -189.07)"/>
        <path id="Trazado_193928" data-name="Trazado 193928" d="M68.206,96.518a1.551,1.551,0,0,0,1.551,1.551h3a1.551,1.551,0,0,0,0-3.1h-3A1.551,1.551,0,0,0,68.206,96.518Z" transform="translate(-54.1 -75.354)"/>
        <path id="Trazado_193929" data-name="Trazado 193929" d="M376.737,176.755a14.572,14.572,0,0,1-1.651-4.865l-.884-5.827c9.247-5.7,15.207-26.573,8.078-37.052a1.551,1.551,0,1,0-2.559,1.754c6.869,9.677-1.031,33.844-10.8,33.8-7.214,0-13.4-13.109-13.4-23.841,0-9.574,4.882-15.064,13.4-15.064a15.04,15.04,0,0,1,5.861,1.1,1.551,1.551,0,0,0,1.2-2.859c-5.85-2.533-14.5-1.463-18.73,3.072-9.706,9.6-3.4,33.139,6.4,39.1l-.883,5.819a14.573,14.573,0,0,1-1.651,4.865l-2.3,4.176a1.551,1.551,0,0,0,2.716,1.5l2.3-4.176a17.671,17.671,0,0,0,2-5.9l.758-4.994q.384.1.774.17V184.8a1.551,1.551,0,0,0,3.1,0V167.531q.4-.069.788-.173l.759,5a17.664,17.664,0,0,0,2,5.9l2.3,4.176a1.551,1.551,0,1,0,2.716-1.5Z" transform="translate(-279.529 -97.238)"/>
        <path id="Trazado_193930" data-name="Trazado 193930" d="M418.682,201.152h-3.731a1.551,1.551,0,0,0,0,3.1h3.731A1.551,1.551,0,0,0,418.682,201.152Z" transform="translate(-327.911 -159.578)"/>
      </g>
    </g>
  </g>
</svg>
