<svg xmlns="http://www.w3.org/2000/svg" width="167.648" height="174.356" viewBox="0 0 167.648 174.356">
  <g id="Grupo_145889" data-name="Grupo 145889" transform="translate(4303.649 2982.355)">
    <g id="Grupo_145845" data-name="Grupo 145845" transform="translate(-5228 -11700)">
      <circle id="Elipse_1246" data-name="Elipse 1246" cx="82.5" cy="82.5" r="82.5" transform="translate(927 8727)" fill="#8ee5f6"/>
    </g>
    <g id="_x33_3_x2C__Bacteria_x2C__man_x2C__people_x2C__transmission_x2C__virus" transform="translate(-4325.898 -3005.855)">
      <g id="XMLID_2_" transform="translate(22.25 23.5)">
        <path id="XMLID_3310_" d="M320.611,283.5a35.861,35.861,0,1,1-35.861,35.861A35.86,35.86,0,0,1,320.611,283.5Z" transform="translate(-190.616 -190.262)" fill="#defaff"/>
        <path id="XMLID_3304_" d="M63.111,283.5A35.861,35.861,0,1,1,27.25,319.361,35.86,35.86,0,0,1,63.111,283.5Z" transform="translate(-25.457 -190.262)" fill="#fde9e0"/>
        <path id="XMLID_3298_" d="M236.512,91.466a26.3,26.3,0,1,1-5.39-15.947A26.308,26.308,0,0,1,236.512,91.466Z" transform="translate(-125.943 -50.227)" fill="#f07281"/>
        <path id="XMLID_1540_" d="M291.659,121.39a2.63,2.63,0,1,1-2.629,2.629A2.628,2.628,0,0,1,291.659,121.39Z" transform="translate(-193.361 -86.286)" fill="#fee45a"/>
        <circle id="XMLID_1539_" cx="2.629" cy="2.629" r="2.629" transform="translate(89.533 52.597)" fill="#fee45a"/>
        <circle id="XMLID_1538_" cx="4.382" cy="4.382" r="4.382" transform="translate(70.247 35.861)" fill="#fee45a"/>
        <g id="Grupo_145888" data-name="Grupo 145888" transform="translate(44.826 1.793)">
          <path id="XMLID_1537_" d="M184.815,61.109l0,0a26.193,26.193,0,0,0-4.96,4.96l0,0-5.124-5.124-.308.312a3.068,3.068,0,0,1-4.339-4.339l5.58-5.58A3.068,3.068,0,1,1,180,55.676l-.312.308Z" transform="translate(-161.319 -42.572)" fill="#d8566c"/>
          <path id="XMLID_1536_" d="M316.455,56.913a3.068,3.068,0,1,1-4.339,4.339l-.308-.312-5.125,5.124,0,0a26.193,26.193,0,0,0-4.96-4.96l0,0,5.124-5.124-.312-.308a3.068,3.068,0,0,1,4.339-4.339Z" transform="translate(-246.326 -42.569)" fill="#d8566c"/>
          <path id="XMLID_1535_" d="M184.822,187.93l0,0-5.124,5.124.312.308a3.068,3.068,0,0,1-4.339,4.339l-5.58-5.58a3.068,3.068,0,0,1,4.339-4.339l.308.312,5.124-5.124,0,0A26.194,26.194,0,0,0,184.822,187.93Z" transform="translate(-161.322 -127.576)" fill="#d8566c"/>
          <path id="XMLID_1534_" d="M250.819,219.328a3.066,3.066,0,0,1-2.17,5.236H240.76a3.068,3.068,0,1,1,0-6.136h.438V211.18a26.5,26.5,0,0,0,7.014,0v7.247h.438a3.06,3.06,0,0,1,2.17.9Z" transform="translate(-205.258 -145.67)" fill="#d8566c"/>
          <path id="XMLID_1533_" d="M343.313,122.01V129.9a3.068,3.068,0,1,1-6.136,0v-.437H329.93a26.5,26.5,0,0,0,0-7.014h7.247v-.437a3.068,3.068,0,1,1,6.136,0Z" transform="translate(-264.42 -86.508)" fill="#d8566c"/>
          <path id="XMLID_1532_" d="M316.455,187.786a3.069,3.069,0,0,1,0,4.339l-5.58,5.58a3.068,3.068,0,0,1-4.339-4.339l.312-.308-5.124-5.124,0,0a26.193,26.193,0,0,0,4.96-4.96l0,0,5.125,5.124.308-.312a3.073,3.073,0,0,1,4.339,0Z" transform="translate(-246.326 -127.576)" fill="#d8566c"/>
          <path id="XMLID_1531_" d="M153.386,122.447h7.247a26.5,26.5,0,0,0,0,7.014h-7.247v.438a3.068,3.068,0,1,1-6.136,0V122.01a3.068,3.068,0,1,1,6.136,0Z" transform="translate(-147.25 -86.508)" fill="#d8566c"/>
          <path id="XMLID_1530_" d="M250.819,29.4a3.066,3.066,0,0,1-2.17,5.236h-.437v7.247a26.5,26.5,0,0,0-7.014,0V34.636h-.437a3.068,3.068,0,1,1,0-6.136h7.889A3.06,3.06,0,0,1,250.819,29.4Z" transform="translate(-205.258 -28.5)" fill="#d8566c"/>
        </g>
        <path id="XMLID_1529_" d="M424.422,98.5a7.172,7.172,0,1,1-7.172,7.172A7.17,7.17,0,0,1,424.422,98.5Z" transform="translate(-275.601 -71.605)" fill="#99e6fc"/>
        <circle id="XMLID_1528_" cx="10.758" cy="10.758" r="10.758" transform="translate(10.758 57.377)" fill="#99e6fc"/>
        <path id="XMLID_1527_" d="M355.18,366.66A17.929,17.929,0,0,1,371.8,391.314H338.559A17.929,17.929,0,0,1,355.18,366.66Z" transform="translate(-224.289 -243.601)" fill="#f18385"/>
        <path id="XMLID_1526_" d="M97.68,366.66A17.929,17.929,0,0,1,114.3,391.314H81.059A17.929,17.929,0,0,1,97.68,366.66Z" transform="translate(-59.13 -243.601)" fill="#8ee5f6"/>
        <path id="XMLID_1525_" d="M371.215,316.66a8.965,8.965,0,1,1-8.965,8.965A8.964,8.964,0,0,1,371.215,316.66Z" transform="translate(-240.324 -211.531)" fill="#fed2a4"/>
        <path id="XMLID_1524_" d="M113.715,316.66a8.965,8.965,0,1,1-8.965,8.965A8.964,8.964,0,0,1,113.715,316.66Z" transform="translate(-75.165 -211.531)" fill="#fed2a4"/>
        <circle id="XMLID_1523_" cx="2.69" cy="2.69" r="2.69" transform="translate(152.408 57.377)"/>
        <circle id="XMLID_1522_" cx="2.69" cy="2.69" r="2.69" transform="translate(141.649 10.758)"/>
        <circle id="XMLID_1521_" cx="2.69" cy="2.69" r="2.69" transform="translate(127.305 73.514)"/>
        <path id="XMLID_1520_" d="M259.879,123.83a2.63,2.63,0,1,1-2.629,2.632A2.634,2.634,0,0,1,259.879,123.83Z" transform="translate(-172.978 -87.851)"/>
        <circle id="XMLID_1519_" cx="2.69" cy="2.69" r="2.69" transform="translate(80.686 150.615)"/>
        <circle id="XMLID_1518_" cx="1.754" cy="1.754" r="1.754" transform="translate(66.74 50.004)"/>
        <circle id="XMLID_1517_" cx="2.69" cy="2.69" r="2.69" transform="translate(48.412 78.893)"/>
        <circle id="XMLID_1516_" cx="2.69" cy="2.69" r="2.69" transform="translate(26.895 32.275)"/>
        <circle id="XMLID_1515_" cx="2.69" cy="2.69" r="2.69" transform="translate(3.586 12.551)"/>
        <path id="XMLID_3235_" d="M59.9,353.807a37.654,37.654,0,1,1,37.654-37.654A37.7,37.7,0,0,1,59.9,353.807Zm0-71.721a34.068,34.068,0,1,0,34.068,34.068A34.106,34.106,0,0,0,59.9,282.086Z" transform="translate(-22.25 -187.055)"/>
        <path id="XMLID_3232_" d="M110.508,333.176a10.758,10.758,0,1,1,10.758-10.758A10.77,10.77,0,0,1,110.508,333.176Zm0-17.93a7.172,7.172,0,1,0,7.172,7.172A7.18,7.18,0,0,0,110.508,315.246Z" transform="translate(-71.958 -208.324)"/>
        <path id="XMLID_1510_" d="M101.543,421.97a1.793,1.793,0,0,1-1.793-1.793v-6.724a1.793,1.793,0,1,1,3.586,0v6.724A1.793,1.793,0,0,1,101.543,421.97Z" transform="translate(-71.958 -272.463)"/>
        <path id="XMLID_1509_" d="M151.543,421.97a1.793,1.793,0,0,1-1.793-1.793v-6.724a1.793,1.793,0,1,1,3.586,0v6.724A1.793,1.793,0,0,1,151.543,421.97Z" transform="translate(-104.028 -272.463)"/>
        <path id="XMLID_3227_" d="M111.095,389.9H77.852a1.793,1.793,0,0,1-1.661-1.118,19.723,19.723,0,1,1,36.566,0A1.793,1.793,0,0,1,111.095,389.9Zm-31.988-3.586H109.84a16.137,16.137,0,1,0-30.734,0Z" transform="translate(-55.923 -240.394)"/>
        <path id="XMLID_3224_" d="M317.4,353.807a37.654,37.654,0,1,1,37.654-37.654A37.7,37.7,0,0,1,317.4,353.807Zm0-71.721a34.068,34.068,0,1,0,34.068,34.068A34.106,34.106,0,0,0,317.4,282.086Z" transform="translate(-187.409 -187.055)"/>
        <path id="XMLID_3221_" d="M368.008,333.176a10.758,10.758,0,1,1,10.758-10.758A10.77,10.77,0,0,1,368.008,333.176Zm0-17.93a7.172,7.172,0,1,0,7.172,7.172A7.18,7.18,0,0,0,368.008,315.246Z" transform="translate(-237.117 -208.324)"/>
        <path id="XMLID_1502_" d="M359.043,421.97a1.793,1.793,0,0,1-1.793-1.793v-6.724a1.793,1.793,0,1,1,3.586,0v6.724A1.793,1.793,0,0,1,359.043,421.97Z" transform="translate(-237.117 -272.463)"/>
        <path id="XMLID_1501_" d="M409.043,421.97a1.793,1.793,0,0,1-1.793-1.793v-6.724a1.793,1.793,0,1,1,3.586,0v6.724A1.793,1.793,0,0,1,409.043,421.97Z" transform="translate(-269.187 -272.463)"/>
        <path id="XMLID_3216_" d="M368.595,389.9H335.352a1.793,1.793,0,0,1-1.661-1.118,19.723,19.723,0,1,1,36.566,0A1.793,1.793,0,0,1,368.595,389.9Zm-31.988-3.586H367.34a16.137,16.137,0,1,0-30.734,0Z" transform="translate(-221.082 -240.394)"/>
        <path id="XMLID_1498_" d="M245,40.469a1.793,1.793,0,0,1-1.793-1.793V31.429A1.793,1.793,0,0,1,245,29.636h.438a1.275,1.275,0,0,0,0-2.55h-7.889a1.278,1.278,0,0,0-1.277,1.277,1.251,1.251,0,0,0,.371.894,1.271,1.271,0,0,0,.906.379h.438a1.793,1.793,0,0,1,1.793,1.793v7.247a1.793,1.793,0,0,1-3.586,0V33.031a4.862,4.862,0,0,1,1.355-9.531h7.889a4.861,4.861,0,0,1,1.356,9.53v5.647A1.793,1.793,0,0,1,245,40.469Z" transform="translate(-157.224 -23.5)"/>
        <path id="XMLID_1497_" d="M303.483,64.658a1.793,1.793,0,0,1-1.268-3.061l5.124-5.124a1.793,1.793,0,0,1,1.268-.525h.005a1.794,1.794,0,0,1,1.27.533l.308.312a1.275,1.275,0,0,0,1.8-1.811l-5.58-5.58a1.28,1.28,0,0,0-1.805,0,1.28,1.28,0,0,0,0,1.8l.3.3a1.793,1.793,0,0,1,.008,2.543l-5.124,5.124a1.793,1.793,0,0,1-2.536-2.536l3.991-3.99a4.862,4.862,0,0,1,7.7-5.782l5.58,5.58a4.862,4.862,0,0,1-5.782,7.7l-3.991,3.991A1.787,1.787,0,0,1,303.483,64.658Z" transform="translate(-198.301 -37.576)"/>
        <path id="XMLID_1496_" d="M337.037,131.554a4.868,4.868,0,0,1-4.667-3.507h-5.647a1.793,1.793,0,0,1,0-3.586h7.247a1.793,1.793,0,0,1,1.793,1.793v.438a1.275,1.275,0,0,0,2.55,0V118.8a1.278,1.278,0,0,0-1.277-1.277,1.251,1.251,0,0,0-.894.371,1.271,1.271,0,0,0-.379.906v.438a1.793,1.793,0,0,1-1.793,1.793h-7.247a1.793,1.793,0,0,1,0-3.586h5.645A4.862,4.862,0,0,1,341.9,118.8v7.889a4.867,4.867,0,0,1-4.863,4.863Z" transform="translate(-216.387 -81.507)"/>
        <path id="XMLID_1495_" d="M305.5,197.194a4.859,4.859,0,0,1-4.26-7.2L297.255,186a1.793,1.793,0,1,1,2.536-2.536l5.125,5.124a1.794,1.794,0,0,1-.008,2.543l-.312.308a1.274,1.274,0,0,0,.008,1.8,1.314,1.314,0,0,0,1.8,0l5.58-5.58a1.28,1.28,0,0,0,0-1.805,1.312,1.312,0,0,0-1.8,0l-.3.3a1.793,1.793,0,0,1-1.27.533,1.851,1.851,0,0,1-1.273-.525l-5.124-5.124a1.793,1.793,0,0,1,2.536-2.536l3.99,3.99a4.862,4.862,0,0,1,5.782,7.7l-5.58,5.58a4.827,4.827,0,0,1-3.438,1.422Z" transform="translate(-198.299 -122.583)"/>
        <path id="XMLID_1494_" d="M245.442,223.149h-7.889a4.861,4.861,0,0,1-1.356-9.53v-5.647a1.793,1.793,0,0,1,3.586,0v7.247a1.793,1.793,0,0,1-1.793,1.793h-.437a1.275,1.275,0,0,0,0,2.55h7.889a1.278,1.278,0,0,0,1.277-1.277,1.251,1.251,0,0,0-.371-.894,1.271,1.271,0,0,0-.906-.379H245a1.793,1.793,0,0,1-1.793-1.793v-7.247a1.793,1.793,0,0,1,3.586,0v5.645a4.862,4.862,0,0,1-1.356,9.531Z" transform="translate(-157.225 -140.67)"/>
        <path id="XMLID_1493_" d="M174.627,197.193a4.843,4.843,0,0,1-3.435-1.42l-5.58-5.58a4.862,4.862,0,0,1,5.782-7.7l3.991-3.991a1.793,1.793,0,0,1,2.536,2.536l-5.124,5.124a1.793,1.793,0,0,1-2.543-.008l-.308-.312a1.275,1.275,0,0,0-1.8,1.811l5.58,5.58a1.279,1.279,0,0,0,1.805,0,1.28,1.28,0,0,0,0-1.8l-.3-.3a1.793,1.793,0,0,1-.008-2.543l5.124-5.124A1.793,1.793,0,0,1,182.879,186l-3.99,3.99a4.856,4.856,0,0,1-4.262,7.2Z" transform="translate(-113.289 -122.583)"/>
        <path id="XMLID_1492_" d="M147.113,131.555a4.868,4.868,0,0,1-4.863-4.863V118.8a4.861,4.861,0,0,1,9.53-1.356h5.647a1.793,1.793,0,0,1,0,3.586h-7.247a1.793,1.793,0,0,1-1.793-1.793V118.8a1.275,1.275,0,0,0-2.55,0v7.889a1.278,1.278,0,0,0,1.277,1.277,1.251,1.251,0,0,0,.894-.371,1.271,1.271,0,0,0,.379-.906v-.437a1.793,1.793,0,0,1,1.793-1.793h7.247a1.793,1.793,0,0,1,0,3.586h-5.645a4.874,4.874,0,0,1-4.668,3.507Z" transform="translate(-99.217 -81.508)"/>
        <path id="XMLID_1491_" d="M176.655,64.655a1.788,1.788,0,0,1-1.268-.525l-3.99-3.991a4.862,4.862,0,0,1-5.782-7.7l5.58-5.58a4.862,4.862,0,0,1,7.7,5.782l3.991,3.991a1.793,1.793,0,1,1-2.536,2.536l-5.124-5.124a1.793,1.793,0,0,1,.008-2.543l.312-.308a1.274,1.274,0,0,0-.008-1.8,1.314,1.314,0,0,0-1.8,0l-5.58,5.58a1.279,1.279,0,0,0,0,1.805,1.312,1.312,0,0,0,1.8,0l.3-.3a1.793,1.793,0,0,1,2.543-.008l5.124,5.124a1.792,1.792,0,0,1-1.267,3.06Z" transform="translate(-113.293 -37.573)"/>
        <path id="XMLID_3181_" d="M271.342,174.013a4.422,4.422,0,1,1,4.422-4.422A4.427,4.427,0,0,1,271.342,174.013Zm0-5.257a.836.836,0,1,0,.836.836A.836.836,0,0,0,271.342,168.756Z" transform="translate(-179.18 -114.366)"/>
        <path id="XMLID_3178_" d="M219.315,130.85a6.175,6.175,0,1,1,6.175-6.175A6.182,6.182,0,0,1,219.315,130.85Zm0-8.764a2.589,2.589,0,1,0,2.589,2.589A2.592,2.592,0,0,0,219.315,122.086Z" transform="translate(-144.686 -84.432)"/>
        <path id="XMLID_3175_" d="M288.452,125.237a4.423,4.423,0,1,1,4.422-4.425A4.428,4.428,0,0,1,288.452,125.237Zm0-5.261a.837.837,0,1,0,.836.836A.836.836,0,0,0,288.452,119.976Z" transform="translate(-190.154 -83.079)"/>
        <path id="XMLID_1484_" d="M221.923,99.257a3.4,3.4,0,0,1-2.737-1.366l-.5-.673a1.793,1.793,0,0,1-3.076-1.824,3.42,3.42,0,0,1,5.8-.527l.52.695.523-.695a3.421,3.421,0,0,1,5.668.292l.221-.294a3.424,3.424,0,0,1,5.671.294l.221-.294a3.424,3.424,0,0,1,5.68.309,1.793,1.793,0,0,1,2.707,2.339,3.42,3.42,0,0,1-5.673-.291l-.223.3a3.419,3.419,0,0,1-5.669-.3l-.223.3a3.419,3.419,0,0,1-5.667-.293l-.5.665a3.4,3.4,0,0,1-2.737,1.367Z" transform="translate(-146.148 -68.397)"/>
        <path id="XMLID_1483_" d="M232.048,156.571a1.793,1.793,0,0,1-1.78-1.6,3,3,0,0,1,4.037-3.139l.028.01,0-.04a3.007,3.007,0,0,1,3.728-2.692,3.007,3.007,0,0,1,3.686-2.369,3.009,3.009,0,0,1,3.837-2.327,1.793,1.793,0,0,1,3.352,1,3,3,0,0,1-3.728,2.7,3.018,3.018,0,0,1-2.958,2.461,2.978,2.978,0,0,1-.728-.09,3,3,0,0,1-3.672,2.37v.018a3,3,0,0,1-4.045,2.591l-.089-.033a1.793,1.793,0,0,1-1.475,1.122A1.719,1.719,0,0,1,232.048,156.571Z" transform="translate(-155.66 -100.466)"/>
        <path id="XMLID_12_" d="M207.01,116.351a28.021,28.021,0,1,1,3.743-.249,28.228,28.228,0,0,1-3.743.249Zm0-52.593a24.682,24.682,0,0,0-3.268.217,24.488,24.488,0,0,0-21.235,24.287,24.68,24.68,0,0,0,.217,3.268,24.521,24.521,0,0,0,21.016,21.018,24.8,24.8,0,0,0,6.539,0,24.491,24.491,0,0,0,21.235-24.287,24.683,24.683,0,0,0-.217-3.268A24.488,24.488,0,0,0,207.01,63.758Z" transform="translate(-122.737 -47.022)"/>
        <path id="XMLID_1480_" d="M241.128,282.086H211.543a1.793,1.793,0,1,1,0-3.586h29.585a1.793,1.793,0,0,1,0,3.586Z" transform="translate(-142.511 -187.055)"/>
        <path id="XMLID_1479_" d="M279.043,277.844a1.793,1.793,0,0,1-1.268-3.061l4.111-4.111-4.111-4.111a1.793,1.793,0,0,1,2.536-2.535l5.379,5.379a1.792,1.792,0,0,1,0,2.535l-5.379,5.379A1.786,1.786,0,0,1,279.043,277.844Z" transform="translate(-185.805 -177.435)"/>
        <path id="XMLID_1478_" d="M214.422,277.844a1.787,1.787,0,0,1-1.268-.525l-5.379-5.379a1.792,1.792,0,0,1,0-2.535l5.379-5.379a1.793,1.793,0,0,1,2.536,2.535l-4.111,4.111,4.111,4.111a1.793,1.793,0,0,1-1.268,3.061Z" transform="translate(-140.907 -177.435)"/>
        <path id="XMLID_6_" d="M421.215,111.43a8.965,8.965,0,1,1,8.965-8.965A8.975,8.975,0,0,1,421.215,111.43Zm0-14.344a5.379,5.379,0,1,0,5.379,5.379A5.385,5.385,0,0,0,421.215,97.086Z" transform="translate(-272.394 -68.398)"/>
        <path id="XMLID_3_" d="M59.8,203.6a12.551,12.551,0,1,1,12.551-12.551A12.565,12.565,0,0,1,59.8,203.6Zm0-21.516a8.965,8.965,0,1,0,8.965,8.965A8.975,8.975,0,0,0,59.8,182.086Z" transform="translate(-38.285 -122.916)"/>
      </g>
    </g>
  </g>
</svg>
