<svg xmlns="http://www.w3.org/2000/svg" xmlns:xlink="http://www.w3.org/1999/xlink" width="57.3" height="57.301" viewBox="0 0 57.3 57.301">
  <defs>
    <clipPath id="clip-path">
      <rect id="Rectángulo_44260" data-name="Rectángulo 44260" width="57.3" height="57.3" transform="translate(0 0)" fill="none"/>
    </clipPath>
  </defs>
  <g id="Grupo_145946" data-name="Grupo 145946" transform="translate(-307.85 -8439.512)">
    <g id="Grupo_145851" data-name="Grupo 145851" transform="translate(308.082 8439.429)">
      <g id="Grupo_145418" data-name="Grupo 145418" transform="translate(-0.232 0.083)" clip-path="url(#clip-path)">
        <path id="Trazado_193096" data-name="Trazado 193096" d="M57.2,28.6A28.6,28.6,0,1,1,28.6,0,28.625,28.625,0,0,1,57.2,28.6" transform="translate(0.107 -0.001)" fill="#f18385"/>
        <path id="Trazado_193097" data-name="Trazado 193097" d="M75.738,52A23.647,23.647,0,1,1,66.5,53.865,23.583,23.583,0,0,1,75.738,52m0-2a25.648,25.648,0,1,0,10.017,2.021A25.574,25.574,0,0,0,75.738,50" transform="translate(-47.034 -47.142)" fill="#483c8c"/>
        <path id="Trazado_193098" data-name="Trazado 193098" d="M298.908,298.925a11.7,11.7,0,1,1,0,16.542,11.7,11.7,0,0,1,0-16.542" transform="translate(-278.476 -278.6)" fill="#1a1a1a"/>
        <path id="Trazado_193099" data-name="Trazado 193099" d="M607.307,271.193a1.226,1.226,0,0,0,.859.336,1.263,1.263,0,0,0,1.173-.858l.33-.955a5.132,5.132,0,0,1,2.809-2.809l.955-.33a1.263,1.263,0,0,0,.858-1.173,1.226,1.226,0,0,0-.336-.859l-.027-.027-.027-.027a1.227,1.227,0,0,0-.859-.336,1.263,1.263,0,0,0-1.173.858l-.33.955a5.131,5.131,0,0,1-2.809,2.809l-.955.33a1.263,1.263,0,0,0-.858,1.173,1.227,1.227,0,0,0,.336.859l.027.027.027.027" transform="translate(-572.098 -249.049)" fill="#1a1a1a"/>
        <path id="Trazado_193100" data-name="Trazado 193100" d="M607.307,271.193a1.226,1.226,0,0,0,.859.336,1.263,1.263,0,0,0,1.173-.858l.33-.955a5.132,5.132,0,0,1,2.809-2.809l.955-.33a1.263,1.263,0,0,0,.858-1.173,1.226,1.226,0,0,0-.336-.859l-.027-.027-.027-.027a1.227,1.227,0,0,0-.859-.336,1.263,1.263,0,0,0-1.173.858l-.33.955a5.131,5.131,0,0,1-2.809,2.809l-.955.33a1.263,1.263,0,0,0-.858,1.173,1.227,1.227,0,0,0,.336.859l.027.027.027.027" transform="translate(-572.098 -249.049)" fill="#483c8c"/>
        <path id="Trazado_193101" data-name="Trazado 193101" d="M403.334,194.835a1.226,1.226,0,0,0,.721-.576,1.263,1.263,0,0,0-.156-1.444l-.662-.763a5.131,5.131,0,0,1-1.028-3.837l.191-.992a1.263,1.263,0,0,0-.587-1.329,1.226,1.226,0,0,0-.912-.138l-.037.009-.037.01a1.226,1.226,0,0,0-.721.576,1.263,1.263,0,0,0,.156,1.444l.662.763a5.131,5.131,0,0,1,1.028,3.837l-.191.992a1.263,1.263,0,0,0,.587,1.329,1.226,1.226,0,0,0,.912.138l.037-.009.037-.01" transform="translate(-376.966 -175.1)" fill="#483c8c"/>
        <path id="Trazado_193102" data-name="Trazado 193102" d="M194.861,403.2a1.226,1.226,0,0,0-.138-.912,1.263,1.263,0,0,0-1.329-.587l-.992.191a5.132,5.132,0,0,1-3.837-1.028l-.763-.662a1.263,1.263,0,0,0-1.444-.156,1.226,1.226,0,0,0-.576.721l-.01.037-.009.037a1.226,1.226,0,0,0,.138.912,1.263,1.263,0,0,0,1.329.587l.992-.191a5.131,5.131,0,0,1,3.837,1.028l.763.662a1.263,1.263,0,0,0,1.444.156,1.226,1.226,0,0,0,.576-.721l.01-.037.009-.037" transform="translate(-174.998 -377.022)" fill="#483c8c"/>
        <path id="Trazado_193103" data-name="Trazado 193103" d="M241.077,540.789a.632.632,0,0,0-.3-.371.651.651,0,0,0-.745.08l-.393.341a3.614,3.614,0,0,1-1.978.53l-.511-.1a.651.651,0,0,0-.685.3.633.633,0,0,0-.071.47l0,.019.005.019a.632.632,0,0,0,.3.372.651.651,0,0,0,.745-.081l.393-.341a3.614,3.614,0,0,1,1.978-.53l.511.1a.651.651,0,0,0,.685-.3.632.632,0,0,0,.071-.47l0-.019-.005-.019" transform="translate(-222.752 -509.433)" fill="#483c8c"/>
        <path id="Trazado_193104" data-name="Trazado 193104" d="M677.651,418.167a.758.758,0,0,0,.356.446.781.781,0,0,0,.894-.1l.472-.409a4.339,4.339,0,0,1,2.374-.636l.614.118a.781.781,0,0,0,.822-.363.759.759,0,0,0,.086-.564l-.006-.023-.006-.023a.759.759,0,0,0-.356-.446.781.781,0,0,0-.894.1l-.472.409a4.339,4.339,0,0,1-2.374.636l-.614-.118a.781.781,0,0,0-.822.363.759.759,0,0,0-.086.564l.006.023.006.023" transform="translate(-638.755 -392.277)" fill="#483c8c"/>
        <path id="Trazado_193105" data-name="Trazado 193105" d="M295.833,304.121a11.7,11.7,0,1,1,8.271,14.326,11.7,11.7,0,0,1-8.271-14.326" transform="translate(-278.428 -278.552)" fill="#1a1a1a"/>
        <path id="Trazado_193106" data-name="Trazado 193106" d="M295.833,310.176a11.7,11.7,0,1,1,14.326,8.271,11.7,11.7,0,0,1-14.326-8.271" transform="translate(-278.428 -278.552)" fill="#1a1a1a"/>
        <path id="Trazado_193107" data-name="Trazado 193107" d="M418.082,677.649a.759.759,0,0,0-.564.085.782.782,0,0,0-.363.822l.118.614a4.338,4.338,0,0,1-.636,2.374l-.409.472a.781.781,0,0,0-.1.893.759.759,0,0,0,.446.356l.023.006.023.006a.758.758,0,0,0,.564-.085.781.781,0,0,0,.363-.822l-.118-.614a4.339,4.339,0,0,1,.636-2.374l.409-.472a.781.781,0,0,0,.1-.894.759.759,0,0,0-.446-.356l-.023-.006-.023-.006" transform="translate(-392.131 -638.873)" fill="#483c8c"/>
        <path id="Trazado_193108" data-name="Trazado 193108" d="M540.834,241.111a.632.632,0,0,0,.47-.071.651.651,0,0,0,.3-.685l-.1-.511a3.614,3.614,0,0,1,.53-1.978l.341-.394a.651.651,0,0,0,.08-.745.632.632,0,0,0-.372-.3l-.019-.005-.019,0a.632.632,0,0,0-.47.071.651.651,0,0,0-.3.685l.1.511a3.614,3.614,0,0,1-.53,1.978l-.341.393a.651.651,0,0,0-.081.745.632.632,0,0,0,.372.3l.019.005.019,0" transform="translate(-509.331 -222.883)" fill="#483c8c"/>
        <path id="Trazado_193109" data-name="Trazado 193109" d="M298.908,315.468a11.7,11.7,0,1,1,16.542,0,11.7,11.7,0,0,1-16.542,0" transform="translate(-278.476 -278.6)" fill="#1a1a1a"/>
        <path id="Trazado_193110" data-name="Trazado 193110" d="M304.1,318.447a11.7,11.7,0,1,1,14.326-8.271,11.7,11.7,0,0,1-14.326,8.271" transform="translate(-278.428 -278.552)" fill="#483c8c"/>
        <path id="Trazado_193111" data-name="Trazado 193111" d="M629.651,629.713a.632.632,0,0,0-.173.443.651.651,0,0,0,.442.6l.492.17a3.615,3.615,0,0,1,1.448,1.448l.17.492a.651.651,0,0,0,.6.442.632.632,0,0,0,.443-.173l.014-.014.014-.014a.631.631,0,0,0,.173-.443.651.651,0,0,0-.442-.6l-.492-.17a3.615,3.615,0,0,1-1.448-1.448l-.17-.492a.651.651,0,0,0-.6-.442.633.633,0,0,0-.443.173l-.014.014-.014.014" transform="translate(-593.368 -593.508)" fill="#483c8c"/>
        <path id="Trazado_193112" data-name="Trazado 193112" d="M298.149,298.116a.759.759,0,0,0,.208-.531.781.781,0,0,0-.53-.726l-.591-.2a4.338,4.338,0,0,1-1.738-1.738l-.2-.591a.781.781,0,0,0-.726-.53.759.759,0,0,0-.531.208l-.017.016-.016.017a.759.759,0,0,0-.208.531.781.781,0,0,0,.53.726l.591.2a4.338,4.338,0,0,1,1.738,1.738l.2.591a.781.781,0,0,0,.726.531.759.759,0,0,0,.531-.208l.017-.016.016-.017" transform="translate(-276.885 -276.993)" fill="#483c8c"/>
        <path id="Trazado_193113" data-name="Trazado 193113" d="M271.122,607.221a1.226,1.226,0,0,0-.859-.336,1.263,1.263,0,0,0-1.173.858l-.33.955a5.13,5.13,0,0,1-2.809,2.809l-.955.33a1.263,1.263,0,0,0-.858,1.173,1.226,1.226,0,0,0,.336.859l.027.027.027.027a1.227,1.227,0,0,0,.859.336,1.263,1.263,0,0,0,1.173-.858l.33-.955a5.13,5.13,0,0,1,2.809-2.809l.955-.33a1.263,1.263,0,0,0,.858-1.173,1.227,1.227,0,0,0-.336-.859l-.027-.027-.027-.027" transform="translate(-248.925 -572.176)" fill="#483c8c"/>
        <path id="Trazado_193114" data-name="Trazado 193114" d="M526.34,654.065a1.227,1.227,0,0,0-.721.576,1.263,1.263,0,0,0,.156,1.444l.662.763a5.131,5.131,0,0,1,1.028,3.837l-.191.992a1.263,1.263,0,0,0,.587,1.329,1.225,1.225,0,0,0,.912.138l.037-.009.037-.01a1.226,1.226,0,0,0,.721-.576,1.263,1.263,0,0,0-.156-1.444l-.661-.763a5.131,5.131,0,0,1-1.028-3.837l.191-.992a1.263,1.263,0,0,0-.587-1.329,1.226,1.226,0,0,0-.912-.138l-.037.009-.037.01" transform="translate(-495.3 -616.607)" fill="#483c8c"/>
        <path id="Trazado_193115" data-name="Trazado 193115" d="M654.028,526.432a1.226,1.226,0,0,0,.138.912,1.263,1.263,0,0,0,1.329.587l.992-.191a5.131,5.131,0,0,1,3.837,1.028l.763.662a1.263,1.263,0,0,0,1.444.156,1.226,1.226,0,0,0,.576-.721l.01-.037.009-.037a1.226,1.226,0,0,0-.138-.912,1.263,1.263,0,0,0-1.329-.587l-.992.191a5.13,5.13,0,0,1-3.837-1.028l-.763-.661a1.263,1.263,0,0,0-1.445-.156,1.227,1.227,0,0,0-.576.721l-.01.037-.009.037" transform="translate(-616.483 -495.425)" fill="#483c8c"/>
        <path id="Trazado_193116" data-name="Trazado 193116" d="M281.28,579.063l.943,1.633-3.123,1.355a.558.558,0,0,1-.555-.961Z" transform="translate(-262.293 -545.945)" fill="#483c8c"/>
        <path id="Trazado_193117" data-name="Trazado 193117" d="M579.046,654.361l1.633-.943,1.355,3.123a.558.558,0,0,1-.961.555Z" transform="translate(-545.821 -616.047)" fill="#483c8c"/>
        <path id="Trazado_193118" data-name="Trazado 193118" d="M654.344,370.932,653.4,369.3l3.123-1.355a.558.558,0,0,1,.555.961Z" transform="translate(-615.923 -346.857)" fill="#483c8c"/>
        <path id="Trazado_193119" data-name="Trazado 193119" d="M370.914,281.3l-1.633.943-1.355-3.123a.558.558,0,0,1,.961-.555Z" transform="translate(-346.732 -262.417)" fill="#483c8c"/>
        <path id="Trazado_193120" data-name="Trazado 193120" d="M369.281,653.418l1.633.943-2.027,2.736a.558.558,0,0,1-.961-.555Z" transform="translate(-346.732 -616.047)" fill="#483c8c"/>
        <path id="Trazado_193121" data-name="Trazado 193121" d="M653.4,580.7l.943-1.633,2.735,2.027a.558.558,0,0,1-.555.961Z" transform="translate(-615.923 -545.945)" fill="#483c8c"/>
        <path id="Trazado_193122" data-name="Trazado 193122" d="M580.679,282.239l-1.633-.943,2.027-2.735a.558.558,0,0,1,.961.555Z" transform="translate(-545.821 -262.417)" fill="#483c8c"/>
        <path id="Trazado_193123" data-name="Trazado 193123" d="M282.221,369.3l-.943,1.633-2.735-2.027a.558.558,0,0,1,.555-.961Z" transform="translate(-262.292 -346.857)" fill="#483c8c"/>
        <path id="Trazado_193124" data-name="Trazado 193124" d="M483.507,686.667h1.885L485,690.05a.558.558,0,0,1-1.109,0Z" transform="translate(-455.746 -647.394)" fill="#483c8c"/>
        <path id="Trazado_193125" data-name="Trazado 193125" d="M686.649,485.41v-1.885l3.383.388a.558.558,0,0,1,0,1.109Z" transform="translate(-647.27 -455.871)" fill="#483c8c"/>
        <path id="Trazado_193126" data-name="Trazado 193126" d="M485.393,249.431h-1.885l.388-3.383a.558.558,0,0,1,.555-.495h0a.558.558,0,0,1,.555.495Z" transform="translate(-455.747 -231.511)" fill="#483c8c"/>
        <path id="Trazado_193127" data-name="Trazado 193127" d="M249.414,483.525v1.885l-3.383-.388a.558.558,0,0,1,0-1.109Z" transform="translate(-231.387 -455.871)" fill="#483c8c"/>
        <path id="Trazado_193128" data-name="Trazado 193128" d="M429.858,385.99a1.427,1.427,0,1,1-1.009,1.748,1.427,1.427,0,0,1,1.009-1.748" transform="translate(-404.168 -363.868)" fill="#f18385"/>
        <path id="Trazado_193129" data-name="Trazado 193129" d="M360.219,526.059a1.948,1.948,0,1,1-1.378,2.386,1.948,1.948,0,0,1,1.378-2.386" transform="translate(-338.148 -495.909)" fill="#f18385"/>
        <path id="Trazado_193130" data-name="Trazado 193130" d="M539.414,544.23a.969.969,0,1,1-.685,1.187.969.969,0,0,1,.685-1.187" transform="translate(-507.778 -513.073)" fill="#f18385"/>
        <path id="Trazado_193131" data-name="Trazado 193131" d="M645.915,461.23a.969.969,0,1,1-.685,1.187.969.969,0,0,1,.685-1.187" transform="translate(-608.188 -434.82)" fill="#f18385"/>
        <path id="Trazado_193132" data-name="Trazado 193132" d="M532.029,332.616a.969.969,0,1,1-.685,1.187.969.969,0,0,1,.685-1.187" transform="translate(-500.815 -313.561)" fill="#f18385"/>
        <path id="Trazado_193133" data-name="Trazado 193133" d="M561.333,436.79a.485.485,0,1,1-.343.594.485.485,0,0,1,.343-.594" transform="translate(-528.782 -411.793)" fill="#f4e474"/>
        <path id="Trazado_193134" data-name="Trazado 193134" d="M484.191,623.953a.485.485,0,1,1-.343.594.485.485,0,0,1,.343-.594" transform="translate(-456.052 -588.251)" fill="#f18385"/>
        <path id="Trazado_193135" data-name="Trazado 193135" d="M336.167,435.762a.485.485,0,1,1-.343.594.485.485,0,0,1,.343-.594" transform="translate(-316.494 -410.824)" fill="#f18385"/>
        <path id="Trazado_193136" data-name="Trazado 193136" d="M605.688,601.155a.485.485,0,1,1-.343.594.485.485,0,0,1,.343-.594" transform="translate(-570.6 -566.757)" fill="#f18385"/>
      </g>
    </g>
  </g>
</svg>
