<svg xmlns="http://www.w3.org/2000/svg" width="139" height="139" viewBox="0 0 139 139">
  <g id="Grupo_145945" data-name="Grupo 145945" transform="translate(10578 5260)">
    <rect id="Rectángulo_44324" data-name="Rectángulo 44324" width="139" height="139" rx="69.5" transform="translate(-10578 -5260)" fill="#b0f0fc"/>
    <g id="Layer_10" transform="translate(-10578.375 -5249)">
      <g id="Grupo_145536" data-name="Grupo 145536" transform="translate(32.378 0)">
        <g id="Grupo_145467" data-name="Grupo 145467" transform="translate(54.95 104.222)">
          <g id="Grupo_145466" data-name="Grupo 145466">
            <path id="Trazado_193381" data-name="Trazado 193381" d="M163.345,237.11a21.455,21.455,0,0,1-6.478-1v6.494a1.182,1.182,0,0,0,1.182,1.182h9.707a1.748,1.748,0,0,0,1.745-1.845l-.207-5.675A21.474,21.474,0,0,1,163.345,237.11Z" transform="translate(-156.867 -236.113)" fill="#70d6f9"/>
          </g>
        </g>
        <g id="Grupo_145470" data-name="Grupo 145470" transform="translate(13.708 9.06)">
          <g id="Grupo_145469" data-name="Grupo 145469">
            <g id="Grupo_145468" data-name="Grupo 145468">
              <path id="Trazado_193382" data-name="Trazado 193382" d="M63.588,44.981a1.95,1.95,0,0,1,2.12-.364,24.988,24.988,0,0,0,3.243,1.178C81,49.227,89.28,40.958,91.615,38.233a1.017,1.017,0,0,1,1.461-.082,12.7,12.7,0,0,0,5.594,3.22,1.2,1.2,0,0,1,.943,1.168v.78a6.373,6.373,0,0,1,5.516,1.8V41.372a20.847,20.847,0,0,0-41.694,0V45.14c.053-.052.1-.109.154-.159Z" transform="translate(-63.434 -20.525)" fill="#080808"/>
            </g>
          </g>
        </g>
        <g id="Grupo_145472" data-name="Grupo 145472" transform="translate(49.848 31.775)">
          <g id="Grupo_145471" data-name="Grupo 145471">
            <path id="Trazado_193383" data-name="Trazado 193383" d="M146.331,71.985a6.4,6.4,0,0,0-.984.078V83.669c0,.346-.016.688-.039,1.028a6.4,6.4,0,1,0,1.023-12.712Z" transform="translate(-145.308 -71.985)" fill="#fde9e0"/>
          </g>
        </g>
        <g id="Grupo_145474" data-name="Grupo 145474" transform="translate(19.225 26.415)">
          <g id="Grupo_145473" data-name="Grupo 145473">
            <path id="Trazado_193384" data-name="Trazado 193384" d="M98.6,60.2c-2.335,2.725-10.615,10.994-22.664,7.561v9.13a15.331,15.331,0,1,0,30.662,0V64.5a1.2,1.2,0,0,0-.943-1.168,12.7,12.7,0,0,1-5.594-3.22A1.018,1.018,0,0,0,98.6,60.2Z" transform="translate(-75.933 -59.844)" fill="#fde9e0"/>
          </g>
        </g>
        <g id="Grupo_145476" data-name="Grupo 145476" transform="translate(11.841 32.986)">
          <g id="Grupo_145475" data-name="Grupo 145475">
            <path id="Trazado_193385" data-name="Trazado 193385" d="M66.588,76.072a24.92,24.92,0,0,1-3.243-1.178,1.95,1.95,0,0,0-2.12.364,6.381,6.381,0,0,0,5.4,10.972c-.023-.34-.039-.682-.039-1.028v-9.13Z" transform="translate(-59.203 -74.729)" fill="#fde9e0"/>
          </g>
        </g>
        <g id="Grupo_145478" data-name="Grupo 145478" transform="translate(1.526 56.932)">
          <g id="Grupo_145477" data-name="Grupo 145477">
            <path id="Trazado_193386" data-name="Trazado 193386" d="M74.275,155.8a21.418,21.418,0,0,1,7.842-16.586l-3.583-1.767a4.262,4.262,0,0,1-2.377-3.823v-4.649a15.243,15.243,0,0,1-14.584,0v4.649a4.262,4.262,0,0,1-2.377,3.823l-3.79,1.869a13.376,13.376,0,0,1-2.652.975l-10.961,2.767a6.286,6.286,0,0,0-4.742,5.747L35.838,182.1a1.748,1.748,0,0,0,1.745,1.845h9.707a1.182,1.182,0,0,0,1.182-1.182V161.952l1.714,5.491a37.214,37.214,0,0,1,1.691,11.09v4.229a1.182,1.182,0,0,0,1.182,1.182H84.673a1.182,1.182,0,0,0,1.182-1.182v-4.229c0-1.2.064-2.4.18-3.588A21.454,21.454,0,0,1,74.275,155.8Z" transform="translate(-35.835 -128.979)" fill="#70d6f9"/>
          </g>
        </g>
        <g id="Grupo_145480" data-name="Grupo 145480" transform="translate(25.644 1.104)">
          <g id="Grupo_145479" data-name="Grupo 145479">
            <path id="Trazado_193387" data-name="Trazado 193387" d="M99.387,10.457a20.647,20.647,0,0,1,8.847,1.987,8.912,8.912,0,1,0-17.694,0A20.647,20.647,0,0,1,99.387,10.457Z" transform="translate(-90.475 -2.5)" fill="#5b5d60"/>
          </g>
        </g>
        <g id="Grupo_145482" data-name="Grupo 145482" transform="translate(22.859 46.127)">
          <g id="Grupo_145481" data-name="Grupo 145481">
            <path id="Trazado_193388" data-name="Trazado 193388" d="M95.862,117.163a15.31,15.31,0,0,0,11.7-5.454V106.14a1.64,1.64,0,0,0-1.64-1.64H85.805a1.64,1.64,0,0,0-1.64,1.64v5.569A15.309,15.309,0,0,0,95.862,117.163Z" transform="translate(-84.165 -104.5)" fill="#70d6f9"/>
          </g>
        </g>
        <g id="Grupo_145484" data-name="Grupo 145484" transform="translate(25.761 56.932)">
          <g id="Grupo_145483" data-name="Grupo 145483">
            <path id="Trazado_193389" data-name="Trazado 193389" d="M99.534,139.665a15.218,15.218,0,0,0,8.8-2.8,4.256,4.256,0,0,1-1.5-3.239v-4.649a15.243,15.243,0,0,1-14.584,0v4.649a4.256,4.256,0,0,1-1.5,3.239A15.219,15.219,0,0,0,99.534,139.665Z" transform="translate(-90.739 -128.979)" fill="#fde9e0"/>
          </g>
        </g>
        <g id="Grupo_145486" data-name="Grupo 145486" transform="translate(39.966 62.295)">
          <g id="Grupo_145485" data-name="Grupo 145485">
            <circle id="Elipse_1150" data-name="Elipse 1150" cx="21.462" cy="21.462" r="21.462" fill="#f18385"/>
          </g>
        </g>
        <g id="Grupo_145488" data-name="Grupo 145488" transform="translate(44.569 85.319)">
          <g id="Grupo_145487" data-name="Grupo 145487">
            <path id="Trazado_193390" data-name="Trazado 193390" d="M133.349,205a21.572,21.572,0,0,0,3.415,3.452l11.729-11.729-3.433-3.433Z" transform="translate(-133.349 -193.29)" fill="#5290db"/>
          </g>
        </g>
        <path id="Trazado_193391" data-name="Trazado 193391" d="M175.767,166.292l-11.634,3.47a3.913,3.913,0,0,0-2.65,2.7l-1.6,5.725,3.433,3.433,13.526-13.526A1.08,1.08,0,0,0,175.767,166.292Z" transform="translate(-103.6 -92.862)" fill="#edf4fc"/>
        <g id="Grupo_145490" data-name="Grupo 145490" transform="translate(39.24 37.961)">
          <g id="Grupo_145489" data-name="Grupo 145489">
            <circle id="Elipse_1151" data-name="Elipse 1151" cx="1.986" cy="1.986" r="1.986"/>
          </g>
        </g>
        <g id="Grupo_145492" data-name="Grupo 145492" transform="translate(25.9 37.961)">
          <g id="Grupo_145491" data-name="Grupo 145491">
            <circle id="Elipse_1152" data-name="Elipse 1152" cx="1.986" cy="1.986" r="1.986"/>
          </g>
        </g>
        <g id="Grupo_145494" data-name="Grupo 145494" transform="translate(18.003 42.816)">
          <g id="Grupo_145493" data-name="Grupo 145493">
            <path id="Trazado_193392" data-name="Trazado 193392" d="M78.239,101.855a1.1,1.1,0,0,1-.611-.185l-3.973-2.648a1.1,1.1,0,0,1,1.224-1.836l3.973,2.648a1.1,1.1,0,0,1-.613,2.022Z" transform="translate(-73.164 -97)"/>
          </g>
        </g>
        <g id="Grupo_145496" data-name="Grupo 145496" transform="translate(44.929 42.816)">
          <g id="Grupo_145495" data-name="Grupo 145495">
            <path id="Trazado_193393" data-name="Trazado 193393" d="M135.268,101.855a1.1,1.1,0,0,1-.613-2.022l3.973-2.648a1.1,1.1,0,0,1,1.224,1.836l-3.973,2.648A1.1,1.1,0,0,1,135.268,101.855Z" transform="translate(-134.164 -96.999)"/>
          </g>
        </g>
        <g id="Grupo_145498" data-name="Grupo 145498" transform="translate(52.211 87.493)">
          <g id="Grupo_145497" data-name="Grupo 145497">
            <path id="Trazado_193394" data-name="Trazado 193394" d="M154.873,203.529a1.1,1.1,0,0,1-.78-.323l-3.108-3.108a1.1,1.1,0,0,1,1.56-1.56l3.108,3.108a1.1,1.1,0,0,1-.78,1.883Z" transform="translate(-150.661 -198.214)"/>
          </g>
        </g>
        <g id="Grupo_145510" data-name="Grupo 145510" transform="translate(53.847 103.491)">
          <g id="Grupo_145509" data-name="Grupo 145509">
            <path id="Trazado_193398" data-name="Trazado 193398" d="M166.358,243.966h-9.706a2.288,2.288,0,0,1-2.285-2.285v-6.121a1.1,1.1,0,0,1,2.207,0v6.121a.078.078,0,0,0,.078.078h9.706a.644.644,0,0,0,.643-.68l-.189-5.182a1.1,1.1,0,0,1,1.062-1.143,1.117,1.117,0,0,1,1.143,1.063l.188,5.16a2.851,2.851,0,0,1-2.848,2.988Z" transform="translate(-154.367 -234.457)"/>
          </g>
        </g>
        <g id="Grupo_145513" data-name="Grupo 145513" transform="translate(12.606 7.956)">
          <g id="Grupo_145512" data-name="Grupo 145512">
            <g id="Grupo_145511" data-name="Grupo 145511">
              <path id="Trazado_193399" data-name="Trazado 193399" d="M62.04,44.6a1.1,1.1,0,0,1-1.1-1.1v-3.52a21.951,21.951,0,0,1,43.9,0v3.281a1.1,1.1,0,0,1-2.207,0V39.976a19.744,19.744,0,1,0-39.487,0V43.5A1.1,1.1,0,0,1,62.04,44.6Z" transform="translate(-60.936 -18.025)"/>
            </g>
          </g>
        </g>
        <g id="Grupo_145515" data-name="Grupo 145515" transform="translate(49.172 30.672)">
          <g id="Grupo_145514" data-name="Grupo 145514">
            <path id="Trazado_193400" data-name="Trazado 193400" d="M145.476,84.495a6.8,6.8,0,0,1-.708-.038,1.1,1.1,0,1,1,.227-2.2,4.638,4.638,0,0,0,.481.026,5.3,5.3,0,0,0,0-10.594c-.138,0-.274.006-.41.017a1.1,1.1,0,1,1-.176-2.2c.193-.015.388-.024.585-.024a7.5,7.5,0,0,1,0,15.008Z" transform="translate(-143.778 -69.487)"/>
          </g>
        </g>
        <g id="Grupo_145517" data-name="Grupo 145517" transform="translate(18.122 25.311)">
          <g id="Grupo_145516" data-name="Grupo 145516">
            <path id="Trazado_193401" data-name="Trazado 193401" d="M89.867,91.924A16.453,16.453,0,0,1,73.433,75.49V66.36A1.1,1.1,0,0,1,74.838,65.3c11.442,3.259,19.367-4.7,21.523-7.218a2.1,2.1,0,0,1,1.472-.734,2.137,2.137,0,0,1,1.57.553,11.811,11.811,0,0,0,5.1,2.961,2.3,2.3,0,0,1,1.8,2.243V75.49A16.453,16.453,0,0,1,89.867,91.924ZM75.64,67.776V75.49a14.227,14.227,0,1,0,28.454,0V63.1a.1.1,0,0,0-.088-.093,13.886,13.886,0,0,1-6.028-3.425c-2.364,2.737-10.5,10.786-22.337,8.189Z" transform="translate(-73.433 -57.343)"/>
          </g>
        </g>
        <g id="Grupo_145519" data-name="Grupo 145519" transform="translate(10.737 31.882)">
          <g id="Grupo_145518" data-name="Grupo 145518">
            <path id="Trazado_193402" data-name="Trazado 193402" d="M64.207,86.026a7.5,7.5,0,0,1-5.134-12.969,3.047,3.047,0,0,1,3.32-.569,23.918,23.918,0,0,0,3.1,1.126,1.1,1.1,0,0,1-.6,2.123A26.21,26.21,0,0,1,61.5,74.507a.844.844,0,0,0-.919.159,5.236,5.236,0,0,0-1.673,3.855,5.3,5.3,0,0,0,5.3,5.3,4.651,4.651,0,0,0,.5-.029,1.1,1.1,0,1,1,.237,2.194A6.763,6.763,0,0,1,64.207,86.026Z" transform="translate(-56.703 -72.227)"/>
          </g>
        </g>
        <g id="Grupo_145521" data-name="Grupo 145521" transform="translate(40.744 56.289)">
          <g id="Grupo_145520" data-name="Grupo 145520">
            <path id="Trazado_193403" data-name="Trazado 193403" d="M131.423,139.348a1.1,1.1,0,0,1-.487-.114l-3.258-1.607a5.331,5.331,0,0,1-2.993-4.812v-4.189a1.1,1.1,0,0,1,2.207,0v4.189a3.139,3.139,0,0,0,1.762,2.833l3.258,1.607a1.1,1.1,0,0,1-.489,2.093Z" transform="translate(-124.684 -127.523)"/>
          </g>
        </g>
        <g id="Grupo_145523" data-name="Grupo 145523" transform="translate(0.423 56.114)">
          <g id="Grupo_145522" data-name="Grupo 145522">
            <path id="Trazado_193404" data-name="Trazado 193404" d="M83.278,184.011H51.661a2.288,2.288,0,0,1-2.285-2.285V177.5a36.059,36.059,0,0,0-1.2-9.224v13.452a2.288,2.288,0,0,1-2.285,2.285H36.187A2.851,2.851,0,0,1,33.341,181l1.211-33.269a7.363,7.363,0,0,1,5.575-6.776l10.961-2.767a12.341,12.341,0,0,0,2.435-.895l3.79-1.869a3.139,3.139,0,0,0,1.762-2.833v-4.364a1.1,1.1,0,0,1,2.207,0v4.364a5.332,5.332,0,0,1-2.993,4.812l-3.79,1.869a14.522,14.522,0,0,1-2.871,1.055L40.666,143.1a5.16,5.16,0,0,0-3.91,4.738L35.545,181.1a.656.656,0,0,0,.175.5.637.637,0,0,0,.467.2h9.706a.078.078,0,0,0,.078-.078V160.917a1.1,1.1,0,0,1,2.157-.329l1.714,5.49a38.289,38.289,0,0,1,1.74,11.419v4.229a.078.078,0,0,0,.078.078H83.278a.078.078,0,0,0,.078-.078V177.5c0-1.059.05-2.167.148-3.294a1.1,1.1,0,1,1,2.2.192c-.093,1.063-.139,2.107-.139,3.1v4.229a2.288,2.288,0,0,1-2.285,2.285Z" transform="translate(-33.336 -127.125)"/>
          </g>
        </g>
        <g id="Grupo_145525" data-name="Grupo 145525" transform="translate(24.541 0)">
          <g id="Grupo_145524" data-name="Grupo 145524">
            <path id="Trazado_193405" data-name="Trazado 193405" d="M89.107,11.8a1.1,1.1,0,0,1-1.1-1.012c-.023-.268-.033-.52-.033-.769a10.015,10.015,0,1,1,20.029,0c0,.2-.007.4-.019.592a1.1,1.1,0,0,1-2.2-.143c.01-.148.015-.3.015-.448a7.808,7.808,0,0,0-15.615,0c0,.2.009.393.026.587A1.1,1.1,0,0,1,89.2,11.792c-.031,0-.063,0-.093,0Z" transform="translate(-87.976 0)"/>
          </g>
        </g>
        <g id="Grupo_145527" data-name="Grupo 145527" transform="translate(21.755 45.023)">
          <g id="Grupo_145526" data-name="Grupo 145526">
            <path id="Trazado_193406" data-name="Trazado 193406" d="M82.768,111.283a1.1,1.1,0,0,1-1.1-1.1v-5.436A2.747,2.747,0,0,1,84.408,102h20.114a2.747,2.747,0,0,1,2.744,2.744v5.381a1.1,1.1,0,0,1-2.207,0v-5.381a.537.537,0,0,0-.537-.537H84.408a.537.537,0,0,0-.537.537v5.436A1.1,1.1,0,0,1,82.768,111.283Z" transform="translate(-81.664 -102)"/>
          </g>
        </g>
        <g id="Grupo_145529" data-name="Grupo 145529" transform="translate(24.953 63.887)">
          <g id="Grupo_145528" data-name="Grupo 145528">
            <path id="Trazado_193407" data-name="Trazado 193407" d="M98.512,149.569a16.3,16.3,0,0,1-9.114-2.781,1.1,1.1,0,1,1,1.229-1.833,14.117,14.117,0,0,0,15.815-.031,1.1,1.1,0,0,1,1.236,1.828,16.306,16.306,0,0,1-9.167,2.817Z" transform="translate(-88.909 -144.734)"/>
          </g>
        </g>
        <g id="Grupo_145531" data-name="Grupo 145531" transform="translate(38.863 61.192)">
          <g id="Grupo_145530" data-name="Grupo 145530">
            <path id="Trazado_193408" data-name="Trazado 193408" d="M142.987,183.76h0a22.565,22.565,0,0,1,0-45.131h0a22.565,22.565,0,0,1,0,45.131Zm0-42.924a20.359,20.359,0,1,0,14.4,5.963A20.225,20.225,0,0,0,142.986,140.836Z" transform="translate(-120.421 -138.629)"/>
          </g>
        </g>
        <g id="Grupo_145533" data-name="Grupo 145533" transform="translate(47.131 87.649)">
          <g id="Grupo_145532" data-name="Grupo 145532">
            <path id="Trazado_193409" data-name="Trazado 193409" d="M140.257,212.253a1.1,1.1,0,0,1-.78-1.883l11.478-11.478a1.1,1.1,0,1,1,1.56,1.56l-11.478,11.478A1.1,1.1,0,0,1,140.257,212.253Z" transform="translate(-139.153 -198.567)"/>
          </g>
        </g>
        <g id="Grupo_145535" data-name="Grupo 145535" transform="translate(43.725 84.216)">
          <g id="Grupo_145534" data-name="Grupo 145534">
            <path id="Trazado_193410" data-name="Trazado 193410" d="M132.541,204.447a1.1,1.1,0,0,1-.78-1.883l11.45-11.451a1.1,1.1,0,1,1,1.56,1.56l-11.45,11.451A1.1,1.1,0,0,1,132.541,204.447Z" transform="translate(-131.437 -190.789)"/>
          </g>
        </g>
        <path id="Trazado_193411" data-name="Trazado 193411" d="M176.553,164.811a2.152,2.152,0,0,0-2.5-.974l-11.634,3.47a4.991,4.991,0,0,0-3.4,3.455l-1.6,5.725a1.1,1.1,0,0,0,.283,1.078L161.136,181a1.1,1.1,0,0,0,1.561,0l13.526-13.526a2.155,2.155,0,0,0,.33-2.662Zm-14.637,13.846-2.2-2.2,1.429-5.1a2.8,2.8,0,0,1,1.9-1.936l11.542-3.443Z" transform="translate(-102.203 -91.465)"/>
      </g>
    </g>
  </g>
</svg>
