<svg xmlns="http://www.w3.org/2000/svg" width="139" height="139" viewBox="0 0 139 139">
  <g id="Grupo_145944" data-name="Grupo 145944" transform="translate(10578 5566)">
    <rect id="Rectángulo_44322" data-name="Rectángulo 44322" width="139" height="139" rx="69.5" transform="translate(-10578 -5566)" fill="#b0f0fc"/>
    <g id="surface1" transform="translate(-10554 -5544.691)">
      <path id="Trazado_193353" data-name="Trazado 193353" d="M98.811,343.165,91.172,341.6l-4.42,4.578L71.684,334.284l10.049-6.858,10.685-11.694a4.021,4.021,0,0,1,6.371.57l12.659,14.519a4.667,4.667,0,0,1-1.129,7.076l-7.458,4.441A6.932,6.932,0,0,1,98.811,343.165Zm0,0" transform="translate(-57.683 -253.013)" fill="#ffe7cf"/>
      <path id="Trazado_193354" data-name="Trazado 193354" d="M141.418,383.781l-3.089-3.543-12.882,7.677a6.948,6.948,0,0,1-4.05.826l-6.691-.721-5.779,4.964,7.795,6.152,4.42-4.578,7.639,1.566a6.948,6.948,0,0,0,4.05-.826l7.458-4.442A4.667,4.667,0,0,0,141.418,383.781Zm0,0" transform="translate(-87.651 -305.973)" fill="#efd5bd"/>
      <path id="Trazado_193355" data-name="Trazado 193355" d="M176.339,304.191c-1.492-2.313-3.308-1.142-4.8-3.456s.325-3.484-1.166-5.8-3.309-1.143-4.8-3.458.325-3.485-1.167-5.8c-.912-1.414-2.563-4.333-3.57-4.736l-8.051,3.978,14.01,22.1a4.569,4.569,0,0,0,6.316,1.364l2.68-1.728a1.782,1.782,0,0,0,.56-2.444Zm0,0" transform="translate(-122.944 -226.073)" fill="#344a5d"/>
      <path id="Trazado_193356" data-name="Trazado 193356" d="M97.979,276.075l-6.325,3.9a2.553,2.553,0,0,1-3.514-.832l-3.575-5.795a2.554,2.554,0,0,1,.832-3.514l6.325-3.9a1.58,1.58,0,0,1,2.174.515l4.6,7.451A1.58,1.58,0,0,1,97.979,276.075Zm0,0" transform="translate(-67.742 -213.804)" fill="#344a5d"/>
      <path id="Trazado_193357" data-name="Trazado 193357" d="M114.754,79.654l-12.838,7.921a3.594,3.594,0,0,0-1.171,4.946l6.33,10.259a3.6,3.6,0,0,0,4.946,1.172l12.838-7.921,40.6-8.839-24.6-39.864Zm0,0" transform="translate(-80.637 -38.084)" fill="#f18385"/>
      <path id="Trazado_193358" data-name="Trazado 193358" d="M172.72,203.344l-40.395,9.178-15.9,9.808,3.7,5.994a3.6,3.6,0,0,0,4.946,1.172l12.837-7.921,40.6-8.839Zm0,0" transform="translate(-93.69 -163.628)" fill="#ebc1c2"/>
      <path id="Trazado_193359" data-name="Trazado 193359" d="M124.86,229.213l-12.838,7.921a3.6,3.6,0,0,1-4.946-1.172l-6.33-10.259a3.594,3.594,0,0,1,1.171-4.946l12.838-7.921Zm0,0" transform="translate(-80.637 -171.266)" fill="#8ee5f6"/>
      <path id="Trazado_193360" data-name="Trazado 193360" d="M132.326,250.336l-15.9,9.808,3.7,5.994a3.6,3.6,0,0,0,4.946,1.172l12.837-7.921Zm0,0" transform="translate(-93.69 -201.442)" fill="#defaff"/>
      <path id="Trazado_193361" data-name="Trazado 193361" d="M318.473,74.633l-1.753,1.081a1.933,1.933,0,0,1-2.66-.63L287.618,32.229a1.933,1.933,0,0,1,.63-2.66L290,28.488a1.933,1.933,0,0,1,2.66.629L319.1,71.973A1.933,1.933,0,0,1,318.473,74.633Zm0,0" transform="translate(-231.211 -22.692)" fill="#defaff"/>
      <path id="Trazado_193362" data-name="Trazado 193362" d="M411.31,223.27l-4.35-7.051-5.042,3.111,4.35,7.05a1.933,1.933,0,0,0,2.66.63l1.753-1.081A1.933,1.933,0,0,0,411.31,223.27Zm0,0" transform="translate(-323.418 -173.988)" fill="#8ee5f6"/>
      <path id="Trazado_193363" data-name="Trazado 193363" d="M250.974,396.855a3.318,3.318,0,0,0,4.562,1.1L260.375,395a3.319,3.319,0,0,0-3.461-5.663l-4.839,2.958A3.318,3.318,0,0,0,250.974,396.855Zm0,0" transform="translate(-201.563 -312.901)" fill="#ffe7cf"/>
      <path id="Trazado_193364" data-name="Trazado 193364" d="M261.606,391.406a3.3,3.3,0,0,0-1.617-1.355,3.319,3.319,0,0,1-1.556,3.277l-4.839,2.957a3.311,3.311,0,0,1-2.946.253,3.316,3.316,0,0,0,5.018,2.386l4.838-2.957A3.318,3.318,0,0,0,261.606,391.406Zm0,0" transform="translate(-201.694 -313.869)" fill="#efd5bd"/>
      <path id="Trazado_193365" data-name="Trazado 193365" d="M240.334,363.321a3.368,3.368,0,0,0,4.632,1.118l4.752-2.9a3.369,3.369,0,0,0-3.513-5.749l-4.753,2.905A3.368,3.368,0,0,0,240.334,363.321Zm0,0" transform="translate(-192.996 -285.898)" fill="#ffe7cf"/>
      <path id="Trazado_193366" data-name="Trazado 193366" d="M250.956,357.978a3.354,3.354,0,0,0-1.585-1.353,3.367,3.367,0,0,1-1.583,3.3l-4.752,2.905a3.362,3.362,0,0,1-3.047.233,3.366,3.366,0,0,0,5.1,2.45l4.752-2.9A3.369,3.369,0,0,0,250.956,357.978Zm0,0" transform="translate(-193.116 -286.972)" fill="#efd5bd"/>
      <path id="Trazado_193367" data-name="Trazado 193367" d="M222.2,334.078a3.369,3.369,0,0,0,4.632,1.118l4.752-2.905a3.368,3.368,0,1,0-3.513-5.748l-4.752,2.9A3.369,3.369,0,0,0,222.2,334.078Zm0,0" transform="translate(-178.402 -262.367)" fill="#ffe7cf"/>
      <path id="Trazado_193368" data-name="Trazado 193368" d="M232.8,328.8a3.355,3.355,0,0,0-1.546-1.337,3.366,3.366,0,0,1-1.588,3.249l-4.752,2.9a3.361,3.361,0,0,1-3.086.218,3.363,3.363,0,0,0,5.1,2.5l4.752-2.9A3.369,3.369,0,0,0,232.8,328.8Zm0,0" transform="translate(-178.502 -263.504)" fill="#efd5bd"/>
      <path id="Trazado_193369" data-name="Trazado 193369" d="M205.1,304.086a3.369,3.369,0,0,0,4.632,1.118l4.752-2.905a3.368,3.368,0,1,0-3.513-5.748l-4.752,2.9A3.369,3.369,0,0,0,205.1,304.086Zm0,0" transform="translate(-164.646 -238.232)" fill="#ffe7cf"/>
      <path id="Trazado_193370" data-name="Trazado 193370" d="M215.923,298.3a3.352,3.352,0,0,0-1.886-1.461,3.368,3.368,0,0,1-1.535,3.577l-4.752,2.905a3.36,3.36,0,0,1-2.746.342,3.362,3.362,0,0,0,5.048,2.172l4.753-2.9A3.37,3.37,0,0,0,215.923,298.3Zm0,0" transform="translate(-164.964 -238.86)" fill="#efd5bd"/>
      <path id="Trazado_193371" data-name="Trazado 193371" d="M146.673,305.334l-.881.539a2.9,2.9,0,0,1-4-.908l-1.461-2.387a2.5,2.5,0,0,0-3.466-.774c-1.2,8.812-13.724,8.015-13.724,8.015L130.9,298.13a6.246,6.246,0,0,1,2.113-2.177l4.38-2.716a4.46,4.46,0,0,1,6.171,1.376l4.128,6.737A2.906,2.906,0,0,1,146.673,305.334Zm0,0" transform="translate(-99.087 -235.405)" fill="#ffe7cf"/>
      <path id="Trazado_193372" data-name="Trazado 193372" d="M182.458,325.275l-.034-.055a3,3,0,0,1-.983.975l-.882.539a2.9,2.9,0,0,1-4-.908l-1.46-2.387a2.5,2.5,0,0,0-3.467-.774,17.435,17.435,0,0,1-5.285,9.663,8.241,8.241,0,0,0,5.285-6.6,2.5,2.5,0,0,1,3.467.774l1.46,2.387a2.9,2.9,0,0,0,4,.908l.882-.539A2.907,2.907,0,0,0,182.458,325.275Zm0,0" transform="translate(-133.855 -259.33)" fill="#efd5bd"/>
      <path id="Trazado_193373" data-name="Trazado 193373" d="M99.219,403.659,86.875,388.99l4.064-3.42a.3.3,0,0,1,.428.037l11.953,14.2a.3.3,0,0,1-.037.427Zm0,0" transform="translate(-69.907 -310.206)" fill="#cdd6df"/>
      <path id="Trazado_193374" data-name="Trazado 193374" d="M127.172,427.643l-6.359-7.557-4.3,3.616,6.554,7.789,4.065-3.42A.3.3,0,0,0,127.172,427.643Zm0,0" transform="translate(-93.759 -338.038)" fill="#96a4aa"/>
      <path id="Trazado_193375" data-name="Trazado 193375" d="M36.228,412.833l-13.342-15.65a.321.321,0,0,0-.425-.057L8.252,408.342a1.977,1.977,0,0,0-.752,1.552v4.563a1.977,1.977,0,0,0,1.977,1.977H32.72a1.978,1.978,0,0,0,1.541-.739l1.953-2.43A.322.322,0,0,0,36.228,412.833Zm0,0" transform="translate(-6.035 -319.517)" fill="#8ee5f6"/>
      <path id="Trazado_193376" data-name="Trazado 193376" d="M90.151,447.2l-6.326-7.421L74.512,450.8H86.644a1.978,1.978,0,0,0,1.541-.739l1.953-2.431A.321.321,0,0,0,90.151,447.2Zm0,0" transform="translate(-59.959 -353.886)" fill="#defaff"/>
      <path id="Trazado_193377" data-name="Trazado 193377" d="M403.512,93.354a1.465,1.465,0,0,0,2.016.48l7.941-4.884a1.465,1.465,0,1,0-1.536-2.495l-7.94,4.884A1.465,1.465,0,0,0,403.512,93.354Zm0,0" transform="translate(-324.527 -69.394)"/>
      <path id="Trazado_193378" data-name="Trazado 193378" d="M450.646,167.82l-11.641-1.131a1.465,1.465,0,1,0-.283,2.916l11.64,1.131c.049,0,.1.007.143.007a1.465,1.465,0,0,0,.14-2.923Zm0,0" transform="translate(-351.969 -134.127)"/>
      <path id="Trazado_193379" data-name="Trazado 193379" d="M370.126,13.73a1.461,1.461,0,0,0,1.9-.834L376.262,2a1.465,1.465,0,1,0-2.73-1.062l-4.24,10.9A1.464,1.464,0,0,0,370.126,13.73Zm0,0" transform="translate(-297.084 0)"/>
      <path id="Trazado_193380" data-name="Trazado 193380" d="M62.7,22.318a3.4,3.4,0,0,0-4.675-1.107l-1.752,1.081a3.4,3.4,0,0,0-1.108,4.675L56.168,28.6,33.134,57.115l-4.865,3a1.465,1.465,0,0,0,1.539,2.493l3.831-2.364,7.465,12.1A5.984,5.984,0,0,0,37.973,73l-.052.027c-.131.069-.262.142-.389.22l-4.38,2.716a7.862,7.862,0,0,0-2.586,2.647l-1.081,1.63-.795,1.2-.021-.007-.036-.017c-.062-.027-.123-.058-.182-.091l-.037-.021a2.247,2.247,0,0,1-.188-.126l-.037-.029a2.087,2.087,0,0,1-.16-.137l-.019-.018a2.22,2.22,0,0,1-.156-.171l-.031-.04a2.178,2.178,0,0,1-.137-.195l-6.33-10.259a2.129,2.129,0,0,1,.694-2.93l1.9-1.169a1.465,1.465,0,1,0-1.538-2.493L20.51,64.9a5.061,5.061,0,0,0-2.216,5.672l-1.409.87a4.023,4.023,0,0,0-1.309,5.53l3.575,5.795a3.992,3.992,0,0,0,2.493,1.8,4.056,4.056,0,0,0,.934.11,3.987,3.987,0,0,0,2.1-.6l1.411-.871a5.058,5.058,0,0,0,.964.69l-4.067,6.126-.959.655a1.769,1.769,0,0,0-1.94.224l-2.524,2.124a1.781,1.781,0,0,0-1.964.031c-.028.02-.056.04-.083.061L1.309,104.336A3.422,3.422,0,0,0,0,107.037V111.6a3.446,3.446,0,0,0,3.442,3.442H26.685a3.425,3.425,0,0,0,2.683-1.286l1.927-2.4a1.776,1.776,0,0,0,.43-1.36l2.593-2.183a1.757,1.757,0,0,0,.538-.792l5.978,1.225a1.439,1.439,0,0,0,.268.03c.175,0,.349.005.523.005a7.789,7.789,0,0,0,4.3-1.038l6.022-3.587c.1.006.2.01.3.01a4.751,4.751,0,0,0,2.486-.7l4.838-2.957a4.778,4.778,0,0,0-.33-8.343,4.828,4.828,0,0,0-3.1-6.928,4.817,4.817,0,0,0-3.384-5.666,4.82,4.82,0,0,0-.549-3.737,4.9,4.9,0,0,0-.639-.827L80.6,68.189,81.6,69.821a3.4,3.4,0,0,0,4.675,1.108l1.752-1.081a3.4,3.4,0,0,0,1.107-4.676ZM23.143,81.587a1.089,1.089,0,0,1-1.5-.355l-3.575-5.795a1.091,1.091,0,0,1,.355-1.5l1.243-.767,4.719,7.647Zm3.941,30.334a.507.507,0,0,1-.4.191H3.442a.513.513,0,0,1-.512-.512v-4.563a.509.509,0,0,1,.195-.4l13.327-10.52,12.012,14.091Zm2.979-4.354L19.527,95.207l1.56-1.313,10.458,12.428Zm14.359-2.834a5.337,5.337,0,0,1-3.133.618l-7.505-1.539a1.46,1.46,0,0,0-.53-.011L24.041,92.854l.835-.57,0,0,.041-.031c.031-.024.063-.047.092-.072l.042-.04c.03-.027.057-.056.084-.085.011-.011.022-.024.032-.036.033-.04.064-.08.092-.122l.008-.011.007-.01.007-.011L33.031,80.2c.017-.025.033-.051.048-.077A4.791,4.791,0,0,1,34.7,78.455l4.38-2.716c.081-.05.163-.1.246-.137.037-.019.076-.035.113-.053s.088-.04.133-.057.1-.04.155-.057c.027-.01.054-.018.082-.027.064-.02.129-.039.194-.055h0a3.11,3.11,0,0,1,.714-.087h.015c.07,0,.14,0,.209.008l.067.006c.062.005.123.012.184.021.036.005.072.013.109.02.093.018.185.04.276.066l.105.03c.047.016.092.034.137.052s.072.027.108.043.09.04.134.063l.1.051c.044.024.089.049.132.076l.088.056c.043.029.087.058.129.09.026.019.05.04.075.06.043.034.086.069.127.106a2.815,2.815,0,0,1,.519.622l.108.176L44.9,79.359l1.96,3.2.5.814a1.29,1.29,0,0,1,.116.24,1.368,1.368,0,0,1,.041.793,1.506,1.506,0,0,1-.689.935l-.881.539h0a1.54,1.54,0,0,1-.187.1l-.041.018a1.5,1.5,0,0,1-.192.064l-.024.005a1.532,1.532,0,0,1-.183.032l-.036,0a1.685,1.685,0,0,1-.2,0l-.037,0a1.541,1.541,0,0,1-.2-.025h0a1.434,1.434,0,0,1-.2-.059l-.018-.006a1.379,1.379,0,0,1-.379-.219h0a1.415,1.415,0,0,1-.158-.151l-.012-.014a1.264,1.264,0,0,1-.124-.169l-1.46-2.387a3.873,3.873,0,0,0-2.43-1.756,4,4,0,0,0-3.058.5,1.466,1.466,0,0,0-.68,1.047c-.017.125-.037.248-.06.369-.017.088-.036.176-.056.263-.006.029-.012.059-.019.088-.026.11-.054.218-.085.325a.116.116,0,0,1,0,.013,6.207,6.207,0,0,1-.69,1.557,0,0,0,0,0,0,0,6.877,6.877,0,0,1-2.326,2.228,1.465,1.465,0,0,0,1.522,2.5,10.72,10.72,0,0,0,1.9-1.457L42.62,98.4a6.07,6.07,0,0,0,5.09,2.762c.107,0,.214-.005.32-.011.042.076.085.152.13.227a4.826,4.826,0,0,0,.591.777Zm1.243-10.77v0c.024.069.051.136.079.2l.01.024c.025.061.053.121.081.182.007.013.012.027.019.041.027.056.056.112.085.168.009.017.017.034.026.05.039.072.08.143.123.213.073.121.153.236.236.348.03.04.06.079.091.118.054.069.11.135.167.2.04.046.08.093.122.137s.066.064.1.1a4.827,4.827,0,0,0,.372.335l.04.032a4.756,4.756,0,0,0,.809.519,4.824,4.824,0,0,0-.517,1.595,3.111,3.111,0,0,1-2.419-1.405L38.354,86.2a9.429,9.429,0,0,0,.716-2.066,1.089,1.089,0,0,1,.314.027.967.967,0,0,1,.608.435l1.46,2.387.007.01a4.089,4.089,0,0,0,.232.339c.061.08.127.155.192.23.023.026.043.054.067.08l.01.039q.034.152.078.3c.009.029.018.058.026.087.036.113.074.225.118.335,0,.011.009.022.014.033.04.1.085.2.134.3.014.028.027.056.042.084.055.107.112.212.175.316A4.8,4.8,0,0,0,45.489,91.3,4.814,4.814,0,0,0,45.664,93.964ZM46.6,76.53l.492-.3a1.9,1.9,0,1,1,1.986,3.249l-.489.3L47.14,77.414Zm10.917,17.6a1.854,1.854,0,0,1,.531,3.384l-4.838,2.957a1.84,1.84,0,0,1-1.285.243c-.025-.005-.051-.011-.077-.015l-.04-.008a1.842,1.842,0,0,1-1.38-1.434.111.111,0,0,0,0-.017,1.866,1.866,0,0,1,.491-1.644c.011-.011.022-.024.034-.034l.066-.06c.022-.02.045-.04.069-.058l.053-.042c.043-.032.087-.063.134-.092l0,0,.961-.587a5.007,5.007,0,0,0,.5-.263l3.7-2.263A1.844,1.844,0,0,1,57.516,94.125ZM54.146,87.7a1.9,1.9,0,0,1,1.813,3.342l-.871.533a4.856,4.856,0,0,0-.5.266L50.9,94.1a1.909,1.909,0,0,1-1.987-.374h0c-.041-.038-.08-.077-.117-.119l-.029-.035c-.027-.032-.055-.064-.081-.1s-.069-.1-.1-.149-.061-.107-.088-.162c-.008-.018-.015-.035-.024-.053-.017-.037-.034-.076-.048-.114-.008-.021-.014-.04-.021-.061-.012-.037-.024-.074-.034-.111-.005-.021-.011-.042-.015-.063q-.013-.056-.023-.114l-.009-.06q-.008-.06-.011-.119c0-.019,0-.038,0-.057,0-.041,0-.082,0-.123,0-.018,0-.036,0-.053,0-.042.007-.083.011-.124,0-.018,0-.035.006-.053.005-.037.013-.073.021-.11a1.9,1.9,0,0,1,.61-1.041c.013-.011.024-.025.037-.037s.036-.032.055-.047c.046-.026.092-.05.137-.077l4.753-2.905Q54.047,87.772,54.146,87.7ZM51.87,81.86a1.9,1.9,0,0,1,.719,3.355c-.049.027-.1.054-.145.083l-3.67,2.243.036-.03c.07-.056.14-.112.206-.172.041-.037.08-.076.12-.114.06-.058.119-.117.175-.179.039-.041.076-.085.112-.127.053-.063.1-.125.153-.19.034-.045.069-.091.1-.138.047-.066.091-.134.134-.2.03-.048.06-.1.087-.144.042-.073.08-.149.117-.224.024-.048.049-.095.07-.143.038-.085.072-.172.105-.259.015-.042.034-.083.048-.126.045-.132.085-.265.118-.4s.056-.262.075-.393c.006-.042.009-.084.014-.126.011-.09.019-.179.024-.269,0-.049,0-.1,0-.146,0-.084,0-.167,0-.25,0-.05,0-.1-.008-.149-.006-.084-.016-.168-.027-.251-.006-.047-.011-.093-.019-.139-.016-.095-.036-.188-.059-.281-.008-.034-.014-.068-.022-.1-.034-.126-.072-.25-.117-.373-.009-.024-.02-.047-.03-.072-.032-.082-.063-.166-.1-.246l.336-.206A1.892,1.892,0,0,1,51.87,81.86ZM86.7,67.065a.467.467,0,0,1-.21.29L84.74,68.437a.469.469,0,0,1-.644-.153l-18.45-29.9a1.464,1.464,0,1,0-2.493,1.538L78.965,65.546l-34.041,7.41L35.909,58.344,57.8,31.243l1.768,2.867a1.465,1.465,0,1,0,2.493-1.539l-4.408-7.143a.468.468,0,0,1,.153-.644L59.559,23.7a.468.468,0,0,1,.644.153L86.645,66.712A.465.465,0,0,1,86.7,67.065Zm0,0" transform="translate(0 -16.661)"/>
    </g>
  </g>
</svg>
