<svg xmlns="http://www.w3.org/2000/svg" width="249.5" height="166.562" viewBox="0 0 249.5 166.562">
  <g id="Grupo_145896" data-name="Grupo 145896" transform="translate(4349.5 2437.951)">
    <g id="Grupo_145854" data-name="Grupo 145854" transform="translate(-5228 -11163.39)">
      <circle id="Elipse_1246" data-name="Elipse 1246" cx="82.5" cy="82.5" r="82.5" transform="translate(927 8727)" fill="#8ee5f6"/>
      <g id="microorganismo" transform="translate(878.5 8756.618)">
        <path id="Trazado_193913" data-name="Trazado 193913" d="M389.846,146.683c0,11.6-6.692,25.392-14.948,25.392s-14.948-13.792-14.948-25.392,6.692-16.616,14.948-16.616,14.948,5.016,14.948,16.616Z" transform="translate(-285.506 -103.195)" fill="#f18385"/>
        <circle id="Elipse_1241" data-name="Elipse 1241" cx="10.755" cy="10.755" r="10.755" transform="translate(28.501 79.072)" fill="#defaff"/>
        <path id="Trazado_193914" data-name="Trazado 193914" d="M177.909,382.464a10.753,10.753,0,0,0-3.1.456,10.756,10.756,0,0,1,0,20.6,10.755,10.755,0,1,0,3.1-21.053Z" transform="translate(-138.654 -303.392)" fill="#90d774"/>
        <circle id="Elipse_1242" data-name="Elipse 1242" cx="3.309" cy="3.309" r="3.309" transform="translate(34.677 85.249)" fill="#ffcd55"/>
        <path id="Trazado_193915" data-name="Trazado 193915" d="M420.327,130.067a18.531,18.531,0,0,0-3.1.255c6.766,1.149,11.846,6.256,11.846,16.361s-5.079,21.872-11.846,24.738a7.916,7.916,0,0,0,3.1.654c8.255,0,14.948-13.792,14.948-25.392s-6.692-16.616-14.948-16.616Z" transform="translate(-330.935 -103.195)" fill="#ff6167"/>
        <path id="Trazado_193916" data-name="Trazado 193916" d="M61.549,37.773,36.139,12.361A16.787,16.787,0,1,0,12.4,36.1L37.806,61.51A16.787,16.787,0,0,0,61.549,37.773Z" transform="translate(-5.95 -5.948)" fill="#483c8c"/>
        <path id="Trazado_193917" data-name="Trazado 193917" d="M114.53,37.78,89.121,12.369a16.8,16.8,0,0,0-14.974-4.61,16.663,16.663,0,0,1,8.769,4.61l25.41,25.412a16.835,16.835,0,0,1,0,23.737,16.666,16.666,0,0,1-8.769,4.61A16.772,16.772,0,0,0,114.53,37.78Z" transform="translate(-58.812 -5.956)" fill="#8178c3"/>
        <circle id="Elipse_1243" data-name="Elipse 1243" cx="7.583" cy="7.583" r="7.583" transform="translate(9.563 13.581)" fill="#ffd86e"/>
        <path id="Trazado_193918" data-name="Trazado 193918" d="M71.005,65.8a7.552,7.552,0,0,0-3.1.664,7.582,7.582,0,0,1,0,13.838,7.583,7.583,0,1,0,3.1-14.5Z" transform="translate(-53.86 -52.221)" fill="#ffcd55"/>
        <circle id="Elipse_1244" data-name="Elipse 1244" cx="6.205" cy="6.205" r="6.205" transform="translate(34.316 31.818)" fill="#ffd86e"/>
        <path id="Trazado_193919" data-name="Trazado 193919" d="M184.025,153.982a6.174,6.174,0,0,0-3.1.832,6.2,6.2,0,0,1,0,10.745,6.2,6.2,0,1,0,3.1-11.577Z" transform="translate(-143.505 -122.164)" fill="#ffcd55"/>
        <circle id="Elipse_1245" data-name="Elipse 1245" cx="7.583" cy="7.583" r="7.583" transform="translate(81.809 35.542)" fill="#ffd86e"/>
        <path id="Trazado_193920" data-name="Trazado 193920" d="M420.327,171.987a7.552,7.552,0,0,0-3.1.664,7.582,7.582,0,0,1,0,13.838,7.583,7.583,0,1,0,3.1-14.5Z" transform="translate(-330.935 -136.445)" fill="#ffcd55"/>
        <g id="Grupo_145839" data-name="Grupo 145839" transform="translate(0 0)">
          <path id="Trazado_193921" data-name="Trazado 193921" d="M38.791,67.436a9.144,9.144,0,0,0,9.133,9.134c12.116-.5,12.113-17.768,0-18.268a9.144,9.144,0,0,0-9.133,9.134Zm15.164,0A6.032,6.032,0,1,1,47.924,61.4,6.038,6.038,0,0,1,53.955,67.436Z" transform="translate(-30.768 -46.272)"/>
          <path id="Trazado_193922" data-name="Trazado 193922" d="M397.207,164.487a9.144,9.144,0,0,0-9.133,9.134c.5,12.117,17.766,12.114,18.266,0A9.144,9.144,0,0,0,397.207,164.487Zm0,15.166a6.031,6.031,0,1,1,6.031-6.032A6.038,6.038,0,0,1,397.207,179.653Z" transform="translate(-307.813 -130.496)"/>
          <path id="Trazado_193923" data-name="Trazado 193923" d="M170.026,409.688a4.86,4.86,0,1,0-4.86,4.86A4.865,4.865,0,0,0,170.026,409.688Zm-6.617,0a1.758,1.758,0,1,1,1.758,1.758A1.76,1.76,0,0,1,163.409,409.688Z" transform="translate(-127.173 -321.13)"/>
          <path id="Trazado_193924" data-name="Trazado 193924" d="M142.9,371.485h-2.273a12.241,12.241,0,0,0-2.481-5.978l1.61-1.611a1.551,1.551,0,0,0-2.193-2.193l-1.611,1.611a12.239,12.239,0,0,0-5.978-2.481V358.56a1.551,1.551,0,0,0-3.1,0v2.273a12.24,12.24,0,0,0-5.978,2.481l-1.611-1.611a1.551,1.551,0,0,0-2.193,2.193l1.61,1.611a12.243,12.243,0,0,0-2.481,5.978h-2.273a1.551,1.551,0,0,0,0,3.1h2.274a12.353,12.353,0,0,0,2.477,5.981l-1.608,1.608a1.551,1.551,0,0,0,2.193,2.194l1.855-1.855a1.55,1.55,0,0,0,1.068-2.693,9.2,9.2,0,1,1,5.711,2.4,1.555,1.555,0,0,0-1.045,2.764v2.523a1.551,1.551,0,0,0,3.1,0v-2.273a12.24,12.24,0,0,0,5.978-2.481l1.61,1.611a1.551,1.551,0,1,0,2.193-2.193l-1.61-1.611a12.243,12.243,0,0,0,2.481-5.978H142.9a1.551,1.551,0,0,0,0-3.1Z" transform="translate(-89.158 -283.21)"/>
          <path id="Trazado_193925" data-name="Trazado 193925" d="M166.217,146.482a7.764,7.764,0,0,0-7.755,7.756c.426,10.289,15.085,10.286,15.51,0A7.764,7.764,0,0,0,166.217,146.482Zm0,12.409a4.653,4.653,0,1,1,4.653-4.653A4.658,4.658,0,0,1,166.217,158.891Z" transform="translate(-125.689 -116.215)"/>
          <path id="Trazado_193926" data-name="Trazado 193926" d="M66.795,54.813,60.1,52.1A18.367,18.367,0,0,0,56.7,30.863L41.5,15.657A1.551,1.551,0,0,0,39.3,17.851l15.2,15.206A15.235,15.235,0,0,1,32.962,54.6L7.555,29.189A15.235,15.235,0,0,1,29.1,7.645l5.09,5.091a1.551,1.551,0,0,0,2.194-2.194l-5.09-5.091c-6.793-7.088-19.14-7.088-25.933,0a18.358,18.358,0,0,0,0,25.931L30.768,56.794a18.476,18.476,0,0,0,21.442,3.294l3.483,6.756a1.551,1.551,0,1,0,2.757-1.422l-3.611-7a18.243,18.243,0,0,0,3.6-3.639l7.19,2.91a1.551,1.551,0,1,0,1.163-2.876Z" transform="translate(0 -0.136)"/>
          <path id="Trazado_193927" data-name="Trazado 193927" d="M194.427,241.717a1.554,1.554,0,0,0,1.841,1.192l7.044-1.507a1.551,1.551,0,0,0-.649-3.034l-7.044,1.507A1.551,1.551,0,0,0,194.427,241.717Z" transform="translate(-154.189 -189.07)"/>
          <path id="Trazado_193928" data-name="Trazado 193928" d="M68.206,96.518a1.551,1.551,0,0,0,1.551,1.551h3a1.551,1.551,0,0,0,0-3.1h-3A1.551,1.551,0,0,0,68.206,96.518Z" transform="translate(-54.1 -75.354)"/>
          <path id="Trazado_193929" data-name="Trazado 193929" d="M376.737,176.755a14.572,14.572,0,0,1-1.651-4.865l-.884-5.827c9.247-5.7,15.207-26.573,8.078-37.052a1.551,1.551,0,1,0-2.559,1.754c6.869,9.677-1.031,33.844-10.8,33.8-7.214,0-13.4-13.109-13.4-23.841,0-9.574,4.882-15.064,13.4-15.064a15.04,15.04,0,0,1,5.861,1.1,1.551,1.551,0,0,0,1.2-2.859c-5.85-2.533-14.5-1.463-18.73,3.072-9.706,9.6-3.4,33.139,6.4,39.1l-.883,5.819a14.573,14.573,0,0,1-1.651,4.865l-2.3,4.176a1.551,1.551,0,0,0,2.716,1.5l2.3-4.176a17.671,17.671,0,0,0,2-5.9l.758-4.994q.384.1.774.17V184.8a1.551,1.551,0,0,0,3.1,0V167.531q.4-.069.788-.173l.759,5a17.664,17.664,0,0,0,2,5.9l2.3,4.176a1.551,1.551,0,1,0,2.716-1.5Z" transform="translate(-279.529 -97.238)"/>
          <path id="Trazado_193930" data-name="Trazado 193930" d="M418.682,201.152h-3.731a1.551,1.551,0,0,0,0,3.1h3.731A1.551,1.551,0,0,0,418.682,201.152Z" transform="translate(-327.911 -159.578)"/>
        </g>
      </g>
    </g>
    <g id="fiebre" transform="translate(-4265.854 -2437.951)">
      <g id="Grupo_145849" data-name="Grupo 145849" transform="translate(52.456 2.214)">
        <g id="XMLID_490_" transform="translate(8.984 126.119)">
          <path id="Trazado_193933" data-name="Trazado 193933" d="M201.205,453.182a22.574,22.574,0,0,0-6.806-8.063l-14.017-10.312h-7.472l-16.991.427-12.389-.427-14.017,10.313a22.574,22.574,0,0,0-6.806,8.063,1.554,1.554,0,0,0,1.4,2.243H199.81a1.554,1.554,0,0,0,1.4-2.243Z" transform="translate(-122.543 -434.806)" fill="#f18385"/>
        </g>
        <path id="Trazado_193934" data-name="Trazado 193934" d="M153.745,435.158l-10.214-.352-14.017,10.313a22.574,22.574,0,0,0-6.806,8.063,1.554,1.554,0,0,0,1.4,2.243h9.934a22.569,22.569,0,0,1,6.206-6.95l13.5-9.933v-3.384Z" transform="translate(-113.559 -308.687)" fill="#fde9e0"/>
        <path id="Trazado_193935" data-name="Trazado 193935" d="M227.5,371.182l3,2.211c-12.142,8.465-24.43,8.27-36.852,0l3-2.211,4.309-9.817,4.531-13.689h13.5l4.2,13.689Z" transform="translate(-163.68 -247.273)" fill="#ffdfcf"/>
        <path id="Trazado_193936" data-name="Trazado 193936" d="M99.911,91.854A12.326,12.326,0,0,1,96.4,72.135a11.047,11.047,0,0,1,3.887-19.416c-.017-.309-.026-.62-.026-.934a17.307,17.307,0,0,1,23.384-16.194l39.96,22.936-25.393,50.428Z" transform="translate(-92.103 -26.523)" fill="#e1d3ce"/>
        <g id="XMLID_488_" transform="translate(58.197 35.254)">
          <g id="Grupo_145846" data-name="Grupo 145846">
            <path id="Trazado_193937" data-name="Trazado 193937" d="M322.111,133.788a16.1,16.1,0,0,1,2.24,18.438l-2.807,5.206-5.1,9.955-27.16,3.061,4.035-43.5,28.719,6.758Z" transform="translate(-289.282 -126.946)" fill="#e1d3ce"/>
          </g>
        </g>
        <path id="Trazado_193938" data-name="Trazado 193938" d="M110.612,245.662H122.92v-17.22H110.612a7.527,7.527,0,0,0-7.527,7.527v2.165A7.528,7.528,0,0,0,110.612,245.662Z" transform="translate(-99.844 -163.231)" fill="#ffcebf"/>
        <path id="Trazado_193939" data-name="Trazado 193939" d="M357.785,245.662H346.658v-17.22h11.127a7.527,7.527,0,0,1,7.527,7.527v2.165A7.528,7.528,0,0,1,357.785,245.662Z" transform="translate(-271.526 -163.231)" fill="#ffcebf"/>
        <g id="Grupo_145848" data-name="Grupo 145848" transform="translate(14.517)">
          <path id="Trazado_193940" data-name="Trazado 193940" d="M223.191,361.364l-1.086-3.542-3.111-10.148H205.5l-4.531,13.689-4.309,9.817-3,2.211a40.308,40.308,0,0,0,9.047,4.591l2.841-6.471a3.137,3.137,0,0,1,3.539-2.095,17.732,17.732,0,0,0,3.116.278,17.937,17.937,0,0,0,7.66-1.73s5.037-2.535,5.076-2.639Z" transform="translate(-178.197 -247.273)" fill="#ffcebf"/>
          <path id="Trazado_193941" data-name="Trazado 193941" d="M209.281,128.9a40.792,40.792,0,0,1-23.264,36.834l-4.975,2.367a13.4,13.4,0,0,1-11.516,0l-6.676-3.177a37.809,37.809,0,0,1-21.563-34.141V101.527a24.42,24.42,0,0,1,8.942-18.888l3.662-3,16.7-9.845,38.694,19.254Z" transform="translate(-141.287 -51.407)" fill="#ffdfcf"/>
          <path id="Trazado_193942" data-name="Trazado 193942" d="M199.1,102.572a19.467,19.467,0,0,0,6.092-.974,2.86,2.86,0,0,1,2.811.594,22.122,22.122,0,0,0,20.491,4.886V89.047L189.8,69.793l-16.7,9.845-3.662,3c-.306.251-.6.509-.9.773a19.519,19.519,0,0,0,11.685,7.766,2.779,2.779,0,0,1,1.833,1.357A19.5,19.5,0,0,0,199.1,102.572Z" transform="translate(-160.502 -51.407)" fill="#ffcebf"/>
          <path id="Trazado_193943" data-name="Trazado 193943" d="M230.5,25.776a13.146,13.146,0,0,0-13-15.08,13.078,13.078,0,0,0-7,2.02,10.206,10.206,0,0,0-18.69,2.1,13.569,13.569,0,1,0-1.859,27.009c.455,0,.9-.023,1.348-.067a13.566,13.566,0,0,0,22.545,7.388A16.2,16.2,0,1,0,230.5,25.776Z" transform="translate(-166.021 -7.5)" fill="#cdbfba"/>
          <g id="Grupo_145847" data-name="Grupo 145847" transform="translate(70.591 126.546)">
            <path id="Trazado_193944" data-name="Trazado 193944" d="M380.456,436.253h0Z" transform="translate(-380.456 -436.253)" fill="#a6e7f0"/>
          </g>
        </g>
      </g>
      <g id="Grupo_145850" data-name="Grupo 145850" transform="translate(35.854 0)">
        <path id="Trazado_193945" data-name="Trazado 193945" d="M164.02,94.826a2.214,2.214,0,1,0,4.073,1.736,42.9,42.9,0,0,0,2.848-9.7h2.133a9.752,9.752,0,0,0,9.741-9.741V74.952a9.711,9.711,0,0,0-3.008-7.029L182.03,63.8a18.344,18.344,0,0,0-1.589-19.823,18.387,18.387,0,0,0-.373-15.685,2.214,2.214,0,0,0-3.957,1.986,13.829,13.829,0,0,1,1.478,6.259,13.986,13.986,0,0,1-26.464,6.319,2.214,2.214,0,0,0-3.479-.621,11.352,11.352,0,0,1-18.866-6.181,2.217,2.217,0,0,0-2.392-1.787c-.379.037-.759.056-1.13.056a11.356,11.356,0,0,1,0-22.712,11.539,11.539,0,0,1,1.558.109,2.216,2.216,0,0,0,2.423-1.567,7.992,7.992,0,0,1,14.637-1.64,2.213,2.213,0,0,0,3.11.788,10.928,10.928,0,0,1,16.748,9.251,11.091,11.091,0,0,1-.119,1.613,2.214,2.214,0,0,0,1.891,2.517,13.837,13.837,0,0,1,4.987,1.689,2.214,2.214,0,1,0,2.186-3.85,18.316,18.316,0,0,0-4.517-1.824c0-.048,0-.1,0-.144A15.358,15.358,0,0,0,146.508,4.546a12.416,12.416,0,0,0-20.865,2.642q-.193,0-.384-.005a15.681,15.681,0,0,0-7.095,1.691A19.516,19.516,0,0,0,92.772,26.833a13.265,13.265,0,0,0-4.7,21.194A14.448,14.448,0,0,0,85.4,56.421a14.632,14.632,0,0,0,5.539,11.413,9.714,9.714,0,0,0-3.1,7.118v2.165a9.752,9.752,0,0,0,9.741,9.741H99.47a39.984,39.984,0,0,0,21.746,30.51L118,124.688,101.457,136.86a24.742,24.742,0,0,0-8.544,11.316,2.213,2.213,0,1,0,4.148,1.547,20.326,20.326,0,0,1,7.019-9.3l12.8-9.413q9.334,5.809,18.553,5.815a33.116,33.116,0,0,0,18.151-5.794l3.7,2.721a2.213,2.213,0,0,0,2.623-3.566l-7.479-5.5-3.2-7.285a43.163,43.163,0,0,0,13.918-12.173,2.214,2.214,0,1,0-3.563-2.627,38.7,38.7,0,0,1-14.471,11.939l-4.974,2.367a11.139,11.139,0,0,1-9.613,0l-6.676-3.177a35.6,35.6,0,0,1-20.3-32.142V52.333a22.127,22.127,0,0,1,8.131-17.176l1.918-1.572a15.744,15.744,0,0,0,11.312,5.162,15.784,15.784,0,0,0,23.634,8.386,18.414,18.414,0,0,0,2.674,3.038,2.211,2.211,0,0,0-.043,3.416l9.083,7.679a2.214,2.214,0,1,0,2.858-3.381l-4.174-3.529a18.459,18.459,0,0,0,8.173.255v25.1a38.331,38.331,0,0,1-3.091,15.12Zm-28.691,27.6a15.6,15.6,0,0,0,6.709-1.521l3.219-1.532,3.35,7.634a2.213,2.213,0,0,0,.715.893l.41.3c-9.526,5.605-19.06,5.593-28.986-.039l.357-.263a2.212,2.212,0,0,0,.715-.893l3.39-7.725,3.41,1.623a15.6,15.6,0,0,0,6.71,1.522Zm-36.211-40H97.584a5.32,5.32,0,0,1-5.314-5.314V74.952a5.32,5.32,0,0,1,5.314-5.314h1.534V82.431Zm9.752-50.7a26.539,26.539,0,0,0-9.752,20.6V65.211H97.584a9.721,9.721,0,0,0-2.174.248,10.171,10.171,0,0,1-5.579-9.037A10.057,10.057,0,0,1,92.7,49.37a2.213,2.213,0,0,0-.232-3.3,8.833,8.833,0,0,1,3.106-15.526,2.214,2.214,0,0,0,1.638-2.256c-.015-.287-.023-.554-.023-.816a15.1,15.1,0,0,1,15.082-15.083c.414,0,.823.023,1.232.056a15.742,15.742,0,0,0-2.412,17.464Zm69.517,45.384a5.32,5.32,0,0,1-5.314,5.314h-1.534V69.638h1.534a5.32,5.32,0,0,1,5.314,5.314v2.165ZM177.9,48.122a13.907,13.907,0,0,1,.231,13.576L176,65.66a9.709,9.709,0,0,0-2.923-.449H171.54V53.15a18.522,18.522,0,0,0,6.362-5.028Z" transform="translate(-70.213 0)"/>
        <path id="Trazado_193946" data-name="Trazado 193946" d="M206.727,322.525l2.168-1.794,3.213,2.254a3.673,3.673,0,0,0,4.594-.318l1.815-1.691,1.815,1.691a3.674,3.674,0,0,0,4.593.318l3.213-2.254,2.168,1.794a2.214,2.214,0,1,0,2.823-3.41l-2.62-2.169a3.667,3.667,0,0,0-4.432-.177L222.894,319l-1.884-1.756a3.67,3.67,0,0,0-4.986,0L214.14,319l-3.184-2.233a3.666,3.666,0,0,0-4.431.177l-2.62,2.169a2.214,2.214,0,0,0,2.823,3.411Z" transform="translate(-153.739 -222.809)"/>
        <path id="Trazado_193947" data-name="Trazado 193947" d="M229.675,265.869l1.591,1.3a9.243,9.243,0,0,0,11.342.286l2.06-1.519a2.214,2.214,0,0,0-2.627-3.564l-2.06,1.519a4.816,4.816,0,0,1-5.912-.149l-1.591-1.3a2.213,2.213,0,1,0-2.8,3.426Z" transform="translate(-171.896 -184.63)"/>
        <path id="Trazado_193948" data-name="Trazado 193948" d="M182.111,216.131a2.213,2.213,0,0,0,3.07.614l2.978-1.985,2.864,2.234a2.214,2.214,0,1,0,2.722-3.491l-1.705-1.33L193.8,211a2.213,2.213,0,1,0-2.455-3.683l-2.978,1.985L185.5,207.07a2.214,2.214,0,1,0-2.722,3.491l1.705,1.33-1.756,1.17A2.213,2.213,0,0,0,182.111,216.131Z" transform="translate(-138.681 -145.624)"/>
        <path id="Trazado_193949" data-name="Trazado 193949" d="M171.883,169.116a2.213,2.213,0,0,0-3.119-.261l-9.083,7.679a2.214,2.214,0,0,0,2.858,3.381l9.083-7.679A2.213,2.213,0,0,0,171.883,169.116Z" transform="translate(-122.58 -118.648)"/>
        <path id="Trazado_193950" data-name="Trazado 193950" d="M295.837,216.745a2.213,2.213,0,1,0,2.456-3.683l-1.756-1.17,1.705-1.33a2.214,2.214,0,1,0-2.722-3.491l-2.864,2.234-2.978-1.985A2.213,2.213,0,1,0,287.222,211l1.756,1.17-1.705,1.33a2.214,2.214,0,1,0,2.722,3.491l2.864-2.234Z" transform="translate(-212.336 -145.624)"/>
        <path id="Trazado_193951" data-name="Trazado 193951" d="M445.87,103.883l-1.954-4.024a.7.7,0,0,1-.006-.6l1.945-4.221a5.142,5.142,0,0,0-.771-5.493L441.692,85.6a.7.7,0,0,1-.13-.694l1.918-5.4a5.115,5.115,0,0,0-1.717-5.791l-4.351-3.329a2.214,2.214,0,0,0-2.69,3.516l4.351,3.328a.7.7,0,0,1,.235.793l-1.918,5.4a5.141,5.141,0,0,0,.945,5.064l3.392,3.941a.7.7,0,0,1,.105.752l-1.945,4.22a5.11,5.11,0,0,0,.044,4.388l1.954,4.024a.7.7,0,0,1-.057.71l-3.293,4.688a2.214,2.214,0,1,0,3.623,2.544l3.293-4.688a5.13,5.13,0,0,0,.417-5.189Z" transform="translate(-316.384 -49.297)"/>
        <path id="Trazado_193952" data-name="Trazado 193952" d="M43.9,88.492a5.14,5.14,0,0,0,.945-5.064l-1.918-5.4a.7.7,0,0,1,.235-.793l4.351-3.329a2.214,2.214,0,0,0-2.69-3.516l-4.351,3.329a5.115,5.115,0,0,0-1.716,5.791l1.918,5.4a.7.7,0,0,1-.129.693l-3.392,3.941a5.141,5.141,0,0,0-.771,5.493L38.33,99.26a.7.7,0,0,1-.006.6l-1.954,4.024a5.131,5.131,0,0,0,.417,5.189l3.293,4.688a2.214,2.214,0,1,0,3.623-2.544l-3.293-4.688a.7.7,0,0,1-.057-.71l1.954-4.024a5.11,5.11,0,0,0,.044-4.388l-1.945-4.22a.7.7,0,0,1,.105-.752Z" transform="translate(-35.854 -49.297)"/>
        <path id="Trazado_193953" data-name="Trazado 193953" d="M86.423,427.08l1.021-3.469,4.5-.856a2.214,2.214,0,0,0-.828-4.35l-4.678.89a4.109,4.109,0,0,0-3.187,2.889L82.22,425.68l-4.488,1.508a4.151,4.151,0,0,0-2.779,3.388l-.277,2.168-3.02,1.324a4.147,4.147,0,0,0-2.436,3.255l-.55,4.3a2.214,2.214,0,0,0,1.915,2.477,2.256,2.256,0,0,0,.284.018,2.214,2.214,0,0,0,2.193-1.933l.529-4.133,3.019-1.323a4.148,4.148,0,0,0,2.436-3.256l.275-2.15,4.458-1.5A4.13,4.13,0,0,0,86.423,427.08Z" transform="translate(-58.972 -294.886)"/>
        <path id="Trazado_193954" data-name="Trazado 193954" d="M383.028,437.324a4.147,4.147,0,0,0-2.436-3.255l-3.019-1.323-.277-2.168a4.151,4.151,0,0,0-2.779-3.387l-4.488-1.508-1.028-3.5a4.11,4.11,0,0,0-3.187-2.889l-4.678-.89a2.214,2.214,0,0,0-.828,4.35l4.5.856,1.021,3.469a4.129,4.129,0,0,0,2.644,2.747l4.458,1.5.275,2.15a4.148,4.148,0,0,0,2.436,3.255l3.019,1.323.529,4.133a2.214,2.214,0,0,0,2.193,1.933,2.257,2.257,0,0,0,.284-.018,2.214,2.214,0,0,0,1.915-2.477Z" transform="translate(-263.277 -294.886)"/>
        <path id="Trazado_193955" data-name="Trazado 193955" d="M358.549,460.108l-1.458-1.073a2.214,2.214,0,0,0-2.623,3.567l1.458,1.073a20.331,20.331,0,0,1,7.02,9.3,2.213,2.213,0,0,0,4.148-1.547,24.752,24.752,0,0,0-8.544-11.317Z" transform="translate(-259.793 -323.247)"/>
      </g>
    </g>
  </g>
</svg>
