<svg xmlns="http://www.w3.org/2000/svg" width="251.5" height="185.318" viewBox="0 0 251.5 185.318">
  <g id="Grupo_145542" data-name="Grupo 145542" transform="translate(-934.479 -141.146)">
    <path id="Rectángulo_44246" data-name="Rectángulo 44246" d="M0,0H89.356a45,45,0,0,1,45,45V185.318a0,0,0,0,1,0,0H45a45,45,0,0,1-45-45V0A0,0,0,0,1,0,0Z" transform="translate(999.34 141.146)" fill="#8ee5f6"/>
    <g id="Grupo_145416" data-name="Grupo 145416" transform="translate(934.479 151.224)">
      <path id="Trazado_192735" data-name="Trazado 192735" d="M3.649,485.1a.428.428,0,0,0-.026.058l.015-.032.011-.026" transform="translate(225.725 -331.121)" fill="#483c8c"/>
      <path id="Trazado_192750" data-name="Trazado 192750" d="M44.653,426.913a.583.583,0,0,0,.281-.359.592.592,0,0,0-.052-.437.617.617,0,0,0-.356-.281.554.554,0,0,0-.434.054.583.583,0,0,0-.281.359.592.592,0,0,0,.052.437.617.617,0,0,0,.356.281.554.554,0,0,0,.434-.054" transform="translate(202.889 -297.417)" fill="#483c8c"/>
      <path id="Trazado_192751" data-name="Trazado 192751" d="M52.862,418.732a.8.8,0,0,0-.518-.981.785.785,0,0,0-.978.525.8.8,0,0,0,.518.981.786.786,0,0,0,.978-.526" transform="translate(198.602 -292.81)" fill="#483c8c"/>
      <path id="Trazado_193053" data-name="Trazado 193053" d="M452.951,285.088c-2.777,8.007-9.472,9.33-9.672,13.706,0,0-1.746-3.165-.189-5.328,2.22-3.047,5.235-3.354,7.6-8.925a17.664,17.664,0,0,0,.948-10.953,13.366,13.366,0,0,1,1.316,11.5" transform="translate(-362.06 -223.884)" fill="#483c8c"/>
      <path id="Trazado_193054" data-name="Trazado 193054" d="M361.6,261.9a.973.973,0,0,1-.972-.954c-.009-.475-.053-1.055-.1-1.728a27.175,27.175,0,0,1,.6-9.666c1.325-4.662,11.58-15.843,12.016-16.316a.973.973,0,1,1,1.432,1.318c-2.882,3.132-10.581,12.029-11.576,15.532a25.15,25.15,0,0,0-.527,8.987c.053.7.1,1.308.109,1.837a.973.973,0,0,1-.954.991H361.6" transform="translate(-294.881 -190.603)" fill="#483c8c"/>
      <path id="Trazado_193055" data-name="Trazado 193055" d="M315.3,137.766c-1.363,0-3.193-.557-4.367-3.131a24.972,24.972,0,0,1-1.121-3.432c-.726-2.6-1.629-5.834-3.37-6.993-2.339-1.555-6.261-.046-10.8,1.7-7.9,3.037-18.71,7.2-28.288-3.184a50.652,50.652,0,0,0-19.318-12.555c-9.681-3.72-19.852-.357-19.953-.322a.973.973,0,0,1-.624-1.844c.442-.15,10.946-3.62,21.276.349a52.568,52.568,0,0,1,20.049,13.052c8.682,9.409,17.967,5.838,26.16,2.688,5.045-1.94,9.4-3.616,12.579-1.5,2.343,1.56,3.312,5.029,4.166,8.09a24.028,24.028,0,0,0,1.017,3.146,2.843,2.843,0,0,0,2.656,1.994.973.973,0,1,1,.037,1.946h-.1" transform="translate(-185.593 -87.118)" fill="#483c8c"/>
      <path id="Trazado_193056" data-name="Trazado 193056" d="M203.145,400.57a.971.971,0,0,1-.659-.258,123.975,123.975,0,0,1-15.733-17.2c-8.022-10.76-10.324-23.635-10.843-32.541a.973.973,0,1,1,1.943-.114c.5,8.641,2.727,21.118,10.46,31.491a122.1,122.1,0,0,0,15.492,16.93.973.973,0,0,1-.66,1.688" transform="translate(-143.949 -286.041)" fill="#483c8c"/>
      <path id="Trazado_193057" data-name="Trazado 193057" d="M223,202.8a.974.974,0,0,1-.931-1.259c4.081-13.3-9.584-29.659-24.05-46.98-10.658-12.76-21.678-25.955-26.837-39.235a174.514,174.514,0,0,1-5.523-18.115C161.5,81.583,157.2,65.421,142.929,56.159a.973.973,0,1,1,1.06-1.632c14.9,9.67,19.295,26.2,23.548,42.187a173.014,173.014,0,0,0,5.457,17.911c5.044,12.982,15.96,26.052,26.517,38.692,14.815,17.738,28.807,34.491,24.417,48.8a.974.974,0,0,1-.93.687" transform="translate(-116.599 -44.492)" fill="#483c8c"/>
      <path id="Trazado_193058" data-name="Trazado 193058" d="M240.385,66.544a.974.974,0,0,1-.949-.763A32.007,32.007,0,0,0,223.753,44.6c-11.414-6.627-27.83-8.1-41.821-3.75A.973.973,0,1,1,181.354,39c14.488-4.5,31.513-2.962,43.376,3.926a33.907,33.907,0,0,1,16.606,22.44.973.973,0,0,1-.74,1.16.99.99,0,0,1-.211.023" transform="translate(-147.846 -29.822)" fill="#483c8c"/>
      <path id="Trazado_193059" data-name="Trazado 193059" d="M807.119,760.514a.97.97,0,0,1-.395-.084,41.2,41.2,0,0,1-6.147-3.286.973.973,0,1,1,1.081-1.619,39.2,39.2,0,0,0,5.857,3.126.973.973,0,0,1-.4,1.862" transform="translate(-654.775 -618.13)" fill="#483c8c"/>
      <path id="Trazado_193060" data-name="Trazado 193060" d="M506.513,403.148a.973.973,0,0,1-.289-1.9c10.746-3.34,18.381-12.505,18.457-12.6a.973.973,0,0,1,1.5,1.236c-.324.395-8.068,9.7-19.383,13.22a.979.979,0,0,1-.289.044" transform="translate(-413.694 -317.75)" fill="#483c8c"/>
      <path id="Trazado_193061" data-name="Trazado 193061" d="M482.179,437.958l-6.806,6.071,8.66,2.86Z" transform="translate(-389.007 -358.391)" fill="#483c8c"/>
      <path id="Trazado_193062" data-name="Trazado 193062" d="M656.924,454.456a.973.973,0,0,1-.635-1.711c8.538-7.331,11.91-18.775,11.943-18.889a.973.973,0,0,1,1.87.538c-.141.491-3.554,12.108-12.544,19.828a.968.968,0,0,1-.634.235" transform="translate(-536.78 -354.457)" fill="#483c8c"/>
      <path id="Trazado_193063" data-name="Trazado 193063" d="M635.186,519.744l-3.838,8.274,9.084-.812Z" transform="translate(-516.646 -425.317)" fill="#483c8c"/>
      <path id="Trazado_193064" data-name="Trazado 193064" d="M726.827,3.2a.39.39,0,0,0-.062-.039.385.385,0,0,0-.517.172c-2.124,4.234-25.852,32.443-34.312,35.547a95.163,95.163,0,0,1-10.655,2.77c-8.889,1.99-50.723,28.146-50.937,28.267-1.424.805-2.174,1.727-2.232,2.741a3.219,3.219,0,0,0,1.312,2.47c.425.508,4.1,4.24,16.371-1.271a76.138,76.138,0,0,0,7.253-3.915,61.861,61.861,0,0,1,8.749-4.534c2.336-.906,5.762-.733,7.51,1.372,1.781,2.145.809,4.378-.22,6.743-.123.282-.245.563-.363.844-2.915,6.965-8.273,13.512-13,19.288q-.732.9-1.45,1.775c-1,1.141-24.728,28.219-26.4,30.655a4.388,4.388,0,0,0,.014,5.119,1.9,1.9,0,0,0,2.506.3c4.825-2.759,15.334-12.767,21.613-18.746,1.833-1.746,3.282-3.125,4.158-3.916,3.329-3,21.952-21.454,22.14-21.64a.385.385,0,0,0-.542-.547c-.187.186-18.8,18.624-22.114,21.615-.884.8-2.336,2.18-4.173,3.93-6.254,5.955-16.721,15.922-21.465,18.635a1.145,1.145,0,0,1-1.558-.154,3.632,3.632,0,0,1,.055-4.162c1.641-2.4,26.1-30.311,26.348-30.593.486-.6.97-1.188,1.458-1.784,4.76-5.817,10.156-12.41,13.115-19.479.116-.278.237-.555.358-.834,1.077-2.474,2.191-5.032.107-7.542-2-2.407-5.729-2.626-8.38-1.6a62.435,62.435,0,0,0-8.86,4.588,75.661,75.661,0,0,1-7.178,3.876c-12.189,5.475-15.448,1.5-15.479,1.462a.375.375,0,0,0-.081-.079,2.545,2.545,0,0,1-1.04-1.84c.043-.734.663-1.444,1.842-2.11.215-.122,41.95-26.221,50.726-28.186A95.578,95.578,0,0,0,692.2,39.6c4.96-1.82,14.478-11.693,19.711-17.417,6.9-7.543,13.776-16.018,15.025-18.507a.385.385,0,0,0-.11-.478" transform="translate(-513.143 -2.555)" fill="#483c8c"/>
      <path id="Trazado_193065" data-name="Trazado 193065" d="M626.672,129.851a2.39,2.39,0,0,1-1.781-.815,4.915,4.915,0,0,1-.065-5.824c1.7-2.488,25.907-30.1,26.43-30.7q.705-.867,1.428-1.749l.016-.019c4.7-5.747,10.033-12.259,12.916-19.148.118-.283.241-.566.365-.849,1-2.3,1.863-4.28.305-6.156-1.178-1.419-3.985-2.324-6.868-1.206a61.455,61.455,0,0,0-8.667,4.495,76.612,76.612,0,0,1-7.307,3.943c-12.2,5.481-16.226,2.043-17,1.164a3.7,3.7,0,0,1-1.484-2.912c.068-1.219.916-2.3,2.519-3.2l.369-.229c9.9-6.145,42.834-26.331,50.723-28.1a94.894,94.894,0,0,0,10.583-2.75c3.484-1.278,10.521-7.547,19.308-17.2,7.175-7.881,13.674-16.04,14.693-18.069A.954.954,0,0,1,724.434.1a.984.984,0,0,1,.153.1.954.954,0,0,1,.271,1.182c-1.268,2.528-8.189,11.062-15.113,18.636-5.267,5.762-14.861,15.705-19.934,17.567A95.772,95.772,0,0,1,679,40.4c-3.381.757-12.542,5.459-26.5,13.6C645.4,58.137,637,63.2,628.838,68.268l-.421.26c-.986.558-1.524,1.128-1.555,1.65a1.915,1.915,0,0,0,.812,1.351.937.937,0,0,1,.191.188c.021.024,3.222,3.566,14.8-1.633a75.174,75.174,0,0,0,7.122-3.847,62.852,62.852,0,0,1,8.944-4.629c2.839-1.1,6.85-.849,9.022,1.764,2.308,2.778,1.069,5.622-.023,8.131-.124.285-.242.556-.355.826-2.991,7.146-8.415,13.773-13.2,19.619-.488.6-.971,1.186-1.457,1.783l-.014.016c-6.39,7.288-24.938,28.541-26.306,30.539a3.071,3.071,0,0,0-.107,3.457c.157.17.366.328.859.047,4.684-2.679,15.12-12.616,21.355-18.554,1.84-1.752,3.293-3.136,4.184-3.94,3.294-2.971,21.908-21.412,22.095-21.6a.945.945,0,0,1,.671-.276h0a.952.952,0,0,1,.665,1.629l-.016.016c-1.929,1.911-18.939,18.752-22.144,21.643-.869.784-2.311,2.157-4.136,3.895-6.309,6.008-16.849,16.044-21.734,18.838a2.868,2.868,0,0,1-1.423.408" transform="translate(-510.559 0)" fill="#483c8c"/>
      <path id="Trazado_193066" data-name="Trazado 193066" d="M799.861,463.785a.385.385,0,0,0-.52.048c-4.68,5.214-17.053,18.9-18.094,19.632-1.272.891-5.118,2.968-5.156,2.989a.385.385,0,0,0,.365.677c.16-.086,3.924-2.119,5.232-3.035,1.326-.928,17.536-18.98,18.225-19.748a.385.385,0,0,0-.029-.544l-.023-.019" transform="translate(-634.926 -379.461)" fill="#483c8c"/>
      <path id="Trazado_193067" data-name="Trazado 193067" d="M773.716,485.2a.959.959,0,0,1-.274-.04.952.952,0,0,1-.179-1.751c.16-.086,3.881-2.1,5.1-2.954.839-.587,11.029-11.784,18-19.546a.957.957,0,0,1,1.288-.12l0,0c.021.016.041.033.061.051a.953.953,0,0,1,.066,1.339c-2.827,3.149-17,18.907-18.322,19.834s-5.128,2.983-5.288,3.07a.951.951,0,0,1-.451.114" transform="translate(-632.369 -376.911)" fill="#483c8c"/>
      <path id="Trazado_193068" data-name="Trazado 193068" d="M619.734,607.469a.384.384,0,0,0-.3-.075c-.641.1-15.7,2.6-16.3,9.394a1.4,1.4,0,0,0,.492,1.239c1.642,1.405,6.222-.03,6.851-.187.206-.051,1.321-.156,1.269-.362a.384.384,0,0,0-.466-.28c-1.6.4-6.015,1.219-7.154.244a.631.631,0,0,1-.225-.587c.543-6.2,15.5-8.677,15.651-8.7a.385.385,0,0,0,.173-.685" transform="translate(-493.56 -497.041)" fill="#483c8c"/>
      <path id="Trazado_193069" data-name="Trazado 193069" d="M603.344,616.65a3.955,3.955,0,0,1-2.632-.746,1.975,1.975,0,0,1-.688-1.72c.268-3.064,3.126-5.65,8.495-7.686a46.654,46.654,0,0,1,8.276-2.219.958.958,0,0,1,.731.185.952.952,0,0,1-.428,1.7c-4.079.659-14.758,3.416-15.176,8.19a.226.226,0,0,0,0,.079.135.135,0,0,0,.026.026c.7.6,4,.3,6.649-.363a.952.952,0,0,1,1.154.695.63.63,0,0,1-.088.5c-.2.305-.595.395-1.379.514-.1.015-.175.026-.217.036l-.229.062a17.618,17.618,0,0,1-4.495.751m13.49-11.286h0Z" transform="translate(-491.004 -494.485)" fill="#483c8c"/>
      <path id="Trazado_193070" data-name="Trazado 193070" d="M746.323,508.881a.385.385,0,0,0-.52.049c-5.955,6.632-17.714,19.473-19.6,20.606-2.354,1.415-21.249,6.061-21.439,6.107a.385.385,0,1,0,.183.747c.783-.192,19.2-4.721,21.652-6.2s19.068-19.965,19.774-20.751a.385.385,0,0,0-.029-.543l-.023-.019" transform="translate(-576.486 -416.364)" fill="#483c8c"/>
      <path id="Trazado_193071" data-name="Trazado 193071" d="M702.3,534.42a.953.953,0,0,1-.225-1.878c5.276-1.294,19.383-4.9,21.282-6.043,1.694-1.018,12.57-12.816,19.468-20.5a.957.957,0,0,1,1.287-.12.8.8,0,0,1,.067.056.952.952,0,0,1,.064,1.337c-1.776,1.978-17.422,19.366-19.9,20.858s-19.839,5.777-21.81,6.26a.959.959,0,0,1-.228.028" transform="translate(-573.928 -413.815)" fill="#483c8c"/>
      <path id="Trazado_193072" data-name="Trazado 193072" d="M752.6,551.127a.385.385,0,0,0-.526.055c-.417.488-38.869,42.855-39.446,43.16a1.683,1.683,0,0,1-1.7-.3c-1.418-1.041-2.281-3.686-.056-7.756,2.674-4.893,14.412-19.8,14.53-19.949a.385.385,0,0,0-.064-.541c-.159-.127-1.074.745-1.206.912-.484.614-11.23,14.259-13.936,19.208-2.431,4.447-1.419,7.448.21,8.7l.067.05a2.221,2.221,0,0,0,2.958.026c1.347-1.414,38.58-42.257,39.053-42.8l.174-.2a.385.385,0,0,0-.042-.543l-.017-.013" transform="translate(-579.982 -450.934)" fill="#483c8c"/>
      <path id="Trazado_193073" data-name="Trazado 193073" d="M709.573,593.249a3.354,3.354,0,0,1-1.959-.686l-.078-.058c-1.792-1.374-2.962-4.665-.363-9.42,2.671-4.885,12.838-17.827,13.988-19.287.008-.011.951-1.07,1.53-1.136a.633.633,0,0,1,.476.132.953.953,0,0,1,.156,1.335c-.118.15-11.839,15.042-14.478,19.87-2.045,3.741-1.335,6.124-.106,7.027a1.241,1.241,0,0,0,1.056.279c1.758-1.628,39.014-42.689,39.324-43.048a.952.952,0,0,1,1.3-.136h0l.032.026a.955.955,0,0,1,.111,1.349l-.176.2c-.175.2-37.483,41.155-39.071,42.823a2.366,2.366,0,0,1-1.745.727" transform="translate(-577.458 -448.377)" fill="#483c8c"/>
      <path id="Trazado_193074" data-name="Trazado 193074" d="M965.616,113.427a.385.385,0,0,0-.529.058c-.3.358-30.161,35.83-34.176,41.413-4.029,5.6-16.642,33.888-21.026,40.139-1.266,1.8-2.266,3.23-2.778,4.094-1.29,2.173-4.161,8.469-6.937,14.558-2.873,6.3-5.844,12.815-6.624,13.767a1.116,1.116,0,0,1-1.266.466c-1.052-.394-2.068-2.491-1.975-5.739.149-5.2,8.287-26.376,8.369-26.589a.385.385,0,0,0-.718-.277c-.338.876-8.267,21.515-8.42,26.844-.109,3.8,1.165,5.992,2.475,6.482a1.844,1.844,0,0,0,2.131-.7c.844-1.029,3.7-7.3,6.729-13.935,2.768-6.07,5.631-12.347,6.9-14.485.5-.839,1.49-2.253,2.746-4.044,4.415-6.294,17.176-34.784,21.021-40.131,4-5.56,33.84-41.01,34.141-41.367a.385.385,0,0,0-.047-.542l-.014-.011" transform="translate(-727.922 -92.754)" fill="#483c8c"/>
      <path id="Trazado_193075" data-name="Trazado 193075" d="M890.059,226.763a2.284,2.284,0,0,1-.8-.149c-1.39-.52-2.969-2.673-2.844-7.03.155-5.422,8.119-26.152,8.458-27.032a.952.952,0,1,1,1.777.685c-.082.212-8.185,21.3-8.331,26.4-.09,3.133.885,4.921,1.606,5.191.081.031.3.111.629-.295.733-.895,3.821-7.667,6.546-13.643l.01-.023c2.778-6.093,5.652-12.393,6.955-14.589.525-.885,1.529-2.317,2.8-4.13,2.183-3.112,6.51-11.912,10.694-20.423,4.273-8.691,8.309-16.9,10.337-19.721,4.022-5.592,33.9-41.09,34.2-41.448a.95.95,0,0,1,1.308-.142l0,0,.022.017a.952.952,0,0,1,.125,1.35c-.3.357-30.11,35.766-34.114,41.333-1.855,2.58-5.99,10.978-9.987,19.1-4.3,8.74-8.752,17.778-11.03,21.026-1.252,1.786-2.237,3.189-2.723,4.008-1.252,2.111-4.107,8.371-6.868,14.425-3.177,6.968-5.919,12.979-6.809,14.065a2.551,2.551,0,0,1-1.964,1.02" transform="translate(-725.364 -90.195)" fill="#483c8c"/>
      <path id="Trazado_193076" data-name="Trazado 193076" d="M79.338,159.955a.969.969,0,0,1-.971-.966v-6.474a.971.971,0,0,1,1.943,0v6.474a.97.97,0,0,1-.972.966" transform="translate(-64.129 -124.012)" fill="#483c8c"/>
      <path id="Trazado_193077" data-name="Trazado 193077" d="M68,171.3H61.53a.971.971,0,0,1,0-1.942H68a.971.971,0,0,1,0,1.942" transform="translate(-49.557 -138.589)" fill="#483c8c"/>
      <path id="Trazado_193078" data-name="Trazado 193078" d="M3.043,78.554a3.041,3.041,0,1,1,3.041-3.043,3.044,3.044,0,0,1-3.041,3.043m0-4.142a1.1,1.1,0,1,0,1.1,1.1,1.1,1.1,0,0,0-1.1-1.1" transform="translate(0 -59.306)" fill="#483c8c"/>
      <path id="Trazado_193079" data-name="Trazado 193079" d="M1066.373,871.192a.969.969,0,0,1-.969-.97v-6.474a.97.97,0,1,1,1.94,0v6.474a.972.972,0,0,1-.972.97" transform="translate(-871.844 -706.029)" fill="#483c8c"/>
      <path id="Trazado_193080" data-name="Trazado 193080" d="M1055.021,882.537h-6.472a.97.97,0,1,1,0-1.941h6.472a.97.97,0,0,1,0,1.941" transform="translate(-857.255 -720.611)" fill="#483c8c"/>
      <path id="Trazado_193081" data-name="Trazado 193081" d="M1050.684,668.284a.972.972,0,0,1-.972-.971v-8.027a.97.97,0,1,1,1.94,0v8.027a.969.969,0,0,1-.969.971" transform="translate(-859.002 -538.715)" fill="#483c8c"/>
      <path id="Trazado_193082" data-name="Trazado 193082" d="M1036.615,682.347h-8.024a.97.97,0,1,1,0-1.941h8.024a.97.97,0,1,1,0,1.941" transform="translate(-840.923 -556.792)" fill="#483c8c"/>
      <path id="Trazado_193083" data-name="Trazado 193083" d="M983.712,790.376a.971.971,0,0,1-.971-.97v-5.434a.97.97,0,1,1,1.94,0v5.434a.97.97,0,0,1-.97.97" transform="translate(-804.199 -640.747)" fill="#483c8c"/>
      <path id="Trazado_193084" data-name="Trazado 193084" d="M974.193,799.9h-5.438a.971.971,0,0,1,0-1.941h5.438a.971.971,0,0,1,0,1.941" transform="translate(-791.962 -652.984)" fill="#483c8c"/>
    </g>
  </g>
</svg>
