<svg xmlns="http://www.w3.org/2000/svg" width="139" height="139" viewBox="0 0 139 139">
  <g id="Grupo_145560" data-name="Grupo 145560" transform="translate(-455 -6300)">
    <rect id="Rectángulo_44349" data-name="Rectángulo 44349" width="139" height="139" rx="69.5" transform="translate(455 6300)" fill="#b0f0fc"/>
    <g id="barbero" transform="translate(480 6314.907)">
      <g id="Grupo_145549" data-name="Grupo 145549" transform="translate(1.32 13.413)">
        <path id="Trazado_193415" data-name="Trazado 193415" d="M73.926,344.921l-21.7-5.12v.016H37.336V339.8l-21.7,5.12A10.558,10.558,0,0,0,7.5,355.2v10.244H82.06V355.2a10.558,10.558,0,0,0-8.134-10.276Z" transform="translate(-7.5 -283.454)" fill="#fff"/>
        <path id="Trazado_193416" data-name="Trazado 193416" d="M102.682,355.758v14.925H63.99V355.758l-9.7,2.288V378.59h58.07V358.041Z" transform="translate(-46.056 -296.603)" fill="#8ee5f6"/>
        <path id="Trazado_193417" data-name="Trazado 193417" d="M364.29,364.015v21.379h3.519V364.845Z" transform="translate(-301.505 -303.407)" fill="#58565b"/>
        <path id="Trazado_193418" data-name="Trazado 193418" d="M181.837,304.6l.011-.6a1.76,1.76,0,0,1,1.76-1.76h1.76a1.76,1.76,0,0,1,1.76,1.76l.011.6,4.8-1.6V291.926a12.658,12.658,0,0,1-5.337,1.178h-4.244a12.654,12.654,0,0,1-5.306-1.164V303Z" transform="translate(-147.218 -244.003)" fill="#fde9e0"/>
        <path id="Trazado_193419" data-name="Trazado 193419" d="M169.541,30.27c0-5.9-5.681-10.677-12.689-10.677a13.321,13.321,0,0,0-10.863,5.157h-2.58a8.847,8.847,0,0,0-8.833,8.9V43.9h29.808V38.862A10.231,10.231,0,0,0,169.541,30.27Z" transform="translate(-112.214 -19.593)" fill="#defaff"/>
        <path id="Trazado_193420" data-name="Trazado 193420" d="M252.888,19.593a15.179,15.179,0,0,0-1.768.1c6.179.718,10.937,5.177,10.937,10.573a10.231,10.231,0,0,1-5.157,8.592v5.033h3.519V38.862a10.231,10.231,0,0,0,5.157-8.592C265.577,24.373,259.9,19.593,252.888,19.593Z" transform="translate(-208.25 -19.593)" fill="#8ee5f6"/>
        <path id="Trazado_193421" data-name="Trazado 193421" d="M148.6,109.79c-4.285-4.124-8.153-1.936-8.153-1.936-3.109,1.173-5.874,6.511-5.874,6.511v13.8a12.818,12.818,0,0,0,12.78,12.78H151.6a12.818,12.818,0,0,0,12.78-12.78V111.114S155.208,116.147,148.6,109.79Z" transform="translate(-112.215 -91.845)" fill="#ffceb7"/>
        <g id="Grupo_145547" data-name="Grupo 145547" transform="translate(17.081 19.269)">
          <path id="Trazado_193422" data-name="Trazado 193422" d="M224.1,130.426v15.721a12.818,12.818,0,0,1-12.78,12.78h3.519a12.818,12.818,0,0,0,12.78-12.78V129.1a17.12,17.12,0,0,1-3.519,1.33Z" transform="translate(-192.538 -129.096)" fill="#ffaa81"/>
          <path id="Trazado_193423" data-name="Trazado 193423" d="M109.847,165.377H107.86a3.294,3.294,0,0,1-3.294-3.294v-1.094a3.294,3.294,0,0,1,3.294-3.294h1.987Z" transform="translate(-104.566 -152.662)" fill="#fde9e0"/>
          <path id="Trazado_193424" data-name="Trazado 193424" d="M304.456,157.7h1.987a3.294,3.294,0,0,1,3.294,3.294v1.094a3.294,3.294,0,0,1-3.294,3.294h-1.987Z" transform="translate(-269.281 -152.663)" fill="#ffaa81"/>
        </g>
        <path id="Trazado_193425" data-name="Trazado 193425" d="M158.638,243.978a10.558,10.558,0,0,1-4.836-.438l-2.9-.969-2.9.969a10.56,10.56,0,0,1-4.836.438l-6.88-.982c2.1,11.5,14.6,14.169,14.6,14.169s12.5-2.67,14.6-14.164Z" transform="translate(-113.62 -203.333)" fill="#defaff"/>
        <path id="Trazado_193426" data-name="Trazado 193426" d="M222,245.534c-1.812,8.43-9.288,11.939-12.739,13.13a16.7,16.7,0,0,0,1.76.518s12.5-2.67,14.6-14.164Z" transform="translate(-173.76 -205.349)" fill="#8ee5f6"/>
        <path id="Trazado_193427" data-name="Trazado 193427" d="M141.307,208.634a4.989,4.989,0,0,0-3.289,1.063,1.728,1.728,0,0,1-2.188,0,4.989,4.989,0,0,0-3.289-1.063c-5.279,0-5.323,5.972-13.22,5.972l9.865,1.407a10.56,10.56,0,0,0,4.836-.438l2.9-.969,2.9.969a10.557,10.557,0,0,0,4.836.438l9.865-1.407c-7.9,0-7.941-5.972-13.22-5.972Z" transform="translate(-99.645 -175.368)" fill="#18bab9"/>
        <g id="Grupo_145548" data-name="Grupo 145548" transform="translate(24.082 57.762)">
          <path id="Trazado_193428" data-name="Trazado 193428" d="M144.353,349.6v6.835a1.76,1.76,0,0,0,2.317,1.669l8.219-2.745v-4.682l-8.219-2.745A1.759,1.759,0,0,0,144.353,349.6Z" transform="translate(-144.353 -347.838)" fill="#8ee5f6"/>
          <path id="Trazado_193429" data-name="Trazado 193429" d="M242.571,347.93l-8.219,2.745v4.682l8.219,2.745a1.76,1.76,0,0,0,2.317-1.669V349.6A1.759,1.759,0,0,0,242.571,347.93Z" transform="translate(-218.515 -347.838)" fill="#8ee5f6"/>
          <path id="Trazado_193430" data-name="Trazado 193430" d="M207.809,350.571h-1.76a1.76,1.76,0,0,0-1.76,1.76v7.039a1.76,1.76,0,0,0,1.76,1.76h1.76a1.76,1.76,0,0,0,1.76-1.76v-7.039A1.76,1.76,0,0,0,207.809,350.571Z" transform="translate(-193.743 -350.09)" fill="#8ee5f6"/>
        </g>
        <path id="Trazado_193431" data-name="Trazado 193431" d="M428.147,114.428l3.026.681a3.519,3.519,0,0,0,4.206-2.66l2.411-10.709a6.62,6.62,0,0,0-5-7.912h0Z" transform="translate(-354.125 -80.764)" fill="#defaff"/>
        <path id="Trazado_193432" data-name="Trazado 193432" d="M381.343,114.428l-3.026.681a3.519,3.519,0,0,1-4.206-2.66L371.7,101.74a6.62,6.62,0,0,1,5-7.912h0Z" transform="translate(-307.477 -80.764)" fill="#8ee5f6"/>
      </g>
      <g id="Grupo_145551" data-name="Grupo 145551" transform="translate(0 12.093)">
        <path id="Trazado_193433" data-name="Trazado 193433" d="M68.944,73.845v-.038l-.892-.21h0l-20.686-4.88V64.524a17.868,17.868,0,0,0,6.923-10.267l2.1-.3L56.2,51.331a12.421,12.421,0,0,1-1.478-.084,14.072,14.072,0,0,0,.083-1.513V46.717h.756A4.619,4.619,0,0,0,60.176,42.1V41.009a4.619,4.619,0,0,0-4.614-4.614h-.756v-3a11.463,11.463,0,0,0,5.16-9.3,10.757,10.757,0,0,0-2.23-6.5l-2.108,1.588a8.14,8.14,0,0,1,1.7,4.915,8.851,8.851,0,0,1-4.5,7.448A16.856,16.856,0,0,1,47.8,33.11a10.444,10.444,0,0,1-9.179-2.7c-4.587-4.415-8.873-2.562-9.613-2.189A10.683,10.683,0,0,0,25,31.526V27.468a7.554,7.554,0,0,1,7.513-7.578h.251l-1.3,2.178,2.265,1.356,2.467-4.12a12.108,12.108,0,0,1,9.764-4.571,12.677,12.677,0,0,1,7.91,2.643l1.647-2.062a15.321,15.321,0,0,0-9.558-3.221A14.712,14.712,0,0,0,34.442,17.25H32.515A10.2,10.2,0,0,0,22.362,27.468V36.4h-.667a4.619,4.619,0,0,0-4.614,4.614V42.1a4.619,4.619,0,0,0,4.614,4.614h.667v3.017a14.051,14.051,0,0,0,.083,1.516A12.454,12.454,0,0,1,21,51.331l-.186,2.626,2.07.3a17.874,17.874,0,0,0,6.956,10.294v4.182l-4.211.981L9.151,73.6h0l-.915.216v.04A11.828,11.828,0,0,0,0,85.156V96.72H77.2V90.675H74.56v3.406H68.944V76.655a9.2,9.2,0,0,1,5.616,8.5v3H77.2v-3a11.828,11.828,0,0,0-8.256-11.311ZM54.9,39.035h.667a1.976,1.976,0,0,1,1.974,1.974V42.1a1.976,1.976,0,0,1-1.974,1.974H54.9ZM20.574,73.613l3.513-.829c0,.05,0,.1,0,.152V79.77a3.081,3.081,0,0,0,4.055,2.921l6.5-2.17A3.08,3.08,0,0,0,37.264,83.5v2.675H20.573V73.613Zm17.735-5.077.276.059.276-.059a23.558,23.558,0,0,0,5.864-2.316v5.237l-2.4.8a3.083,3.083,0,0,0-2.852-1.923h-1.76a3.083,3.083,0,0,0-2.852,1.923l-2.381-.8V66.237a23.557,23.557,0,0,0,5.832,2.3Zm11.568,3.982a.44.44,0,0,1,.579.417V79.77a.44.44,0,0,1-.579.417l-7.317-2.444V74.962ZM39.469,80.894h-1.76a.441.441,0,0,1-.44-.44V73.415a.441.441,0,0,1,.44-.44h1.76a.441.441,0,0,1,.44.44v7.039A.441.441,0,0,1,39.469,80.894Zm-4.85-5.931v2.781L27.3,80.188a.44.44,0,0,1-.579-.417V72.936a.43.43,0,0,1,.183-.357.438.438,0,0,1,.254-.084.445.445,0,0,1,.142.024ZM39.9,83.5a3.08,3.08,0,0,0,2.641-2.977l6.5,2.17A3.079,3.079,0,0,0,53.1,79.771V72.936c0-.052,0-.1,0-.157l3.535.834v12.56H39.9Zm6.248-30.748a9.291,9.291,0,0,1-3.445-.163c-.265-.063-.528-.134-.787-.22L38.6,51.259l-3.32,1.109a9.21,9.21,0,0,1-1.487.36c-.091.014-.182.026-.273.037a9.262,9.262,0,0,1-2.472-.014l-3.61-.515a18.2,18.2,0,0,0,2.535-2.048C31.356,48.917,32.356,48,34.217,48a3.7,3.7,0,0,1,2.449.762,3.045,3.045,0,0,0,3.867,0A3.7,3.7,0,0,1,42.982,48c1.861,0,2.861.919,4.245,2.19a18.188,18.188,0,0,0,2.534,2.048l-2.887.412ZM21.695,44.077A1.976,1.976,0,0,1,19.72,42.1V41.009a1.976,1.976,0,0,1,1.974-1.974h.667v5.042h-.667ZM25,49.734V36.264c.842-1.53,3-4.844,5.02-5.607l.083-.029.089-.05c.126-.068,3.125-1.615,6.6,1.731a13.144,13.144,0,0,0,11.475,3.4,19.626,19.626,0,0,0,3.9-1.011V49.733q0,.4-.029.8a12.094,12.094,0,0,1-3.125-2.294c-1.544-1.419-3.141-2.886-6.03-2.886a6.3,6.3,0,0,0-4.128,1.364.407.407,0,0,1-.51,0,6.3,6.3,0,0,0-4.128-1.364c-2.889,0-4.486,1.467-6.03,2.886a12.015,12.015,0,0,1-3.155,2.308Q25,50.144,25,49.734Zm.724,4.925,4.95.706a11.943,11.943,0,0,0,4.617-.252c.278-.071.553-.15.824-.241l2.483-.83,2.484.83.009,0a11.869,11.869,0,0,0,4.237.6c.748-.032,1.485-.149,2.225-.254l2.614-.373,1.273-.182a15.609,15.609,0,0,1-6.971,8.645,22.285,22.285,0,0,1-5.886,2.578A22.282,22.282,0,0,1,32.7,63.307,15.608,15.608,0,0,1,25.726,54.658ZM10.873,94.081V85.513H8.234v8.568H2.64V85.156a9.2,9.2,0,0,1,5.594-8.492v6.268h2.64V75.9l4.288-1.012,2.773-.654V88.813H59.265V74.236L66.3,75.9V94.081H10.873Z" transform="translate(0 -12.093)"/>
        <path id="Trazado_193434" data-name="Trazado 193434" d="M174.5,171.213h2.64v2.64H174.5Z" transform="translate(-143.795 -143.212)"/>
        <path id="Trazado_193435" data-name="Trazado 193435" d="M244.32,171.213h2.64v2.64h-2.64Z" transform="translate(-201.327 -143.212)"/>
        <path id="Trazado_193436" data-name="Trazado 193436" d="M38.873,256.821h2.64v2.64h-2.64Z" transform="translate(-32.032 -213.756)"/>
        <path id="Trazado_193437" data-name="Trazado 193437" d="M457.929,31.884h2.64v2.64h-2.64Z" transform="translate(-377.347 -28.401)"/>
        <g id="Grupo_145550" data-name="Grupo 145550" transform="translate(5.499 2.518)">
          <path id="Trazado_193438" data-name="Trazado 193438" d="M46.248,26.4h2.64v2.64h-2.64Z" transform="translate(-43.608 -26.401)"/>
          <path id="Trazado_193439" data-name="Trazado 193439" d="M46.248,56.4h2.64v2.64h-2.64Z" transform="translate(-43.608 -51.122)"/>
          <path id="Trazado_193440" data-name="Trazado 193440" d="M61.248,41.4h2.64v2.64h-2.64Z" transform="translate(-55.969 -38.761)"/>
          <path id="Trazado_193441" data-name="Trazado 193441" d="M31.248,41.4h2.64v2.64h-2.64Z" transform="translate(-31.248 -38.761)"/>
        </g>
        <path id="Trazado_193442" data-name="Trazado 193442" d="M377.548,126.758l-2.581-2.51a5.276,5.276,0,0,0-7.464-7.432l-1.915-8.505,1.154.26a4.837,4.837,0,0,0,5.784-3.658L374.937,94.2a7.94,7.94,0,0,0-5.955-9.479l-1.315-.394-3.739,16.608L360.5,85.711l-.312-1.381-1.314.394A7.94,7.94,0,0,0,352.92,94.2l2.411,10.709a4.837,4.837,0,0,0,5.784,3.658l1.154-.26-1.915,8.505a5.276,5.276,0,0,0-7.464,7.432l-2.581,2.51,1.84,1.892,2.98-2.9a5.274,5.274,0,0,0,7-4.78l1.8-8.015,1.8,8.015a5.274,5.274,0,0,0,7,4.78l2.98,2.9Zm-7.943-39.019a5.307,5.307,0,0,1,2.756,5.885l-2.411,10.709A2.2,2.2,0,0,1,367.322,106l-1.738-.391ZM360.535,106a2.2,2.2,0,0,1-2.629-1.663L355.5,93.624a5.307,5.307,0,0,1,2.756-5.885l4.022,17.865Zm-1.11,15.347a2.64,2.64,0,1,1-.345-1.991A2.622,2.622,0,0,1,359.425,121.342Zm12.161,2a2.64,2.64,0,1,1,1.651-1.164A2.623,2.623,0,0,1,371.587,123.338Z" transform="translate(-288.665 -71.618)"/>
      </g>
    </g>
  </g>
</svg>
