<svg xmlns="http://www.w3.org/2000/svg" width="139" height="139" viewBox="0 0 139 139">
  <g id="Grupo_145941" data-name="Grupo 145941" transform="translate(7619 3527)">
    <g id="Grupo_145648" data-name="Grupo 145648" transform="translate(-8361 -12303)">
      <rect id="Rect치ngulo_44383" data-name="Rect치ngulo 44383" width="139" height="139" rx="69.5" transform="translate(742 8776)" fill="#b0f0fc"/>
      <g id="Electric_Plug" data-name="Electric Plug" transform="translate(767.815 8809.815)">
        <path id="Trazado_193533" data-name="Trazado 193533" d="M71.127,17.779V28.895A13.9,13.9,0,0,1,57.232,42.79H48.895A13.9,13.9,0,0,1,35,28.895V17.779A2.787,2.787,0,0,1,37.779,15H68.348A2.787,2.787,0,0,1,71.127,17.779Z" transform="translate(12.853 5.063)" fill="#f7a5a6"/>
        <path id="Trazado_193534" data-name="Trazado 193534" d="M70.651,17.779V28.895A13.9,13.9,0,0,1,56.757,42.79H48.42a13.873,13.873,0,0,1-12.2-7.253,13.756,13.756,0,0,0,6.642,1.7H51.2A13.9,13.9,0,0,0,65.094,23.337V15h2.779A2.787,2.787,0,0,1,70.651,17.779Z" transform="translate(13.328 5.063)" fill="#f18385"/>
        <g id="Grupo_145572" data-name="Grupo 145572" transform="translate(53.411 3.389)">
          <path id="Trazado_193535" data-name="Trazado 193535" d="M59.337,19.674v4.168H51V7.168a4.168,4.168,0,1,1,8.337,0Z" transform="translate(-34.326 -3)" fill="#46f8ff"/>
          <path id="Trazado_193536" data-name="Trazado 193536" d="M53.337,36.558v4.168a4.168,4.168,0,0,1-8.337,0V35.168a4.168,4.168,0,1,1,8.337,0Z" transform="translate(-36.663 7.906)" fill="#46f8ff"/>
          <path id="Trazado_193537" data-name="Trazado 193537" d="M47.337,19.674v4.168H39V7.168a4.168,4.168,0,1,1,8.337,0Z" transform="translate(-39 -3)" fill="#46f8ff"/>
        </g>
        <rect id="Rect치ngulo_44384" data-name="Rect치ngulo 44384" width="32.716" height="41.803" rx="2" transform="translate(3.818 3.579)" fill="#defaff"/>
        <path id="Trazado_193538" data-name="Trazado 193538" d="M36.348,5.779V41.906a2.787,2.787,0,0,1-2.779,2.779H5.779A2.787,2.787,0,0,1,3,41.906V39.127H28.011a2.787,2.787,0,0,0,2.779-2.779V3h2.779A2.787,2.787,0,0,1,36.348,5.779Z" transform="translate(0.389 0.389)" fill="#8ee5f6"/>
        <path id="Trazado_193539" data-name="Trazado 193539" d="M25.674,19.116,17.337,35.79V24.674H9L17.337,8V19.116Z" transform="translate(2.726 2.337)" fill="#f18385"/>
        <path id="Trazado_193540" data-name="Trazado 193540" d="M53.411,72.864h9.726A4.181,4.181,0,0,0,67.306,68.7V57.385a5.558,5.558,0,0,0,4.168-5.363V49.173A15.3,15.3,0,0,0,85.369,33.958V22.842A4.181,4.181,0,0,0,81.2,18.674H79.811V7.558a5.558,5.558,0,0,0-11.116,0V18.674H63.137V7.558a5.558,5.558,0,0,0-11.116,0V18.674H50.632a4.181,4.181,0,0,0-4.168,4.168V33.958A15.3,15.3,0,0,0,60.358,49.173v2.848a5.558,5.558,0,0,0,4.168,5.363V68.7a1.389,1.389,0,0,1-1.389,1.389H53.411a4.161,4.161,0,0,0-4.03,5.2,4.242,4.242,0,0,0,4.182,3.14H81.2a1.389,1.389,0,0,1,1.389,1.389V81.2A1.389,1.389,0,0,1,81.2,82.59H31.179a9.738,9.738,0,0,1-9.726-9.726v-26.4H33.958A4.181,4.181,0,0,0,38.127,42.3V6.168A4.181,4.181,0,0,0,33.958,2H6.168A4.181,4.181,0,0,0,2,6.168V42.3a4.181,4.181,0,0,0,4.168,4.168H18.674v26.4A12.525,12.525,0,0,0,31.179,85.369H81.2A4.181,4.181,0,0,0,85.369,81.2V79.811A4.181,4.181,0,0,0,81.2,75.643H53.564a1.528,1.528,0,0,1-1.5-1.042,1.337,1.337,0,0,1,.389-1.334,1.29,1.29,0,0,1,.959-.4ZM71.474,7.558a2.779,2.779,0,1,1,5.558,0V22.842H71.474Zm-16.674,0a2.779,2.779,0,1,1,5.558,0V22.842H54.8ZM60.372,46.38a12.505,12.505,0,0,1-11.13-12.422V22.842a1.389,1.389,0,0,1,1.389-1.389h1.389v2.779a1.389,1.389,0,0,0,1.389,1.389h8.337a1.389,1.389,0,0,0,1.389-1.389V21.453H68.7v2.779a1.389,1.389,0,0,0,1.389,1.389h8.337a1.389,1.389,0,0,0,1.389-1.389V21.453H81.2a1.389,1.389,0,0,1,1.389,1.389V33.958A12.505,12.505,0,0,1,71.46,46.38a5.544,5.544,0,1,0-11.088,0Zm2.765,5.641V46.464a2.779,2.779,0,0,1,5.558,0v5.558a2.779,2.779,0,1,1-5.558,0ZM6.168,43.685A1.389,1.389,0,0,1,4.779,42.3V6.168A1.389,1.389,0,0,1,6.168,4.779h27.79a1.389,1.389,0,0,1,1.389,1.389V42.3a1.389,1.389,0,0,1-1.389,1.389Z" transform="translate(0 0)"/>
        <path id="Trazado_193541" data-name="Trazado 193541" d="M47,35h2.779v2.779H47Z" transform="translate(17.527 12.853)"/>
        <path id="Trazado_193542" data-name="Trazado 193542" d="M27.243,18.769a1.389,1.389,0,0,0-1.181-.653H19.115V8.389a1.389,1.389,0,0,0-1.07-1.348,1.367,1.367,0,0,0-1.556.723L8.152,24.438a1.389,1.389,0,0,0,1.237,2.015h6.947v9.726a1.389,1.389,0,0,0,1.07,1.348,1.262,1.262,0,0,0,.32.042,1.389,1.389,0,0,0,1.237-.764L27.3,20.13a1.4,1.4,0,0,0-.056-1.362ZM19.115,30.287V25.063a1.389,1.389,0,0,0-1.389-1.389H11.639l4.7-9.393v5.224a1.389,1.389,0,0,0,1.389,1.389h6.086Z" transform="translate(2.338 1.948)"/>
      </g>
    </g>
  </g>
</svg>
