<svg xmlns="http://www.w3.org/2000/svg" width="139" height="139" viewBox="0 0 139 139">
  <g id="Grupo_145939" data-name="Grupo 145939" transform="translate(7553 4390)">
    <rect id="Rectángulo_44377" data-name="Rectángulo 44377" width="139" height="139" rx="69.5" transform="translate(-7553 -4390)" fill="#b0f0fc"/>
    <g id="grifo-de-agua" transform="translate(-7538.168 -4369.221)">
      <g id="Grupo_145571" data-name="Grupo 145571" transform="translate(0 1.427)">
        <path id="Trazado_193502" data-name="Trazado 193502" d="M180.767,31.923H134.521a3.521,3.521,0,0,1,0-7.042h46.247a3.521,3.521,0,0,1,0,7.042Z" transform="translate(-106.069 -21.573)" fill="#8ee5f6"/>
        <path id="Trazado_193503" data-name="Trazado 193503" d="M368.209,24.881H362.5a3.521,3.521,0,0,1,0,7.042h5.709a3.521,3.521,0,1,0,0-7.042Z" transform="translate(-293.511 -21.573)" fill="#8ee5f6"/>
        <path id="Trazado_193504" data-name="Trazado 193504" d="M0,0H13.965V6.829H0Z" transform="translate(48.161 24.768) rotate(-90)" fill="#f9f6f6"/>
        <path id="Trazado_193505" data-name="Trazado 193505" d="M39.49,164.938V148.381H1.142A1.142,1.142,0,0,0,0,149.523V163.8a1.142,1.142,0,0,0,1.142,1.142Z" transform="translate(0 -121.569)" fill="#defaff"/>
        <path id="Trazado_193506" data-name="Trazado 193506" d="M334.5,148.381h16.691A12.808,12.808,0,0,1,364,161.189V183.97H347.441V166.981a2.043,2.043,0,0,0-2.043-2.043H334.5Z" transform="translate(-270.84 -121.569)" fill="#defaff"/>
        <path id="Trazado_193507" data-name="Trazado 193507" d="M397.912,148.381H392.2a12.808,12.808,0,0,1,12.808,12.808v19.927h5.709V161.189A12.808,12.808,0,0,0,397.912,148.381Z" transform="translate(-317.561 -121.569)" fill="#8ee5f6"/>
        <path id="Trazado_193508" data-name="Trazado 193508" d="M388.95,326.09h19.367a1.45,1.45,0,0,0,1.45-1.45v-2.809a1.45,1.45,0,0,0-1.45-1.45H388.95a1.45,1.45,0,0,0-1.45,1.45v2.809A1.45,1.45,0,0,0,388.95,326.09Z" transform="translate(-313.753 -260.835)" fill="#8ee5f6"/>
        <path id="Trazado_193509" data-name="Trazado 193509" d="M472.589,320.381H466.88a1.45,1.45,0,0,1,1.45,1.45v2.809a1.45,1.45,0,0,1-1.45,1.45h5.709a1.45,1.45,0,0,0,1.45-1.45v-2.809A1.45,1.45,0,0,0,472.589,320.381Z" transform="translate(-378.026 -260.835)" fill="#8ee5f6"/>
        <path id="Trazado_193510" data-name="Trazado 193510" d="M92.5,136.236v16.557a2.855,2.855,0,0,0,5.709,0V136.236a2.855,2.855,0,1,0-5.709,0Z" transform="translate(-74.896 -109.424)" fill="#8ee5f6"/>
        <path id="Trazado_193511" data-name="Trazado 193511" d="M234.417,21.158h9.3a2.855,2.855,0,0,0,2.855-2.855V10.355A2.855,2.855,0,0,0,243.719,7.5h-9.3a2.855,2.855,0,0,0-2.855,2.855V18.3A2.855,2.855,0,0,0,234.417,21.158Z" transform="translate(-187.492 -7.5)" fill="#f8d2d3"/>
        <path id="Trazado_193512" data-name="Trazado 193512" d="M271.147,7.5h-5.709a2.855,2.855,0,0,1,2.855,2.855V18.3a2.855,2.855,0,0,1-2.855,2.855h5.709A2.855,2.855,0,0,0,274,18.3V10.355A2.855,2.855,0,0,0,271.147,7.5Z" transform="translate(-214.921 -7.5)" fill="#f18385"/>
        <path id="Trazado_193513" data-name="Trazado 193513" d="M399.028,401.478a8.939,8.939,0,0,0,17.879,0c0-4.3-6.8-11.3-8.539-13.014a.569.569,0,0,0-.8,0C405.828,390.181,399.028,397.174,399.028,401.478Z" transform="translate(-323.087 -315.827)" fill="#18bab9"/>
        <path id="Trazado_193514" data-name="Trazado 193514" d="M433.454,388.463c-.5.491-1.407,1.413-2.454,2.58,2.616,2.915,6.085,7.36,6.085,10.435A8.938,8.938,0,0,1,431,409.945a8.939,8.939,0,0,0,11.794-8.468c0-4.3-6.8-11.3-8.538-13.014A.569.569,0,0,0,433.454,388.463Z" transform="translate(-348.974 -315.827)" fill="#defaff"/>
        <path id="Trazado_193515" data-name="Trazado 193515" d="M215.549,149H196.4a5.709,5.709,0,0,1-5.709-5.709V128.351a5.709,5.709,0,0,1,5.709-5.709h19.15a5.709,5.709,0,0,1,5.709,5.709v14.936A5.709,5.709,0,0,1,215.549,149Z" transform="translate(-154.399 -100.729)" fill="#f8d2d3"/>
        <path id="Trazado_193516" data-name="Trazado 193516" d="M297.019,122.641H291.31a5.709,5.709,0,0,1,5.709,5.709v14.936A5.709,5.709,0,0,1,291.31,149h5.709a5.709,5.709,0,0,0,5.709-5.709V128.35A5.71,5.71,0,0,0,297.019,122.641Z" transform="translate(-235.869 -100.728)" fill="#f18385"/>
      </g>
      <path id="Trazado_193517" data-name="Trazado 193517" d="M94.587,59.547V55.3a1.427,1.427,0,1,0-2.855,0v4.243h-13.7V46.838a3.473,3.473,0,0,0-3.469-3.469H68.287v-13.7H80.351A11.394,11.394,0,0,1,91.732,41.047v7.595a1.427,1.427,0,1,0,2.855,0V41.047A14.252,14.252,0,0,0,80.351,26.812H67.925a7.148,7.148,0,0,0-6.775-4.9H56.417V16.507A4.289,4.289,0,0,0,60.4,13.2H74.7a5,5,0,0,0,4.948-4.948A4.954,4.954,0,0,0,74.7,3.308H60.4A4.288,4.288,0,0,0,56.226,0h-9.3a4.288,4.288,0,0,0-4.169,3.308h-14.3a4.948,4.948,0,0,0,0,9.9h14.3a4.289,4.289,0,0,0,3.978,3.3v5.406H42a7.148,7.148,0,0,0-6.775,4.9H24.5a4.281,4.281,0,0,0-8.073,0h-15a1.427,1.427,0,0,0,0,2.855H16.177v13.7H1.427a1.427,1.427,0,1,0,0,2.855H16.422a4.281,4.281,0,0,0,8.073,0h10.73A7.148,7.148,0,0,0,42,51.123h2.413a1.427,1.427,0,1,0,0-2.855H42a4.289,4.289,0,0,1-4.231-3.623c0-.005,0-.01,0-.015.058-.262-.058-15.725,0-16.226v-.009A4.289,4.289,0,0,1,42,24.768H61.15a4.289,4.289,0,0,1,4.232,3.626V28.4c.221,1.9.193,14.562,0,16.226,0,.005,0,.01,0,.015a4.289,4.289,0,0,1-4.231,3.623H51.075a1.427,1.427,0,1,0,0,2.855H61.15a7.148,7.148,0,0,0,6.775-4.9H74.56a.615.615,0,0,1,.615.615V59.547a2.88,2.88,0,0,0-2.855,2.876v2.809A2.881,2.881,0,0,0,75.2,68.11H94.564a2.881,2.881,0,0,0,2.878-2.878V62.424a2.88,2.88,0,0,0-2.855-2.876ZM60.508,6.162H74.7a2.1,2.1,0,0,1,2.093,2.093A2.117,2.117,0,0,1,74.7,10.349H60.508ZM42.642,10.349H28.452a2.093,2.093,0,0,1,0-4.187h14.19ZM21.886,44.8a1.427,1.427,0,1,1-2.855,0V28.239a1.427,1.427,0,1,1,2.855,0Zm12.978-1.428H24.741v-13.7H34.864Zm18.7-21.456H49.588v-5.4h3.974Zm-6.638-8.255A1.429,1.429,0,0,1,45.5,12.23V4.282a1.429,1.429,0,0,1,1.427-1.427h9.3a1.429,1.429,0,0,1,1.427,1.427V12.23a1.429,1.429,0,0,1-1.427,1.427ZM94.587,65.233a.023.023,0,0,1-.023.023H75.2a.023.023,0,0,1-.023-.023V62.424A.023.023,0,0,1,75.2,62.4H94.564a.023.023,0,0,1,.023.023Zm-8.3,7.816a2,2,0,0,0-2.808,0c-2.695,2.662-8.963,9.358-8.963,14.029a10.367,10.367,0,0,0,20.734,0C95.247,82.406,88.979,75.711,86.285,73.049Zm-1.4,21.538a7.519,7.519,0,0,1-7.512-7.509c0-1.774,1.982-5.794,7.512-11.4,5.531,5.6,7.512,9.622,7.512,11.4A7.519,7.519,0,0,1,84.881,94.587Z"/>
    </g>
  </g>
</svg>
