<svg xmlns="http://www.w3.org/2000/svg" width="139" height="139" viewBox="0 0 139 139">
  <g id="Grupo_145942" data-name="Grupo 145942" transform="translate(7619 3097)">
    <g id="Grupo_145649" data-name="Grupo 145649" transform="translate(-8361 -12303)">
      <rect id="Rectángulo_44387" data-name="Rectángulo 44387" width="139" height="139" rx="69.5" transform="translate(742 9206)" fill="#b0f0fc"/>
      <g id="botiquin-medico" transform="translate(773.233 9235.233)">
        <g id="Grupo_145575" data-name="Grupo 145575" transform="translate(1.121 1.121)">
          <path id="Trazado_193543" data-name="Trazado 193543" d="M170.261,7.5H144.578a4.484,4.484,0,0,0-4.484,4.484V25.891h34.651V11.984A4.484,4.484,0,0,0,170.261,7.5Zm0,13.906H144.579V12.582a.6.6,0,0,1,.6-.6h24.486a.6.6,0,0,1,.6.6v8.824Z" transform="translate(-120.274 -7.5)" fill="#fdd1d5"/>
          <g id="Grupo_145573" data-name="Grupo 145573" transform="translate(10.288 66.457)">
            <path id="Trazado_193544" data-name="Trazado 193544" d="M89.681,459.924H78.567a2.242,2.242,0,0,1-2.242-2.242V452.09h15.6v5.592A2.242,2.242,0,0,1,89.681,459.924Z" transform="translate(-76.325 -452.09)" fill="#fdd1d5"/>
            <path id="Trazado_193545" data-name="Trazado 193545" d="M137.917,452.09v5.592a2.242,2.242,0,0,1-2.242,2.242h4.484a2.242,2.242,0,0,0,2.242-2.242V452.09Z" transform="translate(-126.803 -452.09)" fill="#f6b2bb"/>
            <path id="Trazado_193546" data-name="Trazado 193546" d="M344.681,459.924H333.567a2.242,2.242,0,0,1-2.242-2.242V452.09h15.6v5.592A2.242,2.242,0,0,1,344.681,459.924Z" transform="translate(-293.208 -452.09)" fill="#fdd1d5"/>
            <path id="Trazado_193547" data-name="Trazado 193547" d="M392.917,452.09v5.592a2.242,2.242,0,0,1-2.242,2.242h4.484a2.242,2.242,0,0,0,2.242-2.242V452.09Z" transform="translate(-343.686 -452.09)" fill="#f6b2bb"/>
          </g>
          <path id="Trazado_193548" data-name="Trazado 193548" d="M72.822,146.7H16.469A8.969,8.969,0,0,1,7.5,137.735V99.469A8.969,8.969,0,0,1,16.469,90.5H72.822a8.969,8.969,0,0,1,8.969,8.969v38.267A8.969,8.969,0,0,1,72.822,146.7Z" transform="translate(-7.5 -78.093)" fill="#fde9e0"/>
          <path id="Trazado_193549" data-name="Trazado 193549" d="M418.984,90.5H414.5a8.969,8.969,0,0,1,8.969,8.969v38.267A8.969,8.969,0,0,1,414.5,146.7h4.484a8.969,8.969,0,0,0,8.969-8.969V99.469A8.969,8.969,0,0,0,418.984,90.5Z" transform="translate(-353.662 -78.093)" fill="#f18385"/>
          <circle id="Elipse_1179" data-name="Elipse 1179" cx="15.644" cy="15.644" r="15.644" transform="translate(21.502 24.865)" fill="#fff"/>
          <path id="Trazado_193550" data-name="Trazado 193550" d="M214.047,225.593h-2.926a1.171,1.171,0,0,1-1.171-1.171V221.5a1.171,1.171,0,0,0-1.171-1.171h-4.515a1.171,1.171,0,0,0-1.171,1.171v2.926a1.171,1.171,0,0,1-1.171,1.171H199a1.171,1.171,0,0,0-1.171,1.171v4.515A1.171,1.171,0,0,0,199,232.449h2.926a1.171,1.171,0,0,1,1.171,1.171v2.927a1.171,1.171,0,0,0,1.171,1.171h4.515a1.171,1.171,0,0,0,1.171-1.171V233.62a1.171,1.171,0,0,1,1.171-1.171h2.926a1.171,1.171,0,0,0,1.171-1.171v-4.515A1.17,1.17,0,0,0,214.047,225.593Z" transform="translate(-169.376 -188.512)" fill="#8ee5f6"/>
          <g id="Grupo_145574" data-name="Grupo 145574" transform="translate(8.509 20.197)">
            <path id="Trazado_193551" data-name="Trazado 193551" d="M417.578,181v-36.14a2.242,2.242,0,1,1,4.484,0V181a2.242,2.242,0,0,1-4.484,0Z" transform="translate(-364.789 -142.613)" fill="#fdd1d5"/>
            <path id="Trazado_193552" data-name="Trazado 193552" d="M64.422,181v-36.14a2.242,2.242,0,1,1,4.484,0V181a2.242,2.242,0,0,1-4.484,0Z" transform="translate(-64.422 -142.613)" fill="#fdd1d5"/>
          </g>
        </g>
        <path id="Trazado_193553" data-name="Trazado 193553" d="M66.443,12.407h-9.73v-6.8A5.612,5.612,0,0,0,51.108,0H25.425a5.612,5.612,0,0,0-5.605,5.605v6.8H10.09A10.1,10.1,0,0,0,0,22.5V60.763a10.1,10.1,0,0,0,10.09,10.09h.2V73.17a3.367,3.367,0,0,0,3.363,3.363H24.765a3.367,3.367,0,0,0,3.363-3.363V70.853H48.405V73.17a3.367,3.367,0,0,0,3.363,3.363H62.882a3.367,3.367,0,0,0,3.363-3.363V70.853h.2a10.1,10.1,0,0,0,10.09-10.09V22.5A10.1,10.1,0,0,0,66.443,12.407Zm-44.382-6.8a3.367,3.367,0,0,1,3.363-3.363H51.108a3.367,3.367,0,0,1,3.363,3.363v6.8H52.229V6.2A1.721,1.721,0,0,0,50.51,4.484H36.891a1.121,1.121,0,0,0,0,2.242h13.1v5.68H26.546V6.727h5.113a1.121,1.121,0,1,0,0-2.242H26.023A1.721,1.721,0,0,0,24.3,6.2v6.2H22.062ZM25.886,73.17a1.122,1.122,0,0,1-1.121,1.121H13.651A1.122,1.122,0,0,1,12.53,73.17V70.853H25.886ZM64,73.17a1.122,1.122,0,0,1-1.121,1.121H51.768a1.122,1.122,0,0,1-1.121-1.121V70.853H64ZM74.291,60.763a7.857,7.857,0,0,1-7.848,7.848H10.09a7.857,7.857,0,0,1-7.848-7.848V22.5a7.857,7.857,0,0,1,7.848-7.848H66.443A7.857,7.857,0,0,1,74.291,22.5ZM64.661,20.2A3.367,3.367,0,0,0,61.3,23.56V59.7a3.363,3.363,0,1,0,6.727,0V23.56A3.367,3.367,0,0,0,64.661,20.2Zm1.121,39.5a1.121,1.121,0,1,1-2.242,0V23.56a1.121,1.121,0,1,1,2.242,0ZM11.872,20.2A3.367,3.367,0,0,0,8.509,23.56V59.7a3.363,3.363,0,1,0,6.727,0V23.56A3.367,3.367,0,0,0,11.872,20.2Zm1.121,39.5a1.121,1.121,0,0,1-2.242,0V23.56a1.121,1.121,0,0,1,2.242,0ZM50.458,31.762a1.121,1.121,0,0,0-.277,1.561,14.521,14.521,0,1,1-3.4-3.459A1.121,1.121,0,1,0,48.1,28.048a16.762,16.762,0,1,0,3.921,3.991,1.121,1.121,0,0,0-1.561-.277ZM36.009,51.447h4.515a2.294,2.294,0,0,0,2.292-2.292V46.229a.049.049,0,0,1,.049-.049h2.927a2.294,2.294,0,0,0,2.292-2.292V39.372a2.294,2.294,0,0,0-2.292-2.292H42.865a.049.049,0,0,1-.049-.049V34.1a2.294,2.294,0,0,0-2.292-2.292H36.009A2.294,2.294,0,0,0,33.717,34.1v2.927a.05.05,0,0,1-.05.049H30.741a2.294,2.294,0,0,0-2.292,2.292v4.515a2.294,2.294,0,0,0,2.292,2.292h2.927a.05.05,0,0,1,.05.049v2.927A2.294,2.294,0,0,0,36.009,51.447Zm-2.341-7.51H30.741a.05.05,0,0,1-.05-.049V39.372a.05.05,0,0,1,.05-.049h2.927a2.294,2.294,0,0,0,2.292-2.292V34.1a.049.049,0,0,1,.049-.049h4.515a.049.049,0,0,1,.049.049v2.927a2.294,2.294,0,0,0,2.292,2.292h2.927a.049.049,0,0,1,.049.049v4.515a.049.049,0,0,1-.049.049H42.865a2.294,2.294,0,0,0-2.292,2.292v2.927a.049.049,0,0,1-.049.049H36.009a.049.049,0,0,1-.049-.049V46.229A2.294,2.294,0,0,0,33.668,43.937Z"/>
      </g>
    </g>
  </g>
</svg>
