<svg xmlns="http://www.w3.org/2000/svg" width="139" height="139" viewBox="0 0 139 139">
  <g id="Grupo_145943" data-name="Grupo 145943" transform="translate(7619 2226)">
    <g id="Grupo_145651" data-name="Grupo 145651" transform="translate(-8361 -12316)">
      <rect id="Rectángulo_44393" data-name="Rectángulo 44393" width="139" height="139" rx="69.5" transform="translate(742 10090)" fill="#b0f0fc"/>
      <g id="papelera-de-reciclaje" transform="translate(766.16 10082.504)">
        <g id="Grupo_145601" data-name="Grupo 145601" transform="translate(0.996 39.808)">
          <path id="Trazado_193593" data-name="Trazado 193593" d="M11.448,158.718l.394,2.656,4.264,48.655a3.373,3.373,0,0,0,3.36,3.078H46.739a3.373,3.373,0,0,0,3.36-3.078l4.264-48.655.394-2.656Z" transform="translate(-10.415 -138.731)" fill="#f2fbff"/>
          <path id="Trazado_193594" data-name="Trazado 193594" d="M50.242,47.592a2.5,2.5,0,0,0-2.337-1.613H21.954a2.5,2.5,0,0,0-2.337,1.613L13.669,63.311v2.235H56.19V63.311Z" transform="translate(-12.242 -45.979)" fill="#f2fbff"/>
          <g id="XMLID_387_" transform="translate(10.893 0)">
            <g id="Grupo_145592" data-name="Grupo 145592">
              <g id="XMLID_389_">
                <g id="Grupo_145591" data-name="Grupo 145591">
                  <path id="Trazado_193595" data-name="Trazado 193595" d="M90.631,46.156v10.05a2.079,2.079,0,0,1-2.08,2.08H69.14a2.081,2.081,0,0,1-2.081-2.08V45.979H90.631Z" transform="translate(-67.059 -45.979)" fill="#c8effe"/>
                </g>
              </g>
            </g>
          </g>
          <g id="Grupo_145593" data-name="Grupo 145593" transform="translate(0 0)">
            <path id="Trazado_193596" data-name="Trazado 193596" d="M20.39,158.718H11.448l.394,2.656,4.264,48.655a3.373,3.373,0,0,0,3.36,3.078H46.739a3.372,3.372,0,0,0,3.359-3.078l.161-1.832H27.816a3.373,3.373,0,0,1-3.36-3.078L21.4,170.249a4.9,4.9,0,0,1,4.883-5.329H54.052l.311-3.546.394-2.656Z" transform="translate(-10.415 -138.731)" fill="#dff6fd"/>
            <path id="Trazado_193597" data-name="Trazado 193597" d="M54.848,59.764H24.78a1.39,1.39,0,0,1-1.3-1.883l2.73-7.213a2.5,2.5,0,0,1,2.337-1.613H50.8l-.554-1.464a2.5,2.5,0,0,0-2.337-1.613H21.954a2.5,2.5,0,0,0-2.337,1.613L13.669,63.31v2.235H56.19V63.31Z" transform="translate(-12.242 -45.978)" fill="#dff6fd"/>
            <path id="Trazado_193598" data-name="Trazado 193598" d="M50.994,145.166v2.457a1.426,1.426,0,0,1-1.427,1.427H7.046a1.426,1.426,0,0,1-1.427-1.427v-2.457a1.429,1.429,0,0,1,1.427-1.427H49.567A1.426,1.426,0,0,1,50.994,145.166Z" transform="translate(-5.619 -126.407)" fill="#c8effe"/>
          </g>
          <path id="Trazado_193599" data-name="Trazado 193599" d="M90.631,46.156v-.177H67.059V56.207a2.069,2.069,0,0,0,.478,1.325l2.6-6.863a2.5,2.5,0,0,1,2.337-1.613H90.631v-2.9Z" transform="translate(-56.166 -45.979)" fill="#99e6fc"/>
          <path id="Trazado_193600" data-name="Trazado 193600" d="M255.731,158.721l.394,2.656,4.264,48.655a3.373,3.373,0,0,0,3.36,3.078h27.274a3.373,3.373,0,0,0,3.36-3.078l4.264-48.655.394-2.656Z" transform="translate(-211.389 -138.733)" fill="#defaff"/>
          <path id="Trazado_193601" data-name="Trazado 193601" d="M264.673,158.721h-8.942l.394,2.656,4.264,48.655a3.373,3.373,0,0,0,3.36,3.078h27.274a3.372,3.372,0,0,0,3.359-3.078l.161-1.832H272.1a3.373,3.373,0,0,1-3.36-3.078l-3.056-34.87a4.9,4.9,0,0,1,4.883-5.329h27.769l.311-3.546.394-2.656Z" transform="translate(-211.389 -138.733)" fill="#98edfc"/>
          <path id="Trazado_193602" data-name="Trazado 193602" d="M294.525,47.6a2.5,2.5,0,0,0-2.337-1.613H266.237A2.5,2.5,0,0,0,263.9,47.6l-5.948,15.718v2.235h42.521V63.314Z" transform="translate(-213.216 -45.981)" fill="#defaff"/>
          <g id="Grupo_145594" data-name="Grupo 145594" transform="translate(44.736 0.001)">
            <path id="Trazado_193603" data-name="Trazado 193603" d="M299.131,59.767H269.063a1.39,1.39,0,0,1-1.3-1.883l2.729-7.213a2.5,2.5,0,0,1,2.337-1.613h22.25l-.554-1.464a2.5,2.5,0,0,0-2.337-1.613H266.237a2.5,2.5,0,0,0-2.337,1.613l-5.948,15.718v2.235h42.521V63.313Z" transform="translate(-257.952 -45.981)" fill="#b1e8f2"/>
          </g>
          <path id="Trazado_193604" data-name="Trazado 193604" d="M295.277,145.169v2.457a1.426,1.426,0,0,1-1.427,1.427H251.329a1.426,1.426,0,0,1-1.427-1.427v-2.457a1.428,1.428,0,0,1,1.427-1.427H293.85A1.426,1.426,0,0,1,295.277,145.169Z" transform="translate(-206.594 -126.41)" fill="#defaff"/>
          <path id="Trazado_193605" data-name="Trazado 193605" d="M133.589,158.721l.394,2.656,4.264,48.655a3.373,3.373,0,0,0,3.36,3.078H168.88a3.373,3.373,0,0,0,3.36-3.078l4.264-48.655.394-2.656Z" transform="translate(-110.901 -138.733)" fill="#ebafb0"/>
          <g id="XMLID_384_" transform="translate(54.201 0.001)">
            <g id="Grupo_145596" data-name="Grupo 145596">
              <g id="XMLID_385_">
                <g id="Grupo_145595" data-name="Grupo 145595">
                  <path id="Trazado_193606" data-name="Trazado 193606" d="M334.914,46.159V56.21a2.079,2.079,0,0,1-2.08,2.08H313.423a2.081,2.081,0,0,1-2.081-2.08V45.982h23.572Z" transform="translate(-311.342 -45.982)" fill="#defaff"/>
                </g>
              </g>
            </g>
          </g>
          <path id="Trazado_193607" data-name="Trazado 193607" d="M334.914,46.158v-.177H311.342V56.209a2.069,2.069,0,0,0,.478,1.325l2.6-6.863a2.5,2.5,0,0,1,2.337-1.613h18.161v-2.9Z" transform="translate(-257.141 -45.98)" fill="#8ee5f6"/>
          <path id="Trazado_193608" data-name="Trazado 193608" d="M172.383,47.6a2.5,2.5,0,0,0-2.337-1.613H144.095a2.5,2.5,0,0,0-2.337,1.613L135.81,63.314v2.235h42.521V63.314Z" transform="translate(-112.729 -45.981)" fill="#f18385"/>
          <g id="Grupo_145599" data-name="Grupo 145599" transform="translate(32.547 0.001)">
            <g id="XMLID_382_">
              <g id="Grupo_145598" data-name="Grupo 145598">
                <g id="XMLID_383_">
                  <g id="Grupo_145597" data-name="Grupo 145597">
                    <path id="Trazado_193609" data-name="Trazado 193609" d="M212.772,46.159V56.21a2.079,2.079,0,0,1-2.08,2.08H191.281a2.081,2.081,0,0,1-2.081-2.08V45.982h23.572Z" transform="translate(-189.2 -45.982)" fill="#f18385"/>
                  </g>
                </g>
              </g>
            </g>
          </g>
          <g id="Grupo_145600" data-name="Grupo 145600" transform="translate(21.654 0.001)">
            <path id="Trazado_193610" data-name="Trazado 193610" d="M142.531,158.721h-8.942l.394,2.656,4.264,48.655a3.373,3.373,0,0,0,3.36,3.078H168.88a3.372,3.372,0,0,0,3.359-3.078l.161-1.832H149.957a3.373,3.373,0,0,1-3.36-3.078l-3.056-34.87a4.9,4.9,0,0,1,4.883-5.329h27.769l.311-3.546.394-2.656Z" transform="translate(-132.556 -138.734)" fill="#f18385"/>
            <path id="Trazado_193611" data-name="Trazado 193611" d="M176.989,59.767H146.921a1.39,1.39,0,0,1-1.3-1.883l2.73-7.213a2.5,2.5,0,0,1,2.337-1.613h22.25l-.554-1.464a2.5,2.5,0,0,0-2.337-1.613H144.095a2.5,2.5,0,0,0-2.337,1.613L135.81,63.313v2.235h42.521V63.313Z" transform="translate(-134.383 -45.981)" fill="#fde9e0"/>
            <path id="Trazado_193612" data-name="Trazado 193612" d="M173.135,145.169v2.457a1.426,1.426,0,0,1-1.427,1.427H129.187a1.426,1.426,0,0,1-1.427-1.427v-2.457a1.428,1.428,0,0,1,1.427-1.427h42.521A1.426,1.426,0,0,1,173.135,145.169Z" transform="translate(-127.76 -126.41)" fill="#fde9e0"/>
          </g>
          <path id="Trazado_193613" data-name="Trazado 193613" d="M212.772,46.158v-.177H189.2V56.209a2.069,2.069,0,0,0,.478,1.325l2.6-6.863a2.5,2.5,0,0,1,2.337-1.613h18.161Z" transform="translate(-156.653 -45.98)" fill="#fde9e0"/>
        </g>
        <g id="Grupo_145602" data-name="Grupo 145602" transform="translate(0 38.478)">
          <path id="Trazado_193614" data-name="Trazado 193614" d="M275.194,279.094l.57.107a1.33,1.33,0,0,0,.49-2.614l-3.518-.659a1.331,1.331,0,0,0-1.54,1.007l-.808,3.487a1.33,1.33,0,1,0,2.591.6l.077-.331,2.8,4.554a1.132,1.132,0,0,1-.964,1.724,1.33,1.33,0,0,0,0,2.659,3.791,3.791,0,0,0,3.23-5.776Z" transform="translate(-222.422 -233.812)"/>
          <path id="Trazado_193615" data-name="Trazado 193615" d="M207.138,316.189a1.33,1.33,0,1,0-1.92,1.84l.321.335h-6.895a1.132,1.132,0,0,1-.96-1.732l.333-.532a1.33,1.33,0,1,0-2.255-1.41l-.333.533a3.791,3.791,0,0,0,3.215,5.8h6.895l-.32.334a1.33,1.33,0,1,0,1.92,1.84l2.476-2.584a1.33,1.33,0,0,0,0-1.84Z" transform="translate(-160.301 -265.206)"/>
          <path id="Trazado_193616" data-name="Trazado 193616" d="M206.732,256.641a1.329,1.329,0,0,0,1.54,1.007l3.518-.659a1.33,1.33,0,0,0-.49-2.614l-.542.1,3.134-5.014a1.128,1.128,0,0,1,.964-.532,1.116,1.116,0,0,1,.96.539l.584.95a1.33,1.33,0,0,0,2.266-1.392l-.584-.95a3.768,3.768,0,0,0-3.216-1.806h-.015a3.767,3.767,0,0,0-3.214,1.782l-3.039,4.862-.084-.361a1.33,1.33,0,1,0-2.591.6Z" transform="translate(-169.388 -209.432)"/>
          <path id="Trazado_193617" data-name="Trazado 193617" d="M387.75,56l-5.693-15.045a3.847,3.847,0,0,0-3.58-2.473H364.565a1.33,1.33,0,1,0,0,2.659h11.383v8.9a.751.751,0,0,1-.75.75h-5.975a1.33,1.33,0,1,0,0,2.659H375.2a3.414,3.414,0,0,0,3.41-3.41V41.148a1.173,1.173,0,0,1,.962.745l5.267,13.917H372.028a1.33,1.33,0,1,0,0,2.659h14.734a.1.1,0,0,1,.1.1v2.457a.1.1,0,0,1-.1.1H372.029a1.33,1.33,0,0,0,0,2.659h13.28l-.654,7.458a1.33,1.33,0,0,0,1.208,1.441c.04,0,.079,0,.118,0a1.33,1.33,0,0,0,1.323-1.214l.7-7.99a2.758,2.758,0,0,0,1.512-2.457V58.568A2.759,2.759,0,0,0,387.75,56Z" transform="translate(-298.838 -38.479)"/>
          <path id="Trazado_193618" data-name="Trazado 193618" d="M168.3,61.024V58.567a2.762,2.762,0,0,0-1.769-2.574l-5.692-15.041a3.847,3.847,0,0,0-3.58-2.473H142.44a1.33,1.33,0,1,0,0,2.659h12.288v8.9a.751.751,0,0,1-.75.75H134.565a.751.751,0,0,1-.75-.75v-8.9h2.958a1.33,1.33,0,0,0,0-2.659H131.3a3.847,3.847,0,0,0-3.58,2.473l-5.692,15.041a2.761,2.761,0,0,0-1.769,2.574v2.457a2.76,2.76,0,0,0,1.513,2.46l4.184,47.739a4.676,4.676,0,0,0,4.684,4.291h27.275a4.676,4.676,0,0,0,4.684-4.291l4.184-47.739A2.761,2.761,0,0,0,168.3,61.024Zm-45.278.1a.1.1,0,0,1-.1-.1V58.567a.1.1,0,0,1,.1-.1H165.54a.1.1,0,0,1,.1.1v2.457a.1.1,0,0,1-.1.1Zm7.191-19.23a1.174,1.174,0,0,1,.945-.744v8.886a3.414,3.414,0,0,0,3.41,3.41h19.411a3.414,3.414,0,0,0,3.41-3.41V41.148a1.173,1.173,0,0,1,.962.745l5.267,13.917H124.943Zm29.741,69.1a2.031,2.031,0,0,1-2.034,1.864H130.642a2.031,2.031,0,0,1-2.035-1.864l-4.138-47.21h39.619Z" transform="translate(-98.941 -38.478)"/>
          <path id="Trazado_193619" data-name="Trazado 193619" d="M391.471,248.39a1.328,1.328,0,0,0-1.441,1.208l-2.987,34.085a2.031,2.031,0,0,1-2.035,1.864H371.7a1.33,1.33,0,0,0,0,2.659h13.307a4.676,4.676,0,0,0,4.684-4.291l2.987-34.085A1.33,1.33,0,0,0,391.471,248.39Z" transform="translate(-304.709 -211.171)"/>
          <path id="Trazado_193620" data-name="Trazado 193620" d="M5.857,97.827a1.33,1.33,0,0,0,1.208-1.441l-2.858-32.6H17.485a1.33,1.33,0,0,0,0-2.659H2.757a.1.1,0,0,1-.1-.1V58.568a.1.1,0,0,1,.1-.1h14.73a1.33,1.33,0,1,0,0-2.659H4.682L9.948,41.893a1.174,1.174,0,0,1,.945-.744v8.886a3.414,3.414,0,0,0,3.41,3.41h5.988a1.33,1.33,0,1,0,0-2.659H14.3a.751.751,0,0,1-.75-.75v-8.9h11.4a1.33,1.33,0,1,0,0-2.659H11.041a3.847,3.847,0,0,0-3.58,2.473L1.768,56A2.759,2.759,0,0,0,0,58.568v2.457a2.758,2.758,0,0,0,1.512,2.457l2.9,33.137A1.33,1.33,0,0,0,5.74,97.833c.039,0,.078,0,.118-.005Z" transform="translate(0 -38.479)"/>
          <path id="Trazado_193621" data-name="Trazado 193621" d="M46.453,402.155h-13.3a2.031,2.031,0,0,1-2.034-1.864l-.785-8.957a1.33,1.33,0,1,0-2.649.232l.785,8.957a4.676,4.676,0,0,0,4.683,4.291h13.3a1.33,1.33,0,1,0,0-2.659Z" transform="translate(-22.769 -327.779)"/>
        </g>
      </g>
    </g>
  </g>
</svg>
