<svg xmlns="http://www.w3.org/2000/svg" width="139" height="139" viewBox="0 0 139 139">
  <g id="Grupo_145650" data-name="Grupo 145650" transform="translate(-742 -9660)">
    <rect id="Rectángulo_44390" data-name="Rectángulo 44390" width="139" height="139" rx="69.5" transform="translate(742 9660)" fill="#b0f0fc"/>
    <g id="desinfeccion" transform="translate(714.462 9637.213)">
      <path id="Trazado_193554" data-name="Trazado 193554" d="M157.669,189.943a5.971,5.971,0,1,1,5.971-5.971A5.978,5.978,0,0,1,157.669,189.943Zm0-8.53a2.559,2.559,0,1,0,2.559,2.559A2.562,2.562,0,0,0,157.669,181.412Z" transform="translate(-57.348 -76.78)"/>
      <path id="Trazado_193555" data-name="Trazado 193555" d="M259.4,209.939a1.824,1.824,0,1,1-1.824-1.824A1.824,1.824,0,0,1,259.4,209.939Z" transform="translate(-117.02 -94.051)"/>
      <path id="Trazado_193556" data-name="Trazado 193556" d="M215.4,229.939a1.824,1.824,0,1,1-1.824-1.824A1.824,1.824,0,0,1,215.4,229.939Z" transform="translate(-91.787 -105.52)"/>
      <path id="Trazado_193557" data-name="Trazado 193557" d="M215.4,45.939a1.824,1.824,0,1,1-1.824-1.824A1.824,1.824,0,0,1,215.4,45.939Z" transform="translate(-91.787)"/>
      <path id="Trazado_193558" data-name="Trazado 193558" d="M167.4,69.939a1.824,1.824,0,1,1-1.824-1.824A1.824,1.824,0,0,1,167.4,69.939Z" transform="translate(-64.26 -13.764)"/>
      <g id="Grupo_145576" data-name="Grupo 145576" transform="translate(63.641 55.155)">
        <path id="Trazado_193559" data-name="Trazado 193559" d="M83.7,74H99.053V91.061H83.7Z" transform="translate(-81.992 -72.294)" fill="#defaff"/>
        <path id="Trazado_193560" data-name="Trazado 193560" d="M96.759,90.473H81.4A1.706,1.706,0,0,1,79.7,88.767V71.706A1.706,1.706,0,0,1,81.4,70H96.759a1.706,1.706,0,0,1,1.706,1.706V88.767A1.706,1.706,0,0,1,96.759,90.473ZM83.11,87.061H95.053V73.412H83.11Z" transform="translate(-79.698 -70)"/>
      </g>
      <g id="Grupo_145577" data-name="Grupo 145577" transform="translate(61.934 72.216)">
        <path id="Trazado_193561" data-name="Trazado 193561" d="M93.446,114h-9.9a3.852,3.852,0,0,0-3.852,3.852V141.3h20.473V120.725A6.724,6.724,0,0,0,93.446,114Z" transform="translate(-77.992 -112.294)" fill="#defaff"/>
        <path id="Trazado_193562" data-name="Trazado 193562" d="M97.877,140.709H77.4A1.706,1.706,0,0,1,75.7,139V115.558A5.565,5.565,0,0,1,81.256,110h9.9a8.44,8.44,0,0,1,8.431,8.431V139A1.706,1.706,0,0,1,97.877,140.709ZM79.11,137.3H96.171V118.431a5.024,5.024,0,0,0-5.018-5.018h-9.9a2.149,2.149,0,0,0-2.146,2.146Z" transform="translate(-75.698 -110)"/>
      </g>
      <g id="Grupo_145578" data-name="Grupo 145578" transform="translate(73.83 100.207)">
        <path id="Trazado_193563" data-name="Trazado 193563" d="M107.588,189.854l8.032-10.228" transform="translate(-105.882 -177.92)" fill="#ffce56"/>
        <path id="Trazado_193564" data-name="Trazado 193564" d="M105.292,189.267a1.706,1.706,0,0,1-1.34-2.76l8.032-10.228a1.706,1.706,0,1,1,2.682,2.107l-8.032,10.228A1.7,1.7,0,0,1,105.292,189.267Z" transform="translate(-103.588 -175.627)" fill="#4c241d"/>
      </g>
      <g id="Grupo_145579" data-name="Grupo 145579" transform="translate(68.759 55.155)">
        <path id="Trazado_193565" data-name="Trazado 193565" d="M95.7,77.269a5.1,5.1,0,0,0,4.911,5.261h5.326V74H95.7Z" transform="translate(-93.992 -72.294)" fill="#c1dbdc"/>
        <path id="Trazado_193566" data-name="Trazado 193566" d="M103.641,81.943H98.314A6.806,6.806,0,0,1,91.7,74.975V71.706A1.706,1.706,0,0,1,93.4,70h10.236a1.706,1.706,0,0,1,1.706,1.706v8.53A1.706,1.706,0,0,1,103.641,81.943Zm-8.53-8.53v1.563a3.4,3.4,0,0,0,3.2,3.555h3.62V73.412Z" transform="translate(-91.698 -70)" fill="#2c2827"/>
      </g>
      <g id="Grupo_145580" data-name="Grupo 145580" transform="translate(51.698 73.922)">
        <path id="Trazado_193567" data-name="Trazado 193567" d="M65.934,152.122,55.7,147V118H65.934Z" transform="translate(-53.992 -116.294)" fill="#f18385"/>
        <path id="Trazado_193568" data-name="Trazado 193568" d="M63.641,151.534a1.712,1.712,0,0,1-.763-.18l-10.236-5.118a1.706,1.706,0,0,1-.943-1.526v-29A1.706,1.706,0,0,1,53.4,114H63.641a1.706,1.706,0,0,1,1.706,1.706v34.122a1.707,1.707,0,0,1-1.706,1.706Zm-8.53-7.879,6.824,3.412V117.412H55.11Z" transform="translate(-51.698 -114)"/>
      </g>
      <g id="Grupo_145581" data-name="Grupo 145581" transform="translate(63.641 48.331)">
        <path id="Trazado_193569" data-name="Trazado 193569" d="M92.228,58H90.522A6.824,6.824,0,0,0,83.7,64.824H99.053A6.824,6.824,0,0,0,92.228,58Z" transform="translate(-81.992 -56.294)" fill="#8ee5f6"/>
        <path id="Trazado_193570" data-name="Trazado 193570" d="M96.759,64.236H81.4A1.706,1.706,0,0,1,79.7,62.53,8.541,8.541,0,0,1,88.228,54h1.706a8.541,8.541,0,0,1,8.53,8.53A1.706,1.706,0,0,1,96.759,64.236ZM83.4,60.824H94.761a5.129,5.129,0,0,0-4.826-3.412H88.228A5.129,5.129,0,0,0,83.4,60.824Z" transform="translate(-79.698 -54)"/>
      </g>
      <g id="Grupo_145582" data-name="Grupo 145582" transform="translate(60.26 99.514)">
        <path id="Trazado_193571" data-name="Trazado 193571" d="M81.984,215.534l7.359-26.612,3.65,26.612H97.92V178H77.447l-1.674,37.534Z" transform="translate(-74.067 -176.295)" fill="#defaff"/>
        <path id="Trazado_193572" data-name="Trazado 193572" d="M95.626,214.947H90.7a1.7,1.7,0,0,1-1.689-1.474l-2.526-18.4L81.334,213.7a1.708,1.708,0,0,1-1.644,1.251H73.478a1.7,1.7,0,0,1-1.7-1.782l1.675-37.534a1.705,1.705,0,0,1,1.7-1.63H95.626a1.706,1.706,0,0,1,1.706,1.706v37.534A1.705,1.705,0,0,1,95.626,214.947Zm-3.439-3.412h1.733V177.413H76.784l-1.521,34.122h3.129L85.4,186.174a1.685,1.685,0,0,1,1.758-1.247,1.7,1.7,0,0,1,1.576,1.47Z" transform="translate(-71.772 -174.002)"/>
      </g>
      <g id="Grupo_145583" data-name="Grupo 145583" transform="translate(68.757 72.218)">
        <path id="Trazado_193573" data-name="Trazado 193573" d="M117.875,129.353H102.52a3.414,3.414,0,0,1-3.169-2.145l-3.412-8.53a3.413,3.413,0,0,1,6.338-2.534l2.554,6.385h13.044a3.412,3.412,0,0,1,0,6.824Z" transform="translate(-93.988 -112.294)" fill="#8ee5f6"/>
        <path id="Trazado_193574" data-name="Trazado 193574" d="M115.581,128.769H100.227a5.1,5.1,0,0,1-4.754-3.217l-3.412-8.53a5.119,5.119,0,0,1,9.505-3.8l2.126,5.314h11.889a5.118,5.118,0,1,1,0,10.236Zm-18.77-15.354a1.7,1.7,0,0,0-1.581,2.338l3.412,8.53a1.7,1.7,0,0,0,1.585,1.073h15.355a1.706,1.706,0,0,0,0-3.412H102.537a1.707,1.707,0,0,1-1.585-1.072L98.4,114.487A1.711,1.711,0,0,0,96.811,113.415Z" transform="translate(-91.695 -110.003)"/>
      </g>
      <g id="Grupo_145584" data-name="Grupo 145584" transform="translate(78.995 61.98)">
        <path id="Trazado_193575" data-name="Trazado 193575" d="M119.7,90h5.118v6.824H119.7Z" transform="translate(-117.992 -88.294)" fill="#fff"/>
        <path id="Trazado_193576" data-name="Trazado 193576" d="M122.522,96.236H117.4A1.706,1.706,0,0,1,115.7,94.53V87.706A1.706,1.706,0,0,1,117.4,86h5.118a1.706,1.706,0,0,1,1.706,1.706V94.53A1.706,1.706,0,0,1,122.522,96.236Zm-3.412-3.412h1.706V89.412H119.11Z" transform="translate(-115.698 -86)"/>
      </g>
      <g id="Grupo_145585" data-name="Grupo 145585" transform="translate(82.407 75.628)">
        <path id="Trazado_193577" data-name="Trazado 193577" d="M127.7,122h23.885v5.118H127.7Z" transform="translate(-125.992 -120.294)" fill="#fde9e0"/>
        <path id="Trazado_193578" data-name="Trazado 193578" d="M149.289,126.53H125.4a1.706,1.706,0,0,1-1.706-1.706v-5.118A1.706,1.706,0,0,1,125.4,118h23.885A1.706,1.706,0,0,1,151,119.706v5.118A1.706,1.706,0,0,1,149.289,126.53Zm-22.179-3.412h20.473v-1.706H127.11Z" transform="translate(-123.698 -118)"/>
      </g>
      <g id="Grupo_145590" data-name="Grupo 145590" transform="translate(53.404 53.448)">
        <path id="Trazado_193579" data-name="Trazado 193579" d="M181.4,125.355a1.706,1.706,0,0,1-1.706-1.706V111.706a1.706,1.706,0,0,1,3.412,0v11.943A1.706,1.706,0,0,1,181.4,125.355Z" transform="translate(-126.81 -91.232)"/>
        <g id="Grupo_145586" data-name="Grupo 145586" transform="translate(58.006)">
          <path id="Trazado_193580" data-name="Trazado 193580" d="M193.406,106.614a1.706,1.706,0,0,1-1.042-3.058l2.7-2.08a1.705,1.705,0,1,1,2.079,2.7l-2.7,2.08a1.69,1.69,0,0,1-1.038.354Z" transform="translate(-191.698 -86.14)"/>
          <path id="Trazado_193581" data-name="Trazado 193581" d="M212.851,88.671a1.706,1.706,0,0,1-1.042-3.058l5.59-4.3a1.705,1.705,0,1,1,2.079,2.7l-5.59,4.3a1.692,1.692,0,0,1-1.038.354Z" transform="translate(-202.849 -74.577)"/>
          <path id="Trazado_193582" data-name="Trazado 193582" d="M239.066,71.491a1.706,1.706,0,0,1-1.042-3.058l2.7-2.08a1.705,1.705,0,1,1,2.079,2.7l-2.7,2.08A1.69,1.69,0,0,1,239.066,71.491Z" transform="translate(-217.883 -65.998)"/>
        </g>
        <g id="Grupo_145587" data-name="Grupo 145587" transform="translate(59.712 15.357)">
          <path id="Trazado_193583" data-name="Trazado 193583" d="M197.4,120.154a1.706,1.706,0,0,1-.467-3.347l3.28-.937a1.706,1.706,0,1,1,.936,3.28l-3.28.937A1.7,1.7,0,0,1,197.4,120.154Z" transform="translate(-195.696 -109.917)"/>
          <path id="Trazado_193584" data-name="Trazado 193584" d="M218.631,113.13a1.706,1.706,0,0,1-.467-3.347l5.775-1.649a1.706,1.706,0,1,1,.936,3.28l-5.775,1.649a1.7,1.7,0,0,1-.47.067Z" transform="translate(-207.871 -105.481)"/>
          <path id="Trazado_193585" data-name="Trazado 193585" d="M245.709,106.352a1.706,1.706,0,0,1-.467-3.347l3.28-.937a1.706,1.706,0,1,1,.936,3.28l-3.28.937A1.7,1.7,0,0,1,245.709,106.352Z" transform="translate(-223.4 -102.003)"/>
        </g>
        <g id="Grupo_145588" data-name="Grupo 145588" transform="translate(58.006 32.416)">
          <path id="Trazado_193586" data-name="Trazado 193586" d="M196.106,147.491a1.694,1.694,0,0,1-1.038-.354l-2.7-2.08a1.705,1.705,0,1,1,2.079-2.7l2.7,2.08a1.705,1.705,0,0,1-1.041,3.058Z" transform="translate(-191.698 -141.998)"/>
          <path id="Trazado_193587" data-name="Trazado 193587" d="M218.438,164.67a1.693,1.693,0,0,1-1.038-.354l-5.59-4.3a1.705,1.705,0,1,1,2.079-2.7l5.59,4.3a1.705,1.705,0,0,1-1.041,3.058Z" transform="translate(-202.849 -150.576)"/>
          <path id="Trazado_193588" data-name="Trazado 193588" d="M241.766,182.614a1.694,1.694,0,0,1-1.038-.354l-2.7-2.08a1.705,1.705,0,1,1,2.079-2.7l2.7,2.08a1.705,1.705,0,0,1-1.041,3.058Z" transform="translate(-217.883 -162.14)"/>
        </g>
        <g id="Grupo_145589" data-name="Grupo 145589" transform="translate(59.712 27.299)">
          <path id="Trazado_193589" data-name="Trazado 193589" d="M200.685,134.351a1.7,1.7,0,0,1-.47-.067l-3.28-.937a1.706,1.706,0,1,1,.936-3.28l3.28.937a1.706,1.706,0,0,1-.466,3.347Z" transform="translate(-195.696 -130.001)"/>
          <path id="Trazado_193590" data-name="Trazado 193590" d="M224.409,141.129a1.7,1.7,0,0,1-.47-.067l-5.775-1.649a1.706,1.706,0,1,1,.936-3.28l5.775,1.649a1.706,1.706,0,0,1-.466,3.347Z" transform="translate(-207.871 -133.479)"/>
          <path id="Trazado_193591" data-name="Trazado 193591" d="M248.994,148.153a1.7,1.7,0,0,1-.47-.067l-3.28-.937a1.706,1.706,0,1,1,.936-3.28l3.28.937a1.706,1.706,0,0,1-.466,3.347Z" transform="translate(-223.4 -137.916)"/>
        </g>
        <path id="Trazado_193592" data-name="Trazado 193592" d="M132.471,265.412H57.4a1.706,1.706,0,0,1,0-3.412h75.067a1.706,1.706,0,0,1,0,3.412Z" transform="translate(-55.698 -178.401)"/>
      </g>
    </g>
  </g>
</svg>
